<?xml version="1.0" encoding="UTF-8"?>
<!DOCTYPE svg PUBLIC "-//W3C//DTD SVG 1.1//EN" "http://www.w3.org/Graphics/SVG/1.1/DTD/svg11.dtd">
<svg xmlns="http://www.w3.org/2000/svg" version="1.1" width="80px" height="80px" style="shape-rendering:geometricPrecision; text-rendering:geometricPrecision; image-rendering:optimizeQuality; fill-rule:evenodd; clip-rule:evenodd" xmlns:xlink="http://www.w3.org/1999/xlink">
<g><path style="opacity:1" fill="#19a758" d="M 67.5,62.5 C 66.6364,63.6883 65.6364,64.8549 64.5,66C 58.4805,66.9405 52.4805,67.9405 46.5,69C 44.0243,70.3088 42.0243,72.1421 40.5,74.5C 38.9757,72.1421 36.9757,70.3088 34.5,69C 29.1886,67.9277 23.8553,66.9277 18.5,66C 16.313,64.975 14.6464,63.475 13.5,61.5C 13.5,42.5 13.5,23.5 13.5,4.5C 31.5,4.5 49.5,4.5 67.5,4.5C 67.5,23.8333 67.5,43.1667 67.5,62.5 Z"/></g>
<g><path style="opacity:0.2" fill="#73b790" d="M 71.5,6.5 C 70.8454,25.2646 70.1787,43.9313 69.5,62.5C 68.8462,43.4701 69.5129,24.8034 71.5,6.5 Z"/></g>
<g><path style="opacity:0.259" fill="#52b67b" d="M 71.5,6.5 C 69.5129,24.8034 68.8462,43.4701 69.5,62.5C 69.5,62.8333 69.5,63.1667 69.5,63.5C 68.8333,63.5 68.5,63.1667 68.5,62.5C 68.5,42.8333 68.5,23.1667 68.5,3.5C 49.8333,3.5 31.1667,3.5 12.5,3.5C 12.5,22.8333 12.5,42.1667 12.5,61.5C 12.5,62.1667 12.1667,62.5 11.5,62.5C 10.6798,44.24 10.1798,25.9067 10,7.5C 8.28165,5.79787 8.11498,3.96453 9.5,2C 30.1667,1.33333 50.8333,1.33333 71.5,2C 72.8009,3.61552 72.8009,5.11552 71.5,6.5 Z"/></g>
<g><path style="opacity:1" fill="#b1e0c6" d="M 68.5,62.5 C 68.1667,62.5 67.8333,62.5 67.5,62.5C 67.5,43.1667 67.5,23.8333 67.5,4.5C 49.5,4.5 31.5,4.5 13.5,4.5C 13.5,23.5 13.5,42.5 13.5,61.5C 13.1667,61.5 12.8333,61.5 12.5,61.5C 12.5,42.1667 12.5,22.8333 12.5,3.5C 31.1667,3.5 49.8333,3.5 68.5,3.5C 68.5,23.1667 68.5,42.8333 68.5,62.5 Z"/></g>
<g><path style="opacity:1" fill="#e3463e" d="M 20.5,7.5 C 16.9302,10.0412 16.5969,13.0412 19.5,16.5C 23.5261,18.4536 26.1927,17.4536 27.5,13.5C 25.8002,13.6261 24.3002,14.2927 23,15.5C 20.4103,14.3132 19.9103,12.4798 21.5,10C 23.5868,10.2179 25.5868,10.0512 27.5,9.5C 26.9953,8.08149 25.9953,7.41483 24.5,7.5C 29.1667,6.16667 33.8333,6.16667 38.5,7.5C 36.9236,10.6548 35.9236,13.9882 35.5,17.5C 37.2769,17.2137 38.9436,16.5471 40.5,15.5C 42.0564,16.5471 43.7231,17.2137 45.5,17.5C 44.8991,14.0321 43.8991,10.6988 42.5,7.5C 47.1667,6.16667 51.8333,6.16667 56.5,7.5C 55.1734,10.4707 53.8401,13.4707 52.5,16.5C 53.1667,16.8333 53.8333,17.1667 54.5,17.5C 55.8333,16.8333 57.1667,16.1667 58.5,15.5C 60.0564,16.5471 61.7231,17.2137 63.5,17.5C 62.9009,14.0369 61.9009,10.7036 60.5,7.5C 61.9187,6.54885 63.5853,6.21552 65.5,6.5C 65.5,10.5 65.5,14.5 65.5,18.5C 48.8333,19.8333 32.1667,19.8333 15.5,18.5C 15.5,14.5 15.5,10.5 15.5,6.5C 17.4147,6.21552 19.0813,6.54885 20.5,7.5 Z"/></g>
<g><path style="opacity:1" fill="#a5674d" d="M 65.5,18.5 C 65.5,14.5 65.5,10.5 65.5,6.5C 63.5853,6.21552 61.9187,6.54885 60.5,7.5C 59.1667,7.5 57.8333,7.5 56.5,7.5C 51.8333,6.16667 47.1667,6.16667 42.5,7.5C 41.1667,7.5 39.8333,7.5 38.5,7.5C 33.8333,6.16667 29.1667,6.16667 24.5,7.5C 23.1667,7.5 21.8333,7.5 20.5,7.5C 19.0813,6.54885 17.4147,6.21552 15.5,6.5C 15.5,10.5 15.5,14.5 15.5,18.5C 14.5151,14.3656 14.1818,10.0323 14.5,5.5C 31.8333,5.5 49.1667,5.5 66.5,5.5C 66.8182,10.0323 66.4849,14.3656 65.5,18.5 Z"/></g>
<g><path style="opacity:1" fill="#fbebeb" d="M 56.5,7.5 C 57.8333,7.5 59.1667,7.5 60.5,7.5C 61.9009,10.7036 62.9009,14.0369 63.5,17.5C 61.7231,17.2137 60.0564,16.5471 58.5,15.5C 57.1667,16.1667 55.8333,16.8333 54.5,17.5C 53.8333,17.1667 53.1667,16.8333 52.5,16.5C 53.8401,13.4707 55.1734,10.4707 56.5,7.5 Z"/></g>
<g><path style="opacity:1" fill="#fce7e6" d="M 38.5,7.5 C 39.8333,7.5 41.1667,7.5 42.5,7.5C 43.8991,10.6988 44.8991,14.0321 45.5,17.5C 43.7231,17.2137 42.0564,16.5471 40.5,15.5C 38.9436,16.5471 37.2769,17.2137 35.5,17.5C 35.9236,13.9882 36.9236,10.6548 38.5,7.5 Z"/></g>
<g><path style="opacity:1" fill="#fbebeb" d="M 20.5,7.5 C 21.8333,7.5 23.1667,7.5 24.5,7.5C 25.9953,7.41483 26.9953,8.08149 27.5,9.5C 25.5868,10.0512 23.5868,10.2179 21.5,10C 19.9103,12.4798 20.4103,14.3132 23,15.5C 24.3002,14.2927 25.8002,13.6261 27.5,13.5C 26.1927,17.4536 23.5261,18.4536 19.5,16.5C 16.5969,13.0412 16.9302,10.0412 20.5,7.5 Z"/></g>
<g><path style="opacity:1" fill="#ed7271" d="M 57.5,10.5 C 59.332,11.1405 59.6653,12.1405 58.5,13.5C 57.6143,12.675 57.281,11.675 57.5,10.5 Z"/></g>
<g><path style="opacity:1" fill="#c9483b" d="M 22.5,21.5 C 22.184,36.245 22.5174,50.9116 23.5,65.5C 22.1693,58.5318 21.5026,51.1984 21.5,43.5C 21.5003,35.9922 21.8336,28.6589 22.5,21.5 Z"/></g>
<g><path style="opacity:1" fill="#e23f38" d="M 22.5,21.5 C 24.8333,21.5 27.1667,21.5 29.5,21.5C 29.5,36.1667 29.5,50.8333 29.5,65.5C 27.5,65.5 25.5,65.5 23.5,65.5C 22.5174,50.9116 22.184,36.245 22.5,21.5 Z"/></g>
<g><path style="opacity:1" fill="#e23c38" d="M 36.5,21.5 C 39.1667,21.5 41.8333,21.5 44.5,21.5C 44.6666,37.1702 44.4999,52.8369 44,68.5C 41.6667,72.5 39.3333,72.5 37,68.5C 36.5001,52.8369 36.3334,37.1702 36.5,21.5 Z"/></g>
<g><path style="opacity:1" fill="#df4039" d="M 51.5,21.5 C 54.1667,21.5 56.8333,21.5 59.5,21.5C 59.5,36.1667 59.5,50.8333 59.5,65.5C 56.8333,65.5 54.1667,65.5 51.5,65.5C 51.5,50.8333 51.5,36.1667 51.5,21.5 Z"/></g>
<g><path style="opacity:0.612" fill="#7dca9d" d="M 12.5,61.5 C 12.8333,61.5 13.1667,61.5 13.5,61.5C 14.6464,63.475 16.313,64.975 18.5,66C 23.8553,66.9277 29.1886,67.9277 34.5,69C 36.9757,70.3088 38.9757,72.1421 40.5,74.5C 42.0243,72.1421 44.0243,70.3088 46.5,69C 52.4805,67.9405 58.4805,66.9405 64.5,66C 65.6364,64.8549 66.6364,63.6883 67.5,62.5C 67.8333,62.5 68.1667,62.5 68.5,62.5C 68.5,63.1667 68.8333,63.5 69.5,63.5C 68.7457,66.091 67.079,67.9243 64.5,69C 57.9312,69.4422 51.5979,70.7755 45.5,73C 43.7794,74.9438 42.446,77.1105 41.5,79.5C 40.8333,79.5 40.1667,79.5 39.5,79.5C 38.4187,77.236 37.0854,75.0693 35.5,73C 29.0196,70.6956 22.353,69.0289 15.5,68C 13.5359,66.549 12.2026,64.7157 11.5,62.5C 12.1667,62.5 12.5,62.1667 12.5,61.5 Z"/></g>
</svg>
