<?xml version="1.0" encoding="UTF-8"?>
<!DOCTYPE svg PUBLIC "-//W3C//DTD SVG 1.1//EN" "http://www.w3.org/Graphics/SVG/1.1/DTD/svg11.dtd">
<svg xmlns="http://www.w3.org/2000/svg" version="1.1" width="80px" height="80px" style="shape-rendering:geometricPrecision; text-rendering:geometricPrecision; image-rendering:optimizeQuality; fill-rule:evenodd; clip-rule:evenodd" xmlns:xlink="http://www.w3.org/1999/xlink">
<g><path style="opacity:1" fill="#262320" d="M 79.5,35.5 C 79.5,40.5 79.5,45.5 79.5,50.5C 72.2417,71.3082 57.575,79.4749 35.5,75C 33.5087,74.6264 31.842,73.793 30.5,72.5C 31.5,72.5 32.5,72.5 33.5,72.5C 35.8056,72.9926 38.139,73.3259 40.5,73.5C 45.2303,73.7166 49.8969,73.3833 54.5,72.5C 71.8433,66.8388 79.3433,54.8388 77,36.5C 76.3886,31.2768 74.2219,26.9435 70.5,23.5C 68.8987,21.1469 66.8987,18.9802 64.5,17C 63.255,16.2086 61.9217,15.7086 60.5,15.5C 57.855,13.6896 54.855,12.6896 51.5,12.5C 47.8333,11.1667 44.1667,11.1667 40.5,12.5C 39.8333,12.5 39.1667,12.5 38.5,12.5C 36.597,12.7959 34.9303,13.4625 33.5,14.5C 27.5748,15.3856 23.7415,18.719 22,24.5C 19.7286,33.6725 18.8952,43.0058 19.5,52.5C 18.0762,54.5145 17.4095,56.8478 17.5,59.5C 16.8333,59.5 16.5,59.8333 16.5,60.5C 13.9038,64.5823 10.2371,67.4156 5.5,69C 8.27841,70.3919 11.2784,70.8919 14.5,70.5C 17.7899,72.0907 21.1232,73.7573 24.5,75.5C 25.5676,76.4345 26.901,76.7678 28.5,76.5C 28.822,74.2776 28.1554,72.4443 26.5,71C 27.9976,70.4153 28.9976,70.9153 29.5,72.5C 32.7816,77.3993 31.4483,79.2327 25.5,78C 21.7683,77.6345 18.7683,75.9678 16.5,73C 12.8333,72.6667 9.16667,72.3333 5.5,72C 2.78539,71.1253 1.45206,69.2919 1.5,66.5C 7.8448,66.6654 12.1781,63.832 14.5,58C 11.1761,49.252 10.8428,40.4186 13.5,31.5C 11.9547,30.5481 10.288,30.2148 8.5,30.5C 10.1094,22.3968 15.1094,17.8968 23.5,17C 26.5879,11.8238 30.5879,7.49052 35.5,4C 39.502,3.4366 41.1687,5.26993 40.5,9.5C 60.5636,8.00587 73.5636,16.6725 79.5,35.5 Z"/></g>
<g><path style="opacity:1" fill="#2a2622" d="M 59.5,19.5 C 62.8695,20.5592 64.5361,22.8925 64.5,26.5C 63.1266,26.6567 61.7932,26.49 60.5,26C 59.8366,24.4815 58.8366,23.3149 57.5,22.5C 53.032,22.7483 51.532,25.0817 53,29.5C 53.6708,30.2524 54.5041,30.5858 55.5,30.5C 58.1,28.9213 60.4334,29.2547 62.5,31.5C 60.0798,34.0772 57.0798,35.0772 53.5,34.5C 46.5256,30.1311 45.8589,24.9644 51.5,19C 54.2205,18.3985 56.8872,18.5651 59.5,19.5 Z"/></g>
<g><path style="opacity:1" fill="#6cac4e" d="M 60.5,15.5 C 61.9217,15.7086 63.255,16.2086 64.5,17C 66.8987,18.9802 68.8987,21.1469 70.5,23.5C 64.7613,39.7158 59.428,56.0491 54.5,72.5C 49.8969,73.3833 45.2303,73.7166 40.5,73.5C 40.5172,71.4352 40.8505,69.4352 41.5,67.5C 43.9118,67.6941 44.9118,69.0274 44.5,71.5C 45.8333,71.5 47.1667,71.5 48.5,71.5C 48.6659,66.4889 48.4993,61.4889 48,56.5C 47.6174,55.944 47.1174,55.6107 46.5,55.5C 46.6036,53.2972 47.2702,51.2972 48.5,49.5C 50.1042,50.287 50.7709,51.6203 50.5,53.5C 51.5,53.5 52.5,53.5 53.5,53.5C 53.56,54.0431 53.8933,54.3764 54.5,54.5C 55.8147,49.0136 55.8147,43.6803 54.5,38.5C 53.8333,38.1667 53.1667,37.8333 52.5,37.5C 52.5569,36.391 52.8902,35.391 53.5,34.5C 57.0798,35.0772 60.0798,34.0772 62.5,31.5C 60.4334,29.2547 58.1,28.9213 55.5,30.5C 55.9628,27.779 56.6295,25.1123 57.5,22.5C 58.8366,23.3149 59.8366,24.4815 60.5,26C 61.7932,26.49 63.1266,26.6567 64.5,26.5C 64.5361,22.8925 62.8695,20.5592 59.5,19.5C 59.4326,18.0413 59.7659,16.7079 60.5,15.5 Z"/></g>
<g><path style="opacity:1" fill="#6bac4e" d="M 33.5,14.5 C 29.0076,27.3186 24.341,39.9852 19.5,52.5C 18.8952,43.0058 19.7286,33.6725 22,24.5C 23.7415,18.719 27.5748,15.3856 33.5,14.5 Z"/></g>
<g><path style="opacity:1" fill="#d2a232" d="M 38.5,12.5 C 38.3796,17.9369 37.5463,23.2703 36,28.5C 32,37.1667 28,45.8333 24,54.5C 23.6667,58.1667 23.3333,61.8333 23,65.5C 21.2476,63.6491 19.7476,61.6491 18.5,59.5C 18.9926,57.1944 19.3259,54.861 19.5,52.5C 24.341,39.9852 29.0076,27.3186 33.5,14.5C 34.9303,13.4625 36.597,12.7959 38.5,12.5 Z"/></g>
<g><path style="opacity:1" fill="#d1a132" d="M 51.5,12.5 C 54.855,12.6896 57.855,13.6896 60.5,15.5C 59.7659,16.7079 59.4326,18.0413 59.5,19.5C 56.8872,18.5651 54.2205,18.3985 51.5,19C 45.8589,24.9644 46.5256,30.1311 53.5,34.5C 52.8902,35.391 52.5569,36.391 52.5,37.5C 51.5041,37.5858 50.6708,37.2524 50,36.5C 46.3833,40.2386 42.8833,44.0719 39.5,48C 42.4121,49.0223 45.4121,49.5223 48.5,49.5C 47.2702,51.2972 46.6036,53.2972 46.5,55.5C 45.1526,54.9717 43.8193,54.805 42.5,55C 39.536,58.9658 36.2026,62.6325 32.5,66C 35.4376,67.2256 38.4376,67.7256 41.5,67.5C 40.8505,69.4352 40.5172,71.4352 40.5,73.5C 38.139,73.3259 35.8056,72.9926 33.5,72.5C 32.0351,71.2632 30.3684,70.2632 28.5,69.5C 34.0761,51.004 40.2427,32.6706 47,14.5C 48.049,12.8934 49.549,12.2267 51.5,12.5 Z"/></g>
<g><path style="opacity:1" fill="#6aa94d" d="M 51.5,12.5 C 49.549,12.2267 48.049,12.8934 47,14.5C 40.2427,32.6706 34.0761,51.004 28.5,69.5C 24.9137,66.3436 23.747,62.3436 25,57.5C 28.1876,48.126 32.1876,39.126 37,30.5C 39.4409,24.7384 40.6076,18.7384 40.5,12.5C 44.1667,11.1667 47.8333,11.1667 51.5,12.5 Z"/></g>
<g><path style="opacity:1" fill="#74a348" d="M 36.5,6.5 C 36.1075,8.2838 35.4408,9.95047 34.5,11.5C 33.7109,11.2172 33.0442,10.7172 32.5,10C 33.7051,8.62439 35.0384,7.45773 36.5,6.5 Z"/></g>
<g><path style="opacity:1" fill="#bc9230" d="M 36.5,6.5 C 38.2132,7.63535 38.8799,9.30202 38.5,11.5C 37.1667,11.5 35.8333,11.5 34.5,11.5C 35.4408,9.95047 36.1075,8.2838 36.5,6.5 Z"/></g>
<g><path style="opacity:1" fill="#d0a032" d="M 57.5,22.5 C 56.6295,25.1123 55.9628,27.779 55.5,30.5C 54.5041,30.5858 53.6708,30.2524 53,29.5C 51.532,25.0817 53.032,22.7483 57.5,22.5 Z"/></g>
<g><path style="opacity:1" fill="#63a04a" d="M 18.5,20.5 C 19.2389,20.369 19.9056,20.5357 20.5,21C 18.1898,22.6374 16.6898,24.804 16,27.5C 14.5064,28.7472 13.0064,28.7472 11.5,27.5C 13.5482,24.785 15.8816,22.4517 18.5,20.5 Z"/></g>
<g><path style="opacity:1" fill="#d5a332" d="M 70.5,23.5 C 74.2219,26.9435 76.3886,31.2768 77,36.5C 79.3433,54.8388 71.8433,66.8388 54.5,72.5C 59.428,56.0491 64.7613,39.7158 70.5,23.5 Z"/></g>
<g><path style="opacity:1" fill="#a8812d" d="M 19.5,23.5 C 20.5316,25.503 20.1982,27.503 18.5,29.5C 17.5307,27.3835 17.864,25.3835 19.5,23.5 Z"/></g>
<g><path style="opacity:1" fill="#86682a" d="M 17.5,35.5 C 17.6567,34.1266 17.49,32.7932 17,31.5C 16.6174,32.056 16.1174,32.3893 15.5,32.5C 15.8212,30.9519 16.8212,30.2852 18.5,30.5C 18.7845,32.4147 18.4511,34.0813 17.5,35.5 Z"/></g>
<g><path style="opacity:1" fill="#cf9d31" d="M 17.5,35.5 C 17.6661,41.1764 17.4994,46.8431 17,52.5C 16.3333,53.8333 15.6667,53.8333 15,52.5C 14.2075,45.7526 14.3742,39.0859 15.5,32.5C 16.1174,32.3893 16.6174,32.056 17,31.5C 17.49,32.7932 17.6567,34.1266 17.5,35.5 Z"/></g>
<g><path style="opacity:1" fill="#332f24" d="M 38.5,12.5 C 39.1667,12.5 39.8333,12.5 40.5,12.5C 40.6076,18.7384 39.4409,24.7384 37,30.5C 32.1876,39.126 28.1876,48.126 25,57.5C 23.747,62.3436 24.9137,66.3436 28.5,69.5C 30.3684,70.2632 32.0351,71.2632 33.5,72.5C 32.5,72.5 31.5,72.5 30.5,72.5C 30.1667,72.5 29.8333,72.5 29.5,72.5C 28.9976,70.9153 27.9976,70.4153 26.5,71C 28.1554,72.4443 28.822,74.2776 28.5,76.5C 26.901,76.7678 25.5676,76.4345 24.5,75.5C 25.552,75.6495 26.552,75.4828 27.5,75C 25.106,69.7771 21.7726,65.2771 17.5,61.5C 17.5,60.8333 17.1667,60.5 16.5,60.5C 16.5,59.8333 16.8333,59.5 17.5,59.5C 17.8333,59.5 18.1667,59.5 18.5,59.5C 19.7476,61.6491 21.2476,63.6491 23,65.5C 23.3333,61.8333 23.6667,58.1667 24,54.5C 28,45.8333 32,37.1667 36,28.5C 37.5463,23.2703 38.3796,17.9369 38.5,12.5 Z"/></g>
<g><path style="opacity:1" fill="#262321" d="M 52.5,37.5 C 53.1667,37.8333 53.8333,38.1667 54.5,38.5C 54.8205,43.6946 54.4872,48.6946 53.5,53.5C 52.5,53.5 51.5,53.5 50.5,53.5C 50.7709,51.6203 50.1042,50.287 48.5,49.5C 45.4121,49.5223 42.4121,49.0223 39.5,48C 42.8833,44.0719 46.3833,40.2386 50,36.5C 50.6708,37.2524 51.5041,37.5858 52.5,37.5 Z"/></g>
<g><path style="opacity:1" fill="#a78d33" d="M 49.5,42.5 C 50.4345,43.5676 50.7678,44.901 50.5,46.5C 49.448,46.6495 48.448,46.4828 47.5,46C 48.305,44.8873 48.9717,43.7206 49.5,42.5 Z"/></g>
<g><path style="opacity:1" fill="#3b5030" d="M 54.5,38.5 C 55.8147,43.6803 55.8147,49.0136 54.5,54.5C 53.8933,54.3764 53.56,54.0431 53.5,53.5C 54.4872,48.6946 54.8205,43.6946 54.5,38.5 Z"/></g>
<g><path style="opacity:1" fill="#292421" d="M 46.5,55.5 C 47.1174,55.6107 47.6174,55.944 48,56.5C 48.4993,61.4889 48.6659,66.4889 48.5,71.5C 47.1667,71.5 45.8333,71.5 44.5,71.5C 44.9118,69.0274 43.9118,67.6941 41.5,67.5C 38.4376,67.7256 35.4376,67.2256 32.5,66C 36.2026,62.6325 39.536,58.9658 42.5,55C 43.8193,54.805 45.1526,54.9717 46.5,55.5 Z"/></g>
<g><path style="opacity:1" fill="#63843e" d="M 19.5,52.5 C 19.3259,54.861 18.9926,57.1944 18.5,59.5C 18.1667,59.5 17.8333,59.5 17.5,59.5C 17.4095,56.8478 18.0762,54.5145 19.5,52.5 Z"/></g>
<g><path style="opacity:1" fill="#68a44b" d="M 16.5,60.5 C 17.1667,60.5 17.5,60.8333 17.5,61.5C 15.9281,64.2154 14.9281,67.2154 14.5,70.5C 11.2784,70.8919 8.27841,70.3919 5.5,69C 10.2371,67.4156 13.9038,64.5823 16.5,60.5 Z"/></g>
<g><path style="opacity:1" fill="#cd9d31" d="M 17.5,61.5 C 21.7726,65.2771 25.106,69.7771 27.5,75C 26.552,75.4828 25.552,75.6495 24.5,75.5C 21.1232,73.7573 17.7899,72.0907 14.5,70.5C 14.9281,67.2154 15.9281,64.2154 17.5,61.5 Z"/></g>
<g><path style="opacity:1" fill="#847932" d="M 43.5,60.5 C 44.4345,61.5676 44.7678,62.901 44.5,64.5C 43.325,64.719 42.325,64.3857 41.5,63.5C 42.1925,62.4822 42.8592,61.4822 43.5,60.5 Z"/></g>
</svg>
