<?xml version="1.0" encoding="UTF-8"?>
<!DOCTYPE svg PUBLIC "-//W3C//DTD SVG 1.1//EN" "http://www.w3.org/Graphics/SVG/1.1/DTD/svg11.dtd">
<svg xmlns="http://www.w3.org/2000/svg" version="1.1" width="80px" height="80px" style="shape-rendering:geometricPrecision; text-rendering:geometricPrecision; image-rendering:optimizeQuality; fill-rule:evenodd; clip-rule:evenodd" xmlns:xlink="http://www.w3.org/1999/xlink">
<g><path style="opacity:0.883" fill="#0f0f0f" d="M 79.5,16.5 C 79.5,16.8333 79.5,17.1667 79.5,17.5C 76.4789,20.3664 73.9789,23.6997 72,27.5C 70.796,35.7723 70.1293,44.1056 70,52.5C 69.7072,57.3899 67.8739,61.5565 64.5,65C 56.769,69.858 49.1023,74.6914 41.5,79.5C 40.8333,79.5 40.1667,79.5 39.5,79.5C 30.6354,74.477 22.1354,68.8103 14,62.5C 12.4379,60.0427 11.4379,57.376 11,54.5C 10.8392,45.7827 10.1725,37.1161 9,28.5C 7.50089,24.174 5.00089,20.5073 1.5,17.5C 5.14669,11.86 9.14669,6.52663 13.5,1.5C 31.3426,8.14325 49.1759,8.14325 67,1.5C 71.3839,6.37807 75.5505,11.3781 79.5,16.5 Z"/></g>
<g><path style="opacity:1" fill="#f8f8f8" d="M 13.5,5.5 C 17.974,7.09879 22.6406,8.26546 27.5,9C 38.6212,9.78099 49.6212,9.44766 60.5,8C 45.2786,21.5225 29.7786,34.6892 14,47.5C 13.6667,41.5 13.3333,35.5 13,29.5C 11.4987,24.9977 9.33203,20.8311 6.5,17C 8.9747,13.2106 11.308,9.37725 13.5,5.5 Z"/></g>
<g><path style="opacity:1" fill="#c8c8c8" d="M 68.5,15.5 C 66.0504,15.702 63.717,15.3686 61.5,14.5C 61.2479,11.0682 62.5812,10.0682 65.5,11.5C 64.9747,12.1924 64.3081,12.6924 63.5,13C 65.744,13.0496 67.4107,13.8829 68.5,15.5 Z"/></g>
<g><path style="opacity:1" fill="#cdcdcd" d="M 68.5,15.5 C 70.0847,16.0024 70.5847,17.0024 70,18.5C 68.5064,19.7472 67.0064,19.7472 65.5,18.5C 66.9935,17.8589 67.9935,16.8589 68.5,15.5 Z"/></g>
<g><path style="opacity:1" fill="#c9c9c9" d="M 61.5,14.5 C 62.1286,17.3751 62.9619,20.0417 64,22.5C 61.5913,20.3799 59.0913,18.3799 56.5,16.5C 57.5874,15.895 58.754,16.2283 60,17.5C 60.4922,16.451 60.3256,15.451 59.5,14.5C 59.9698,13.537 60.6365,13.537 61.5,14.5 Z"/></g>
<g><path style="opacity:1" fill="#fafafa" d="M 68.5,23.5 C 69.0431,23.56 69.3764,23.8933 69.5,24.5C 68.5682,26.7954 67.7348,29.1287 67,31.5C 66.6667,39.8333 66.3333,48.1667 66,56.5C 65.2078,58.5873 64.0412,60.4207 62.5,62C 55.2988,66.6983 47.9654,71.1983 40.5,75.5C 34.1667,71.6667 27.8333,67.8333 21.5,64C 37.2383,50.4822 52.905,36.9822 68.5,23.5 Z"/></g>
<g><path style="opacity:1" fill="#cacaca" d="M 52.5,18.5 C 58.7068,18.3728 61.3735,21.3728 60.5,27.5C 59.1667,27.5 57.8333,27.5 56.5,27.5C 56.7229,30.1142 55.5562,31.7809 53,32.5C 51.0227,29.6884 48.856,27.0217 46.5,24.5C 47.4383,23.4471 48.605,22.7804 50,22.5C 51.4446,23.7418 52.9446,24.5751 54.5,25C 52.9837,23.103 52.317,20.9363 52.5,18.5 Z"/></g>
<g><path style="opacity:1" fill="#252525" d="M 48.5,25.5 C 49.3864,24.2241 50.3864,24.2241 51.5,25.5C 50.5754,26.5624 49.5754,26.5624 48.5,25.5 Z"/></g>
<g><path style="opacity:1" fill="#1a1a1a" d="M 54.5,20.5 C 57.3213,20.3159 58.9879,21.6493 59.5,24.5C 56.2125,25.5683 54.5458,24.2349 54.5,20.5 Z"/></g>
<g><path style="opacity:1" fill="#343434" d="M 51.5,27.5 C 52.675,27.281 53.675,27.6143 54.5,28.5C 52.9483,29.7979 51.9483,29.4646 51.5,27.5 Z"/></g>
<g><path style="opacity:1" fill="#b5b5b5" d="M 40.5,28.5 C 42.5837,30.0767 44.5837,31.91 46.5,34C 47.9506,33.7374 49.2839,33.9041 50.5,34.5C 48.3932,36.7267 46.0599,38.7267 43.5,40.5C 40.8278,38.3274 38.4945,35.8274 36.5,33C 37.1667,32.3333 37.8333,32.3333 38.5,33C 39.8804,34.9252 41.3804,36.7585 43,38.5C 43.8333,37.6667 44.6667,36.8333 45.5,36C 43.5854,33.6004 41.9188,31.1004 40.5,28.5 Z"/></g>
<g><path style="opacity:1" fill="#c5c5c5" d="M 33.5,35.5 C 39.6711,36.7234 41.1711,39.7234 38,44.5C 35.9617,41.7568 34.4617,38.7568 33.5,35.5 Z"/></g>
<g><path style="opacity:1" fill="#b9b9b9" d="M 24.5,43.5 C 27.7078,43.1737 30.5411,44.507 33,47.5C 33.7431,45.3553 34.5765,45.1886 35.5,47C 34.9915,48.1685 34.1581,49.0019 33,49.5C 31.8173,48.269 30.6507,48.269 29.5,49.5C 30.3256,50.451 30.4922,51.451 30,52.5C 28.1412,49.4362 26.3079,46.4362 24.5,43.5 Z"/></g>
<g><path style="opacity:1" fill="#c0c0c0" d="M 18.5,47.5 C 23.1103,47.5959 23.4436,48.5959 19.5,50.5C 20.5,52.1667 21.8333,53.5 23.5,54.5C 24.2508,53.624 24.7508,52.624 25,51.5C 27.2895,55.7132 26.1229,57.0465 21.5,55.5C 20.5197,54.0186 19.353,52.6853 18,51.5C 17.4209,50.0715 17.5876,48.7382 18.5,47.5 Z"/></g>
</svg>
