<?xml version="1.0" encoding="UTF-8"?>
<!DOCTYPE svg PUBLIC "-//W3C//DTD SVG 1.1//EN" "http://www.w3.org/Graphics/SVG/1.1/DTD/svg11.dtd">
<svg xmlns="http://www.w3.org/2000/svg" version="1.1" width="80px" height="80px" style="shape-rendering:geometricPrecision; text-rendering:geometricPrecision; image-rendering:optimizeQuality; fill-rule:evenodd; clip-rule:evenodd" xmlns:xlink="http://www.w3.org/1999/xlink">
<g><path style="opacity:0.218" fill="#f7f7f7" d="M 41.5,10.5 C 37.072,13.879 32.072,15.879 26.5,16.5C 25.8333,16.5 25.1667,16.5 24.5,16.5C 30.2167,15.3145 35.55,12.9812 40.5,9.5C 41.1067,9.62358 41.44,9.95691 41.5,10.5 Z"/></g>
<g><path style="opacity:0.049" fill="#f3f3f3" d="M 45.5,13.5 C 49.0477,14.1301 52.3811,15.1301 55.5,16.5C 51.7144,16.68 48.381,15.68 45.5,13.5 Z"/></g>
<g><path style="opacity:1" fill="#abaaae" d="M 41.5,10.5 C 42.8717,11.5116 44.205,12.5116 45.5,13.5C 48.381,15.68 51.7144,16.68 55.5,16.5C 59.1667,16.5 62.8333,16.5 66.5,16.5C 62.6877,17.3238 58.6877,17.8238 54.5,18C 58.1516,18.4986 61.8183,18.6653 65.5,18.5C 65.8128,22.0419 65.4794,25.3752 64.5,28.5C 64.8016,25.9407 64.4682,23.6074 63.5,21.5C 63.6716,20.5084 63.3382,19.8417 62.5,19.5C 60.5,19.5 58.5,19.5 56.5,19.5C 56.5,20.5 56.5,21.5 56.5,22.5C 56.1898,24.1436 55.1898,25.1436 53.5,25.5C 53.5,23.1667 53.5,20.8333 53.5,18.5C 51.1732,18.3354 49.0065,17.6687 47,16.5C 46.5012,20.4862 46.3345,24.4862 46.5,28.5C 45.8333,24.1667 45.1667,19.8333 44.5,15.5C 42.9557,15.2969 41.6223,14.6302 40.5,13.5C 39.1401,14.1799 37.8068,14.8466 36.5,15.5C 35.5084,15.3284 34.8417,15.6618 34.5,16.5C 32.7839,16.6287 31.1172,16.962 29.5,17.5C 28.209,17.7373 27.209,17.404 26.5,16.5C 32.072,15.879 37.072,13.879 41.5,10.5 Z"/></g>
<g><path style="opacity:1" fill="#5f5957" d="M 44.5,15.5 C 44.5,20.1667 44.5,24.8333 44.5,29.5C 41.9476,30.6935 39.4476,32.0268 37,33.5C 36.5005,27.5092 36.3338,21.5092 36.5,15.5C 37.8068,14.8466 39.1401,14.1799 40.5,13.5C 41.6223,14.6302 42.9557,15.2969 44.5,15.5 Z"/></g>
<g><path style="opacity:1" fill="#f3f4f4" d="M 44.5,15.5 C 45.1667,19.8333 45.8333,24.1667 46.5,28.5C 46.1583,29.3382 45.4916,29.6716 44.5,29.5C 44.5,24.8333 44.5,20.1667 44.5,15.5 Z"/></g>
<g><path style="opacity:0.98" fill="#838181" d="M 13.5,17.5 C 17.7016,17.1832 21.7016,17.5166 25.5,18.5C 24.8333,18.5 24.5,18.8333 24.5,19.5C 21.8333,19.5 19.1667,19.5 16.5,19.5C 15.7321,20.2625 15.2321,21.2625 15,22.5C 14.5017,25.8168 14.335,29.1501 14.5,32.5C 13.5128,27.6946 13.1795,22.6946 13.5,17.5 Z"/></g>
<g><path style="opacity:1" fill="#849cce" d="M 34.5,16.5 C 34.8297,22.8682 34.4963,29.2015 33.5,35.5C 31.6036,36.2745 29.937,37.2745 28.5,38.5C 26.5411,32.2504 25.8745,25.5837 26.5,18.5C 27.791,18.7373 28.791,18.404 29.5,17.5C 31.1172,16.962 32.7839,16.6287 34.5,16.5 Z"/></g>
<g><path style="opacity:1" fill="#696665" d="M 66.5,16.5 C 67.3382,16.8417 67.6716,17.5084 67.5,18.5C 66.8333,18.5 66.1667,18.5 65.5,18.5C 61.8183,18.6653 58.1516,18.4986 54.5,18C 58.6877,17.8238 62.6877,17.3238 66.5,16.5 Z"/></g>
<g><path style="opacity:1" fill="#f0f0f0" d="M 25.5,18.5 C 25.2027,25.9204 25.536,33.2537 26.5,40.5C 25.8333,40.5 25.1667,40.5 24.5,40.5C 24.5,33.5 24.5,26.5 24.5,19.5C 24.5,18.8333 24.8333,18.5 25.5,18.5 Z"/></g>
<g><path style="opacity:1" fill="#6e87ba" d="M 53.5,25.5 C 51.847,25.6596 50.5137,26.3263 49.5,27.5C 48.391,27.5569 47.391,27.8902 46.5,28.5C 46.3345,24.4862 46.5012,20.4862 47,16.5C 49.0065,17.6687 51.1732,18.3354 53.5,18.5C 53.5,20.8333 53.5,23.1667 53.5,25.5 Z"/></g>
<g><path style="opacity:1" fill="#cdd2de" d="M 13.5,17.5 C 16.9619,16.5184 20.6286,16.185 24.5,16.5C 25.1667,16.5 25.8333,16.5 26.5,16.5C 27.209,17.404 28.209,17.7373 29.5,17.5C 28.791,18.404 27.791,18.7373 26.5,18.5C 25.8745,25.5837 26.5411,32.2504 28.5,38.5C 28.5,38.8333 28.5,39.1667 28.5,39.5C 28.1583,40.3382 27.4916,40.6716 26.5,40.5C 25.536,33.2537 25.2027,25.9204 25.5,18.5C 21.7016,17.5166 17.7016,17.1832 13.5,17.5 Z"/></g>
<g><path style="opacity:1" fill="#26201e" d="M 62.5,19.5 C 60.8185,21.0075 58.8185,22.0075 56.5,22.5C 56.5,21.5 56.5,20.5 56.5,19.5C 58.5,19.5 60.5,19.5 62.5,19.5 Z"/></g>
<g><path style="opacity:1" fill="#231e1c" d="M 16.5,19.5 C 19.1667,19.5 21.8333,19.5 24.5,19.5C 24.5,26.5 24.5,33.5 24.5,40.5C 22.8297,40.7512 21.3297,41.4178 20,42.5C 18.698,39.6249 17.8647,36.6249 17.5,33.5C 16.6167,28.8969 16.2834,24.2303 16.5,19.5 Z"/></g>
<g><path style="opacity:1" fill="#e9e9e9" d="M 63.5,21.5 C 64.4682,23.6074 64.8016,25.9407 64.5,28.5C 64.5,29.1667 64.5,29.8333 64.5,30.5C 63.609,31.1098 62.609,31.4431 61.5,31.5C 62.8139,28.5898 62.1473,26.0898 59.5,24C 60.6934,22.9054 62.0267,22.072 63.5,21.5 Z"/></g>
<g><path style="opacity:1" fill="#7e7d7d" d="M 62.5,19.5 C 63.3382,19.8417 63.6716,20.5084 63.5,21.5C 62.0267,22.072 60.6934,22.9054 59.5,24C 62.1473,26.0898 62.8139,28.5898 61.5,31.5C 59.5168,31.8432 58.1834,31.1765 57.5,29.5C 56.71,28.3915 56.21,27.0581 56,25.5C 54.5806,26.4601 53.0806,27.2935 51.5,28C 52.938,28.2189 54.2713,28.7189 55.5,29.5C 54.2822,30.8027 54.6155,31.8027 56.5,32.5C 55.7579,33.2868 54.9246,33.9535 54,34.5C 52.6366,32.3162 51.1366,30.3162 49.5,28.5C 49.5,28.1667 49.5,27.8333 49.5,27.5C 50.5137,26.3263 51.847,25.6596 53.5,25.5C 55.1898,25.1436 56.1898,24.1436 56.5,22.5C 58.8185,22.0075 60.8185,21.0075 62.5,19.5 Z"/></g>
<g><path style="opacity:1" fill="#d9d9d9" d="M 57.5,29.5 C 58.1834,31.1765 59.5168,31.8432 61.5,31.5C 58.7235,33.3924 55.7235,35.0591 52.5,36.5C 51.6143,35.675 51.281,34.675 51.5,33.5C 50.1667,34.1667 48.8333,34.8333 47.5,35.5C 47.2965,33.6096 47.9632,32.1096 49.5,31C 48.9056,30.5357 48.2389,30.369 47.5,30.5C 48.1667,29.8333 48.8333,29.1667 49.5,28.5C 51.1366,30.3162 52.6366,32.3162 54,34.5C 54.9246,33.9535 55.7579,33.2868 56.5,32.5C 54.6155,31.8027 54.2822,30.8027 55.5,29.5C 54.2713,28.7189 52.938,28.2189 51.5,28C 53.0806,27.2935 54.5806,26.4601 56,25.5C 56.21,27.0581 56.71,28.3915 57.5,29.5 Z"/></g>
<g><path style="opacity:1" fill="#d7d7d7" d="M 57.5,29.5 C 57.5,28.5 57.5,27.5 57.5,26.5C 58.5,26.5 59.5,26.5 60.5,26.5C 60.8795,29.5669 59.8795,30.5669 57.5,29.5 Z"/></g>
<g><path style="opacity:0.299" fill="#131211" d="M 65.5,18.5 C 66.1667,18.5 66.8333,18.5 67.5,18.5C 68.7691,41.632 59.7691,59.2987 40.5,71.5C 26.7545,63.7035 18.0878,52.0368 14.5,36.5C 15.1667,35.5 15.8333,34.5 16.5,33.5C 16.7689,38.2637 18.1022,42.597 20.5,46.5C 21.1667,48.1667 21.8333,49.8333 22.5,51.5C 23.604,53.3885 24.9373,55.0552 26.5,56.5C 28.8333,59.5 31.5,62.1667 34.5,64.5C 38.1667,69.8333 41.8333,69.8333 45.5,64.5C 45.8333,64.5 46.1667,64.5 46.5,64.5C 47.5,64.1667 48.1667,63.5 48.5,62.5C 50.914,61.0892 52.5806,59.0892 53.5,56.5C 54.5,56.1667 55.1667,55.5 55.5,54.5C 55.8333,53.8333 56.1667,53.1667 56.5,52.5C 58.873,50.4208 60.2064,47.7541 60.5,44.5C 63.0564,40.2882 64.3898,35.6216 64.5,30.5C 64.5,29.8333 64.5,29.1667 64.5,28.5C 65.4794,25.3752 65.8128,22.0419 65.5,18.5 Z"/></g>
<g><path style="opacity:0.608" fill="#565454" d="M 16.5,19.5 C 16.2834,24.2303 16.6167,28.8969 17.5,33.5C 17.1667,33.5 16.8333,33.5 16.5,33.5C 15.8333,34.5 15.1667,35.5 14.5,36.5C 14.5,35.1667 14.5,33.8333 14.5,32.5C 14.335,29.1501 14.5017,25.8168 15,22.5C 15.2321,21.2625 15.7321,20.2625 16.5,19.5 Z"/></g>
<g><path style="opacity:1" fill="#e9e9e9" d="M 47.5,30.5 C 44.5489,33.8278 45.2156,36.3278 49.5,38C 48.944,38.3826 48.6107,38.8826 48.5,39.5C 47.2223,39.2178 46.2223,38.5511 45.5,37.5C 41.5028,33.2007 39.8361,34.2007 40.5,40.5C 39.8333,40.1667 39.1667,39.8333 38.5,39.5C 38.573,37.9731 37.9063,36.9731 36.5,36.5C 39.678,33.7417 43.3447,31.7417 47.5,30.5 Z"/></g>
<g><path style="opacity:1" fill="#c3c2c2" d="M 36.5,15.5 C 36.3338,21.5092 36.5005,27.5092 37,33.5C 39.4476,32.0268 41.9476,30.6935 44.5,29.5C 45.4916,29.6716 46.1583,29.3382 46.5,28.5C 47.391,27.8902 48.391,27.5569 49.5,27.5C 49.5,27.8333 49.5,28.1667 49.5,28.5C 48.8333,29.1667 48.1667,29.8333 47.5,30.5C 43.3447,31.7417 39.678,33.7417 36.5,36.5C 36.7019,40.8453 35.3686,41.512 32.5,38.5C 31.1667,38.8333 29.8333,39.1667 28.5,39.5C 28.5,39.1667 28.5,38.8333 28.5,38.5C 29.937,37.2745 31.6036,36.2745 33.5,35.5C 34.4963,29.2015 34.8297,22.8682 34.5,16.5C 34.8417,15.6618 35.5084,15.3284 36.5,15.5 Z"/></g>
<g><path style="opacity:1" fill="#e2e1e1" d="M 56.5,52.5 C 56.1667,53.1667 55.8333,53.8333 55.5,54.5C 54.5111,49.0247 54.1778,43.358 54.5,37.5C 55.2124,41.9233 55.879,46.9233 56.5,52.5 Z"/></g>
<g><path style="opacity:1" fill="#8a8887" d="M 47.5,30.5 C 48.2389,30.369 48.9056,30.5357 49.5,31C 47.9632,32.1096 47.2965,33.6096 47.5,35.5C 48.8333,34.8333 50.1667,34.1667 51.5,33.5C 51.281,34.675 51.6143,35.675 52.5,36.5C 55.7235,35.0591 58.7235,33.3924 61.5,31.5C 62.609,31.4431 63.609,31.1098 64.5,30.5C 64.3898,35.6216 63.0564,40.2882 60.5,44.5C 60.2064,47.7541 58.873,50.4208 56.5,52.5C 55.879,46.9233 55.2124,41.9233 54.5,37.5C 53.5084,37.3284 52.8417,37.6618 52.5,38.5C 51.5084,38.3284 50.8417,38.6618 50.5,39.5C 49.8333,39.5 49.1667,39.5 48.5,39.5C 48.6107,38.8826 48.944,38.3826 49.5,38C 45.2156,36.3278 44.5489,33.8278 47.5,30.5 Z"/></g>
<g><path style="opacity:1" fill="#26211f" d="M 60.5,44.5 C 59.1077,46.2726 57.941,48.2726 57,50.5C 56.3333,45.8333 56.3333,41.1667 57,36.5C 58.6667,35.5 60.3333,34.5 62,33.5C 61.9968,37.1964 61.4968,40.8631 60.5,44.5 Z"/></g>
<g><path style="opacity:1" fill="#848482" d="M 45.5,37.5 C 43.9545,38.6396 42.2879,39.6396 40.5,40.5C 39.8361,34.2007 41.5028,33.2007 45.5,37.5 Z"/></g>
<g><path style="opacity:1" fill="#9ba8c4" d="M 52.5,38.5 C 52.8417,37.6618 53.5084,37.3284 54.5,37.5C 54.1778,43.358 54.5111,49.0247 55.5,54.5C 55.1667,55.5 54.5,56.1667 53.5,56.5C 53.8229,50.31 53.4896,44.31 52.5,38.5 Z"/></g>
<g><path style="opacity:1" fill="#e8e8e8" d="M 32.5,38.5 C 32.4914,40.3084 32.9914,41.9751 34,43.5C 35.073,43.2014 36.2397,43.2014 37.5,43.5C 36.8559,45.0537 35.1892,46.0537 32.5,46.5C 31.828,47.2674 30.9947,47.9341 30,48.5C 29.6012,48.2716 29.4346,47.9382 29.5,47.5C 25.0881,41.5894 23.5881,42.2561 25,49.5C 25.7096,48.0267 26.8762,47.3601 28.5,47.5C 27.6082,50.2921 25.6082,51.6254 22.5,51.5C 21.8333,49.8333 21.1667,48.1667 20.5,46.5C 20.369,45.7611 20.5357,45.0944 21,44.5C 22.8121,43.0229 24.6455,41.6896 26.5,40.5C 27.4916,40.6716 28.1583,40.3382 28.5,39.5C 29.8333,39.1667 31.1667,38.8333 32.5,38.5 Z"/></g>
<g><path style="opacity:1" fill="#6f87b8" d="M 52.5,38.5 C 53.4896,44.31 53.8229,50.31 53.5,56.5C 52.5806,59.0892 50.914,61.0892 48.5,62.5C 47.179,59.4018 46.5123,55.9018 46.5,52C 46.8333,48.5 47.1667,45 47.5,41.5C 48.7387,41.0576 49.7387,40.3909 50.5,39.5C 50.8417,38.6618 51.5084,38.3284 52.5,38.5 Z"/></g>
<g><path style="opacity:1" fill="#838381" d="M 36.5,36.5 C 37.9063,36.9731 38.573,37.9731 38.5,39.5C 37.5655,40.5676 37.2322,41.901 37.5,43.5C 36.2397,43.2014 35.073,43.2014 34,43.5C 32.9914,41.9751 32.4914,40.3084 32.5,38.5C 35.3686,41.512 36.7019,40.8453 36.5,36.5 Z"/></g>
<g><path style="opacity:1" fill="#878584" d="M 16.5,33.5 C 16.8333,33.5 17.1667,33.5 17.5,33.5C 17.8647,36.6249 18.698,39.6249 20,42.5C 21.3297,41.4178 22.8297,40.7512 24.5,40.5C 25.1667,40.5 25.8333,40.5 26.5,40.5C 24.6455,41.6896 22.8121,43.0229 21,44.5C 20.5357,45.0944 20.369,45.7611 20.5,46.5C 18.1022,42.597 16.7689,38.2637 16.5,33.5 Z"/></g>
<g><path style="opacity:1" fill="#666665" d="M 29.5,47.5 C 29.1667,47.5 28.8333,47.5 28.5,47.5C 26.8762,47.3601 25.7096,48.0267 25,49.5C 23.5881,42.2561 25.0881,41.5894 29.5,47.5 Z"/></g>
<g><path style="opacity:1" fill="#777776" d="M 32.5,46.5 C 29.8474,45.8585 28.6807,44.1918 29,41.5C 29.9794,43.3203 31.4794,44.487 33.5,45C 32.944,45.3826 32.6107,45.8826 32.5,46.5 Z"/></g>
<g><path style="opacity:1" fill="#f3f3f4" d="M 33.5,48.5 C 33.56,47.9569 33.8933,47.6236 34.5,47.5C 35.8157,53.3204 35.8157,58.9871 34.5,64.5C 34.8214,58.9738 34.4881,53.6405 33.5,48.5 Z"/></g>
<g><path style="opacity:1" fill="#b5b7bc" d="M 45.5,37.5 C 46.2223,38.5511 47.2223,39.2178 48.5,39.5C 49.1667,39.5 49.8333,39.5 50.5,39.5C 49.7387,40.3909 48.7387,41.0576 47.5,41.5C 47.1667,45 46.8333,48.5 46.5,52C 46.5123,55.9018 47.179,59.4018 48.5,62.5C 48.1667,63.5 47.5,64.1667 46.5,64.5C 45.9308,56.1857 45.2641,49.1857 44.5,43.5C 42.847,43.6596 41.5137,44.3263 40.5,45.5C 39.4168,45.5394 38.4168,45.8728 37.5,46.5C 36.1667,52.8333 36.1667,59.1667 37.5,65.5C 38.4168,66.1272 39.4168,66.4606 40.5,66.5C 42.0618,66.2671 43.3951,65.6005 44.5,64.5C 44.8333,64.5 45.1667,64.5 45.5,64.5C 41.8333,69.8333 38.1667,69.8333 34.5,64.5C 35.8157,58.9871 35.8157,53.3204 34.5,47.5C 33.8933,47.6236 33.56,47.9569 33.5,48.5C 29.2958,49.7188 26.9625,52.3855 26.5,56.5C 24.9373,55.0552 23.604,53.3885 22.5,51.5C 25.6082,51.6254 27.6082,50.2921 28.5,47.5C 28.8333,47.5 29.1667,47.5 29.5,47.5C 29.4346,47.9382 29.6012,48.2716 30,48.5C 30.9947,47.9341 31.828,47.2674 32.5,46.5C 35.1892,46.0537 36.8559,45.0537 37.5,43.5C 37.2322,41.901 37.5655,40.5676 38.5,39.5C 39.1667,39.8333 39.8333,40.1667 40.5,40.5C 42.2879,39.6396 43.9545,38.6396 45.5,37.5 Z"/></g>
<g><path style="opacity:1" fill="#6a6462" d="M 40.5,45.5 C 40.5,52.5 40.5,59.5 40.5,66.5C 39.4168,66.4606 38.4168,66.1272 37.5,65.5C 36.1667,59.1667 36.1667,52.8333 37.5,46.5C 38.4168,45.8728 39.4168,45.5394 40.5,45.5 Z"/></g>
<g><path style="opacity:1" fill="#595452" d="M 44.5,43.5 C 44.5,50.5 44.5,57.5 44.5,64.5C 43.3951,65.6005 42.0618,66.2671 40.5,66.5C 40.5,59.5 40.5,52.5 40.5,45.5C 41.5137,44.3263 42.847,43.6596 44.5,43.5 Z"/></g>
<g><path style="opacity:1" fill="#f3f3f3" d="M 46.5,64.5 C 46.1667,64.5 45.8333,64.5 45.5,64.5C 45.1667,64.5 44.8333,64.5 44.5,64.5C 44.5,57.5 44.5,50.5 44.5,43.5C 45.2641,49.1857 45.9308,56.1857 46.5,64.5 Z"/></g>
<g><path style="opacity:1" fill="#8aa0cf" d="M 33.5,48.5 C 34.4881,53.6405 34.8214,58.9738 34.5,64.5C 31.5,62.1667 28.8333,59.5 26.5,56.5C 26.9625,52.3855 29.2958,49.7188 33.5,48.5 Z"/></g>
</svg>
