<?xml version="1.0" encoding="UTF-8"?>
<!DOCTYPE svg PUBLIC "-//W3C//DTD SVG 1.1//EN" "http://www.w3.org/Graphics/SVG/1.1/DTD/svg11.dtd">
<svg xmlns="http://www.w3.org/2000/svg" version="1.1" width="80px" height="80px" style="shape-rendering:geometricPrecision; text-rendering:geometricPrecision; image-rendering:optimizeQuality; fill-rule:evenodd; clip-rule:evenodd" xmlns:xlink="http://www.w3.org/1999/xlink">
<g><path style="opacity:0.274" fill="#adadac" d="M 67.5,4.5 C 67.1667,4.5 66.8333,4.5 66.5,4.5C 49.6583,4.17015 32.9916,4.50348 16.5,5.5C 16.8333,6.16667 17.1667,6.83333 17.5,7.5C 16.1667,7.83333 16.1667,8.16667 17.5,8.5C 16.7659,9.70792 16.4326,11.0413 16.5,12.5C 15.6618,12.8417 15.3284,13.5084 15.5,14.5C 15.0211,10.9231 14.6877,7.25641 14.5,3.5C 32.3412,3.16995 50.0079,3.50328 67.5,4.5 Z"/></g>
<g><path style="opacity:1" fill="#675603" d="M 16.5,5.5 C 32.9916,4.50348 49.6583,4.17015 66.5,4.5C 66.5,5.5 66.5,6.5 66.5,7.5C 66.1667,7.5 65.8333,7.5 65.5,7.5C 49.5342,5.51488 33.2009,4.84821 16.5,5.5 Z"/></g>
<g><path style="opacity:1" fill="#fece03" d="M 16.5,5.5 C 33.2009,4.84821 49.5342,5.51488 65.5,7.5C 49.5,7.5 33.5,7.5 17.5,7.5C 17.1667,6.83333 16.8333,6.16667 16.5,5.5 Z"/></g>
<g><path style="opacity:1" fill="#322b03" d="M 17.5,7.5 C 33.5,7.5 49.5,7.5 65.5,7.5C 65.8333,7.5 66.1667,7.5 66.5,7.5C 66.5,8.16667 66.5,8.83333 66.5,9.5C 50.244,8.51553 33.9107,8.18219 17.5,8.5C 16.1667,8.16667 16.1667,7.83333 17.5,7.5 Z"/></g>
<g><path style="opacity:1" fill="#d8d8d8" d="M 17.5,8.5 C 33.9107,8.18219 50.244,8.51553 66.5,9.5C 66.7135,11.1439 66.3802,12.6439 65.5,14C 49.8369,14.4999 34.1702,14.6666 18.5,14.5C 19.9516,13.6981 21.6183,13.1981 23.5,13C 22.8095,11.9326 22.3095,10.7659 22,9.5C 21.4309,13.3605 20.5976,13.3605 19.5,9.5C 18.8503,11.1836 17.8503,12.5169 16.5,13.5C 16.5,13.1667 16.5,12.8333 16.5,12.5C 16.4326,11.0413 16.7659,9.70792 17.5,8.5 Z"/></g>
<g><path style="opacity:1" fill="#757575" d="M 50.5,9.5 C 55.1667,9.5 59.8333,9.5 64.5,9.5C 64.6567,10.8734 64.49,12.2068 64,13.5C 59.5623,12.6266 55.229,12.6266 51,13.5C 50.51,12.2068 50.3433,10.8734 50.5,9.5 Z"/></g>
<g><path style="opacity:1" fill="#636363" d="M 24.5,9.5 C 25.9648,10.1226 27.6314,10.1226 29.5,9.5C 30.9945,9.70919 32.1612,10.3759 33,11.5C 34.4177,8.99898 35.4177,9.33231 36,12.5C 36.3333,11.5 36.6667,10.5 37,9.5C 38.2988,9.96624 39.7988,9.96624 41.5,9.5C 41.5432,13.8926 41.0432,14.2259 40,10.5C 39.5172,11.448 39.3505,12.448 39.5,13.5C 34.3565,12.8808 29.3565,12.8808 24.5,13.5C 24.5,12.1667 24.5,10.8333 24.5,9.5 Z"/></g>
<g><path style="opacity:1" fill="#636363" d="M 46.5,9.5 C 47.5,9.5 48.5,9.5 49.5,9.5C 49.5,10.8333 49.5,12.1667 49.5,13.5C 48.5,13.5 47.5,13.5 46.5,13.5C 46.5,12.1667 46.5,10.8333 46.5,9.5 Z"/></g>
<g><path style="opacity:1" fill="#7a7a7a" d="M 18.5,14.5 C 17.5084,14.6716 16.8417,14.3382 16.5,13.5C 17.8503,12.5169 18.8503,11.1836 19.5,9.5C 20.5976,13.3605 21.4309,13.3605 22,9.5C 22.3095,10.7659 22.8095,11.9326 23.5,13C 21.6183,13.1981 19.9516,13.6981 18.5,14.5 Z"/></g>
<g><path style="opacity:1" fill="#020202" d="M 23.5,18.5 C 26.1667,17.1667 28.8333,17.1667 31.5,18.5C 30.5032,36.3256 30.1699,54.3256 30.5,72.5C 28.5,72.5 26.5,72.5 24.5,72.5C 24.8301,54.3256 24.4968,36.3256 23.5,18.5 Z"/></g>
<g><path style="opacity:1" fill="#080704" d="M 46.5,73.5 C 48.0418,72.6993 49.7085,72.366 51.5,72.5C 51.5,54.5 51.5,36.5 51.5,18.5C 53.6074,17.5318 55.9407,17.1984 58.5,17.5C 58.5,35.5 58.5,53.5 58.5,71.5C 57.1667,72.1667 55.8333,72.8333 54.5,73.5C 49.5207,73.9077 45.0207,75.5744 41,78.5C 39.3576,78.0222 38.1909,77.0222 37.5,75.5C 37.5,75.1667 37.5,74.8333 37.5,74.5C 37.5,55.8333 37.5,37.1667 37.5,18.5C 39.6074,17.5318 41.9407,17.1984 44.5,17.5C 44.1671,36.5117 44.5004,55.5117 45.5,74.5C 46.1067,74.3764 46.44,74.0431 46.5,73.5 Z"/></g>
<g><path style="opacity:1" fill="#fccb04" d="M 31.5,18.5 C 33.5,18.5 35.5,18.5 37.5,18.5C 37.5,37.1667 37.5,55.8333 37.5,74.5C 35.8621,73.8411 34.1955,73.1744 32.5,72.5C 31.5005,54.5123 31.1671,36.5123 31.5,18.5 Z"/></g>
<g><path style="opacity:1" fill="#fdcb04" d="M 51.5,18.5 C 51.5,36.5 51.5,54.5 51.5,72.5C 49.7085,72.366 48.0418,72.6993 46.5,73.5C 45.5032,55.3409 45.1698,37.0076 45.5,18.5C 47.5,18.5 49.5,18.5 51.5,18.5 Z"/></g>
<g><path style="opacity:1" fill="#a28303" d="M 64.5,18.5 C 62.8333,18.5 61.1667,18.5 59.5,18.5C 59.5,36.1667 59.5,53.8333 59.5,71.5C 59.1667,71.5 58.8333,71.5 58.5,71.5C 58.5,53.5 58.5,35.5 58.5,17.5C 55.9407,17.1984 53.6074,17.5318 51.5,18.5C 49.5,18.5 47.5,18.5 45.5,18.5C 45.1698,37.0076 45.5032,55.3409 46.5,73.5C 46.44,74.0431 46.1067,74.3764 45.5,74.5C 44.5004,55.5117 44.1671,36.5117 44.5,17.5C 41.9407,17.1984 39.6074,17.5318 37.5,18.5C 35.5,18.5 33.5,18.5 31.5,18.5C 28.8333,17.1667 26.1667,17.1667 23.5,18.5C 21.8333,18.5 20.1667,18.5 18.5,18.5C 18.5,35.1667 18.5,51.8333 18.5,68.5C 17.8333,51.5 17.1667,34.5 16.5,17.5C 24.4722,16.1687 32.8055,15.502 41.5,15.5C 49.8333,15.8333 58.1667,16.1667 66.5,16.5C 65.7573,17.1818 65.0906,17.8485 64.5,18.5 Z"/></g>
<g><path style="opacity:1" fill="#eec004" d="M 64.5,18.5 C 65.6616,34.9949 65.8283,51.6616 65,68.5C 63.5123,70.16 61.679,71.16 59.5,71.5C 59.5,53.8333 59.5,36.1667 59.5,18.5C 61.1667,18.5 62.8333,18.5 64.5,18.5 Z"/></g>
<g><path style="opacity:0.631" fill="#333230" d="M 66.5,4.5 C 66.8333,4.5 67.1667,4.5 67.5,4.5C 68.0821,8.28772 68.4154,12.2877 68.5,16.5C 68.1924,17.3081 67.6924,17.9747 67,18.5C 66.6667,35.5 66.3333,52.5 66,69.5C 62.9597,72.9663 59.1264,74.2996 54.5,73.5C 55.8333,72.8333 57.1667,72.1667 58.5,71.5C 58.8333,71.5 59.1667,71.5 59.5,71.5C 61.679,71.16 63.5123,70.16 65,68.5C 65.8283,51.6616 65.6616,34.9949 64.5,18.5C 65.0906,17.8485 65.7573,17.1818 66.5,16.5C 58.1667,16.1667 49.8333,15.8333 41.5,15.5C 32.8055,15.502 24.4722,16.1687 16.5,17.5C 16.5,17.8333 16.5,18.1667 16.5,18.5C 14.3796,17.5967 14.0462,16.2633 15.5,14.5C 15.3284,13.5084 15.6618,12.8417 16.5,12.5C 16.5,12.8333 16.5,13.1667 16.5,13.5C 16.8417,14.3382 17.5084,14.6716 18.5,14.5C 34.1702,14.6666 49.8369,14.4999 65.5,14C 66.3802,12.6439 66.7135,11.1439 66.5,9.5C 66.5,8.83333 66.5,8.16667 66.5,7.5C 66.5,6.5 66.5,5.5 66.5,4.5 Z"/></g>
<g><path style="opacity:0.455" fill="#302a1a" d="M 16.5,17.5 C 17.1667,34.5 17.8333,51.5 18.5,68.5C 19.2623,70.2624 20.5956,71.2624 22.5,71.5C 22.8417,72.3382 23.5084,72.6716 24.5,72.5C 26.5,72.5 28.5,72.5 30.5,72.5C 30.1699,54.3256 30.5032,36.3256 31.5,18.5C 31.1671,36.5123 31.5005,54.5123 32.5,72.5C 34.1955,73.1744 35.8621,73.8411 37.5,74.5C 37.5,74.8333 37.5,75.1667 37.5,75.5C 32.2832,74.077 26.9498,73.2437 21.5,73C 19.714,72.2155 18.214,71.0488 17,69.5C 16.5001,52.5033 16.3334,35.5033 16.5,18.5C 16.5,18.1667 16.5,17.8333 16.5,17.5 Z"/></g>
<g><path style="opacity:1" fill="#5b4b03" d="M 23.5,18.5 C 24.4968,36.3256 24.8301,54.3256 24.5,72.5C 23.5084,72.6716 22.8417,72.3382 22.5,71.5C 23.4967,54.0079 23.8301,36.3412 23.5,18.5 Z"/></g>
<g><path style="opacity:1" fill="#fecc03" d="M 23.5,18.5 C 23.8301,36.3412 23.4967,54.0079 22.5,71.5C 20.5956,71.2624 19.2623,70.2624 18.5,68.5C 18.5,51.8333 18.5,35.1667 18.5,18.5C 20.1667,18.5 21.8333,18.5 23.5,18.5 Z"/></g>
</svg>
