<?xml version="1.0" encoding="UTF-8"?>
<!DOCTYPE svg PUBLIC "-//W3C//DTD SVG 1.1//EN" "http://www.w3.org/Graphics/SVG/1.1/DTD/svg11.dtd">
<svg xmlns="http://www.w3.org/2000/svg" version="1.1" width="80px" height="80px" style="shape-rendering:geometricPrecision; text-rendering:geometricPrecision; image-rendering:optimizeQuality; fill-rule:evenodd; clip-rule:evenodd" xmlns:xlink="http://www.w3.org/1999/xlink">
<g><path style="opacity:1" fill="#043255" d="M 55.5,15.5 C 43.1759,28.7919 30.8426,42.1252 18.5,55.5C 17.8826,55.3893 17.3826,55.056 17,54.5C 13.0712,43.1654 11.2379,31.4987 11.5,19.5C 14.8306,19.9819 17.4973,18.9819 19.5,16.5C 21.1958,16.3146 22.5291,15.4813 23.5,14C 30.1152,14.7391 35.7819,12.9058 40.5,8.5C 44.782,12.5839 49.782,14.9172 55.5,15.5 Z"/></g>
<g><path style="opacity:1" fill="#f0f1f4" d="M 55.5,12.5 C 56.552,12.3505 57.552,12.5172 58.5,13C 61.6392,16.7366 65.6392,18.57 70.5,18.5C 70.2671,20.0618 69.6005,21.3951 68.5,22.5C 54.4863,37.1805 40.8196,52.1805 27.5,67.5C 29.0063,69.4014 30.6729,71.0681 32.5,72.5C 25.8826,69.216 20.8826,64.216 17.5,57.5C 17.8333,56.8333 18.1667,56.1667 18.5,55.5C 30.8426,42.1252 43.1759,28.7919 55.5,15.5C 56.625,14.6522 56.625,13.6522 55.5,12.5 Z"/></g>
<g><path style="opacity:0.394" fill="#6b869b" d="M 9.5,16.5 C 9.5,17.1667 9.5,17.8333 9.5,18.5C 9.72442,22.1788 10.0578,25.8455 10.5,29.5C 9.59603,30.209 9.26269,31.209 9.5,32.5C 8.16667,27.1667 8.16667,21.8333 9.5,16.5 Z"/></g>
<g><path style="opacity:1" fill="#adb8c4" d="M 19.5,16.5 C 17.4973,18.9819 14.8306,19.9819 11.5,19.5C 11.2379,31.4987 13.0712,43.1654 17,54.5C 17.3826,55.056 17.8826,55.3893 18.5,55.5C 18.1667,56.1667 17.8333,56.8333 17.5,57.5C 12.8978,48.8492 10.5645,39.5159 10.5,29.5C 10.0578,25.8455 9.72442,22.1788 9.5,18.5C 12.9032,18.1489 16.2365,17.4822 19.5,16.5 Z"/></g>
<g><path style="opacity:1" fill="#043255" d="M 68.5,22.5 C 69.8026,35.667 67.4692,48.3336 61.5,60.5C 56.1196,67.5387 49.1196,72.2054 40.5,74.5C 37.8222,73.8246 35.1555,73.158 32.5,72.5C 30.6729,71.0681 29.0063,69.4014 27.5,67.5C 40.8196,52.1805 54.4863,37.1805 68.5,22.5 Z"/></g>
<g><path style="opacity:1" fill="#224263" d="M 50.5,24.5 C 54.1055,24.7986 57.4388,25.9653 60.5,28C 59.1095,29.02 57.6095,29.8534 56,30.5C 55.7837,32.3839 55.117,34.0506 54,35.5C 52.6348,32.6033 51.1348,29.7699 49.5,27C 49.7432,26.0979 50.0766,25.2646 50.5,24.5 Z"/></g>
<g><path style="opacity:1" fill="#2d4b6a" d="M 60.5,23.5 C 63.6741,23.9522 64.0075,24.9522 61.5,26.5C 59.4807,25.8671 59.1474,24.8671 60.5,23.5 Z"/></g>
<g><path style="opacity:1" fill="#abb5c2" d="M 70.5,18.5 C 71.3909,30.2886 69.8909,41.9552 66,53.5C 64.9741,56.2387 63.4741,58.572 61.5,60.5C 67.4692,48.3336 69.8026,35.667 68.5,22.5C 69.6005,21.3951 70.2671,20.0618 70.5,18.5 Z"/></g>
<g><path style="opacity:1" fill="#224263" d="M 38.5,36.5 C 41.9302,37.7138 45.2635,39.2138 48.5,41C 47.3774,42.0437 46.0441,42.7104 44.5,43C 43.9505,44.8446 42.9505,46.3446 41.5,47.5C 38.9164,44.0752 37.9164,40.4085 38.5,36.5 Z"/></g>
<g><path style="opacity:1" fill="#294868" d="M 48.5,36.5 C 51.6741,36.9522 52.0075,37.9522 49.5,39.5C 47.4807,38.8671 47.1474,37.8671 48.5,36.5 Z"/></g>
<g><path style="opacity:1" fill="#1b3d5f" d="M 26.5,49.5 C 27.9778,49.238 29.3112,49.5713 30.5,50.5C 29.675,51.3857 28.675,51.719 27.5,51.5C 27.0101,53.9484 27.8434,55.615 30,56.5C 31.7655,55.7679 32.9322,54.4346 33.5,52.5C 34.6892,56.8147 33.0225,58.9814 28.5,59C 24.0598,56.6323 23.3931,53.4657 26.5,49.5 Z"/></g>
<g><path style="opacity:1" fill="#294767" d="M 36.5,49.5 C 39.6741,49.9522 40.0075,50.9522 37.5,52.5C 35.4807,51.8671 35.1474,50.8671 36.5,49.5 Z"/></g>
<g><path style="opacity:0.192" fill="#193d5e" d="M 60.5,64.5 C 60.8333,63.1667 61.1667,61.8333 61.5,60.5C 63.4741,58.572 64.9741,56.2387 66,53.5C 69.8909,41.9552 71.3909,30.2886 70.5,18.5C 65.6392,18.57 61.6392,16.7366 58.5,13C 57.552,12.5172 56.552,12.3505 55.5,12.5C 49.0936,13.1296 44.0936,10.7963 40.5,5.5C 36.1181,11.5796 30.1181,14.0796 22.5,13C 21.2899,14.0391 20.2899,15.2058 19.5,16.5C 16.2365,17.4822 12.9032,18.1489 9.5,18.5C 9.5,17.8333 9.5,17.1667 9.5,16.5C 15.0514,16.8066 19.5514,14.8066 23,10.5C 30.9785,12.5949 36.8119,9.92825 40.5,2.5C 44.178,9.89228 50.0113,12.5589 58,10.5C 60.4893,12.3189 62.9893,14.1522 65.5,16C 67.8098,16.4966 70.1432,16.6633 72.5,16.5C 73.7324,32.7809 70.5657,48.1142 63,62.5C 62.2917,63.3805 61.4584,64.0472 60.5,64.5 Z"/></g>
<g><path style="opacity:1" fill="#aeb7c3" d="M 55.5,12.5 C 56.625,13.6522 56.625,14.6522 55.5,15.5C 49.782,14.9172 44.782,12.5839 40.5,8.5C 35.7819,12.9058 30.1152,14.7391 23.5,14C 22.5291,15.4813 21.1958,16.3146 19.5,16.5C 20.2899,15.2058 21.2899,14.0391 22.5,13C 30.1181,14.0796 36.1181,11.5796 40.5,5.5C 44.0936,10.7963 49.0936,13.1296 55.5,12.5 Z"/></g>
<g><path style="opacity:0.331" fill="#173b5d" d="M 10.5,29.5 C 10.5645,39.5159 12.8978,48.8492 17.5,57.5C 20.8826,64.216 25.8826,69.216 32.5,72.5C 34.7634,74.3826 37.4301,75.7159 40.5,76.5C 48.4549,74.5245 55.1216,70.5245 60.5,64.5C 48.297,80.9396 35.1303,81.6063 21,66.5C 13.6802,56.3743 9.84686,45.0409 9.5,32.5C 9.26269,31.209 9.59603,30.209 10.5,29.5 Z"/></g>
<g><path style="opacity:1" fill="#b1bac6" d="M 61.5,60.5 C 61.1667,61.8333 60.8333,63.1667 60.5,64.5C 55.1216,70.5245 48.4549,74.5245 40.5,76.5C 37.4301,75.7159 34.7634,74.3826 32.5,72.5C 35.1555,73.158 37.8222,73.8246 40.5,74.5C 49.1196,72.2054 56.1196,67.5387 61.5,60.5 Z"/></g>
</svg>
