<?xml version="1.0" encoding="UTF-8"?>
<!DOCTYPE svg PUBLIC "-//W3C//DTD SVG 1.1//EN" "http://www.w3.org/Graphics/SVG/1.1/DTD/svg11.dtd">
<svg xmlns="http://www.w3.org/2000/svg" version="1.1" width="80px" height="80px" style="shape-rendering:geometricPrecision; text-rendering:geometricPrecision; image-rendering:optimizeQuality; fill-rule:evenodd; clip-rule:evenodd" xmlns:xlink="http://www.w3.org/1999/xlink">
<g><path style="opacity:0.922" fill="#544220" d="M 46.5,4.5 C 45.209,4.26269 44.209,4.59603 43.5,5.5C 42.8333,5.5 42.5,5.16667 42.5,4.5C 39.995,3.50333 37.3283,3.50333 34.5,4.5C 36.22,3.13591 38.22,2.13591 40.5,1.5C 42.604,2.51948 44.604,3.51948 46.5,4.5 Z"/></g>
<g><path style="opacity:1" fill="#9f7415" d="M 42.5,4.5 C 37.2654,4.341 36.5988,5.67433 40.5,8.5C 41.8549,7.81181 42.8549,6.81181 43.5,5.5C 44.209,4.59603 45.209,4.26269 46.5,4.5C 48.153,4.6596 49.4863,5.32627 50.5,6.5C 51.5063,7.39567 51.5063,8.06233 50.5,8.5C 49.209,8.73731 48.209,8.40397 47.5,7.5C 47.44,6.95691 47.1067,6.62358 46.5,6.5C 45.513,9.76829 45.1796,13.1016 45.5,16.5C 45.6716,17.4916 45.3382,18.1583 44.5,18.5C 44.6716,17.5084 44.3382,16.8417 43.5,16.5C 41.5,9.83333 39.5,9.83333 37.5,16.5C 36.6618,16.8417 36.3284,17.5084 36.5,18.5C 35.8333,17.8333 35.1667,17.1667 34.5,16.5C 34.5,13.5 34.5,10.5 34.5,7.5C 32.7839,7.62867 31.1172,7.962 29.5,8.5C 29.8333,7.83333 30.1667,7.16667 30.5,6.5C 31.5137,5.32627 32.847,4.6596 34.5,4.5C 37.3283,3.50333 39.995,3.50333 42.5,4.5 Z"/></g>
<g><path style="opacity:1" fill="#1e91b0" d="M 42.5,4.5 C 42.5,5.16667 42.8333,5.5 43.5,5.5C 42.8549,6.81181 41.8549,7.81181 40.5,8.5C 36.5988,5.67433 37.2654,4.341 42.5,4.5 Z"/></g>
<g><path style="opacity:1" fill="#7c4f10" d="M 47.5,7.5 C 46.1997,10.0241 46.1997,12.6908 47.5,15.5C 49.7388,14.2122 52.0721,13.2122 54.5,12.5C 55.209,13.404 56.209,13.7373 57.5,13.5C 55.2974,15.1002 52.964,16.4335 50.5,17.5C 48.0882,17.6941 47.0882,19.0274 47.5,21.5C 48.5,21.5 49.5,21.5 50.5,21.5C 50.8333,21.5 51.1667,21.5 51.5,21.5C 50.0813,22.4511 48.4147,22.7845 46.5,22.5C 46.2606,20.5328 46.5939,18.6995 47.5,17C 46.9056,16.5357 46.2389,16.369 45.5,16.5C 45.1796,13.1016 45.513,9.76829 46.5,6.5C 47.1067,6.62358 47.44,6.95691 47.5,7.5 Z"/></g>
<g><path style="opacity:1" fill="#259cbe" d="M 34.5,16.5 C 34.1667,16.5 33.8333,16.5 33.5,16.5C 31.1469,14.6567 28.4802,13.3234 25.5,12.5C 26.3696,10.7263 27.703,9.39299 29.5,8.5C 31.1172,7.962 32.7839,7.62867 34.5,7.5C 34.5,10.5 34.5,13.5 34.5,16.5 Z"/></g>
<g><path style="opacity:1" fill="#208daa" d="M 43.5,7.5 C 44.6129,8.94639 44.7796,10.6131 44,12.5C 43.1667,11.6667 42.3333,10.8333 41.5,10C 42.3805,9.2917 43.0472,8.45837 43.5,7.5 Z"/></g>
<g><path style="opacity:1" fill="#e31b22" d="M 47.5,7.5 C 48.209,8.40397 49.209,8.73731 50.5,8.5C 50.8417,9.33825 51.5084,9.67158 52.5,9.5C 53.3984,10.1577 54.3984,10.8243 55.5,11.5C 55.3764,12.1067 55.0431,12.44 54.5,12.5C 52.0721,13.2122 49.7388,14.2122 47.5,15.5C 46.1997,12.6908 46.1997,10.0241 47.5,7.5 Z"/></g>
<g><path style="opacity:1" fill="#543410" d="M 50.5,6.5 C 52.403,6.79586 54.0697,7.46253 55.5,8.5C 54.209,8.26269 53.209,8.59603 52.5,9.5C 51.5084,9.67158 50.8417,9.33825 50.5,8.5C 51.5063,8.06233 51.5063,7.39567 50.5,6.5 Z"/></g>
<g><path style="opacity:1" fill="#298ea7" d="M 36.5,8.5 C 40.3368,9.20302 40.5034,10.5364 37,12.5C 36.51,11.2068 36.3433,9.87344 36.5,8.5 Z"/></g>
<g><path style="opacity:1" fill="#695017" d="M 30.5,6.5 C 30.1667,7.16667 29.8333,7.83333 29.5,8.5C 27.703,9.39299 26.3696,10.7263 25.5,12.5C 24.4937,12.9377 24.4937,13.6043 25.5,14.5C 23.0763,13.9695 20.743,13.1362 18.5,12C 22.1328,9.35 26.1328,7.51667 30.5,6.5 Z"/></g>
<g><path style="opacity:1" fill="#936714" d="M 55.5,8.5 C 57.153,8.6596 58.4863,9.32627 59.5,10.5C 59.5,11.1667 59.5,11.8333 59.5,12.5C 59.1583,13.3382 58.4916,13.6716 57.5,13.5C 56.209,13.7373 55.209,13.404 54.5,12.5C 55.0431,12.44 55.3764,12.1067 55.5,11.5C 54.3984,10.8243 53.3984,10.1577 52.5,9.5C 53.209,8.59603 54.209,8.26269 55.5,8.5 Z"/></g>
<g><path style="opacity:0.21" fill="#1d1504" d="M 59.5,10.5 C 62.1667,11.1667 62.1667,11.8333 59.5,12.5C 59.5,11.8333 59.5,11.1667 59.5,10.5 Z"/></g>
<g><path style="opacity:1" fill="#2e889e" d="M 43.5,16.5 C 41.5,16.5 39.5,16.5 37.5,16.5C 39.5,9.83333 41.5,9.83333 43.5,16.5 Z"/></g>
<g><path style="opacity:1" fill="#916a13" d="M 25.5,12.5 C 28.4802,13.3234 31.1469,14.6567 33.5,16.5C 34.3414,18.3792 34.6747,20.3792 34.5,22.5C 32.5,22.5 30.5,22.5 28.5,22.5C 28.5,21.8333 28.5,21.1667 28.5,20.5C 24.2673,19.2057 19.9339,19.2057 15.5,20.5C 15.3284,19.5084 15.6618,18.8417 16.5,18.5C 20.8333,18.5 25.1667,18.5 29.5,18.5C 29.2627,19.791 29.596,20.791 30.5,21.5C 31.5,21.5 32.5,21.5 33.5,21.5C 33.5674,20.0413 33.2341,18.7079 32.5,17.5C 31.791,16.596 30.791,16.2627 29.5,16.5C 27.847,16.3404 26.5137,15.6737 25.5,14.5C 24.4937,13.6043 24.4937,12.9377 25.5,12.5 Z"/></g>
<g><path style="opacity:0.263" fill="#040200" d="M 29.5,16.5 C 30.791,16.2627 31.791,16.596 32.5,17.5C 30.8235,18.1834 30.1568,19.5168 30.5,21.5C 29.596,20.791 29.2627,19.791 29.5,18.5C 25.1667,18.5 20.8333,18.5 16.5,18.5C 20.8333,17.8333 25.1667,17.1667 29.5,16.5 Z"/></g>
<g><path style="opacity:0.274" fill="#020100" d="M 50.5,17.5 C 55.3633,17.1805 60.03,17.5139 64.5,18.5C 60.1667,18.5 55.8333,18.5 51.5,18.5C 51.5,19.5 51.5,20.5 51.5,21.5C 51.1667,21.5 50.8333,21.5 50.5,21.5C 50.5,20.1667 50.5,18.8333 50.5,17.5 Z"/></g>
<g><path style="opacity:0.337" fill="#1d1504" d="M 15.5,20.5 C 15.2503,22.674 14.2503,24.3406 12.5,25.5C 12.7497,23.326 13.7497,21.6594 15.5,20.5 Z"/></g>
<g><path style="opacity:0.463" fill="#676054" d="M 66.5,22.5 C 67.7899,23.0577 68.6232,24.0577 69,25.5C 69.8099,29.3575 69.6433,33.0242 68.5,36.5C 68.8824,31.6383 68.2157,26.9716 66.5,22.5 Z"/></g>
<g><path style="opacity:0.639" fill="#402f0a" d="M 12.5,36.5 C 15.4238,39.0564 16.0905,42.0564 14.5,45.5C 14.5955,42.3084 13.9288,39.3084 12.5,36.5 Z"/></g>
<g><path style="opacity:0.494" fill="#231a06" d="M 68.5,36.5 C 67.6996,38.6073 67.0329,40.7739 66.5,43C 68.4519,48.908 68.7852,54.7413 67.5,60.5C 67.6571,54.5711 66.9905,48.7378 65.5,43C 65.3199,40.1979 66.3199,38.0313 68.5,36.5 Z"/></g>
<g><path style="opacity:1" fill="#cd951a" d="M 33.5,16.5 C 33.8333,16.5 34.1667,16.5 34.5,16.5C 35.1667,17.1667 35.8333,17.8333 36.5,18.5C 39.1667,18.5 41.8333,18.5 44.5,18.5C 45.3382,18.1583 45.6716,17.4916 45.5,16.5C 46.2389,16.369 46.9056,16.5357 47.5,17C 46.5939,18.6995 46.2606,20.5328 46.5,22.5C 48.4147,22.7845 50.0813,22.4511 51.5,21.5C 51.5,20.5 51.5,19.5 51.5,18.5C 55.8333,18.5 60.1667,18.5 64.5,18.5C 65.6737,19.5137 66.3404,20.847 66.5,22.5C 68.2157,26.9716 68.8824,31.6383 68.5,36.5C 66.3199,38.0313 65.3199,40.1979 65.5,43C 66.9905,48.7378 67.6571,54.5711 67.5,60.5C 65.9925,62.1815 64.9925,64.1815 64.5,66.5C 62.1667,68.1667 60.1667,70.1667 58.5,72.5C 58.1583,73.3382 57.4916,73.6716 56.5,73.5C 54.4471,73.4021 52.7804,74.0687 51.5,75.5C 48.7131,76.4767 45.7131,76.81 42.5,76.5C 40.8333,76.5 39.1667,76.5 37.5,76.5C 33.2448,75.598 28.9115,74.598 24.5,73.5C 23.5084,73.6716 22.8417,73.3382 22.5,72.5C 18.6989,69.0416 15.6989,65.0416 13.5,60.5C 13.5029,55.4725 13.8363,50.4725 14.5,45.5C 16.0905,42.0564 15.4238,39.0564 12.5,36.5C 11.1667,32.8333 11.1667,29.1667 12.5,25.5C 14.2503,24.3406 15.2503,22.674 15.5,20.5C 19.9339,19.2057 24.2673,19.2057 28.5,20.5C 24.6286,20.185 20.9619,20.5184 17.5,21.5C 16.8902,22.391 16.5569,23.391 16.5,24.5C 15.5987,25.2905 14.9321,26.2905 14.5,27.5C 14.5,30.1667 14.5,32.8333 14.5,35.5C 14.8333,36.5 15.5,37.1667 16.5,37.5C 16.4831,44.5254 16.4831,51.5254 16.5,58.5C 16.1824,61.4815 17.1824,63.8148 19.5,65.5C 24.8932,72.0249 31.8932,75.0249 40.5,74.5C 45.8555,74.0545 50.8555,72.7211 55.5,70.5C 57.4044,70.2624 58.7377,69.2624 59.5,67.5C 61.9842,65.8802 63.4842,63.5469 64,60.5C 64.6271,54.8153 64.4604,49.1486 63.5,43.5C 63.4419,40.922 64.1086,38.5887 65.5,36.5C 66.4767,33.7131 66.81,30.7131 66.5,27.5C 66.0679,26.2905 65.4013,25.2905 64.5,24.5C 64.0679,23.2905 63.4013,22.2905 62.5,21.5C 59.3752,20.5206 56.0419,20.1872 52.5,20.5C 52.5,21.8333 52.5,23.1667 52.5,24.5C 50.1667,24.5 47.8333,24.5 45.5,24.5C 45.5,23.1667 45.5,21.8333 45.5,20.5C 42.1667,20.5 38.8333,20.5 35.5,20.5C 35.5,21.8333 35.5,23.1667 35.5,24.5C 33.1667,24.5 30.8333,24.5 28.5,24.5C 28.5,23.8333 28.5,23.1667 28.5,22.5C 30.5,22.5 32.5,22.5 34.5,22.5C 34.6747,20.3792 34.3414,18.3792 33.5,16.5 Z"/></g>
<g><path style="opacity:1" fill="#2a9abd" d="M 22.5,37.5 C 18.5227,46.0432 21.1894,49.5432 30.5,48C 33.1315,44.4316 33.1315,40.9316 30.5,37.5C 36.5,36.1667 42.5,36.1667 48.5,37.5C 37.87,44.4866 27.2033,51.4866 16.5,58.5C 16.4831,51.5254 16.4831,44.5254 16.5,37.5C 18.5,36.1667 20.5,36.1667 22.5,37.5 Z"/></g>
<g><path style="opacity:1" fill="#793e1e" d="M 30.5,37.5 C 33.1315,40.9316 33.1315,44.4316 30.5,48C 21.1894,49.5432 18.5227,46.0432 22.5,37.5C 25.1667,36.1667 27.8333,36.1667 30.5,37.5 Z"/></g>
<g><path style="opacity:1" fill="#226076" d="M 14.5,35.5 C 23.8333,35.5 33.1667,35.5 42.5,35.5C 45.5184,35.3354 48.5184,35.502 51.5,36C 50.4734,36.5133 49.4734,37.0133 48.5,37.5C 42.5,36.1667 36.5,36.1667 30.5,37.5C 27.8333,36.1667 25.1667,36.1667 22.5,37.5C 20.5,36.1667 18.5,36.1667 16.5,37.5C 15.5,37.1667 14.8333,36.5 14.5,35.5 Z"/></g>
<g><path style="opacity:1" fill="#df3739" d="M 14.5,27.5 C 22.5,27.5 30.5,27.5 38.5,27.5C 38.5,27.8333 38.5,28.1667 38.5,28.5C 36.5,28.5 34.5,28.5 32.5,28.5C 32.5,30.5 32.5,32.5 32.5,34.5C 34.1667,34.5 35.8333,34.5 37.5,34.5C 37.6601,30.7636 38.4934,30.7636 40,34.5C 40.6128,32.5048 40.1128,30.8381 38.5,29.5C 39.1499,29.1961 39.8165,28.8627 40.5,28.5C 41.1757,29.6016 41.8423,30.6016 42.5,31.5C 41.375,32.6522 41.375,33.6522 42.5,34.5C 42.5,34.8333 42.5,35.1667 42.5,35.5C 33.1667,35.5 23.8333,35.5 14.5,35.5C 14.5,32.8333 14.5,30.1667 14.5,27.5 Z"/></g>
<g><path style="opacity:1" fill="#e22126" d="M 38.5,27.5 C 47.8333,27.5 57.1667,27.5 66.5,27.5C 66.81,30.7131 66.4767,33.7131 65.5,36.5C 50.1842,46.1401 34.8508,55.8068 19.5,65.5C 17.1824,63.8148 16.1824,61.4815 16.5,58.5C 27.2033,51.4866 37.87,44.4866 48.5,37.5C 49.4734,37.0133 50.4734,36.5133 51.5,36C 48.5184,35.502 45.5184,35.3354 42.5,35.5C 42.5,35.1667 42.5,34.8333 42.5,34.5C 44.9641,34.1757 47.6308,34.009 50.5,34C 49.0798,32.47 48.0798,30.6367 47.5,28.5C 46.7189,29.7287 46.2189,31.062 46,32.5C 44.9798,28.0275 43.8132,27.6941 42.5,31.5C 41.8423,30.6016 41.1757,29.6016 40.5,28.5C 39.8165,28.8627 39.1499,29.1961 38.5,29.5C 38.5,29.1667 38.5,28.8333 38.5,28.5C 38.5,28.1667 38.5,27.8333 38.5,27.5 Z"/></g>
<g><path style="opacity:1" fill="#fbbabb" d="M 58.5,28.5 C 59.9778,28.238 61.3112,28.5713 62.5,29.5C 61.7261,30.7112 60.8928,30.7112 60,29.5C 59.3333,30.8333 59.3333,32.1667 60,33.5C 61.8402,32.1669 62.3402,32.3335 61.5,34C 57.5369,34.1177 56.5369,32.2843 58.5,28.5 Z"/></g>
<g><path style="opacity:1" fill="#fbbebf" d="M 42.5,34.5 C 41.375,33.6522 41.375,32.6522 42.5,31.5C 43.8132,27.6941 44.9798,28.0275 46,32.5C 46.2189,31.062 46.7189,29.7287 47.5,28.5C 48.0798,30.6367 49.0798,32.47 50.5,34C 47.6308,34.009 44.9641,34.1757 42.5,34.5 Z"/></g>
<g><path style="opacity:1" fill="#fbb7b8" d="M 30.5,33.5 C 28.1831,34.9416 26.0164,34.6082 24,32.5C 23.6121,33.428 22.9454,34.0946 22,34.5C 20.1712,33.534 18.3379,33.3673 16.5,34C 18.2629,27.1706 20.0963,27.0039 22,33.5C 22.4935,31.8659 22.6602,30.1992 22.5,28.5C 23.8333,28.5 25.1667,28.5 26.5,28.5C 26.3398,30.1992 26.5065,31.8659 27,33.5C 27.9862,32.8288 29.1529,32.8288 30.5,33.5 Z"/></g>
<g><path style="opacity:1" fill="#fac3c5" d="M 52.5,28.5 C 56.8926,28.4568 57.2259,28.9568 53.5,30C 54.3081,30.3076 54.9747,30.8076 55.5,31.5C 54.4783,32.354 53.6449,33.354 53,34.5C 52.5045,32.5273 52.3379,30.5273 52.5,28.5 Z"/></g>
<g><path style="opacity:1" fill="#fbc8c9" d="M 38.5,28.5 C 38.5,28.8333 38.5,29.1667 38.5,29.5C 40.1128,30.8381 40.6128,32.5048 40,34.5C 38.4934,30.7636 37.6601,30.7636 37.5,34.5C 35.8333,34.5 34.1667,34.5 32.5,34.5C 32.5,32.5 32.5,30.5 32.5,28.5C 34.5,28.5 36.5,28.5 38.5,28.5 Z"/></g>
<g><path style="opacity:1" fill="#f04749" d="M 33.5,30.5 C 34.209,29.596 35.209,29.2627 36.5,29.5C 36.5,30.8333 36.5,32.1667 36.5,33.5C 33.2819,33.3491 32.9485,32.5158 35.5,31C 34.9056,30.5357 34.2389,30.369 33.5,30.5 Z"/></g>
<g><path style="opacity:1" fill="#fcd1d2" d="M 30.5,33.5 C 28.7215,32.3303 27.7215,30.6636 27.5,28.5C 30.5983,28.4125 30.9316,28.9125 28.5,30C 30.9833,30.5666 31.65,31.7333 30.5,33.5 Z"/></g>
<g><path style="opacity:1" fill="#226379" d="M 16.5,24.5 C 24.1376,25.8311 32.1376,26.4978 40.5,26.5C 48.8624,26.4978 56.8624,25.8311 64.5,24.5C 65.4013,25.2905 66.0679,26.2905 66.5,27.5C 57.1667,27.5 47.8333,27.5 38.5,27.5C 30.5,27.5 22.5,27.5 14.5,27.5C 14.9321,26.2905 15.5987,25.2905 16.5,24.5 Z"/></g>
<g><path style="opacity:1" fill="#19a7d0" d="M 17.5,21.5 C 20.8333,21.5 24.1667,21.5 27.5,21.5C 27.2627,22.791 27.596,23.791 28.5,24.5C 30.8333,24.5 33.1667,24.5 35.5,24.5C 36.404,23.791 36.7373,22.791 36.5,21.5C 39.1667,21.5 41.8333,21.5 44.5,21.5C 44.2627,22.791 44.596,23.791 45.5,24.5C 47.8333,24.5 50.1667,24.5 52.5,24.5C 53.404,23.791 53.7373,22.791 53.5,21.5C 56.5,21.5 59.5,21.5 62.5,21.5C 63.4013,22.2905 64.0679,23.2905 64.5,24.5C 56.8624,25.8311 48.8624,26.4978 40.5,26.5C 32.1376,26.4978 24.1376,25.8311 16.5,24.5C 16.5569,23.391 16.8902,22.391 17.5,21.5 Z"/></g>
<g><path style="opacity:1" fill="#4a6b52" d="M 62.5,21.5 C 59.5,21.5 56.5,21.5 53.5,21.5C 53.7373,22.791 53.404,23.791 52.5,24.5C 52.5,23.1667 52.5,21.8333 52.5,20.5C 56.0419,20.1872 59.3752,20.5206 62.5,21.5 Z"/></g>
<g><path style="opacity:1" fill="#5b6c47" d="M 45.5,24.5 C 44.596,23.791 44.2627,22.791 44.5,21.5C 41.8333,21.5 39.1667,21.5 36.5,21.5C 36.7373,22.791 36.404,23.791 35.5,24.5C 35.5,23.1667 35.5,21.8333 35.5,20.5C 38.8333,20.5 42.1667,20.5 45.5,20.5C 45.5,21.8333 45.5,23.1667 45.5,24.5 Z"/></g>
<g><path style="opacity:1" fill="#576c4a" d="M 17.5,21.5 C 20.9619,20.5184 24.6286,20.185 28.5,20.5C 28.5,21.1667 28.5,21.8333 28.5,22.5C 28.5,23.1667 28.5,23.8333 28.5,24.5C 27.596,23.791 27.2627,22.791 27.5,21.5C 24.1667,21.5 20.8333,21.5 17.5,21.5 Z"/></g>
<g><path style="opacity:1" fill="#5d6044" d="M 37.5,16.5 C 39.5,16.5 41.5,16.5 43.5,16.5C 44.3382,16.8417 44.6716,17.5084 44.5,18.5C 41.8333,18.5 39.1667,18.5 36.5,18.5C 36.3284,17.5084 36.6618,16.8417 37.5,16.5 Z"/></g>
<g><path style="opacity:1" fill="#1fa3cb" d="M 65.5,36.5 C 64.1086,38.5887 63.4419,40.922 63.5,43.5C 64.4604,49.1486 64.6271,54.8153 64,60.5C 63.4842,63.5469 61.9842,65.8802 59.5,67.5C 58.8333,66.1667 58.1667,64.8333 57.5,63.5C 56.8998,59.8705 56.2332,56.2039 55.5,52.5C 54.0035,56.3354 53.0035,56.3354 52.5,52.5C 51.5,52.5 50.5,52.5 49.5,52.5C 48.8333,56.5 48.1667,56.5 47.5,52.5C 46.5,52.5 45.5,52.5 44.5,52.5C 45.3311,56.2451 45.3311,59.9117 44.5,63.5C 43.5386,65.2646 43.2053,67.2646 43.5,69.5C 47.7016,69.1832 51.7016,69.5166 55.5,70.5C 50.8555,72.7211 45.8555,74.0545 40.5,74.5C 31.8932,75.0249 24.8932,72.0249 19.5,65.5C 34.8508,55.8068 50.1842,46.1401 65.5,36.5 Z"/></g>
<g><path style="opacity:0.639" fill="#312409" d="M 14.5,45.5 C 13.8363,50.4725 13.5029,55.4725 13.5,60.5C 12.838,58.6965 12.5046,56.6965 12.5,54.5C 12.3425,51.1864 13.0092,48.1864 14.5,45.5 Z"/></g>
<g><path style="opacity:0.008" fill="#171002" d="M 67.5,60.5 C 67.539,63.089 66.539,65.089 64.5,66.5C 64.9925,64.1815 65.9925,62.1815 67.5,60.5 Z"/></g>
<g><path style="opacity:0.149" fill="#241a06" d="M 13.5,60.5 C 15.6989,65.0416 18.6989,69.0416 22.5,72.5C 17.249,70.2417 14.249,66.2417 13.5,60.5 Z"/></g>
<g><path style="opacity:1" fill="#72231a" d="M 57.5,63.5 C 57.5,65.1667 57.5,66.8333 57.5,68.5C 53.1667,68.5 48.8333,68.5 44.5,68.5C 44.5,66.8333 44.5,65.1667 44.5,63.5C 45.3311,59.9117 45.3311,56.2451 44.5,52.5C 45.5,52.5 46.5,52.5 47.5,52.5C 48.1667,56.5 48.8333,56.5 49.5,52.5C 50.5,52.5 51.5,52.5 52.5,52.5C 53.0035,56.3354 54.0035,56.3354 55.5,52.5C 56.2332,56.2039 56.8998,59.8705 57.5,63.5 Z"/></g>
<g><path style="opacity:1" fill="#23697f" d="M 44.5,63.5 C 44.5,65.1667 44.5,66.8333 44.5,68.5C 48.8333,68.5 53.1667,68.5 57.5,68.5C 57.5,66.8333 57.5,65.1667 57.5,63.5C 58.1667,64.8333 58.8333,66.1667 59.5,67.5C 58.7377,69.2624 57.4044,70.2624 55.5,70.5C 51.7016,69.5166 47.7016,69.1832 43.5,69.5C 43.2053,67.2646 43.5386,65.2646 44.5,63.5 Z"/></g>
<g><path style="opacity:0.031" fill="#150f01" d="M 64.5,66.5 C 63.5,69.5 61.5,71.5 58.5,72.5C 60.1667,70.1667 62.1667,68.1667 64.5,66.5 Z"/></g>
<g><path style="opacity:0.167" fill="#1b1303" d="M 56.5,73.5 C 55.2196,74.9313 53.5529,75.5979 51.5,75.5C 52.7804,74.0687 54.4471,73.4021 56.5,73.5 Z"/></g>
<g><path style="opacity:0.455" fill="#281d08" d="M 24.5,73.5 C 28.9115,74.598 33.2448,75.598 37.5,76.5C 32.6882,77.0355 28.3548,76.0355 24.5,73.5 Z"/></g>
<g><path style="opacity:0.875" fill="#4b3c24" d="M 37.5,76.5 C 39.1667,76.5 40.8333,76.5 42.5,76.5C 41.8902,77.391 41.5569,78.391 41.5,79.5C 40.8333,79.5 40.1667,79.5 39.5,79.5C 39.2178,78.2223 38.5511,77.2223 37.5,76.5 Z"/></g>
</svg>
