<?xml version="1.0" encoding="UTF-8"?>
<!DOCTYPE svg PUBLIC "-//W3C//DTD SVG 1.1//EN" "http://www.w3.org/Graphics/SVG/1.1/DTD/svg11.dtd">
<svg xmlns="http://www.w3.org/2000/svg" version="1.1" width="80px" height="80px" style="shape-rendering:geometricPrecision; text-rendering:geometricPrecision; image-rendering:optimizeQuality; fill-rule:evenodd; clip-rule:evenodd" xmlns:xlink="http://www.w3.org/1999/xlink">
<g><path style="opacity:0.988" fill="#3e2b75" d="M 38.5,6.5 C 39.3382,6.84171 39.6716,7.50838 39.5,8.5C 33.5295,17.3146 25.1962,20.9812 14.5,19.5C 11.7417,18.0335 12.075,17.3668 15.5,17.5C 25.1786,17.8259 32.8452,14.1592 38.5,6.5 Z"/></g>
<g><path style="opacity:0.878" fill="#485a95" d="M 38.5,6.5 C 38.8966,5.47498 39.5632,5.30831 40.5,6C 47.9399,15.7226 57.6066,19.2226 69.5,16.5C 69.824,23.3543 69.4907,30.021 68.5,36.5C 68.849,29.428 68.5157,23.7614 67.5,19.5C 56.1727,20.834 46.8394,17.1673 39.5,8.5C 39.6716,7.50838 39.3382,6.84171 38.5,6.5 Z"/></g>
<g><path style="opacity:1" fill="#e0b41b" d="M 39.5,8.5 C 46.8394,17.1673 56.1727,20.834 67.5,19.5C 68.1417,29.7023 66.4751,39.3689 62.5,48.5C 62.6716,47.5084 62.3382,46.8417 61.5,46.5C 62.9225,41.8922 63.7559,37.2255 64,32.5C 61.6716,33.6635 59.8382,35.3302 58.5,37.5C 58.1667,37.5 57.8333,37.5 57.5,37.5C 57.5,36.8333 57.1667,36.5 56.5,36.5C 59.1667,34.1667 61.8333,31.8333 64.5,29.5C 65.4731,27.0521 65.8064,24.3854 65.5,21.5C 62.5,21.5 59.5,21.5 56.5,21.5C 54.7741,21.1854 53.1075,21.0187 51.5,21C 47.3068,24.3651 43.3068,27.8651 39.5,31.5C 32.8333,36.8333 26.1667,42.1667 19.5,47.5C 18.4489,46.7777 17.7822,45.7777 17.5,44.5C 18.4728,45.7914 19.4728,45.7914 20.5,44.5C 21.4973,37.1968 21.8306,29.8635 21.5,22.5C 19.5,22.5 17.5,22.5 15.5,22.5C 15.6123,29.1802 15.9457,35.8469 16.5,42.5C 16.5,43.8333 16.5,45.1667 16.5,46.5C 13.0636,38.2724 11.897,29.6057 13,20.5C 13.3826,19.944 13.8826,19.6107 14.5,19.5C 25.1962,20.9812 33.5295,17.3146 39.5,8.5 Z"/></g>
<g><path style="opacity:1" fill="#274683" d="M 43.5,16.5 C 45.5952,17.412 47.5952,18.5787 49.5,20C 47.6667,21.8333 45.8333,23.6667 44,25.5C 43.502,22.5184 43.3354,19.5184 43.5,16.5 Z"/></g>
<g><path style="opacity:1" fill="#636b5d" d="M 34.5,17.5 C 34.56,16.9569 34.8933,16.6236 35.5,16.5C 36.8147,21.9864 36.8147,27.3197 35.5,32.5C 35.8205,27.3054 35.4872,22.3054 34.5,17.5 Z"/></g>
<g><path style="opacity:1" fill="#224485" d="M 34.5,17.5 C 35.4872,22.3054 35.8205,27.3054 35.5,32.5C 33.4535,34.2789 31.2869,35.9456 29,37.5C 28.1701,31.8041 28.3368,26.1375 29.5,20.5C 31.3604,19.7401 33.027,18.7401 34.5,17.5 Z"/></g>
<g><path style="opacity:1" fill="#a0903a" d="M 56.5,21.5 C 59.5,21.5 62.5,21.5 65.5,21.5C 65.8064,24.3854 65.4731,27.0521 64.5,29.5C 64.5,27.1667 64.5,24.8333 64.5,22.5C 61.6146,22.8064 58.9479,22.4731 56.5,21.5 Z"/></g>
<g><path style="opacity:1" fill="#1e4287" d="M 17.5,44.5 C 17.6716,43.5084 17.3382,42.8417 16.5,42.5C 15.9457,35.8469 15.6123,29.1802 15.5,22.5C 17.5,22.5 19.5,22.5 21.5,22.5C 21.8306,29.8635 21.4973,37.1968 20.5,44.5C 19.4728,45.7914 18.4728,45.7914 17.5,44.5 Z"/></g>
<g><path style="opacity:1" fill="#374c7c" d="M 56.5,21.5 C 58.9479,22.4731 61.6146,22.8064 64.5,22.5C 64.5,24.8333 64.5,27.1667 64.5,29.5C 61.8333,31.8333 59.1667,34.1667 56.5,36.5C 49.9849,41.2591 43.6515,46.2591 37.5,51.5C 37.1667,50.8333 36.8333,50.1667 36.5,49.5C 38.8333,49.1667 40.1667,47.8333 40.5,45.5C 42.6477,45.6106 42.981,44.944 41.5,43.5C 42.2421,42.7132 43.0754,42.0465 44,41.5C 46.1785,42.8398 46.6785,42.5065 45.5,40.5C 45.5,40.1667 45.5,39.8333 45.5,39.5C 46.4584,39.9528 47.2917,40.6195 48,41.5C 48.1626,39.6133 47.3293,38.1133 45.5,37C 47.2555,36.8595 48.9222,37.3595 50.5,38.5C 51.521,37.9984 51.6877,37.3317 51,36.5C 49.2368,33.9804 47.2368,31.6471 45,29.5C 45.3333,31.1667 45.6667,32.8333 46,34.5C 44.4157,33.1387 42.5824,32.472 40.5,32.5C 40.5,31.8333 40.1667,31.5 39.5,31.5C 43.3068,27.8651 47.3068,24.3651 51.5,21C 53.1075,21.0187 54.7741,21.1854 56.5,21.5 Z"/></g>
<g><path style="opacity:1" fill="#ceab24" d="M 49.5,25.5 C 51.7583,25.7751 52.0916,26.7751 50.5,28.5C 52.3581,30.5241 54.0248,32.6908 55.5,35C 54.8333,35.6667 54.1667,35.6667 53.5,35C 51.964,31.9637 49.6307,29.797 46.5,28.5C 47.7701,27.7124 48.7701,26.7124 49.5,25.5 Z"/></g>
<g><path style="opacity:1" fill="#d2ad24" d="M 52.5,23.5 C 55.6611,24.4698 58.4944,26.1365 61,28.5C 61.6667,29.1667 61.6667,29.8333 61,30.5C 59.9887,29.6634 58.8221,29.33 57.5,29.5C 57.6567,30.8734 57.49,32.2068 57,33.5C 54.682,30.531 53.182,27.1977 52.5,23.5 Z"/></g>
<g><path style="opacity:1" fill="#234485" d="M 61.5,46.5 C 60.6554,47.6715 59.9887,49.0048 59.5,50.5C 58.5151,46.3656 58.1818,42.0323 58.5,37.5C 59.8382,35.3302 61.6716,33.6635 64,32.5C 63.7559,37.2255 62.9225,41.8922 61.5,46.5 Z"/></g>
<g><path style="opacity:1" fill="#cca926" d="M 45.5,39.5 C 43.5879,37.3428 41.9213,35.0094 40.5,32.5C 42.5824,32.472 44.4157,33.1387 46,34.5C 45.6667,32.8333 45.3333,31.1667 45,29.5C 47.2368,31.6471 49.2368,33.9804 51,36.5C 51.6877,37.3317 51.521,37.9984 50.5,38.5C 48.9222,37.3595 47.2555,36.8595 45.5,37C 47.3293,38.1133 48.1626,39.6133 48,41.5C 47.2917,40.6195 46.4584,39.9528 45.5,39.5 Z"/></g>
<g><path style="opacity:1" fill="#536365" d="M 57.5,37.5 C 57.8333,37.5 58.1667,37.5 58.5,37.5C 58.1818,42.0323 58.5151,46.3656 59.5,50.5C 59.2172,51.2891 58.7172,51.9558 58,52.5C 57.5007,47.5111 57.3341,42.5111 57.5,37.5 Z"/></g>
<g><path style="opacity:1" fill="#dab21b" d="M 45.5,40.5 C 46.6785,42.5065 46.1785,42.8398 44,41.5C 43.0754,42.0465 42.2421,42.7132 41.5,43.5C 42.981,44.944 42.6477,45.6106 40.5,45.5C 39.4533,42.4037 38.12,39.4037 36.5,36.5C 36.8333,36.1667 37.1667,35.8333 37.5,35.5C 40.1841,37.1933 42.8508,38.86 45.5,40.5 Z"/></g>
<g><path style="opacity:1" fill="#60695f" d="M 39.5,38.5 C 41.0847,39.0024 41.5847,40.0024 41,41.5C 39.9614,40.7562 39.4614,39.7562 39.5,38.5 Z"/></g>
<g><path style="opacity:1" fill="#c3a42c" d="M 40.5,45.5 C 40.1667,47.8333 38.8333,49.1667 36.5,49.5C 34.4707,47.1415 32.4707,44.8082 30.5,42.5C 30.3691,41.6236 30.7025,40.9569 31.5,40.5C 33.524,42.6898 35.3573,45.0232 37,47.5C 38.1127,46.695 39.2794,46.0283 40.5,45.5 Z"/></g>
<g><path style="opacity:1" fill="#eaba11" d="M 56.5,36.5 C 57.1667,36.5 57.5,36.8333 57.5,37.5C 57.3341,42.5111 57.5007,47.5111 58,52.5C 58.7172,51.9558 59.2172,51.2891 59.5,50.5C 59.9887,49.0048 60.6554,47.6715 61.5,46.5C 62.3382,46.8417 62.6716,47.5084 62.5,48.5C 58.7081,59.9581 51.3747,68.2914 40.5,73.5C 28.2409,68.2433 20.2409,59.2433 16.5,46.5C 16.5,45.1667 16.5,43.8333 16.5,42.5C 17.3382,42.8417 17.6716,43.5084 17.5,44.5C 17.7822,45.7777 18.4489,46.7777 19.5,47.5C 20.985,52.1481 23.485,56.1481 27,59.5C 30.9341,57.3987 34.4341,54.732 37.5,51.5C 43.6515,46.2591 49.9849,41.2591 56.5,36.5 Z"/></g>
<g><path style="opacity:1" fill="#847f47" d="M 49.5,44.5 C 49.56,43.9569 49.8933,43.6236 50.5,43.5C 51.8181,50.3222 51.8181,56.9888 50.5,63.5C 50.8235,56.9779 50.4902,50.6446 49.5,44.5 Z"/></g>
<g><path style="opacity:1" fill="#1e4287" d="M 49.5,44.5 C 50.4902,50.6446 50.8235,56.9779 50.5,63.5C 48.5441,65.1139 46.5441,66.7806 44.5,68.5C 43.1667,61.8333 43.1667,55.1667 44.5,48.5C 46.1856,47.1431 47.8523,45.8098 49.5,44.5 Z"/></g>
<g><path style="opacity:1" fill="#30497f" d="M 39.5,31.5 C 40.1667,31.5 40.5,31.8333 40.5,32.5C 41.9213,35.0094 43.5879,37.3428 45.5,39.5C 45.5,39.8333 45.5,40.1667 45.5,40.5C 42.8508,38.86 40.1841,37.1933 37.5,35.5C 37.1667,35.8333 36.8333,36.1667 36.5,36.5C 38.12,39.4037 39.4533,42.4037 40.5,45.5C 39.2794,46.0283 38.1127,46.695 37,47.5C 35.3573,45.0232 33.524,42.6898 31.5,40.5C 30.7025,40.9569 30.3691,41.6236 30.5,42.5C 32.4707,44.8082 34.4707,47.1415 36.5,49.5C 36.8333,50.1667 37.1667,50.8333 37.5,51.5C 34.4341,54.732 30.9341,57.3987 27,59.5C 23.485,56.1481 20.985,52.1481 19.5,47.5C 26.1667,42.1667 32.8333,36.8333 39.5,31.5 Z"/></g>
<g><path style="opacity:1" fill="#cca926" d="M 30.5,42.5 C 29.6245,45.7782 30.7912,48.4449 34,50.5C 34.6877,51.3317 34.521,51.9984 33.5,52.5C 31.4442,49.4427 28.7776,47.1093 25.5,45.5C 26.9397,44.0476 28.6064,43.0476 30.5,42.5 Z"/></g>
<g><path style="opacity:1" fill="#ceaa27" d="M 22.5,47.5 C 26.2022,49.0236 29.5355,51.1903 32.5,54C 31.2161,54.6838 30.0495,54.5171 29,53.5C 27.883,54.9494 27.2163,56.6161 27,58.5C 24.8154,55.1129 23.3154,51.4462 22.5,47.5 Z"/></g>
<g><path style="opacity:1" fill="#676f59" d="M 34.5,56.5 C 34.56,55.9569 34.8933,55.6236 35.5,55.5C 36.8333,59.8333 36.8333,64.1667 35.5,68.5C 34.8933,68.3764 34.56,68.0431 34.5,67.5C 35.8333,63.8333 35.8333,60.1667 34.5,56.5 Z"/></g>
<g><path style="opacity:1" fill="#1e4386" d="M 34.5,56.5 C 35.8333,60.1667 35.8333,63.8333 34.5,67.5C 32.1878,65.8545 30.1878,63.8545 28.5,61.5C 30.5193,59.8103 32.5193,58.1436 34.5,56.5 Z"/></g>
<g><path style="opacity:0.953" fill="#4d6296" d="M 15.5,17.5 C 12.075,17.3668 11.7417,18.0335 14.5,19.5C 13.8826,19.6107 13.3826,19.944 13,20.5C 11.897,29.6057 13.0636,38.2724 16.5,46.5C 20.2409,59.2433 28.2409,68.2433 40.5,73.5C 38.9689,74.9245 39.3023,75.5912 41.5,75.5C 40.7494,76.5735 39.7494,76.7401 38.5,76C 19.6753,65.7016 10.342,49.7016 10.5,28C 10.6192,24.132 10.9526,20.2987 11.5,16.5C 13.099,16.2322 14.4324,16.5655 15.5,17.5 Z"/></g>
<g><path style="opacity:0.949" fill="#45347c" d="M 68.5,36.5 C 66.7685,49.1294 61.4352,59.9627 52.5,69C 49.1076,71.6937 45.4409,73.8604 41.5,75.5C 39.3023,75.5912 38.9689,74.9245 40.5,73.5C 51.3747,68.2914 58.7081,59.9581 62.5,48.5C 66.4751,39.3689 68.1417,29.7023 67.5,19.5C 68.5157,23.7614 68.849,29.428 68.5,36.5 Z"/></g>
</svg>
