<?xml version="1.0" encoding="UTF-8"?>
<!DOCTYPE svg PUBLIC "-//W3C//DTD SVG 1.1//EN" "http://www.w3.org/Graphics/SVG/1.1/DTD/svg11.dtd">
<svg xmlns="http://www.w3.org/2000/svg" version="1.1" width="80px" height="80px" style="shape-rendering:geometricPrecision; text-rendering:geometricPrecision; image-rendering:optimizeQuality; fill-rule:evenodd; clip-rule:evenodd" xmlns:xlink="http://www.w3.org/1999/xlink">
<g><path style="opacity:0.999" fill="#e8b534" d="M 65.5,60.5 C 64.8333,59.8333 64.1667,59.1667 63.5,58.5C 65.2645,54.6308 66.7645,50.6308 68,46.5C 68.4999,32.504 68.6666,18.504 68.5,4.5C 49.8333,4.5 31.1667,4.5 12.5,4.5C 12.3334,18.8372 12.5001,33.1705 13,47.5C 15.3107,54.7939 19.144,61.1273 24.5,66.5C 24.8333,67.8333 25.1667,69.1667 25.5,70.5C 24.5,70.1667 23.8333,69.5 23.5,68.5C 23.0269,67.0937 22.0269,66.427 20.5,66.5C 18.4864,64.8171 16.8198,62.8171 15.5,60.5C 15.7148,58.8212 15.0481,57.8212 13.5,57.5C 11.7884,54.7385 10.6218,51.7385 10,48.5C 9.50008,32.8369 9.33341,17.1702 9.5,1.5C 30.1667,1.5 50.8333,1.5 71.5,1.5C 71.6666,17.1702 71.4999,32.8369 71,48.5C 69.9572,52.9155 68.1238,56.9155 65.5,60.5 Z"/></g>
<g><path style="opacity:1" fill="#f9f9f7" d="M 63.5,58.5 C 57.2823,66.0406 49.6156,71.7073 40.5,75.5C 34.8255,72.999 29.4922,69.999 24.5,66.5C 19.144,61.1273 15.3107,54.7939 13,47.5C 12.5001,33.1705 12.3334,18.8372 12.5,4.5C 31.1667,4.5 49.8333,4.5 68.5,4.5C 68.6666,18.504 68.4999,32.504 68,46.5C 66.7645,50.6308 65.2645,54.6308 63.5,58.5 Z"/></g>
<g><path style="opacity:1" fill="#2aa5df" d="M 28.5,14.5 C 38.9396,14.0315 49.2729,14.6981 59.5,16.5C 59.6665,25.8393 59.4998,35.1726 59,44.5C 55.7249,53.609 49.5582,59.9423 40.5,63.5C 31.1062,60.2733 24.9395,53.94 22,44.5C 21.1679,35.1489 21.3346,25.8155 22.5,16.5C 24.6568,15.9495 26.6568,15.2829 28.5,14.5 Z"/></g>
<g><path style="opacity:1" fill="#a1dbf1" d="M 36.5,22.5 C 32.7016,23.4834 28.7016,23.8168 24.5,23.5C 24.5,26.5 24.5,29.5 24.5,32.5C 23.5206,29.3752 23.1872,26.0419 23.5,22.5C 27.8333,22.5 32.1667,22.5 36.5,22.5 Z"/></g>
<g><path style="opacity:1" fill="#8bd2ee" d="M 44.5,22.5 C 48.8333,22.5 53.1667,22.5 57.5,22.5C 57.8128,26.0419 57.4794,29.3752 56.5,32.5C 56.5,29.5 56.5,26.5 56.5,23.5C 52.2984,23.8168 48.2984,23.4834 44.5,22.5 Z"/></g>
<g><path style="opacity:1" fill="#313131" d="M 14.5,32.5 C 20.318,33.7307 20.6513,35.3974 15.5,37.5C 15.6114,35.8914 15.278,34.2247 14.5,32.5 Z"/></g>
<g><path style="opacity:1" fill="#fdfdfa" d="M 36.5,22.5 C 39.1667,22.5 41.8333,22.5 44.5,22.5C 48.2984,23.4834 52.2984,23.8168 56.5,23.5C 56.5,26.5 56.5,29.5 56.5,32.5C 54.7675,35.0389 53.7675,38.0389 53.5,41.5C 54.325,42.3857 55.325,42.719 56.5,42.5C 56.1958,45.5792 55.1958,48.4125 53.5,51C 44.8333,51.6667 36.1667,51.6667 27.5,51C 23.8604,46.763 23.5271,42.263 26.5,37.5C 26.4439,35.3603 25.7773,33.6936 24.5,32.5C 24.5,29.5 24.5,26.5 24.5,23.5C 28.7016,23.8168 32.7016,23.4834 36.5,22.5 Z"/></g>
<g><path style="opacity:1" fill="#f1b822" d="M 43.5,24.5 C 52.9705,27.713 54.9705,33.5463 49.5,42C 50.9898,44.5333 50.3231,46.3666 47.5,47.5C 45.0854,40.7866 44.0854,41.1199 44.5,48.5C 43.5,48.5 42.5,48.5 41.5,48.5C 40.8665,40.0968 41.5332,32.0968 43.5,24.5 Z"/></g>
<g><path style="opacity:1" fill="#fefaef" d="M 44.5,29.5 C 46.9905,30.1081 48.3238,31.7748 48.5,34.5C 48.2718,36.3969 47.2718,37.7303 45.5,38.5C 44.5159,35.5719 44.1826,32.5719 44.5,29.5 Z"/></g>
<g><path style="opacity:1" fill="#f6d270" d="M 37.5,24.5 C 39.5,23.1667 41.5,23.1667 43.5,24.5C 41.5332,32.0968 40.8665,40.0968 41.5,48.5C 42.5,48.5 43.5,48.5 44.5,48.5C 43.0813,49.4511 41.4147,49.7845 39.5,49.5C 40.135,40.7663 39.4684,32.4329 37.5,24.5 Z"/></g>
<g><path style="opacity:1" fill="#f1b927" d="M 37.5,24.5 C 39.4684,32.4329 40.135,40.7663 39.5,49.5C 38.5,49.5 37.5,49.5 36.5,49.5C 36.5,46.1667 36.5,42.8333 36.5,39.5C 35.0222,39.238 33.6888,39.5713 32.5,40.5C 34.5202,42.5994 34.8535,44.9327 33.5,47.5C 25.2661,39.7001 25.5995,32.2001 34.5,25C 35.448,24.5172 36.448,24.3505 37.5,24.5 Z"/></g>
<g><path style="opacity:1" fill="#fef8e9" d="M 34.5,29.5 C 36.3079,30.9179 36.9746,32.9179 36.5,35.5C 35.1667,35.5 33.8333,35.5 32.5,35.5C 32.6036,33.2972 33.2702,31.2972 34.5,29.5 Z"/></g>
<g><path style="opacity:1" fill="#343434" d="M 64.5,32.5 C 65.3764,32.3691 66.0431,32.7025 66.5,33.5C 65.2889,34.7202 65.2889,35.8869 66.5,37C 64.8925,36.9813 63.2259,36.8146 61.5,36.5C 61.5,35.5 61.5,34.5 61.5,33.5C 62.791,33.7373 63.791,33.404 64.5,32.5 Z"/></g>
<g><path style="opacity:1" fill="#373737" d="M 18.5,37.5 C 19.5983,38.6009 19.765,39.9343 19,41.5C 17.4905,40.9103 15.9905,40.2436 14.5,39.5C 15.9492,38.8281 17.2825,38.1614 18.5,37.5 Z"/></g>
<g><path style="opacity:1" fill="#565656" d="M 64.5,38.5 C 66.1765,39.1834 66.8432,40.5168 66.5,42.5C 61.2063,42.6822 61.2063,43.1822 66.5,44C 65.6634,45.0113 65.33,46.1779 65.5,47.5C 60.6519,47.2255 59.3186,44.8921 61.5,40.5C 63.1788,40.7148 64.1788,40.0481 64.5,38.5 Z"/></g>
<g><path style="opacity:1" fill="#464646" d="M 14.5,42.5 C 20.7245,42.4494 21.0578,43.7827 15.5,46.5C 14.5713,45.3112 14.238,43.9778 14.5,42.5 Z"/></g>
<g><path style="opacity:1" fill="#3f3f3f" d="M 18.5,46.5 C 19.3764,46.3691 20.0431,46.7025 20.5,47.5C 21.5366,50.7034 23.2032,53.5367 25.5,56C 23.9452,57.2893 22.2785,57.956 20.5,58C 21.3567,57.3109 22.0233,56.4776 22.5,55.5C 21.1667,55.1667 19.8333,54.8333 18.5,54.5C 21.1798,52.5891 21.0131,50.9224 18,49.5C 17.237,52.0635 16.737,52.0635 16.5,49.5C 16.9424,48.2613 17.6091,47.2613 18.5,46.5 Z"/></g>
<g><path style="opacity:1" fill="#313131" d="M 59.5,48.5 C 64.3917,47.8757 65.5584,49.5424 63,53.5C 61.1978,52.2107 60.0312,50.5441 59.5,48.5 Z"/></g>
<g><path style="opacity:1" fill="#363636" d="M 58.5,51.5 C 59.9473,52.6222 60.9473,54.1222 61.5,56C 58.0414,56.1454 57.0414,54.6454 58.5,51.5 Z"/></g>
<g><path style="opacity:1" fill="#343434" d="M 54.5,56.5 C 59.4978,56.6043 60.3311,58.2709 57,61.5C 55.6283,60.0899 54.795,58.4233 54.5,56.5 Z"/></g>
<g><path style="opacity:0.851" fill="#705511" d="M 13.5,57.5 C 15.0481,57.8212 15.7148,58.8212 15.5,60.5C 14.5987,59.7095 13.9321,58.7095 13.5,57.5 Z"/></g>
<g><path style="opacity:0.996" fill="#c99b23" d="M 63.5,58.5 C 64.1667,59.1667 64.8333,59.8333 65.5,60.5C 58.955,68.7602 50.955,75.0936 41.5,79.5C 40.5,79.5 39.5,79.5 38.5,79.5C 33.9924,76.7467 29.6591,73.7467 25.5,70.5C 25.1667,69.1667 24.8333,67.8333 24.5,66.5C 29.4922,69.999 34.8255,72.999 40.5,75.5C 49.6156,71.7073 57.2823,66.0406 63.5,58.5 Z"/></g>
<g><path style="opacity:1" fill="#404040" d="M 28.5,60.5 C 27.2502,60.4226 26.4169,59.756 26,58.5C 25.0853,59.3279 24.4186,60.3279 24,61.5C 23.1458,59.3927 23.8125,58.0593 26,57.5C 27.7491,57.7483 28.5824,58.7483 28.5,60.5 Z"/></g>
<g><path style="opacity:1" fill="#373737" d="M 51.5,59.5 C 55.7276,60.9364 56.061,62.6031 52.5,64.5C 49.2498,63.0858 48.9165,61.4191 51.5,59.5 Z"/></g>
<g><path style="opacity:1" fill="#2c2c2c" d="M 28.5,60.5 C 32.1612,60.3501 33.1612,61.8501 31.5,65C 30.2506,65.7401 29.2506,65.5735 28.5,64.5C 27.3143,63.2946 27.3143,61.9613 28.5,60.5 Z"/></g>
<g><path style="opacity:1" fill="#dedede" d="M 28.5,64.5 C 28.6395,62.663 29.3061,62.3296 30.5,63.5C 30.0431,64.2975 29.3764,64.6309 28.5,64.5 Z"/></g>
<g><path style="opacity:0.49" fill="#533f0e" d="M 20.5,66.5 C 22.0269,66.427 23.0269,67.0937 23.5,68.5C 21.9731,68.573 20.9731,67.9063 20.5,66.5 Z"/></g>
<g><path style="opacity:1" fill="#5e5e5e" d="M 35.5,66.5 C 38.5,67.8333 41.5,67.8333 44.5,66.5C 44.5,68.1667 44.5,69.8333 44.5,71.5C 41.5,70.1667 38.5,70.1667 35.5,71.5C 35.5,69.8333 35.5,68.1667 35.5,66.5 Z"/></g>
</svg>
