<?xml version="1.0" encoding="UTF-8"?>
<!DOCTYPE svg PUBLIC "-//W3C//DTD SVG 1.1//EN" "http://www.w3.org/Graphics/SVG/1.1/DTD/svg11.dtd">
<svg xmlns="http://www.w3.org/2000/svg" version="1.1" width="80px" height="80px" style="shape-rendering:geometricPrecision; text-rendering:geometricPrecision; image-rendering:optimizeQuality; fill-rule:evenodd; clip-rule:evenodd" xmlns:xlink="http://www.w3.org/1999/xlink">
<g><path style="opacity:1" fill="#201a1e" d="M 65.5,16.5 C 65.5,16.8333 65.5,17.1667 65.5,17.5C 63.9826,17.5106 62.8159,18.1772 62,19.5C 55.335,31.5009 48.1684,43.1676 40.5,54.5C 32.3195,42.138 24.6528,29.4714 17.5,16.5C 17.5,16.1667 17.5,15.8333 17.5,15.5C 19.2528,13.7775 21.2528,12.2775 23.5,11C 35.1667,10.3333 46.8333,10.3333 58.5,11C 61.02,12.6971 63.3533,14.5305 65.5,16.5 Z"/></g>
<g><path style="opacity:1" fill="#4cadde" d="M 25.5,12.5 C 35.3411,11.1771 45.3411,11.1771 55.5,12.5C 50.4131,21.0053 45.5798,29.672 41,38.5C 35.572,29.9245 30.4053,21.2579 25.5,12.5 Z"/></g>
<g><path style="opacity:1" fill="#2f5266" d="M 34.5,14.5 C 35.9778,14.238 37.3112,14.5713 38.5,15.5C 37.7261,16.7112 36.8928,16.7112 36,15.5C 35.2506,16.635 35.4173,17.635 36.5,18.5C 39.1867,17.9394 39.1867,18.6061 36.5,20.5C 33.6095,19.1627 32.9428,17.1627 34.5,14.5 Z"/></g>
<g><path style="opacity:1" fill="#2c4556" d="M 44.5,14.5 C 45.9649,15.4057 46.9649,16.739 47.5,18.5C 45.8868,18.0321 44.3868,18.6987 43,20.5C 43.1503,18.4944 43.6503,16.4944 44.5,14.5 Z"/></g>
<g><path style="opacity:0.541" fill="#796363" d="M 65.5,16.5 C 67.764,17.5813 69.9307,18.9146 72,20.5C 72.5847,21.9976 72.0847,22.9976 70.5,23.5C 69.6367,20.8844 67.9701,18.8844 65.5,17.5C 65.5,17.1667 65.5,16.8333 65.5,16.5 Z"/></g>
<g><path style="opacity:0.678" fill="#604d4e" d="M 17.5,15.5 C 17.5,15.8333 17.5,16.1667 17.5,16.5C 15.3021,18.0981 12.9687,19.4314 10.5,20.5C 12.2964,18.1 14.6298,16.4333 17.5,15.5 Z"/></g>
<g><path style="opacity:1" fill="#ca0e25" d="M 17.5,16.5 C 24.6528,29.4714 32.3195,42.138 40.5,54.5C 48.1684,43.1676 55.335,31.5009 62,19.5C 62.8159,18.1772 63.9826,17.5106 65.5,17.5C 67.9701,18.8844 69.6367,20.8844 70.5,23.5C 64.8377,30.148 60.171,37.4814 56.5,45.5C 53.4208,48.6505 51.0875,52.3171 49.5,56.5C 47.0499,58.6291 45.3833,61.2957 44.5,64.5C 43.1733,65.8001 41.84,67.1335 40.5,68.5C 38.0566,64.5888 35.3899,60.9221 32.5,57.5C 27.9121,48.6497 22.5788,40.3164 16.5,32.5C 15.6167,29.2957 13.9501,26.6291 11.5,24.5C 11.1667,23.1667 10.8333,21.8333 10.5,20.5C 12.9687,19.4314 15.3021,18.0981 17.5,16.5 Z"/></g>
<g><path style="opacity:0.6" fill="#8c7f7f" d="M 10.5,20.5 C 10.8333,21.8333 11.1667,23.1667 11.5,24.5C 10.1634,23.6851 9.16337,22.5185 8.5,21C 9.09442,20.5357 9.76109,20.369 10.5,20.5 Z"/></g>
<g><path style="opacity:1" fill="#2c4859" d="M 38.5,23.5 C 39.8333,23.5 41.1667,23.5 42.5,23.5C 42.4208,24.9305 42.7542,26.2638 43.5,27.5C 41.9547,28.4519 40.288,28.7852 38.5,28.5C 38.5,26.8333 38.5,25.1667 38.5,23.5 Z"/></g>
<g><path style="opacity:0.357" fill="#8c7b7b" d="M 11.5,24.5 C 13.9501,26.6291 15.6167,29.2957 16.5,32.5C 14.0499,30.3709 12.3833,27.7043 11.5,24.5 Z"/></g>
<g><path style="opacity:0.376" fill="#887271" d="M 70.5,23.5 C 66.3297,31.18 61.663,38.5133 56.5,45.5C 60.171,37.4814 64.8377,30.148 70.5,23.5 Z"/></g>
<g><path style="opacity:0.404" fill="#8b7474" d="M 16.5,32.5 C 22.5788,40.3164 27.9121,48.6497 32.5,57.5C 26.4212,49.6836 21.0879,41.3503 16.5,32.5 Z"/></g>
<g><path style="opacity:0.353" fill="#8b7777" d="M 56.5,45.5 C 54.9125,49.6829 52.5792,53.3495 49.5,56.5C 51.0875,52.3171 53.4208,48.6505 56.5,45.5 Z"/></g>
<g><path style="opacity:0.408" fill="#8a7676" d="M 49.5,56.5 C 48.6167,59.7043 46.9501,62.3709 44.5,64.5C 45.3833,61.2957 47.0499,58.6291 49.5,56.5 Z"/></g>
<g><path style="opacity:0.365" fill="#8a7676" d="M 32.5,57.5 C 35.3899,60.9221 38.0566,64.5888 40.5,68.5C 41.84,67.1335 43.1733,65.8001 44.5,64.5C 44.2628,67.8968 42.5961,69.7301 39.5,70C 36.7624,66.0212 34.429,61.8546 32.5,57.5 Z"/></g>
</svg>
