<?xml version="1.0" encoding="UTF-8"?>
<!DOCTYPE svg PUBLIC "-//W3C//DTD SVG 1.1//EN" "http://www.w3.org/Graphics/SVG/1.1/DTD/svg11.dtd">
<svg xmlns="http://www.w3.org/2000/svg" version="1.1" width="200px" height="200px" style="shape-rendering:geometricPrecision; text-rendering:geometricPrecision; image-rendering:optimizeQuality; fill-rule:evenodd; clip-rule:evenodd" xmlns:xlink="http://www.w3.org/1999/xlink">
<g><path style="opacity:0.977" fill="#040404" d="M 97.5,2.5 C 104.26,5.71429 110.926,9.21429 117.5,13C 140.126,23.3515 163.793,26.8515 188.5,23.5C 193.387,63.5491 186.887,101.549 169,137.5C 158.653,154.182 145.82,168.682 130.5,181C 120.982,187.759 110.649,192.926 99.5,196.5C 92.2088,194.348 85.2088,191.515 78.5,188C 40.3236,163.454 17.8236,128.62 11,83.5C 8.43485,63.5467 7.93485,43.5467 9.5,23.5C 40.4141,27.4358 69.0808,21.2692 95.5,5C 96.3805,4.2917 97.0472,3.45837 97.5,2.5 Z"/></g>
<g><path style="opacity:1" fill="#f7f7f7" d="M 155.5,29.5 C 164.318,30.4933 173.318,30.8266 182.5,30.5C 182.5,41.8333 182.5,53.1667 182.5,64.5C 182.5,65.5 182.5,66.5 182.5,67.5C 126.833,67.5 71.1667,67.5 15.5,67.5C 15.5,66.5 15.5,65.5 15.5,64.5C 15.5,53.1667 15.5,41.8333 15.5,30.5C 24.6822,30.8266 33.6822,30.4933 42.5,29.5C 62.9869,27.1684 81.8203,20.1684 99,8.5C 115.987,20.2951 134.821,27.2951 155.5,29.5 Z"/></g>
<g><path style="opacity:1" fill="#acacac" d="M 42.5,29.5 C 33.6822,30.4933 24.6822,30.8266 15.5,30.5C 15.5,41.8333 15.5,53.1667 15.5,64.5C 14.5051,53.012 14.1717,41.3453 14.5,29.5C 23.8333,29.5 33.1667,29.5 42.5,29.5 Z"/></g>
<g><path style="opacity:1" fill="#c0c0c0" d="M 155.5,29.5 C 164.833,29.5 174.167,29.5 183.5,29.5C 183.828,41.3453 183.495,53.012 182.5,64.5C 182.5,53.1667 182.5,41.8333 182.5,30.5C 173.318,30.8266 164.318,30.4933 155.5,29.5 Z"/></g>
<g><path style="opacity:1" fill="#090909" d="M 31.5,44.5 C 31.2648,45.0967 30.7648,45.4301 30,45.5C 28.4329,44.1439 26.5996,43.4772 24.5,43.5C 24.5,48.1667 24.5,52.8333 24.5,57.5C 26.2769,57.2137 27.9436,56.5471 29.5,55.5C 30.7133,55.7472 31.38,56.4138 31.5,57.5C 28.7452,61.0397 25.5786,61.373 22,58.5C 21.3333,53.1667 21.3333,47.8333 22,42.5C 23.8083,40.6041 25.975,40.1041 28.5,41C 30.4257,41.4224 31.4257,42.5891 31.5,44.5 Z"/></g>
<g><path style="opacity:1" fill="#090909" d="M 68.5,42.5 C 68.5,43.5 68.5,44.5 68.5,45.5C 68.1667,45.5 67.8333,45.5 67.5,45.5C 66.2436,45.0962 65.0769,44.4295 64,43.5C 63.228,43.6448 62.5613,43.9781 62,44.5C 61.3333,48.5 61.3333,52.5 62,56.5C 63.2917,57.7911 64.4583,57.7911 65.5,56.5C 66.209,55.596 67.209,55.2627 68.5,55.5C 68.5,56.5 68.5,57.5 68.5,58.5C 65.7773,60.745 62.7773,61.0783 59.5,59.5C 58.1667,53.8333 58.1667,48.1667 59.5,42.5C 60.1342,41.0532 61.3009,40.3866 63,40.5C 65.0093,40.7579 66.8427,41.4245 68.5,42.5 Z"/></g>
<g><path style="opacity:1" fill="#0f0f0f" d="M 70.5,57.5 C 70.5,52.8333 70.5,48.1667 70.5,43.5C 73.798,39.6333 77.298,39.6333 81,43.5C 81.6667,47.8333 81.6667,52.1667 81,56.5C 79.3088,60.2127 76.4755,61.3794 72.5,60C 71.6195,59.2917 70.9528,58.4584 70.5,57.5 Z"/></g>
<g><path style="opacity:1" fill="#0f0f0f" d="M 102.5,40.5 C 105.272,40.22 107.772,40.8866 110,42.5C 110.667,47.5 110.667,52.5 110,57.5C 109.626,58.4162 109.126,59.2496 108.5,60C 106.167,60.6667 103.833,60.6667 101.5,60C 100.874,59.2496 100.374,58.4162 100,57.5C 99.3333,52.8333 99.3333,48.1667 100,43.5C 101.045,42.6266 101.878,41.6266 102.5,40.5 Z"/></g>
<g><path style="opacity:1" fill="#070707" d="M 33.5,40.5 C 34.5,40.5 35.5,40.5 36.5,40.5C 36.5,43.5 36.5,46.5 36.5,49.5C 37.8333,49.5 39.1667,49.5 40.5,49.5C 40.5,46.5 40.5,43.5 40.5,40.5C 41.5,40.5 42.5,40.5 43.5,40.5C 43.5,47.1667 43.5,53.8333 43.5,60.5C 42.5,60.5 41.5,60.5 40.5,60.5C 40.5,57.8333 40.5,55.1667 40.5,52.5C 39.1667,52.5 37.8333,52.5 36.5,52.5C 36.5,55.1667 36.5,57.8333 36.5,60.5C 35.5,60.5 34.5,60.5 33.5,60.5C 33.5,53.8333 33.5,47.1667 33.5,40.5 Z"/></g>
<g><path style="opacity:1" fill="#141414" d="M 56.5,54.5 C 56.3573,56.2624 56.6906,57.9291 57.5,59.5C 56.675,60.3857 55.675,60.719 54.5,60.5C 54.4677,58.4334 53.4677,57.1001 51.5,56.5C 49.5323,57.1001 48.5323,58.4334 48.5,60.5C 47.209,60.7373 46.209,60.404 45.5,59.5C 47.1802,53.6185 48.3469,47.6185 49,41.5C 50.3561,40.6198 51.8561,40.2865 53.5,40.5C 54.1848,45.2387 55.1848,49.9054 56.5,54.5 Z"/></g>
<g><path style="opacity:1" fill="#000000" d="M 97.5,43.5 C 95.8333,43.5 94.1667,43.5 92.5,43.5C 92.5,45.5 92.5,47.5 92.5,49.5C 94.1667,49.5 95.8333,49.5 97.5,49.5C 97.5,50.5 97.5,51.5 97.5,52.5C 95.8333,52.5 94.1667,52.5 92.5,52.5C 92.5,55.1667 92.5,57.8333 92.5,60.5C 91.5,60.5 90.5,60.5 89.5,60.5C 89.5,54.1667 89.5,47.8333 89.5,41.5C 92.6981,40.9644 95.3647,41.631 97.5,43.5 Z"/></g>
<g><path style="opacity:1" fill="#0b0b0b" d="M 119.5,41.5 C 121.017,41.5106 122.184,42.1772 123,43.5C 123.738,46.9029 123.238,50.0696 121.5,53C 121.865,55.2605 122.531,57.4272 123.5,59.5C 122.5,60.8333 121.5,60.8333 120.5,59.5C 117.143,49.9033 115.81,50.2367 116.5,60.5C 115.5,60.5 114.5,60.5 113.5,60.5C 113.5,54.1667 113.5,47.8333 113.5,41.5C 115.5,41.5 117.5,41.5 119.5,41.5 Z"/></g>
<g><path style="opacity:1" fill="#121212" d="M 135.5,48.5 C 136.568,49.4345 137.901,49.7678 139.5,49.5C 139.5,50.5 139.5,51.5 139.5,52.5C 138.167,52.5 136.833,52.5 135.5,52.5C 135.5,54.1667 135.5,55.8333 135.5,57.5C 137.167,57.5 138.833,57.5 140.5,57.5C 140.5,58.5 140.5,59.5 140.5,60.5C 137.5,60.5 134.5,60.5 131.5,60.5C 131.5,53.8333 131.5,47.1667 131.5,40.5C 134.5,40.5 137.5,40.5 140.5,40.5C 140.5,41.5 140.5,42.5 140.5,43.5C 138.833,43.5 137.167,43.5 135.5,43.5C 135.5,45.1667 135.5,46.8333 135.5,48.5 Z"/></g>
<g><path style="opacity:1" fill="#0e0e0e" d="M 146.5,48.5 C 146.238,49.9778 146.571,51.3112 147.5,52.5C 148.921,48.9725 149.588,45.3058 149.5,41.5C 150.209,40.596 151.209,40.2627 152.5,40.5C 151.179,47.1182 150.179,53.7848 149.5,60.5C 148.167,60.5 146.833,60.5 145.5,60.5C 144.643,54.0724 143.31,47.7391 141.5,41.5C 142.689,40.5713 144.022,40.238 145.5,40.5C 146.092,43.1272 146.425,45.7938 146.5,48.5 Z"/></g>
<g><path style="opacity:1" fill="#161616" d="M 163.5,41.5 C 162.448,43.256 160.781,43.9227 158.5,43.5C 158.5,45.1667 158.5,46.8333 158.5,48.5C 160.167,48.5 161.833,48.5 163.5,48.5C 163.5,49.8333 163.5,51.1667 163.5,52.5C 161.833,52.5 160.167,52.5 158.5,52.5C 158.5,54.1667 158.5,55.8333 158.5,57.5C 160.167,57.5 161.833,57.5 163.5,57.5C 163.5,58.5 163.5,59.5 163.5,60.5C 160.833,60.5 158.167,60.5 155.5,60.5C 155.5,54.1667 155.5,47.8333 155.5,41.5C 158.167,41.5 160.833,41.5 163.5,41.5 Z"/></g>
<g><path style="opacity:1" fill="#0e0e0e" d="M 172.5,41.5 C 174.99,42.1081 176.324,43.7748 176.5,46.5C 173.836,50.8272 173.836,55.1605 176.5,59.5C 175.5,60.8333 174.5,60.8333 173.5,59.5C 170.143,49.9033 168.81,50.2367 169.5,60.5C 168.5,60.5 167.5,60.5 166.5,60.5C 166.5,54.1667 166.5,47.8333 166.5,41.5C 168.5,41.5 170.5,41.5 172.5,41.5 Z"/></g>
<g><path style="opacity:1" fill="#ababab" d="M 36.5,40.5 C 37.1657,43.0277 37.8324,45.6944 38.5,48.5C 39.1676,45.6944 39.8343,43.0277 40.5,40.5C 40.5,43.5 40.5,46.5 40.5,49.5C 39.1667,49.5 37.8333,49.5 36.5,49.5C 36.5,46.5 36.5,43.5 36.5,40.5 Z"/></g>
<g><path style="opacity:1" fill="#b6b6b6" d="M 43.5,40.5 C 44.1667,46.8333 44.8333,53.1667 45.5,59.5C 46.209,60.404 47.209,60.7373 48.5,60.5C 45.8333,61.8333 43.1667,61.8333 40.5,60.5C 41.5,60.5 42.5,60.5 43.5,60.5C 43.5,53.8333 43.5,47.1667 43.5,40.5 Z"/></g>
<g><path style="opacity:1" fill="#5e5e5e" d="M 98.5,43.5 C 98.1667,43.5 97.8333,43.5 97.5,43.5C 95.3647,41.631 92.6981,40.9644 89.5,41.5C 89.5,47.8333 89.5,54.1667 89.5,60.5C 88.5093,54.021 88.176,47.3543 88.5,40.5C 91.8333,40.5 95.1667,40.5 98.5,40.5C 98.5,41.5 98.5,42.5 98.5,43.5 Z"/></g>
<g><path style="opacity:1" fill="#4c4c4c" d="M 172.5,41.5 C 170.5,41.5 168.5,41.5 166.5,41.5C 166.5,47.8333 166.5,54.1667 166.5,60.5C 165.509,54.021 165.176,47.3543 165.5,40.5C 168.059,40.1984 170.393,40.5318 172.5,41.5 Z"/></g>
<g><path style="opacity:1" fill="#dddddd" d="M 33.5,40.5 C 33.5,47.1667 33.5,53.8333 33.5,60.5C 32.8333,59.5 32.1667,58.5 31.5,57.5C 31.38,56.4138 30.7133,55.7472 29.5,55.5C 27.9436,56.5471 26.2769,57.2137 24.5,57.5C 24.5,52.8333 24.5,48.1667 24.5,43.5C 26.5996,43.4772 28.4329,44.1439 30,45.5C 30.7648,45.4301 31.2648,45.0967 31.5,44.5C 32.1667,43.1667 32.8333,41.8333 33.5,40.5 Z"/></g>
<g><path style="opacity:1" fill="#fafafa" d="M 67.5,45.5 C 67.8333,45.5 68.1667,45.5 68.5,45.5C 69.8333,48.8333 69.8333,52.1667 68.5,55.5C 67.209,55.2627 66.209,55.596 65.5,56.5C 64.2057,54.9522 63.5391,52.9522 63.5,50.5C 63.6667,48.5 63.8333,46.5 64,44.5C 64.9236,46.4951 66.0903,46.8284 67.5,45.5 Z"/></g>
<g><path style="opacity:1" fill="#e4e4e4" d="M 74.5,44.5 C 76.4302,48.3727 77.0969,52.706 76.5,57.5C 75.5041,57.5858 74.6708,57.2524 74,56.5C 73.1881,52.3112 73.3547,48.3112 74.5,44.5 Z"/></g>
<g><path style="opacity:1" fill="#b1b1b1" d="M 97.5,43.5 C 97.8333,43.5 98.1667,43.5 98.5,43.5C 97.0813,44.4511 95.4147,44.7845 93.5,44.5C 93.5,45.8333 93.5,47.1667 93.5,48.5C 95.099,48.2322 96.4324,48.5655 97.5,49.5C 95.8333,49.5 94.1667,49.5 92.5,49.5C 92.5,47.5 92.5,45.5 92.5,43.5C 94.1667,43.5 95.8333,43.5 97.5,43.5 Z"/></g>
<g><path style="opacity:1" fill="#3e3e3e" d="M 163.5,41.5 C 160.833,41.5 158.167,41.5 155.5,41.5C 155.5,47.8333 155.5,54.1667 155.5,60.5C 154.509,54.021 154.176,47.3543 154.5,40.5C 157.713,40.19 160.713,40.5233 163.5,41.5 Z"/></g>
<g><path style="opacity:1" fill="#c4c4c4" d="M 67.5,45.5 C 66.0903,46.8284 64.9236,46.4951 64,44.5C 63.8333,46.5 63.6667,48.5 63.5,50.5C 63.5391,52.9522 64.2057,54.9522 65.5,56.5C 64.4583,57.7911 63.2917,57.7911 62,56.5C 61.3333,52.5 61.3333,48.5 62,44.5C 62.5613,43.9781 63.228,43.6448 64,43.5C 65.0769,44.4295 66.2436,45.0962 67.5,45.5 Z"/></g>
<g><path style="opacity:1" fill="#c7c7c7" d="M 116.5,43.5 C 119.997,43.995 120.997,45.8283 119.5,49C 118.552,49.4828 117.552,49.6495 116.5,49.5C 116.5,47.5 116.5,45.5 116.5,43.5 Z"/></g>
<g><path style="opacity:1" fill="#c1c1c1" d="M 169.5,43.5 C 172.997,43.995 173.997,45.8283 172.5,49C 171.552,49.4828 170.552,49.6495 169.5,49.5C 169.5,47.5 169.5,45.5 169.5,43.5 Z"/></g>
<g><path style="opacity:1" fill="#a9a9a9" d="M 68.5,42.5 C 69.1667,42.8333 69.8333,43.1667 70.5,43.5C 70.5,48.1667 70.5,52.8333 70.5,57.5C 69.8333,57.8333 69.1667,58.1667 68.5,58.5C 68.5,57.5 68.5,56.5 68.5,55.5C 69.8333,52.1667 69.8333,48.8333 68.5,45.5C 68.5,44.5 68.5,43.5 68.5,42.5 Z"/></g>
<g><path style="opacity:1" fill="#eeeeee" d="M 103.5,43.5 C 104.5,43.5 105.5,43.5 106.5,43.5C 106.5,48.1667 106.5,52.8333 106.5,57.5C 105.5,57.5 104.5,57.5 103.5,57.5C 103.5,52.8333 103.5,48.1667 103.5,43.5 Z"/></g>
<g><path style="opacity:1" fill="#b0b0b0" d="M 74.5,44.5 C 75.209,43.596 76.209,43.2627 77.5,43.5C 77.8195,48.3633 77.4861,53.03 76.5,57.5C 77.0969,52.706 76.4302,48.3727 74.5,44.5 Z"/></g>
<g><path style="opacity:1" fill="#515151" d="M 119.5,41.5 C 117.5,41.5 115.5,41.5 113.5,41.5C 113.5,47.8333 113.5,54.1667 113.5,60.5C 112.509,54.021 112.176,47.3543 112.5,40.5C 115.059,40.1984 117.393,40.5318 119.5,41.5 Z"/></g>
<g><path style="opacity:1" fill="#969696" d="M 135.5,48.5 C 137.167,48.5 138.833,48.5 140.5,48.5C 140.768,50.099 140.434,51.4324 139.5,52.5C 139.5,51.5 139.5,50.5 139.5,49.5C 137.901,49.7678 136.568,49.4345 135.5,48.5 Z"/></g>
<g><path style="opacity:1" fill="#a6a6a6" d="M 149.5,41.5 C 149.588,45.3058 148.921,48.9725 147.5,52.5C 146.571,51.3112 146.238,49.9778 146.5,48.5C 147.869,46.3085 148.869,43.9752 149.5,41.5 Z"/></g>
<g><path style="opacity:1" fill="#c7c7c7" d="M 50.5,47.5 C 51.6935,47.9704 52.3601,48.9704 52.5,50.5C 52.1667,51.5 51.8333,52.5 51.5,53.5C 50.5344,51.604 50.2011,49.604 50.5,47.5 Z"/></g>
<g><path style="opacity:1" fill="#c3c3c3" d="M 59.5,42.5 C 58.1667,48.1667 58.1667,53.8333 59.5,59.5C 58.0236,61.4318 56.3569,61.7652 54.5,60.5C 55.675,60.719 56.675,60.3857 57.5,59.5C 56.6906,57.9291 56.3573,56.2624 56.5,54.5C 57.3227,51.023 57.8227,47.3563 58,43.5C 58.3826,42.944 58.8826,42.6107 59.5,42.5 Z"/></g>
<g><path style="opacity:1" fill="#d6d6d6" d="M 53.5,72.5 C 53.5,72.8333 53.5,73.1667 53.5,73.5C 47.8333,73.5 42.1667,73.5 36.5,73.5C 36.5,94.8333 36.5,116.167 36.5,137.5C 35.5027,116.006 35.1693,94.3398 35.5,72.5C 41.5,72.5 47.5,72.5 53.5,72.5 Z"/></g>
<g><path style="opacity:1" fill="#fdfdfd" d="M 53.5,73.5 C 53.8313,102.338 53.498,131.005 52.5,159.5C 46.1881,152.875 40.8547,145.542 36.5,137.5C 36.5,116.167 36.5,94.8333 36.5,73.5C 42.1667,73.5 47.8333,73.5 53.5,73.5 Z"/></g>
<g><path style="opacity:1" fill="#fefefe" d="M 89.5,73.5 C 89.8318,111.004 89.4985,148.337 88.5,185.5C 82.7177,183.244 77.3843,180.244 72.5,176.5C 72.5,142.167 72.5,107.833 72.5,73.5C 78.1667,73.5 83.8333,73.5 89.5,73.5 Z"/></g>
<g><path style="opacity:1" fill="#dcdcdc" d="M 89.5,73.5 C 89.8333,73.5 90.1667,73.5 90.5,73.5C 90.8332,111.173 90.4999,148.839 89.5,186.5C 88.8933,186.376 88.56,186.043 88.5,185.5C 89.4985,148.337 89.8318,111.004 89.5,73.5 Z"/></g>
<g><path style="opacity:1" fill="#fefefe" d="M 125.5,176.5 C 120.684,180.293 115.35,183.293 109.5,185.5C 108.502,148.337 108.168,111.004 108.5,73.5C 114.167,73.5 119.833,73.5 125.5,73.5C 125.5,107.833 125.5,142.167 125.5,176.5 Z"/></g>
<g><path style="opacity:1" fill="#c3c3c3" d="M 125.5,176.5 C 125.5,142.167 125.5,107.833 125.5,73.5C 119.833,73.5 114.167,73.5 108.5,73.5C 108.168,111.004 108.502,148.337 109.5,185.5C 109.44,186.043 109.107,186.376 108.5,186.5C 107.5,148.506 107.167,110.506 107.5,72.5C 113.833,72.5 120.167,72.5 126.5,72.5C 126.832,107.337 126.498,142.004 125.5,176.5 Z"/></g>
<g><path style="opacity:1" fill="#5a5a5a" d="M 144.5,72.5 C 144.169,101.671 144.502,130.671 145.5,159.5C 145.44,160.043 145.107,160.376 144.5,160.5C 143.17,131.003 143.17,101.669 144.5,72.5 Z"/></g>
<g><path style="opacity:1" fill="#c3c3c3" d="M 144.5,72.5 C 150.833,72.5 157.167,72.5 163.5,72.5C 163.831,94.0065 163.497,115.34 162.5,136.5C 162.5,115.5 162.5,94.5 162.5,73.5C 156.833,73.5 151.167,73.5 145.5,73.5C 144.842,101.853 145.508,129.853 147.5,157.5C 147.167,158.5 146.5,159.167 145.5,159.5C 144.502,130.671 144.169,101.671 144.5,72.5 Z"/></g>
<g><path style="opacity:1" fill="#fdfdfd" d="M 162.5,136.5 C 158.236,144.028 153.236,151.028 147.5,157.5C 145.508,129.853 144.842,101.853 145.5,73.5C 151.167,73.5 156.833,73.5 162.5,73.5C 162.5,94.5 162.5,115.5 162.5,136.5 Z"/></g>
<g><path style="opacity:1" fill="#696969" d="M 53.5,72.5 C 54.8296,101.669 54.8296,131.003 53.5,160.5C 52.8933,160.376 52.56,160.043 52.5,159.5C 53.498,131.005 53.8313,102.338 53.5,73.5C 53.5,73.1667 53.5,72.8333 53.5,72.5 Z"/></g>
<g><path style="opacity:1" fill="#9d9d9d" d="M 90.5,73.5 C 90.1667,73.5 89.8333,73.5 89.5,73.5C 83.8333,73.5 78.1667,73.5 72.5,73.5C 72.5,107.833 72.5,142.167 72.5,176.5C 71.5016,142.004 71.1683,107.337 71.5,72.5C 78.0221,72.1765 84.3554,72.5098 90.5,73.5 Z"/></g>
</svg>
