<?xml version="1.0" encoding="UTF-8"?>
<!DOCTYPE svg PUBLIC "-//W3C//DTD SVG 1.1//EN" "http://www.w3.org/Graphics/SVG/1.1/DTD/svg11.dtd">
<svg xmlns="http://www.w3.org/2000/svg" version="1.1" width="378px" height="378px" style="shape-rendering:geometricPrecision; text-rendering:geometricPrecision; image-rendering:optimizeQuality; fill-rule:evenodd; clip-rule:evenodd" xmlns:xlink="http://www.w3.org/1999/xlink">
<g><path style="opacity:0.008" fill="#ffacfe" d="M 186.5,3.5 C 186.897,2.47498 187.563,2.30831 188.5,3C 187.906,3.46434 187.239,3.63101 186.5,3.5 Z"/></g>
<g><path style="opacity:0.004" fill="#da4dfd" d="M 185.5,8.5 C 184.596,9.20895 184.263,10.209 184.5,11.5C 183.441,9.27398 183.608,6.94065 185,4.5C 185.49,5.79323 185.657,7.12656 185.5,8.5 Z"/></g>
<g><path style="opacity:0.008" fill="#c262fc" d="M 192.5,15.5 C 192.351,14.448 192.517,13.448 193,12.5C 193.74,13.7494 193.573,14.7494 192.5,15.5 Z"/></g>
<g><path style="opacity:0.004" fill="#da4dfd" d="M 182.5,18.5 C 181.596,19.209 181.263,20.209 181.5,21.5C 180.441,19.274 180.608,16.9406 182,14.5C 182.49,15.7932 182.657,17.1266 182.5,18.5 Z"/></g>
<g><path style="opacity:0.004" fill="#de4cfd" d="M 195.5,25.5 C 195.737,24.209 195.404,23.209 194.5,22.5C 194.413,19.4017 194.913,19.0684 196,21.5C 196.765,23.0657 196.598,24.3991 195.5,25.5 Z"/></g>
<g><path style="opacity:0.004" fill="#fe0000" d="M 196.5,26.5 C 197.525,26.8966 197.692,27.5632 197,28.5C 196.536,27.9056 196.369,27.2389 196.5,26.5 Z"/></g>
<g><path style="opacity:0.004" fill="#db4ffd" d="M 179.5,28.5 C 178.596,29.209 178.263,30.209 178.5,31.5C 177.761,31.631 177.094,31.4643 176.5,31C 177.525,28.9285 178.358,26.7619 179,24.5C 179.49,25.7932 179.657,27.1266 179.5,28.5 Z"/></g>
<g><path style="opacity:0.004" fill="#d851fd" d="M 149.5,31.5 C 157.99,30.3431 166.657,30.1764 175.5,31C 166.84,31.4998 158.173,31.6664 149.5,31.5 Z"/></g>
<g><path style="opacity:0.004" fill="#fe0000" d="M 204.5,31.5 C 204.897,30.475 205.563,30.3083 206.5,31C 205.906,31.4643 205.239,31.631 204.5,31.5 Z"/></g>
<g><path style="opacity:0.008" fill="#ae6cfd" d="M 226.5,31.5 C 220.158,31.6662 213.825,31.4995 207.5,31C 214.014,30.18 220.347,30.3467 226.5,31.5 Z"/></g>
<g><path style="opacity:0.004" fill="#fe0000" d="M 228.5,32.5 C 229.833,33.1667 229.833,33.1667 228.5,32.5 Z"/></g>
<g><path style="opacity:0.008" fill="#ad6efc" d="M 147.5,32.5 C 148.525,32.8966 148.692,33.5632 148,34.5C 147.536,33.9056 147.369,33.2389 147.5,32.5 Z"/></g>
<g><path style="opacity:0.004" fill="#fe0000" d="M 227.5,33.5 C 227.833,33.5 228.167,33.5 228.5,33.5C 228.315,34.1701 227.981,34.1701 227.5,33.5 Z"/></g>
<g><path style="opacity:0.004" fill="#fe0000" d="M 225.5,35.5 C 226.833,36.1667 226.833,36.1667 225.5,35.5 Z"/></g>
<g><path style="opacity:0.004" fill="#cf5afc" d="M 152.5,36.5 C 152.5,37.1667 152.833,37.5 153.5,37.5C 152.503,38.7125 151.503,38.5458 150.5,37C 151.094,36.5357 151.761,36.369 152.5,36.5 Z"/></g>
<g><path style="opacity:0.004" fill="#d753fc" d="M 223.5,36.5 C 224.167,36.5 224.833,36.5 225.5,36.5C 225.027,37.9063 224.027,38.573 222.5,38.5C 222.5,38.1667 222.5,37.8333 222.5,37.5C 223.167,37.5 223.5,37.1667 223.5,36.5 Z"/></g>
<g><path style="opacity:0.004" fill="#ed2b00" d="M 220.5,38.5 C 221.167,38.5 221.833,38.5 222.5,38.5C 222.027,39.9063 221.027,40.573 219.5,40.5C 219.5,40.1667 219.5,39.8333 219.5,39.5C 220.167,39.5 220.5,39.1667 220.5,38.5 Z"/></g>
<g><path style="opacity:0.008" fill="#7e7f00" d="M 157.5,40.5 C 156.833,41.1667 156.833,41.1667 157.5,40.5 Z"/></g>
<g><path style="opacity:0.008" fill="#7e7f00" d="M 218.5,40.5 C 218.833,40.5 219.167,40.5 219.5,40.5C 219.315,41.1701 218.981,41.1701 218.5,40.5 Z"/></g>
<g><path style="opacity:0.012" fill="#a95500" d="M 216.5,41.5 C 217.833,42.1667 217.833,42.1667 216.5,41.5 Z"/></g>
<g><path style="opacity:0.012" fill="#a95500" d="M 215.5,42.5 C 215.833,42.5 216.167,42.5 216.5,42.5C 216.315,43.1701 215.981,43.1701 215.5,42.5 Z"/></g>
<g><path style="opacity:0.008" fill="#7e0000" d="M 213.5,44.5 C 213.5,44.1667 213.5,43.8333 213.5,43.5C 214.167,43.5 214.833,43.5 215.5,43.5C 215.158,44.3382 214.492,44.6716 213.5,44.5 Z"/></g>
<g><path style="opacity:0.012" fill="#a95500" d="M 212.5,44.5 C 212.833,44.5 213.167,44.5 213.5,44.5C 213.315,45.1701 212.981,45.1701 212.5,44.5 Z"/></g>
<g><path style="opacity:0.004" fill="#d32700" d="M 210.5,45.5 C 211.167,45.5 211.833,45.5 212.5,45.5C 212.027,46.9063 211.027,47.573 209.5,47.5C 209.5,47.1667 209.5,46.8333 209.5,46.5C 210.167,46.5 210.5,46.1667 210.5,45.5 Z"/></g>
<g><path style="opacity:0.981" fill="#86541c" d="M 192.5,15.5 C 192.41,18.1522 193.076,20.4855 194.5,22.5C 194.263,23.791 194.596,24.791 195.5,25.5C 195.435,28.4715 196.269,31.1382 198,33.5C 207.598,32.8451 217.098,32.1784 226.5,31.5C 227.338,31.8417 227.672,32.5084 227.5,33.5C 226.5,33.8333 225.833,34.5 225.5,35.5C 224.508,35.3284 223.842,35.6618 223.5,36.5C 222.833,36.5 222.5,36.8333 222.5,37.5C 221.508,37.3284 220.842,37.6618 220.5,38.5C 219.833,38.5 219.5,38.8333 219.5,39.5C 218.833,39.5 218.5,39.8333 218.5,40.5C 217.508,40.3284 216.842,40.6618 216.5,41.5C 215.833,41.5 215.5,41.8333 215.5,42.5C 214.508,42.3284 213.842,42.6618 213.5,43.5C 212.833,43.5 212.5,43.8333 212.5,44.5C 211.508,44.3284 210.842,44.6618 210.5,45.5C 209.833,45.5 209.5,45.8333 209.5,46.5C 208.833,46.5 208.5,46.8333 208.5,47.5C 207.508,47.3284 206.842,47.6618 206.5,48.5C 205.29,48.9321 204.29,49.5987 203.5,50.5C 193.085,50.1917 182.751,50.525 172.5,51.5C 168.39,46.7385 163.39,43.0718 157.5,40.5C 156.564,39.0256 155.23,38.0256 153.5,37.5C 152.833,37.5 152.5,37.1667 152.5,36.5C 151.34,35.735 150.34,34.735 149.5,33.5C 159.06,32.1828 168.56,32.1828 178,33.5C 178.464,32.9056 178.631,32.2389 178.5,31.5C 179.404,30.791 179.737,29.791 179.5,28.5C 180.612,26.4006 181.279,24.0673 181.5,21.5C 182.404,20.791 182.737,19.791 182.5,18.5C 183.612,16.4006 184.279,14.0673 184.5,11.5C 185.404,10.791 185.737,9.79105 185.5,8.5C 186.434,7.43236 186.768,6.09903 186.5,4.5C 187.5,4.5 188.5,4.5 189.5,4.5C 189.517,8.53389 190.517,12.2006 192.5,15.5 Z"/></g>
<g><path style="opacity:0.008" fill="#7e0000" d="M 208.5,47.5 C 208.833,47.5 209.167,47.5 209.5,47.5C 209.315,48.1701 208.981,48.1701 208.5,47.5 Z"/></g>
<g><path style="opacity:0.004" fill="#e237ff" d="M 206.5,48.5 C 207.167,48.5 207.833,48.5 208.5,48.5C 207.833,49.8333 207.167,49.8333 206.5,48.5 Z"/></g>
<g><path style="opacity:0.979" fill="#7d4508" d="M 203.5,50.5 C 204.054,53.7458 205.054,56.7458 206.5,59.5C 206.328,60.4916 206.662,61.1583 207.5,61.5C 207.69,64.855 208.69,67.855 210.5,70.5C 210.415,73.6489 211.415,76.3155 213.5,78.5C 213.158,79.3382 212.492,79.6716 211.5,79.5C 210.205,78.5116 208.872,77.5116 207.5,76.5C 207.5,75.8333 207.167,75.5 206.5,75.5C 203.204,73.1792 199.871,70.8458 196.5,68.5C 196.5,67.8333 196.167,67.5 195.5,67.5C 194.71,66.5987 193.71,65.9321 192.5,65.5C 192.5,64.8333 192.167,64.5 191.5,64.5C 190.312,63.6364 189.145,62.6364 188,61.5C 187.283,62.0442 186.783,62.7109 186.5,63.5C 185.508,63.3284 184.842,63.6618 184.5,64.5C 183.833,64.5 183.5,64.8333 183.5,65.5C 181.973,65.427 180.973,66.0937 180.5,67.5C 179.833,67.5 179.5,67.8333 179.5,68.5C 178.508,68.3284 177.842,68.6618 177.5,69.5C 176.833,69.5 176.5,69.8333 176.5,70.5C 175.833,70.5 175.5,70.8333 175.5,71.5C 174.508,71.3284 173.842,71.6618 173.5,72.5C 172.833,72.5 172.5,72.8333 172.5,73.5C 171.833,73.5 171.5,73.8333 171.5,74.5C 170.508,74.3284 169.842,74.6618 169.5,75.5C 168.833,75.5 168.5,75.8333 168.5,76.5C 167.508,76.3284 166.842,76.6618 166.5,77.5C 165.833,77.5 165.5,77.8333 165.5,78.5C 164.833,78.5 164.5,78.8333 164.5,79.5C 163.761,79.631 163.094,79.4643 162.5,79C 165.53,72.4089 167.864,65.5756 169.5,58.5C 170.338,58.1583 170.672,57.4916 170.5,56.5C 171.537,55.0697 172.204,53.403 172.5,51.5C 182.751,50.525 193.085,50.1917 203.5,50.5 Z M 183.5,65.5 C 183.027,66.9063 182.027,67.573 180.5,67.5C 180.973,66.0937 181.973,65.427 183.5,65.5 Z"/></g>
<g><path style="opacity:0.008" fill="#7e2e05" d="M 170.5,56.5 C 169.662,56.8417 169.328,57.5084 169.5,58.5C 168.379,56.9106 168.546,55.2439 170,53.5C 170.483,54.448 170.649,55.448 170.5,56.5 Z"/></g>
<g><path style="opacity:0.008" fill="#7e2e05" d="M 207.5,61.5 C 207.672,60.5084 207.338,59.8417 206.5,59.5C 206.234,57.6526 206.568,56.986 207.5,57.5C 208.705,58.9948 208.705,60.3281 207.5,61.5 Z"/></g>
<g><path style="opacity:0.004" fill="#000000" d="M 186.5,63.5 C 187.833,64.1667 187.833,64.1667 186.5,63.5 Z"/></g>
<g><path style="opacity:0.004" fill="#2f0e00" d="M 184.5,64.5 C 185.167,64.5 185.833,64.5 186.5,64.5C 185.833,65.8333 185.167,65.8333 184.5,64.5 Z"/></g>
<g><path style="opacity:0.004" fill="#360e01" d="M 191.5,64.5 C 192.167,64.5 192.5,64.8333 192.5,65.5C 191.503,66.7125 190.503,66.5458 189.5,65C 190.094,64.5357 190.761,64.369 191.5,64.5 Z"/></g>
<g><path style="opacity:0.008" fill="#4d0e01" d="M 195.5,67.5 C 196.167,67.5 196.5,67.8333 196.5,68.5C 195.503,69.7125 194.503,69.5458 193.5,68C 194.094,67.5357 194.761,67.369 195.5,67.5 Z"/></g>
<g><path style="opacity:0.008" fill="#7e0000" d="M 179.5,68.5 C 180.833,69.1667 180.833,69.1667 179.5,68.5 Z"/></g>
<g><path style="opacity:0.012" fill="#8053fe" d="M 211.5,70.5 C 211.167,70.5 210.833,70.5 210.5,70.5C 210.833,66.5 211.167,66.5 211.5,70.5 Z"/></g>
<g><path style="opacity:0.004" fill="#2f0e00" d="M 177.5,70.5 C 177.5,70.1667 177.5,69.8333 177.5,69.5C 178.167,69.5 178.833,69.5 179.5,69.5C 179.158,70.3382 178.492,70.6716 177.5,70.5 Z"/></g>
<g><path style="opacity:0.012" fill="#545500" d="M 176.5,70.5 C 176.833,70.5 177.167,70.5 177.5,70.5C 177.315,71.1701 176.981,71.1701 176.5,70.5 Z"/></g>
<g><path style="opacity:0.004" fill="#000000" d="M 211.5,70.5 C 212.573,71.2506 212.74,72.2506 212,73.5C 211.517,72.552 211.351,71.552 211.5,70.5 Z"/></g>
<g><path style="opacity:0.008" fill="#7e0000" d="M 175.5,71.5 C 175.833,71.5 176.167,71.5 176.5,71.5C 176.315,72.1701 175.981,72.1701 175.5,71.5 Z"/></g>
<g><path style="opacity:0.004" fill="#2f0e00" d="M 173.5,73.5 C 173.5,73.1667 173.5,72.8333 173.5,72.5C 174.167,72.5 174.833,72.5 175.5,72.5C 175.158,73.3382 174.492,73.6716 173.5,73.5 Z"/></g>
<g><path style="opacity:0.012" fill="#545500" d="M 172.5,73.5 C 172.833,73.5 173.167,73.5 173.5,73.5C 173.315,74.1701 172.981,74.1701 172.5,73.5 Z"/></g>
<g><path style="opacity:0.008" fill="#7e0000" d="M 171.5,74.5 C 171.833,74.5 172.167,74.5 172.5,74.5C 172.315,75.1701 171.981,75.1701 171.5,74.5 Z"/></g>
<g><path style="opacity:0.004" fill="#2f0e00" d="M 169.5,76.5 C 169.5,76.1667 169.5,75.8333 169.5,75.5C 170.167,75.5 170.833,75.5 171.5,75.5C 171.158,76.3382 170.492,76.6716 169.5,76.5 Z"/></g>
<g><path style="opacity:0.004" fill="#181504" d="M 206.5,75.5 C 207.167,75.5 207.5,75.8333 207.5,76.5C 206.503,77.7125 205.503,77.5458 204.5,76C 205.094,75.5357 205.761,75.369 206.5,75.5 Z"/></g>
<g><path style="opacity:0.008" fill="#550d01" d="M 161.5,75.5 C 162.525,75.8966 162.692,76.5632 162,77.5C 161.536,76.9056 161.369,76.2389 161.5,75.5 Z"/></g>
<g><path style="opacity:0.012" fill="#545500" d="M 168.5,76.5 C 168.833,76.5 169.167,76.5 169.5,76.5C 169.315,77.1701 168.981,77.1701 168.5,76.5 Z"/></g>
<g><path style="opacity:0.008" fill="#7e0000" d="M 213.5,78.5 C 213.369,77.7611 213.536,77.0944 214,76.5C 214.692,77.4368 214.525,78.1034 213.5,78.5 Z"/></g>
<g><path style="opacity:0.008" fill="#550d01" d="M 166.5,78.5 C 166.5,78.1667 166.5,77.8333 166.5,77.5C 167.167,77.5 167.833,77.5 168.5,77.5C 168.158,78.3382 167.492,78.6716 166.5,78.5 Z"/></g>
<g><path style="opacity:0.008" fill="#7e0000" d="M 165.5,78.5 C 165.833,78.5 166.167,78.5 166.5,78.5C 166.315,79.1701 165.981,79.1701 165.5,78.5 Z"/></g>
<g><path style="opacity:0.008" fill="#7e0000" d="M 164.5,79.5 C 164.833,79.5 165.167,79.5 165.5,79.5C 165.315,80.1701 164.981,80.1701 164.5,79.5 Z"/></g>
<g><path style="opacity:0.008" fill="#550d01" d="M 211.5,79.5 C 211.103,80.525 210.437,80.6917 209.5,80C 210.094,79.5357 210.761,79.369 211.5,79.5 Z"/></g>
<g><path style="opacity:0.004" fill="#fe0000" d="M 164.5,80.5 C 163.833,81.1667 163.833,81.1667 164.5,80.5 Z"/></g>
<g><path style="opacity:0.006" fill="#000000" d="M 187.5,86.5 C 187.897,85.475 188.563,85.3083 189.5,86C 188.906,86.4643 188.239,86.631 187.5,86.5 Z"/></g>
<g><path style="opacity:0.007" fill="#000000" d="M 185.5,89.5 C 182.999,89.4891 182.832,88.8224 185,87.5C 185.464,88.0944 185.631,88.7611 185.5,89.5 Z"/></g>
<g><path style="opacity:0.961" fill="#070706" d="M 196.5,93.5 C 197.659,95.2503 199.326,96.2503 201.5,96.5C 203.181,98.0075 205.181,99.0075 207.5,99.5C 216.511,104.279 226.178,107.279 236.5,108.5C 257.488,112.555 278.488,111.888 299.5,106.5C 299.414,107.496 299.748,108.329 300.5,109C 299.747,130.44 298.913,151.94 298,173.5C 295.551,180.399 292.551,187.065 289,193.5C 288.829,201.344 288.329,209.011 287.5,216.5C 288.16,182.483 287.493,148.817 285.5,115.5C 284.209,115.263 283.209,115.596 282.5,116.5C 275.173,116.944 267.84,117.277 260.5,117.5C 260.167,117.5 259.833,117.5 259.5,117.5C 258.167,117.5 256.833,117.5 255.5,117.5C 254.501,158.33 254.168,199.33 254.5,240.5C 254.018,224.972 253.351,213.972 252.5,207.5C 250.418,207.528 248.584,206.861 247,205.5C 246.088,209.795 245.421,214.128 245,218.5C 244.51,217.207 244.343,215.873 244.5,214.5C 245.426,184.167 231.76,163.667 203.5,153C 185.84,148.787 169.507,151.62 154.5,161.5C 153.668,160.671 154.001,159.838 155.5,159C 153.413,158.208 151.579,157.041 150,155.5C 149.162,156.999 148.329,157.332 147.5,156.5C 147.833,155.833 148.167,155.167 148.5,154.5C 155.81,150.011 163.476,146.345 171.5,143.5C 173.167,143.5 174.833,143.5 176.5,143.5C 176.667,130.163 176.5,116.829 176,103.5C 174.348,104.399 172.848,105.399 171.5,106.5C 163.9,109.033 156.234,111.366 148.5,113.5C 147.292,114.234 145.959,114.567 144.5,114.5C 143.669,128.994 143.169,143.661 143,158.5C 142.501,154.848 142.335,151.182 142.5,147.5C 142.666,140.159 142.5,132.826 142,125.5C 141.667,128.167 141.333,130.833 141,133.5C 135.403,131.492 129.569,130.159 123.5,129.5C 123.666,125.486 123.499,121.486 123,117.5C 122.5,125.827 122.334,134.16 122.5,142.5C 122.5,156.5 122.5,170.5 122.5,184.5C 122.167,184.5 121.833,184.5 121.5,184.5C 121.5,162.167 121.5,139.833 121.5,117.5C 119.833,117.5 118.167,117.5 116.5,117.5C 108.825,117.32 101.158,116.986 93.5,116.5C 92.0813,115.549 90.4147,115.216 88.5,115.5C 88.1667,114.167 87.8333,114.167 87.5,115.5C 86.7784,115.918 86.2784,116.584 86,117.5C 84.4226,114.011 82.5893,110.677 80.5,107.5C 83.4824,107.963 86.4824,108.296 89.5,108.5C 104.437,111.924 119.437,112.258 134.5,109.5C 138.122,109.678 141.456,109.011 144.5,107.5C 147.781,107.58 150.781,106.913 153.5,105.5C 154.492,105.672 155.158,105.338 155.5,104.5C 164.989,102.086 173.656,98.0859 181.5,92.5C 182.167,92.5 182.5,92.1667 182.5,91.5C 183.71,91.0679 184.71,90.4013 185.5,89.5C 186.156,88.7222 186.989,88.0556 188,87.5C 190.717,89.7258 193.551,91.7258 196.5,93.5 Z M 144.5,107.5 C 141.456,109.011 138.122,109.678 134.5,109.5C 137.589,108.215 140.922,107.549 144.5,107.5 Z"/></g>
<g><path style="opacity:0.006" fill="#000000" d="M 182.5,91.5 C 181.833,91.5 181.5,91.8333 181.5,92.5C 179.025,92.2533 179.025,91.5866 181.5,90.5C 182.107,90.6236 182.44,90.9569 182.5,91.5 Z"/></g>
<g><path style="opacity:0.008" fill="#000000" d="M 196.5,92.5 C 197.833,93.1667 197.833,93.1667 196.5,92.5 Z"/></g>
<g><path style="opacity:0.008" fill="#000000" d="M 198.5,93.5 C 199.833,94.1667 199.833,94.1667 198.5,93.5 Z"/></g>
<g><path style="opacity:0.012" fill="#000000" d="M 201.5,95.5 C 202.833,96.1667 202.833,96.1667 201.5,95.5 Z"/></g>
<g><path style="opacity:0.012" fill="#000000" d="M 207.5,98.5 C 208.833,99.1667 208.833,99.1667 207.5,98.5 Z"/></g>
<g><path style="opacity:0.004" fill="#000000" d="M 70.5,103.5 C 71.2506,102.427 72.2506,102.26 73.5,103C 72.552,103.483 71.552,103.649 70.5,103.5 Z"/></g>
<g><path style="opacity:0.004" fill="#000000" d="M 302.5,103.5 C 303.251,102.427 304.251,102.26 305.5,103C 304.552,103.483 303.552,103.649 302.5,103.5 Z"/></g>
<g><path style="opacity:0.008" fill="#000000" d="M 155.5,104.5 C 154.508,104.328 153.842,104.662 153.5,105.5C 148.436,105.302 148.603,104.635 154,103.5C 154.765,103.57 155.265,103.903 155.5,104.5 Z"/></g>
<g><path style="opacity:0.004" fill="#000000" d="M 69.5,106.5 C 68.8333,105.167 68.8333,105.167 69.5,106.5 Z"/></g>
<g><path style="opacity:0.979" fill="#202020" d="M 79.5,106.5 C 79.5,107.167 79.8333,107.5 80.5,107.5C 82.5893,110.677 84.4226,114.011 86,117.5C 86.2784,116.584 86.7784,115.918 87.5,115.5C 87.5,121.833 87.5,128.167 87.5,134.5C 86.6862,136.631 86.1862,138.964 86,141.5C 77.9164,134.76 72.2497,126.427 69,116.5C 68.2432,118.315 67.4098,119.981 66.5,121.5C 66.5,120.167 66.5,118.833 66.5,117.5C 67.404,116.791 67.7373,115.791 67.5,114.5C 68.4345,113.432 68.7678,112.099 68.5,110.5C 69.4345,109.432 69.7678,108.099 69.5,106.5C 70.1556,105.722 70.9889,105.056 72,104.5C 74.4333,105.479 76.9333,106.145 79.5,106.5 Z"/></g>
<g><path style="opacity:0.004" fill="#000000" d="M 79.5,106.5 C 80.9464,105.387 82.6131,105.22 84.5,106C 82.8659,106.494 81.1992,106.66 79.5,106.5 Z"/></g>
<g><path style="opacity:0.009" fill="#000000" d="M 89.5,107.5 C 88.1266,107.657 86.7932,107.49 85.5,107C 87.0657,106.235 88.3991,106.402 89.5,107.5 Z"/></g>
<g><path style="opacity:1" fill="#eaeeee" d="M 204.5,105.5 C 204.5,118.167 204.5,130.833 204.5,143.5C 202.833,143.5 201.167,143.5 199.5,143.5C 199.167,130.15 199.501,116.817 200.5,103.5C 201.622,104.63 202.956,105.297 204.5,105.5 Z"/></g>
<g><path style="opacity:0.005" fill="#000000" d="M 68.5,110.5 C 67.5655,111.568 67.2322,112.901 67.5,114.5C 66.596,115.209 66.2627,116.209 66.5,117.5C 65.6424,114.18 66.1424,110.847 68,107.5C 68.4828,108.448 68.6495,109.448 68.5,110.5 Z"/></g>
<g><path style="opacity:0.01" fill="#000000" d="M 89.5,108.5 C 89.5,108.167 89.5,107.833 89.5,107.5C 96.1667,107.833 96.1667,108.167 89.5,108.5 Z"/></g>
<g><path style="opacity:0.01" fill="#000000" d="M 236.5,108.5 C 237.946,107.387 239.613,107.22 241.5,108C 239.866,108.494 238.199,108.66 236.5,108.5 Z"/></g>
<g><path style="opacity:0.004" fill="#000000" d="M 95.5,109.5 C 99.3112,108.355 103.311,108.188 107.5,109C 103.514,109.499 99.5138,109.666 95.5,109.5 Z"/></g>
<g><path style="opacity:1" fill="#c40302" d="M 204.5,105.5 C 211.888,108.963 219.555,111.629 227.5,113.5C 227.5,127.5 227.5,141.5 227.5,155.5C 220.481,150.158 212.814,146.158 204.5,143.5C 204.5,130.833 204.5,118.167 204.5,105.5 Z"/></g>
<g><path style="opacity:0.004" fill="#000000" d="M 242.5,109.5 C 246.311,108.355 250.311,108.188 254.5,109C 250.514,109.499 246.514,109.666 242.5,109.5 Z"/></g>
<g><path style="opacity:0.005" fill="#000000" d="M 109.5,110.5 C 112.64,109.359 115.973,109.192 119.5,110C 116.183,110.498 112.85,110.665 109.5,110.5 Z"/></g>
<g><path style="opacity:1" fill="#c5120b" d="M 171.5,106.5 C 171.5,118.833 171.5,131.167 171.5,143.5C 163.476,146.345 155.81,150.011 148.5,154.5C 148.5,140.833 148.5,127.167 148.5,113.5C 156.234,111.366 163.9,109.033 171.5,106.5 Z"/></g>
<g><path style="opacity:0.005" fill="#000000" d="M 256.5,110.5 C 259.64,109.359 262.973,109.192 266.5,110C 263.183,110.498 259.85,110.665 256.5,110.5 Z"/></g>
<g><path style="opacity:0.005" fill="#000000" d="M 310.5,121.5 C 310.768,119.901 310.434,118.568 309.5,117.5C 309.768,115.901 309.434,114.568 308.5,113.5C 308.457,109.107 308.957,108.774 310,112.5C 311.351,115.623 311.518,118.623 310.5,121.5 Z"/></g>
<g><path style="opacity:0.968" fill="#212121" d="M 308.5,113.5 C 308.232,115.099 308.566,116.432 309.5,117.5C 309.232,119.099 309.566,120.432 310.5,121.5C 310.43,125.425 311.097,129.091 312.5,132.5C 312.216,134.415 312.549,136.081 313.5,137.5C 313.596,143.373 314.263,149.04 315.5,154.5C 315.19,157.713 315.523,160.713 316.5,163.5C 316.828,175.678 316.495,187.678 315.5,199.5C 315.608,197.777 315.108,196.11 314,194.5C 310.048,205.674 302.214,214.341 290.5,220.5C 289.996,225.749 288.996,230.749 287.5,235.5C 287.5,229.167 287.5,222.833 287.5,216.5C 288.329,209.011 288.829,201.344 289,193.5C 292.551,187.065 295.551,180.399 298,173.5C 298.913,151.94 299.747,130.44 300.5,109C 299.748,108.329 299.414,107.496 299.5,106.5C 301.225,105.095 303.225,104.595 305.5,105C 306.437,107.949 307.437,110.783 308.5,113.5 Z"/></g>
<g><path style="opacity:1" fill="#f7f8f8" d="M 255.5,117.5 C 256.833,117.5 258.167,117.5 259.5,117.5C 259.5,180.5 259.5,243.5 259.5,306.5C 258.5,307.833 257.5,309.167 256.5,310.5C 255.501,246.335 255.168,182.002 255.5,117.5 Z"/></g>
<g><path style="opacity:0.006" fill="#000000" d="M 65.5,123.5 C 64.5655,124.568 64.2322,125.901 64.5,127.5C 63.4824,124.623 63.6491,121.623 65,118.5C 65.4935,120.134 65.6602,121.801 65.5,123.5 Z"/></g>
<g><path style="opacity:1" fill="#f3f4f4" d="M 285.5,115.5 C 287.493,148.817 288.16,182.483 287.5,216.5C 287.5,222.833 287.5,229.167 287.5,235.5C 287.5,242.167 287.5,248.833 287.5,255.5C 287.5,256.167 287.5,256.833 287.5,257.5C 287.666,261.846 287.499,266.179 287,270.5C 285.97,272.346 284.804,274.013 283.5,275.5C 282.844,221.95 283.511,168.617 285.5,115.5 Z"/></g>
<g><path style="opacity:1" fill="#eee1e1" d="M 171.5,143.5 C 171.5,131.167 171.5,118.833 171.5,106.5C 172.848,105.399 174.348,104.399 176,103.5C 176.5,116.829 176.667,130.163 176.5,143.5C 174.833,143.5 173.167,143.5 171.5,143.5 Z"/></g>
<g><path style="opacity:0.005" fill="#000000" d="M 312.5,126.5 C 311.402,125.399 311.235,124.066 312,122.5C 312.49,123.793 312.657,125.127 312.5,126.5 Z"/></g>
<g><path style="opacity:1" fill="#d8d9d9" d="M 227.5,113.5 C 229.042,114.301 230.708,114.634 232.5,114.5C 232.833,129.182 232.499,143.848 231.5,158.5C 230.148,157.476 228.815,156.476 227.5,155.5C 227.5,141.5 227.5,127.5 227.5,113.5 Z"/></g>
<g><path style="opacity:0.006" fill="#000000" d="M 312.5,126.5 C 314.27,130.094 314.603,133.76 313.5,137.5C 313.784,135.585 313.451,133.919 312.5,132.5C 312.5,130.5 312.5,128.5 312.5,126.5 Z"/></g>
<g><path style="opacity:1" fill="#c81615" d="M 93.5,116.5 C 101.158,116.986 108.825,117.32 116.5,117.5C 116.5,126.5 116.5,135.5 116.5,144.5C 115.71,145.609 115.21,146.942 115,148.5C 109.309,145.592 103.142,142.925 96.5,140.5C 96.6495,139.448 96.4828,138.448 96,137.5C 95.6079,144.368 94.7745,151.034 93.5,157.5C 93.5,143.833 93.5,130.167 93.5,116.5 Z"/></g>
<g><path style="opacity:0.978" fill="#2e2e2e" d="M 87.5,134.5 C 87.5,145.5 87.5,156.5 87.5,167.5C 86.7784,167.918 86.2784,168.584 86,169.5C 76.854,166.846 68.6873,162.512 61.5,156.5C 61.5,153.5 61.5,150.5 61.5,147.5C 62.4682,145.393 62.8016,143.059 62.5,140.5C 63.5629,136.361 64.2296,132.028 64.5,127.5C 65.4345,126.432 65.7678,125.099 65.5,123.5C 66.3382,123.158 66.6716,122.492 66.5,121.5C 67.4098,119.981 68.2432,118.315 69,116.5C 72.2497,126.427 77.9164,134.76 86,141.5C 86.1862,138.964 86.6862,136.631 87.5,134.5 Z"/></g>
<g><path style="opacity:1" fill="#f0f3f3" d="M 148.5,113.5 C 148.5,127.167 148.5,140.833 148.5,154.5C 148.167,155.167 147.833,155.833 147.5,156.5C 146.504,156.414 145.671,156.748 145,157.5C 144.5,143.171 144.333,128.837 144.5,114.5C 145.959,114.567 147.292,114.234 148.5,113.5 Z"/></g>
<g><path style="opacity:0.006" fill="#000000" d="M 62.5,140.5 C 61.5318,142.607 61.1984,144.941 61.5,147.5C 60.6862,149.631 60.1862,151.964 60,154.5C 59.7231,147.764 60.3898,141.098 62,134.5C 62.4955,136.473 62.6621,138.473 62.5,140.5 Z"/></g>
<g><path style="opacity:1" fill="#161616" d="M 142.5,147.5 C 141.835,149.369 141.169,151.369 140.5,153.5C 135.147,152.082 129.48,150.749 123.5,149.5C 123.802,146.941 123.468,144.607 122.5,142.5C 122.334,134.16 122.5,125.827 123,117.5C 123.499,121.486 123.666,125.486 123.5,129.5C 129.569,130.159 135.403,131.492 141,133.5C 141.333,130.833 141.667,128.167 142,125.5C 142.5,132.826 142.666,140.159 142.5,147.5 Z"/></g>
<g><path style="opacity:0.007" fill="#000000" d="M 316.5,163.5 C 316.81,160.287 316.477,157.287 315.5,154.5C 315.335,151.482 315.502,148.482 316,145.5C 316.333,148.167 316.667,150.833 317,153.5C 317.808,157.027 317.641,160.36 316.5,163.5 Z"/></g>
<g><path style="opacity:1" fill="#d02525" d="M 116.5,144.5 C 116.5,157.5 116.5,170.5 116.5,183.5C 115.209,183.737 114.209,183.404 113.5,182.5C 114.655,175.345 114.822,168.012 114,160.5C 110.434,161.546 107.1,160.88 104,158.5C 103.667,158.833 103.333,159.167 103,159.5C 101.352,158.283 99.519,157.45 97.5,157C 96.8742,156.25 96.3742,155.416 96,154.5C 95.6667,159.5 95.3333,164.5 95,169.5C 94.7216,170.416 94.2216,171.082 93.5,171.5C 93.5,166.833 93.5,162.167 93.5,157.5C 94.7745,151.034 95.6079,144.368 96,137.5C 96.4828,138.448 96.6495,139.448 96.5,140.5C 103.142,142.925 109.309,145.592 115,148.5C 115.21,146.942 115.71,145.609 116.5,144.5 Z"/></g>
<g><path style="opacity:1" fill="#2a2a2a" d="M 144.5,114.5 C 144.333,128.837 144.5,143.171 145,157.5C 145.671,156.748 146.504,156.414 147.5,156.5C 148.329,157.332 149.162,156.999 150,155.5C 151.579,157.041 153.413,158.208 155.5,159C 154.001,159.838 153.668,160.671 154.5,161.5C 145.068,169.041 138.068,178.375 133.5,189.5C 130.267,187.292 126.6,185.626 122.5,184.5C 122.5,170.5 122.5,156.5 122.5,142.5C 123.468,144.607 123.802,146.941 123.5,149.5C 129.48,150.749 135.147,152.082 140.5,153.5C 141.169,151.369 141.835,149.369 142.5,147.5C 142.335,151.182 142.501,154.848 143,158.5C 143.169,143.661 143.669,128.994 144.5,114.5 Z"/></g>
<g><path style="opacity:0.004" fill="#000000" d="M 58.5,159.5 C 59.5983,160.601 59.765,161.934 59,163.5C 58.51,162.207 58.3433,160.873 58.5,159.5 Z"/></g>
<g><path style="opacity:1" fill="#ca0a09" d="M 282.5,116.5 C 282.5,157.833 282.5,199.167 282.5,240.5C 281.957,229.245 281.123,217.911 280,206.5C 274.678,209.534 268.845,210.868 262.5,210.5C 261.699,217.305 261.033,227.305 260.5,240.5C 260.5,199.5 260.5,158.5 260.5,117.5C 267.84,117.277 275.173,116.944 282.5,116.5 Z"/></g>
<g><path style="opacity:0.009" fill="#000000" d="M 317.5,165.5 C 318.659,175.992 318.825,186.659 318,197.5C 317.5,186.839 317.333,176.172 317.5,165.5 Z"/></g>
<g><path style="opacity:1" fill="#f3f3f3" d="M 244.5,214.5 C 242.766,222.342 240.099,230.009 236.5,237.5C 234.453,239.55 232.786,241.883 231.5,244.5C 211.469,263.754 188.469,268.254 162.5,258C 135.94,242.374 126.273,219.541 133.5,189.5C 138.068,178.375 145.068,169.041 154.5,161.5C 169.507,151.62 185.84,148.787 203.5,153C 231.76,163.667 245.426,184.167 244.5,214.5 Z"/></g>
<g><path style="opacity:1" fill="#2a2a2a" d="M 167.5,170.5 C 158.258,176.404 151.591,184.404 147.5,194.5C 145.365,192.929 143.032,191.596 140.5,190.5C 142.015,184.471 144.848,179.137 149,174.5C 152.078,170.915 155.578,167.915 159.5,165.5C 159.56,166.043 159.893,166.376 160.5,166.5C 162.833,165.167 165.167,163.833 167.5,162.5C 169.109,164.94 171.443,166.107 174.5,166C 171.263,167.206 168.93,168.706 167.5,170.5 Z"/></g>
<g><path style="opacity:1" fill="#141414" d="M 167.5,170.5 C 168.93,168.706 171.263,167.206 174.5,166C 171.443,166.107 169.109,164.94 167.5,162.5C 165.167,163.833 162.833,165.167 160.5,166.5C 159.893,166.376 159.56,166.043 159.5,165.5C 176.627,154.582 194.293,153.748 212.5,163C 215.909,165.034 218.909,167.534 221.5,170.5C 219.851,172.65 218.018,174.65 216,176.5C 201.037,164.548 184.871,162.548 167.5,170.5 Z"/></g>
<g><path style="opacity:1" fill="#d63635" d="M 113.5,182.5 C 106.869,181.669 100.202,181.336 93.5,181.5C 93.5,178.167 93.5,174.833 93.5,171.5C 94.2216,171.082 94.7216,170.416 95,169.5C 95.3333,164.5 95.6667,159.5 96,154.5C 96.3742,155.416 96.8742,156.25 97.5,157C 99.519,157.45 101.352,158.283 103,159.5C 103.333,159.167 103.667,158.833 104,158.5C 107.1,160.88 110.434,161.546 114,160.5C 114.822,168.012 114.655,175.345 113.5,182.5 Z"/></g>
<g><path style="opacity:0.96" fill="#4b4b4b" d="M 61.5,156.5 C 68.6873,162.512 76.854,166.846 86,169.5C 86.2784,168.584 86.7784,167.918 87.5,167.5C 87.5,172.5 87.5,177.5 87.5,182.5C 77.391,183.092 68.0576,186.092 59.5,191.5C 59.3336,182.494 59.5002,173.494 60,164.5C 60.1829,161.635 60.6829,158.969 61.5,156.5 Z"/></g>
<g><path style="opacity:1" fill="#202020" d="M 195.5,198.5 C 194.683,196.031 194.183,193.365 194,190.5C 190.938,192.13 189.271,191.13 189,187.5C 188.333,197.5 188.333,207.5 189,217.5C 190.972,219.232 193.139,220.565 195.5,221.5C 194.365,223.213 192.698,223.88 190.5,223.5C 189.5,223.5 188.5,223.5 187.5,223.5C 187.828,211.322 187.495,199.322 186.5,187.5C 185.5,187.5 184.5,187.5 183.5,187.5C 183.5,188.5 183.5,189.5 183.5,190.5C 182.778,190.918 182.278,191.584 182,192.5C 181.695,190.443 181.695,188.443 182,186.5C 179.775,185.061 177.775,183.394 176,181.5C 175.082,183.376 173.582,184.376 171.5,184.5C 174.221,180.039 175.221,175.039 174.5,169.5C 181.435,167.506 188.435,167.173 195.5,168.5C 195.335,172.182 195.501,175.848 196,179.5C 202.439,181.884 202.606,185.218 196.5,189.5C 195.516,192.428 195.183,195.428 195.5,198.5 Z"/></g>
<g><path style="opacity:1" fill="#d3d3d3" d="M 183.5,176.5 C 184.978,176.238 186.311,176.571 187.5,177.5C 186.833,177.833 186.167,178.167 185.5,178.5C 184.287,178.253 183.62,177.586 183.5,176.5 Z"/></g>
<g><path style="opacity:0.016" fill="#565656" d="M 57.5,165.5 C 58.6588,175.992 58.8255,186.659 58,197.5C 57.5002,186.839 57.3335,176.172 57.5,165.5 Z"/></g>
<g><path style="opacity:1" fill="#0c0c0c" d="M 203.5,180.5 C 206.167,180.5 208.833,180.5 211.5,180.5C 211.5,197.167 211.5,213.833 211.5,230.5C 207.988,231.055 204.988,230.388 202.5,228.5C 203.329,221.679 203.829,214.679 204,207.5C 204.5,214.826 204.666,222.159 204.5,229.5C 206.5,229.5 208.5,229.5 210.5,229.5C 210.5,213.833 210.5,198.167 210.5,182.5C 208.533,182.739 206.699,182.406 205,181.5C 204.667,187.167 204.333,192.833 204,198.5C 203.501,192.509 203.334,186.509 203.5,180.5 Z"/></g>
<g><path style="opacity:0.972" fill="#020202" d="M 88.5,115.5 C 88.3333,167.168 88.5,218.834 89,270.5C 90.5242,272.898 92.0242,275.231 93.5,277.5C 100.055,288.055 107.722,297.721 116.5,306.5C 117.793,308.296 119.293,309.963 121,311.5C 121.5,269.168 121.667,226.835 121.5,184.5C 121.833,184.5 122.167,184.5 122.5,184.5C 126.6,185.626 130.267,187.292 133.5,189.5C 126.273,219.541 135.94,242.374 162.5,258C 188.469,268.254 211.469,263.754 231.5,244.5C 232.058,245.79 233.058,246.623 234.5,247C 240.423,249.465 246.423,251.632 252.5,253.5C 252.842,254.338 253.508,254.672 254.5,254.5C 254.167,273.512 254.5,292.512 255.5,311.5C 256.107,311.376 256.44,311.043 256.5,310.5C 257.5,309.167 258.5,307.833 259.5,306.5C 260.167,306.5 260.5,306.167 260.5,305.5C 268.97,297.033 276.304,287.7 282.5,277.5C 283.338,277.158 283.672,276.492 283.5,275.5C 284.804,274.013 285.97,272.346 287,270.5C 287.499,266.179 287.666,261.846 287.5,257.5C 292.186,256.963 296.853,256.296 301.5,255.5C 301.5,256.167 301.5,256.833 301.5,257.5C 300.662,257.842 300.328,258.508 300.5,259.5C 299.662,259.842 299.328,260.508 299.5,261.5C 298.662,261.842 298.328,262.508 298.5,263.5C 297.662,263.842 297.328,264.508 297.5,265.5C 296.662,265.842 296.328,266.508 296.5,267.5C 295.662,267.842 295.328,268.508 295.5,269.5C 293.412,271.336 292.079,273.669 291.5,276.5C 290.662,276.842 290.328,277.508 290.5,278.5C 289.833,278.5 289.5,278.833 289.5,279.5C 288.662,279.842 288.328,280.508 288.5,281.5C 287.833,281.5 287.5,281.833 287.5,282.5C 286.662,282.842 286.328,283.508 286.5,284.5C 285.833,284.5 285.5,284.833 285.5,285.5C 284.662,285.842 284.328,286.508 284.5,287.5C 283.833,287.5 283.5,287.833 283.5,288.5C 282.833,288.5 282.5,288.833 282.5,289.5C 281.662,289.842 281.328,290.508 281.5,291.5C 280.833,291.5 280.5,291.833 280.5,292.5C 279.094,292.973 278.427,293.973 278.5,295.5C 277.833,295.5 277.5,295.833 277.5,296.5C 275.457,297.579 274.124,299.246 273.5,301.5C 272.833,301.5 272.5,301.833 272.5,302.5C 271.833,302.5 271.5,302.833 271.5,303.5C 270.026,304.436 269.026,305.77 268.5,307.5C 267.833,307.5 267.5,307.833 267.5,308.5C 266.833,308.5 266.5,308.833 266.5,309.5C 265.833,309.5 265.5,309.833 265.5,310.5C 264.833,310.5 264.5,310.833 264.5,311.5C 263.833,311.5 263.5,311.833 263.5,312.5C 262.833,312.5 262.5,312.833 262.5,313.5C 261.5,313.833 260.833,314.5 260.5,315.5C 259.833,315.5 259.5,315.833 259.5,316.5C 258.5,316.833 257.833,317.5 257.5,318.5C 256.833,318.5 256.5,318.833 256.5,319.5C 255.833,319.5 255.5,319.833 255.5,320.5C 254.833,320.5 254.5,320.833 254.5,321.5C 253.833,321.5 253.5,321.833 253.5,322.5C 252.833,322.5 252.5,322.833 252.5,323.5C 251.833,323.5 251.5,323.833 251.5,324.5C 250.833,324.5 250.5,324.833 250.5,325.5C 249.833,325.5 249.5,325.833 249.5,326.5C 248.833,326.5 248.5,326.833 248.5,327.5C 247.833,327.5 247.5,327.833 247.5,328.5C 246.508,328.328 245.842,328.662 245.5,329.5C 244.833,329.5 244.5,329.833 244.5,330.5C 243.833,330.5 243.5,330.833 243.5,331.5C 242.833,331.5 242.5,331.833 242.5,332.5C 240.246,333.124 238.579,334.457 237.5,336.5C 236.833,336.5 236.5,336.833 236.5,337.5C 234.246,338.124 232.579,339.457 231.5,341.5C 230.833,341.5 230.5,341.833 230.5,342.5C 229.508,342.328 228.842,342.662 228.5,343.5C 227.833,343.5 227.5,343.833 227.5,344.5C 226.833,344.5 226.5,344.833 226.5,345.5C 225.508,345.328 224.842,345.662 224.5,346.5C 222.246,347.124 220.579,348.457 219.5,350.5C 218.508,350.328 217.842,350.662 217.5,351.5C 216.833,351.5 216.5,351.833 216.5,352.5C 215.508,352.328 214.842,352.662 214.5,353.5C 210.358,355.28 207.358,357.614 205.5,360.5C 205.167,359.167 204.833,359.167 204.5,360.5C 203.508,360.328 202.842,360.662 202.5,361.5C 201.833,361.5 201.5,361.833 201.5,362.5C 200.508,362.328 199.842,362.662 199.5,363.5C 198.833,363.5 198.5,363.833 198.5,364.5C 197.508,364.328 196.842,364.662 196.5,365.5C 195.508,365.328 194.842,365.662 194.5,366.5C 193.833,366.5 193.5,366.833 193.5,367.5C 192.508,367.328 191.842,367.662 191.5,368.5C 190.244,368.904 189.077,369.571 188,370.5C 186.923,369.571 185.756,368.904 184.5,368.5C 184.5,367.833 184.167,367.5 183.5,367.5C 182.486,366.326 181.153,365.66 179.5,365.5C 179.5,364.833 179.167,364.5 178.5,364.5C 174.342,361.586 170.009,358.919 165.5,356.5C 165.5,355.833 165.167,355.5 164.5,355.5C 161.68,353.255 158.68,351.255 155.5,349.5C 154.564,348.026 153.23,347.026 151.5,346.5C 151.5,345.833 151.167,345.5 150.5,345.5C 149.71,344.599 148.71,343.932 147.5,343.5C 147.5,342.833 147.167,342.5 146.5,342.5C 145.71,341.599 144.71,340.932 143.5,340.5C 143.5,339.833 143.167,339.5 142.5,339.5C 142.5,338.833 142.167,338.5 141.5,338.5C 138.057,335.271 134.39,332.271 130.5,329.5C 130.5,328.833 130.167,328.5 129.5,328.5C 121.167,320.833 113.167,312.833 105.5,304.5C 105.5,303.833 105.167,303.5 104.5,303.5C 102.183,299.854 99.5162,296.52 96.5,293.5C 95.4884,292.128 94.4884,290.795 93.5,289.5C 92.5254,287.205 91.1921,285.205 89.5,283.5C 89.5,282.833 89.1667,282.5 88.5,282.5C 83.8253,274.162 79.1586,265.828 74.5,257.5C 74.0198,254.557 73.0198,251.89 71.5,249.5C 71.6716,248.508 71.3382,247.842 70.5,247.5C 69.2036,241.95 67.537,236.617 65.5,231.5C 65.7678,229.901 65.4345,228.568 64.5,227.5C 64.7678,225.901 64.4345,224.568 63.5,223.5C 63.7947,221.265 63.4614,219.265 62.5,217.5C 62.7845,215.585 62.4511,213.919 61.5,212.5C 60.8333,205.5 60.1667,198.5 59.5,191.5C 68.0576,186.092 77.391,183.092 87.5,182.5C 87.5,177.5 87.5,172.5 87.5,167.5C 87.5,156.5 87.5,145.5 87.5,134.5C 87.5,128.167 87.5,121.833 87.5,115.5C 87.8333,114.167 88.1667,114.167 88.5,115.5 Z"/></g>
<g><path style="opacity:1" fill="#e7ebeb" d="M 88.5,115.5 C 90.4147,115.216 92.0813,115.549 93.5,116.5C 93.5,130.167 93.5,143.833 93.5,157.5C 93.5,162.167 93.5,166.833 93.5,171.5C 93.5,174.833 93.5,178.167 93.5,181.5C 93.5,213.5 93.5,245.5 93.5,277.5C 92.0242,275.231 90.5242,272.898 89,270.5C 88.5,218.834 88.3333,167.168 88.5,115.5 Z"/></g>
<g><path style="opacity:1" fill="#333333" d="M 183.5,190.5 C 183.5,198.167 183.5,205.833 183.5,213.5C 180.5,213.5 177.5,213.5 174.5,213.5C 174.666,206.825 174.5,200.158 174,193.5C 169.004,198.44 167.171,204.44 168.5,211.5C 167.834,208.972 167.168,206.306 166.5,203.5C 164.338,201.98 162.005,200.98 159.5,200.5C 161.588,193.623 165.588,188.29 171.5,184.5C 173.582,184.376 175.082,183.376 176,181.5C 177.775,183.394 179.775,185.061 182,186.5C 181.695,188.443 181.695,190.443 182,192.5C 182.278,191.584 182.778,190.918 183.5,190.5 Z"/></g>
<g><path style="opacity:1" fill="#080808" d="M 140.5,190.5 C 143.032,191.596 145.365,192.929 147.5,194.5C 143.183,214.059 148.85,229.892 164.5,242C 178.498,249.854 192.831,250.521 207.5,244C 210.783,242.439 213.617,240.273 216,237.5C 218.222,239.385 220.056,241.551 221.5,244C 215.048,250.898 207.048,255.231 197.5,257C 167.418,259.906 147.585,247.073 138,218.5C 137.333,210.833 137.333,203.167 138,195.5C 138.757,193.685 139.59,192.019 140.5,190.5 Z"/></g>
<g><path style="opacity:1" fill="#7f7f7f" d="M 186.5,187.5 C 187.495,199.322 187.828,211.322 187.5,223.5C 188.5,223.5 189.5,223.5 190.5,223.5C 189.432,224.434 188.099,224.768 186.5,224.5C 186.5,212.167 186.5,199.833 186.5,187.5 Z"/></g>
<g><path style="opacity:1" fill="#363636" d="M 203.5,180.5 C 203.334,186.509 203.501,192.509 204,198.5C 204.333,192.833 204.667,187.167 205,181.5C 206.699,182.406 208.533,182.739 210.5,182.5C 210.5,198.167 210.5,213.833 210.5,229.5C 208.5,229.5 206.5,229.5 204.5,229.5C 204.666,222.159 204.5,214.826 204,207.5C 203.829,214.679 203.329,221.679 202.5,228.5C 202.5,221.5 202.5,214.5 202.5,207.5C 200.167,207.5 197.833,207.5 195.5,207.5C 195.5,212.167 195.5,216.833 195.5,221.5C 193.139,220.565 190.972,219.232 189,217.5C 188.333,207.5 188.333,197.5 189,187.5C 189.271,191.13 190.938,192.13 194,190.5C 194.183,193.365 194.683,196.031 195.5,198.5C 197.833,198.5 200.167,198.5 202.5,198.5C 202.177,192.31 202.51,186.31 203.5,180.5 Z"/></g>
<g><path style="opacity:0.97" fill="#2f2f2f" d="M 315.5,199.5 C 314.833,206.5 314.167,213.5 313.5,220.5C 312.566,221.568 312.232,222.901 312.5,224.5C 311.566,225.568 311.232,226.901 311.5,228.5C 311.167,228.5 310.833,228.5 310.5,228.5C 308.446,228.716 306.446,229.882 304.5,232C 299.596,234.871 294.429,237.038 289,238.5C 288.827,244.348 288.327,250.015 287.5,255.5C 287.5,248.833 287.5,242.167 287.5,235.5C 288.996,230.749 289.996,225.749 290.5,220.5C 302.214,214.341 310.048,205.674 314,194.5C 315.108,196.11 315.608,197.777 315.5,199.5 Z"/></g>
<g><path style="opacity:1" fill="#7f7f7f" d="M 255.5,117.5 C 255.168,182.002 255.501,246.335 256.5,310.5C 256.44,311.043 256.107,311.376 255.5,311.5C 254.5,292.512 254.167,273.512 254.5,254.5C 254.5,249.833 254.5,245.167 254.5,240.5C 254.168,199.33 254.501,158.33 255.5,117.5 Z"/></g>
<g><path style="opacity:1" fill="#c70000" d="M 93.5,181.5 C 100.202,181.336 106.869,181.669 113.5,182.5C 114.209,183.404 115.209,183.737 116.5,183.5C 116.5,224.5 116.5,265.5 116.5,306.5C 107.722,297.721 100.055,288.055 93.5,277.5C 93.5,245.5 93.5,213.5 93.5,181.5 Z"/></g>
<g><path style="opacity:1" fill="#1b1b1b" d="M 238.5,212.5 C 236.787,211.365 236.12,209.698 236.5,207.5C 234.089,207.863 232.589,206.863 232,204.5C 231.226,208.147 230.559,211.814 230,215.5C 229.536,214.906 229.369,214.239 229.5,213.5C 230.218,205.518 229.051,197.851 226,190.5C 222.943,189.549 219.777,189.216 216.5,189.5C 216.5,186.5 216.5,183.5 216.5,180.5C 221.544,180.173 226.544,180.506 231.5,181.5C 236.928,191.122 239.262,201.455 238.5,212.5 Z"/></g>
<g><path style="opacity:0.004" fill="#000000" d="M 58.5,199.5 C 59.5735,200.251 59.7401,201.251 59,202.5C 58.5172,201.552 58.3505,200.552 58.5,199.5 Z"/></g>
<g><path style="opacity:1" fill="#050505" d="M 159.5,200.5 C 162.005,200.98 164.338,201.98 166.5,203.5C 167.168,206.306 167.834,208.972 168.5,211.5C 171.191,221.349 177.691,226.682 188,227.5C 191.28,227.296 194.28,226.296 197,224.5C 198.626,226.917 200.126,229.417 201.5,232C 183.935,239.632 170.435,235.132 161,218.5C 159.696,212.577 159.196,206.577 159.5,200.5 Z"/></g>
<g><path style="opacity:0.007" fill="#000000" d="M 61.5,212.5 C 61.2155,214.415 61.5489,216.081 62.5,217.5C 62.6602,219.199 62.4935,220.866 62,222.5C 60.2848,217.268 59.6181,211.935 60,206.5C 60.1909,208.708 60.6909,210.708 61.5,212.5 Z"/></g>
<g><path style="opacity:1" fill="#323232" d="M 238.5,212.5 C 237.684,221.63 234.351,229.63 228.5,236.5C 224.015,232.515 219.682,228.349 215.5,224C 217.563,221.489 219.063,218.656 220,215.5C 222.016,217.684 224.183,219.684 226.5,221.5C 227.917,218.908 228.917,216.241 229.5,213.5C 229.369,214.239 229.536,214.906 230,215.5C 230.559,211.814 231.226,208.147 232,204.5C 232.589,206.863 234.089,207.863 236.5,207.5C 236.12,209.698 236.787,211.365 238.5,212.5 Z"/></g>
<g><path style="opacity:1" fill="#2e2e2e" d="M 254.5,240.5 C 254.5,245.167 254.5,249.833 254.5,254.5C 253.508,254.672 252.842,254.338 252.5,253.5C 253.483,249.702 253.817,245.702 253.5,241.5C 247.912,241.122 242.745,239.455 238,236.5C 237.617,237.056 237.117,237.389 236.5,237.5C 240.099,230.009 242.766,222.342 244.5,214.5C 244.343,215.873 244.51,217.207 245,218.5C 245.421,214.128 246.088,209.795 247,205.5C 248.584,206.861 250.418,207.528 252.5,207.5C 253.351,213.972 254.018,224.972 254.5,240.5 Z"/></g>
<g><path style="opacity:0.005" fill="#000000" d="M 313.5,220.5 C 314.833,221.833 314.833,223.167 313.5,224.5C 313.5,223.167 313.5,221.833 313.5,220.5 Z"/></g>
<g><path style="opacity:0.006" fill="#000000" d="M 63.5,223.5 C 63.2322,225.099 63.5655,226.432 64.5,227.5C 64.5,228.833 64.5,230.167 64.5,231.5C 62.5873,228.96 62.254,226.293 63.5,223.5 Z"/></g>
<g><path style="opacity:0.008" fill="#000000" d="M 312.5,224.5 C 312.833,224.5 313.167,224.5 313.5,224.5C 313.768,226.099 313.434,227.432 312.5,228.5C 312.5,227.167 312.5,225.833 312.5,224.5 Z"/></g>
<g><path style="opacity:1" fill="#dbbeba" d="M 285.5,115.5 C 283.511,168.617 282.844,221.95 283.5,275.5C 283.672,276.492 283.338,277.158 282.5,277.5C 282.5,270.833 282.5,264.167 282.5,257.5C 282.5,257.167 282.5,256.833 282.5,256.5C 282.5,251.167 282.5,245.833 282.5,240.5C 282.5,199.167 282.5,157.833 282.5,116.5C 283.209,115.596 284.209,115.263 285.5,115.5 Z"/></g>
<g><path style="opacity:0.005" fill="#000000" d="M 311.5,228.5 C 311.833,228.5 312.167,228.5 312.5,228.5C 312.167,232.5 311.833,232.5 311.5,228.5 Z"/></g>
<g><path style="opacity:0.004" fill="#000000" d="M 64.5,231.5 C 64.8333,231.5 65.1667,231.5 65.5,231.5C 65.1667,235.5 64.8333,235.5 64.5,231.5 Z"/></g>
<g><path style="opacity:1" fill="#d1302f" d="M 282.5,240.5 C 282.5,245.833 282.5,251.167 282.5,256.5C 281.807,252.435 281.14,248.268 280.5,244C 274.05,244.102 267.884,243.269 262,241.5C 261.667,245.833 261.333,250.167 261,254.5C 260.501,249.845 260.334,245.179 260.5,240.5C 261.033,227.305 261.699,217.305 262.5,210.5C 268.845,210.868 274.678,209.534 280,206.5C 281.123,217.911 281.957,229.245 282.5,240.5 Z"/></g>
<g><path style="opacity:0.005" fill="#000000" d="M 308.5,238.5 C 309.222,238.082 309.722,237.416 310,236.5C 310.52,238.289 310.187,239.956 309,241.5C 308.517,240.552 308.351,239.552 308.5,238.5 Z"/></g>
<g><path style="opacity:1" fill="#474747" d="M 252.5,253.5 C 246.423,251.632 240.423,249.465 234.5,247C 233.058,246.623 232.058,245.79 231.5,244.5C 232.786,241.883 234.453,239.55 236.5,237.5C 237.117,237.389 237.617,237.056 238,236.5C 242.745,239.455 247.912,241.122 253.5,241.5C 253.817,245.702 253.483,249.702 252.5,253.5 Z"/></g>
<g><path style="opacity:0.946" fill="#454545" d="M 310.5,228.5 C 310.041,231.877 309.374,235.211 308.5,238.5C 307.566,239.568 307.232,240.901 307.5,242.5C 306.596,243.209 306.263,244.209 306.5,245.5C 305.662,245.842 305.328,246.508 305.5,247.5C 304.167,250.167 302.833,252.833 301.5,255.5C 296.853,256.296 292.186,256.963 287.5,257.5C 287.5,256.833 287.5,256.167 287.5,255.5C 288.327,250.015 288.827,244.348 289,238.5C 294.429,237.038 299.596,234.871 304.5,232C 306.446,229.882 308.446,228.716 310.5,228.5 Z"/></g>
<g><path style="opacity:0.004" fill="#000000" d="M 307.5,242.5 C 308.833,243.5 308.833,244.5 307.5,245.5C 307.5,244.5 307.5,243.5 307.5,242.5 Z"/></g>
<g><path style="opacity:0.006" fill="#000000" d="M 306.5,245.5 C 306.833,245.5 307.167,245.5 307.5,245.5C 307.509,247.308 307.009,248.975 306,250.5C 305.517,249.552 305.351,248.552 305.5,247.5C 306.338,247.158 306.672,246.492 306.5,245.5 Z"/></g>
<g><path style="opacity:0.006" fill="#000000" d="M 70.5,247.5 C 70.3284,248.492 70.6618,249.158 71.5,249.5C 71.7658,251.347 71.4325,252.014 70.5,251.5C 69.2947,250.005 69.2947,248.672 70.5,247.5 Z"/></g>
<g><path style="opacity:1" fill="#d24643" d="M 259.5,117.5 C 259.833,117.5 260.167,117.5 260.5,117.5C 260.5,158.5 260.5,199.5 260.5,240.5C 260.334,245.179 260.501,249.845 261,254.5C 261.333,250.167 261.667,245.833 262,241.5C 267.884,243.269 274.05,244.102 280.5,244C 281.14,248.268 281.807,252.435 282.5,256.5C 282.5,256.833 282.5,257.167 282.5,257.5C 275.178,257.929 268.012,257.263 261,255.5C 260.5,272.163 260.333,288.83 260.5,305.5C 260.5,306.167 260.167,306.5 259.5,306.5C 259.5,243.5 259.5,180.5 259.5,117.5 Z"/></g>
<g><path style="opacity:1" fill="#c60000" d="M 282.5,257.5 C 282.5,264.167 282.5,270.833 282.5,277.5C 276.304,287.7 268.97,297.033 260.5,305.5C 260.333,288.83 260.5,272.163 261,255.5C 268.012,257.263 275.178,257.929 282.5,257.5 Z"/></g>
<g><path style="opacity:0.012" fill="#000000" d="M 74.5,257.5 C 73.8333,258.167 73.8333,258.167 74.5,257.5 Z"/></g>
<g><path style="opacity:0.006" fill="#000000" d="M 301.5,257.5 C 302.833,258.167 302.833,258.833 301.5,259.5C 301.5,258.833 301.5,258.167 301.5,257.5 Z"/></g>
<g><path style="opacity:0.006" fill="#000000" d="M 300.5,259.5 C 300.833,259.5 301.167,259.5 301.5,259.5C 301.672,260.492 301.338,261.158 300.5,261.5C 300.5,260.833 300.5,260.167 300.5,259.5 Z"/></g>
<g><path style="opacity:0.008" fill="#000000" d="M 299.5,261.5 C 299.833,261.5 300.167,261.5 300.5,261.5C 300.672,262.492 300.338,263.158 299.5,263.5C 299.5,262.833 299.5,262.167 299.5,261.5 Z"/></g>
<g><path style="opacity:0.004" fill="#000000" d="M 298.5,263.5 C 298.833,263.5 299.167,263.5 299.5,263.5C 299.672,264.492 299.338,265.158 298.5,265.5C 298.5,264.833 298.5,264.167 298.5,263.5 Z"/></g>
<g><path style="opacity:0.006" fill="#000000" d="M 297.5,265.5 C 297.833,265.5 298.167,265.5 298.5,265.5C 298.672,266.492 298.338,267.158 297.5,267.5C 297.5,266.833 297.5,266.167 297.5,265.5 Z"/></g>
<g><path style="opacity:0.01" fill="#000000" d="M 296.5,267.5 C 296.833,267.5 297.167,267.5 297.5,267.5C 297.672,268.492 297.338,269.158 296.5,269.5C 296.5,268.833 296.5,268.167 296.5,267.5 Z"/></g>
<g><path style="opacity:1" fill="#ebefef" d="M 116.5,117.5 C 118.167,117.5 119.833,117.5 121.5,117.5C 121.5,139.833 121.5,162.167 121.5,184.5C 121.667,226.835 121.5,269.168 121,311.5C 119.293,309.963 117.793,308.296 116.5,306.5C 116.5,265.5 116.5,224.5 116.5,183.5C 116.5,170.5 116.5,157.5 116.5,144.5C 116.5,135.5 116.5,126.5 116.5,117.5 Z"/></g>
<g><path style="opacity:0.008" fill="#000000" d="M 295.5,269.5 C 295.833,269.5 296.167,269.5 296.5,269.5C 296.315,270.17 295.981,270.17 295.5,269.5 Z"/></g>
<g><path style="opacity:1" fill="#f1f3f2" d="M 204.5,270.5 C 204.5,297.833 204.5,325.167 204.5,352.5C 202.771,353.117 201.271,354.117 200,355.5C 199.167,327.494 199.333,299.494 200.5,271.5C 201.736,270.754 203.07,270.421 204.5,270.5 Z"/></g>
<g><path style="opacity:1" fill="#f3f5f5" d="M 148.5,259.5 C 148.5,284.833 148.5,310.167 148.5,335.5C 147.518,334.859 146.518,334.193 145.5,333.5C 144.829,307.934 144.162,282.434 143.5,257C 145.435,257.058 147.102,257.891 148.5,259.5 Z"/></g>
<g><path style="opacity:0.006" fill="#000000" d="M 291.5,276.5 C 292.833,277.167 292.833,277.833 291.5,278.5C 291.5,277.833 291.5,277.167 291.5,276.5 Z"/></g>
<g><path style="opacity:1" fill="#cd0e05" d="M 148.5,259.5 C 155.507,264.503 163.174,268.17 171.5,270.5C 171.5,297.5 171.5,324.5 171.5,351.5C 163.276,346.939 155.61,341.605 148.5,335.5C 148.5,310.167 148.5,284.833 148.5,259.5 Z"/></g>
<g><path style="opacity:0.012" fill="#000000" d="M 290.5,278.5 C 290.833,278.5 291.167,278.5 291.5,278.5C 291.315,279.17 290.981,279.17 290.5,278.5 Z"/></g>
<g><path style="opacity:0.006" fill="#000000" d="M 289.5,279.5 C 289.833,279.5 290.167,279.5 290.5,279.5C 290.672,280.492 290.338,281.158 289.5,281.5C 289.5,280.833 289.5,280.167 289.5,279.5 Z"/></g>
<g><path style="opacity:0.008" fill="#000000" d="M 288.5,281.5 C 288.833,281.5 289.167,281.5 289.5,281.5C 289.315,282.17 288.981,282.17 288.5,281.5 Z"/></g>
<g><path style="opacity:0.006" fill="#000000" d="M 88.5,282.5 C 89.1667,282.5 89.5,282.833 89.5,283.5C 89.2533,285.975 88.5866,285.975 87.5,283.5C 87.6236,282.893 87.9569,282.56 88.5,282.5 Z"/></g>
<g><path style="opacity:0.008" fill="#000000" d="M 287.5,282.5 C 287.833,282.5 288.167,282.5 288.5,282.5C 288.672,283.492 288.338,284.158 287.5,284.5C 287.5,283.833 287.5,283.167 287.5,282.5 Z"/></g>
<g><path style="opacity:1" fill="#cb0402" d="M 227.5,259.5 C 227.5,284.833 227.5,310.167 227.5,335.5C 220.139,341.521 212.472,347.187 204.5,352.5C 204.5,325.167 204.5,297.833 204.5,270.5C 212.841,268.162 220.508,264.495 227.5,259.5 Z"/></g>
<g><path style="opacity:0.008" fill="#000000" d="M 286.5,284.5 C 286.833,284.5 287.167,284.5 287.5,284.5C 287.315,285.17 286.981,285.17 286.5,284.5 Z"/></g>
<g><path style="opacity:0.006" fill="#000000" d="M 285.5,285.5 C 285.833,285.5 286.167,285.5 286.5,285.5C 286.672,286.492 286.338,287.158 285.5,287.5C 285.5,286.833 285.5,286.167 285.5,285.5 Z"/></g>
<g><path style="opacity:0.012" fill="#000000" d="M 284.5,287.5 C 284.833,287.5 285.167,287.5 285.5,287.5C 285.315,288.17 284.981,288.17 284.5,287.5 Z"/></g>
<g><path style="opacity:0.012" fill="#000000" d="M 283.5,288.5 C 283.833,288.5 284.167,288.5 284.5,288.5C 284.315,289.17 283.981,289.17 283.5,288.5 Z"/></g>
<g><path style="opacity:0.012" fill="#000000" d="M 93.5,289.5 C 92.8333,290.167 92.8333,290.167 93.5,289.5 Z"/></g>
<g><path style="opacity:0.006" fill="#000000" d="M 282.5,289.5 C 282.833,289.5 283.167,289.5 283.5,289.5C 283.672,290.492 283.338,291.158 282.5,291.5C 282.5,290.833 282.5,290.167 282.5,289.5 Z"/></g>
<g><path style="opacity:0.016" fill="#000000" d="M 281.5,291.5 C 281.833,291.5 282.167,291.5 282.5,291.5C 282.315,292.17 281.981,292.17 281.5,291.5 Z"/></g>
<g><path style="opacity:0.012" fill="#000000" d="M 280.5,292.5 C 280.833,292.5 281.167,292.5 281.5,292.5C 281.315,293.17 280.981,293.17 280.5,292.5 Z"/></g>
<g><path style="opacity:0.008" fill="#000000" d="M 96.5,293.5 C 95.8333,294.167 95.8333,294.167 96.5,293.5 Z"/></g>
<g><path style="opacity:0.008" fill="#000000" d="M 279.5,294.5 C 280.833,295.167 280.833,295.167 279.5,294.5 Z"/></g>
<g><path style="opacity:0.004" fill="#000000" d="M 96.5,295.5 C 97.8333,296.167 97.8333,296.167 96.5,295.5 Z"/></g>
<g><path style="opacity:0.012" fill="#000000" d="M 278.5,295.5 C 278.833,295.5 279.167,295.5 279.5,295.5C 279.315,296.17 278.981,296.17 278.5,295.5 Z"/></g>
<g><path style="opacity:0.012" fill="#000000" d="M 277.5,296.5 C 277.833,296.5 278.167,296.5 278.5,296.5C 278.315,297.17 277.981,297.17 277.5,296.5 Z"/></g>
<g><path style="opacity:1" fill="#dee3e3" d="M 227.5,335.5 C 227.5,310.167 227.5,284.833 227.5,259.5C 229.103,258.404 230.603,257.07 232,255.5C 232.667,281.167 232.667,306.833 232,332.5C 230.729,333.883 229.229,334.883 227.5,335.5 Z"/></g>
<g><path style="opacity:0.008" fill="#000000" d="M 273.5,301.5 C 274.833,302.167 274.833,302.167 273.5,301.5 Z"/></g>
<g><path style="opacity:0.007" fill="#000000" d="M 272.5,302.5 C 272.833,302.5 273.167,302.5 273.5,302.5C 272.968,305.46 272.301,305.793 271.5,303.5C 272.167,303.5 272.5,303.167 272.5,302.5 Z"/></g>
<g><path style="opacity:0.006" fill="#000000" d="M 104.5,303.5 C 105.167,303.5 105.5,303.833 105.5,304.5C 105.253,306.975 104.587,306.975 103.5,304.5C 103.624,303.893 103.957,303.56 104.5,303.5 Z"/></g>
<g><path style="opacity:0.012" fill="#000000" d="M 268.5,307.5 C 269.833,308.167 269.833,308.167 268.5,307.5 Z"/></g>
<g><path style="opacity:0.008" fill="#000000" d="M 267.5,308.5 C 267.833,308.5 268.167,308.5 268.5,308.5C 268.315,309.17 267.981,309.17 267.5,308.5 Z"/></g>
<g><path style="opacity:0.012" fill="#000000" d="M 266.5,309.5 C 266.833,309.5 267.167,309.5 267.5,309.5C 267.315,310.17 266.981,310.17 266.5,309.5 Z"/></g>
<g><path style="opacity:0.008" fill="#000000" d="M 265.5,310.5 C 265.833,310.5 266.167,310.5 266.5,310.5C 266.315,311.17 265.981,311.17 265.5,310.5 Z"/></g>
<g><path style="opacity:0.006" fill="#000000" d="M 264.5,311.5 C 264.833,311.5 265.167,311.5 265.5,311.5C 265.262,313.404 264.262,314.738 262.5,315.5C 262.5,314.833 262.5,314.167 262.5,313.5C 263.167,313.5 263.5,313.167 263.5,312.5C 264.167,312.5 264.5,312.167 264.5,311.5 Z"/></g>
<g><path style="opacity:0.004" fill="#000000" d="M 260.5,315.5 C 261.167,315.5 261.833,315.5 262.5,315.5C 261.833,316.833 260.833,317.833 259.5,318.5C 259.5,317.833 259.5,317.167 259.5,316.5C 260.167,316.5 260.5,316.167 260.5,315.5 Z"/></g>
<g><path style="opacity:0.005" fill="#000000" d="M 257.5,318.5 C 258.167,318.5 258.833,318.5 259.5,318.5C 258.089,320.914 256.089,322.581 253.5,323.5C 253.5,323.167 253.5,322.833 253.5,322.5C 254.167,322.5 254.5,322.167 254.5,321.5C 255.167,321.5 255.5,321.167 255.5,320.5C 256.167,320.5 256.5,320.167 256.5,319.5C 257.167,319.5 257.5,319.167 257.5,318.5 Z"/></g>
<g><path style="opacity:0.008" fill="#000000" d="M 252.5,323.5 C 252.833,323.5 253.167,323.5 253.5,323.5C 253.315,324.17 252.981,324.17 252.5,323.5 Z"/></g>
<g><path style="opacity:0.012" fill="#000000" d="M 251.5,324.5 C 251.833,324.5 252.167,324.5 252.5,324.5C 252.315,325.17 251.981,325.17 251.5,324.5 Z"/></g>
<g><path style="opacity:0.012" fill="#000000" d="M 250.5,325.5 C 250.833,325.5 251.167,325.5 251.5,325.5C 251.315,326.17 250.981,326.17 250.5,325.5 Z"/></g>
<g><path style="opacity:0.008" fill="#000000" d="M 249.5,326.5 C 249.833,326.5 250.167,326.5 250.5,326.5C 250.315,327.17 249.981,327.17 249.5,326.5 Z"/></g>
<g><path style="opacity:0.008" fill="#000000" d="M 248.5,327.5 C 248.833,327.5 249.167,327.5 249.5,327.5C 249.315,328.17 248.981,328.17 248.5,327.5 Z"/></g>
<g><path style="opacity:0.005" fill="#000000" d="M 129.5,328.5 C 130.167,328.5 130.5,328.833 130.5,329.5C 129.503,330.713 128.503,330.546 127.5,329C 128.094,328.536 128.761,328.369 129.5,328.5 Z"/></g>
<g><path style="opacity:0.008" fill="#000000" d="M 247.5,328.5 C 247.833,328.5 248.167,328.5 248.5,328.5C 248.315,329.17 247.981,329.17 247.5,328.5 Z"/></g>
<g><path style="opacity:0.007" fill="#000000" d="M 245.5,329.5 C 246.167,329.5 246.833,329.5 247.5,329.5C 246.738,331.262 245.404,332.262 243.5,332.5C 243.5,332.167 243.5,331.833 243.5,331.5C 244.167,331.5 244.5,331.167 244.5,330.5C 245.167,330.5 245.5,330.167 245.5,329.5 Z"/></g>
<g><path style="opacity:0.008" fill="#000000" d="M 242.5,332.5 C 242.833,332.5 243.167,332.5 243.5,332.5C 243.315,333.17 242.981,333.17 242.5,332.5 Z"/></g>
<g><path style="opacity:1" fill="#f3e5e4" d="M 171.5,270.5 C 173.117,271.038 174.784,271.371 176.5,271.5C 176.667,299.502 176.5,327.502 176,355.5C 174.333,354.267 172.833,352.933 171.5,351.5C 171.5,324.5 171.5,297.5 171.5,270.5 Z"/></g>
<g><path style="opacity:0.012" fill="#000000" d="M 237.5,336.5 C 238.833,337.167 238.833,337.167 237.5,336.5 Z"/></g>
<g><path style="opacity:0.012" fill="#000000" d="M 236.5,337.5 C 236.833,337.5 237.167,337.5 237.5,337.5C 237.315,338.17 236.981,338.17 236.5,337.5 Z"/></g>
<g><path style="opacity:0.006" fill="#000000" d="M 141.5,338.5 C 142.167,338.5 142.5,338.833 142.5,339.5C 143.167,339.5 143.5,339.833 143.5,340.5C 141.93,341.559 140.597,341.059 139.5,339C 140.094,338.536 140.761,338.369 141.5,338.5 Z"/></g>
<g><path style="opacity:0.012" fill="#000000" d="M 231.5,341.5 C 232.833,342.167 232.833,342.167 231.5,341.5 Z"/></g>
<g><path style="opacity:0.007" fill="#000000" d="M 146.5,342.5 C 147.167,342.5 147.5,342.833 147.5,343.5C 146.503,344.713 145.503,344.546 144.5,343C 145.094,342.536 145.761,342.369 146.5,342.5 Z"/></g>
<g><path style="opacity:0.008" fill="#000000" d="M 230.5,342.5 C 230.833,342.5 231.167,342.5 231.5,342.5C 231.315,343.17 230.981,343.17 230.5,342.5 Z"/></g>
<g><path style="opacity:0.008" fill="#000000" d="M 228.5,344.5 C 228.5,344.167 228.5,343.833 228.5,343.5C 229.167,343.5 229.833,343.5 230.5,343.5C 230.158,344.338 229.492,344.672 228.5,344.5 Z"/></g>
<g><path style="opacity:0.008" fill="#000000" d="M 227.5,344.5 C 227.833,344.5 228.167,344.5 228.5,344.5C 228.315,345.17 227.981,345.17 227.5,344.5 Z"/></g>
<g><path style="opacity:0.006" fill="#000000" d="M 150.5,345.5 C 151.167,345.5 151.5,345.833 151.5,346.5C 150.503,347.713 149.503,347.546 148.5,346C 149.094,345.536 149.761,345.369 150.5,345.5 Z"/></g>
<g><path style="opacity:0.008" fill="#000000" d="M 226.5,345.5 C 226.833,345.5 227.167,345.5 227.5,345.5C 227.315,346.17 226.981,346.17 226.5,345.5 Z"/></g>
<g><path style="opacity:0.006" fill="#000000" d="M 224.5,346.5 C 225.167,346.5 225.833,346.5 226.5,346.5C 225.833,347.833 225.167,347.833 224.5,346.5 Z"/></g>
<g><path style="opacity:0.012" fill="#000000" d="M 155.5,349.5 C 155.5,349.833 155.5,350.167 155.5,350.5C 154.83,350.019 154.83,349.685 155.5,349.5 Z"/></g>
<g><path style="opacity:0.008" fill="#000000" d="M 155.5,350.5 C 156.833,351.167 156.833,351.167 155.5,350.5 Z"/></g>
<g><path style="opacity:0.008" fill="#000000" d="M 219.5,350.5 C 220.833,351.167 220.833,351.167 219.5,350.5 Z"/></g>
<g><path style="opacity:0.004" fill="#000000" d="M 217.5,352.5 C 217.5,352.167 217.5,351.833 217.5,351.5C 218.167,351.5 218.833,351.5 219.5,351.5C 219.158,352.338 218.492,352.672 217.5,352.5 Z"/></g>
<g><path style="opacity:0.012" fill="#000000" d="M 216.5,352.5 C 216.833,352.5 217.167,352.5 217.5,352.5C 217.315,353.17 216.981,353.17 216.5,352.5 Z"/></g>
<g><path style="opacity:0.004" fill="#000000" d="M 214.5,353.5 C 215.167,353.5 215.833,353.5 216.5,353.5C 215.833,354.833 215.167,354.833 214.5,353.5 Z"/></g>
<g><path style="opacity:0.005" fill="#000000" d="M 164.5,355.5 C 165.167,355.5 165.5,355.833 165.5,356.5C 164.503,357.713 163.503,357.546 162.5,356C 163.094,355.536 163.761,355.369 164.5,355.5 Z"/></g>
<g><path style="opacity:0.008" fill="#000000" d="M 204.5,360.5 C 204.833,360.5 205.167,360.5 205.5,360.5C 205.315,361.17 204.981,361.17 204.5,360.5 Z"/></g>
<g><path style="opacity:0.005" fill="#000000" d="M 202.5,361.5 C 203.167,361.5 203.833,361.5 204.5,361.5C 204.027,362.906 203.027,363.573 201.5,363.5C 201.5,363.167 201.5,362.833 201.5,362.5C 202.167,362.5 202.5,362.167 202.5,361.5 Z"/></g>
<g><path style="opacity:0.004" fill="#000000" d="M 199.5,364.5 C 199.5,364.167 199.5,363.833 199.5,363.5C 200.167,363.5 200.833,363.5 201.5,363.5C 201.158,364.338 200.492,364.672 199.5,364.5 Z"/></g>
<g><path style="opacity:0.007" fill="#000000" d="M 178.5,364.5 C 179.167,364.5 179.5,364.833 179.5,365.5C 178.503,366.713 177.503,366.546 176.5,365C 177.094,364.536 177.761,364.369 178.5,364.5 Z"/></g>
<g><path style="opacity:0.008" fill="#000000" d="M 198.5,364.5 C 198.833,364.5 199.167,364.5 199.5,364.5C 199.315,365.17 198.981,365.17 198.5,364.5 Z"/></g>
<g><path style="opacity:0.006" fill="#000000" d="M 196.5,366.5 C 196.5,366.167 196.5,365.833 196.5,365.5C 197.167,365.5 197.833,365.5 198.5,365.5C 198.158,366.338 197.492,366.672 196.5,366.5 Z"/></g>
<g><path style="opacity:0.004" fill="#000000" d="M 194.5,367.5 C 194.5,367.167 194.5,366.833 194.5,366.5C 195.167,366.5 195.833,366.5 196.5,366.5C 196.158,367.338 195.492,367.672 194.5,367.5 Z"/></g>
<g><path style="opacity:0.007" fill="#000000" d="M 183.5,367.5 C 184.167,367.5 184.5,367.833 184.5,368.5C 184.5,368.833 184.5,369.167 184.5,369.5C 181.54,368.968 181.207,368.301 183.5,367.5 Z"/></g>
<g><path style="opacity:0.008" fill="#000000" d="M 193.5,367.5 C 193.833,367.5 194.167,367.5 194.5,367.5C 194.315,368.17 193.981,368.17 193.5,367.5 Z"/></g>
<g><path style="opacity:0.008" fill="#000000" d="M 191.5,369.5 C 191.5,369.167 191.5,368.833 191.5,368.5C 192.167,368.5 192.833,368.5 193.5,368.5C 193.158,369.338 192.492,369.672 191.5,369.5 Z"/></g>
<g><path style="opacity:0.004" fill="#000000" d="M 184.5,369.5 C 185.833,370.167 185.833,370.167 184.5,369.5 Z"/></g>
<g><path style="opacity:0.004" fill="#000000" d="M 191.5,369.5 C 190.833,370.167 190.833,370.167 191.5,369.5 Z"/></g>
<g><path style="opacity:0.006" fill="#000000" d="M 187.5,372.5 C 187.897,371.475 188.563,371.308 189.5,372C 188.906,372.464 188.239,372.631 187.5,372.5 Z"/></g>
</svg>
