<?xml version="1.0" encoding="UTF-8"?>
<!DOCTYPE svg PUBLIC "-//W3C//DTD SVG 1.1//EN" "http://www.w3.org/Graphics/SVG/1.1/DTD/svg11.dtd">
<svg xmlns="http://www.w3.org/2000/svg" version="1.1" width="80px" height="80px" style="shape-rendering:geometricPrecision; text-rendering:geometricPrecision; image-rendering:optimizeQuality; fill-rule:evenodd; clip-rule:evenodd" xmlns:xlink="http://www.w3.org/1999/xlink">
<g><path style="opacity:0.284" fill="#191818" d="M 46.5,7.5 C 41.9335,8.79732 37.2669,8.79732 32.5,7.5C 28.4391,6.86838 24.6058,5.53505 21,3.5C 16.4499,6.383 12.9499,10.2163 10.5,15C 13.1412,23.5121 13.1412,32.0121 10.5,40.5C 10.5,40.8333 10.5,41.1667 10.5,41.5C 10.1667,41.5 9.83333,41.5 9.5,41.5C 12.485,32.1986 12.1517,23.0319 8.5,14C 11.8036,9.69511 15.4703,5.69511 19.5,2C 24.3896,3.62988 29.3896,5.29654 34.5,7C 38.4862,7.49885 42.4862,7.66551 46.5,7.5 Z"/></g>
<g><path style="opacity:1" fill="#949393" d="M 70.5,12.5 C 69.5216,17.2764 68.855,22.1098 68.5,27C 68.5039,29.3608 68.8373,31.5274 69.5,33.5C 70.7682,35.9052 71.4349,38.5718 71.5,41.5C 71.5,42.5 71.5,43.5 71.5,44.5C 71.1667,44.5 70.8333,44.5 70.5,44.5C 68.5193,38.5762 66.8527,32.5762 65.5,26.5C 65.0962,25.2436 64.4295,24.0769 63.5,23C 64.0104,21.1739 64.8438,21.0072 66,22.5C 66.2401,20.1484 67.0735,18.1484 68.5,16.5C 69.5694,13.8044 68.5694,11.8044 65.5,10.5C 63.5372,9.04009 61.7038,7.37342 60,5.5C 57.9747,7.6931 55.4747,8.6931 52.5,8.5C 51.1266,8.65668 49.7932,8.49001 48.5,8C 49.4158,7.72158 50.0825,7.22158 50.5,6.5C 53.8121,6.00731 56.9788,5.00731 60,3.5C 63.6553,6.32223 67.1553,9.32223 70.5,12.5 Z"/></g>
<g><path style="opacity:1" fill="#f5f5f5" d="M 29.5,9.5 C 37.3955,12.2142 45.0622,11.8809 52.5,8.5C 55.4747,8.6931 57.9747,7.6931 60,5.5C 61.7038,7.37342 63.5372,9.04009 65.5,10.5C 66.5,12.5 67.5,14.5 68.5,16.5C 67.0735,18.1484 66.2401,20.1484 66,22.5C 64.8438,21.0072 64.0104,21.1739 63.5,23C 64.4295,24.0769 65.0962,25.2436 65.5,26.5C 48.8333,26.5 32.1667,26.5 15.5,26.5C 15.5218,22.5639 14.5218,18.8973 12.5,15.5C 15.0961,11.9809 17.9294,8.64754 21,5.5C 23.6632,7.24887 26.4965,8.5822 29.5,9.5 Z"/></g>
<g><path style="opacity:0.773" fill="#1a1919" d="M 70.5,12.5 C 67.1553,9.32223 63.6553,6.32223 60,3.5C 56.9788,5.00731 53.8121,6.00731 50.5,6.5C 53.7294,4.85282 57.0627,3.18615 60.5,1.5C 64.5881,4.58297 67.9214,8.24964 70.5,12.5 Z"/></g>
<g><path style="opacity:1" fill="#717070" d="M 50.5,6.5 C 50.0825,7.22158 49.4158,7.72158 48.5,8C 49.7932,8.49001 51.1266,8.65668 52.5,8.5C 45.0622,11.8809 37.3955,12.2142 29.5,9.5C 30.5,8.83333 31.5,8.16667 32.5,7.5C 37.2669,8.79732 41.9335,8.79732 46.5,7.5C 47.5676,6.56552 48.901,6.23219 50.5,6.5 Z"/></g>
<g><path style="opacity:1" fill="#666666" d="M 65.5,10.5 C 68.5694,11.8044 69.5694,13.8044 68.5,16.5C 67.5,14.5 66.5,12.5 65.5,10.5 Z"/></g>
<g><path style="opacity:1" fill="#2f2f2f" d="M 38.5,13.5 C 40.1361,14.7489 41.3028,16.4156 42,18.5C 43.1223,11.9217 43.9556,11.9217 44.5,18.5C 43.8663,24.8147 42.3663,24.8147 40,18.5C 39.5065,20.1341 39.3398,21.8008 39.5,23.5C 38.5206,20.3752 38.1872,17.0419 38.5,13.5 Z"/></g>
<g><path style="opacity:1" fill="#333333" d="M 18.5,13.5 C 20.6807,13.2837 22.3474,14.117 23.5,16C 19.1207,14.8842 17.454,16.7175 18.5,21.5C 20.3307,20.9478 21.9974,20.9478 23.5,21.5C 21.4232,24.1192 19.2565,24.1192 17,21.5C 16.1093,18.5024 16.6093,15.8357 18.5,13.5 Z"/></g>
<g><path style="opacity:1" fill="#272727" d="M 56.5,13.5 C 57.4345,14.5676 57.7678,15.901 57.5,17.5C 58.5,17.5 59.5,17.5 60.5,17.5C 60.238,16.0222 60.5713,14.6888 61.5,13.5C 62.8333,16.8333 62.8333,20.1667 61.5,23.5C 60.5713,22.3112 60.238,20.9778 60.5,19.5C 59.5,19.5 58.5,19.5 57.5,19.5C 57.6567,20.8734 57.49,22.2068 57,23.5C 56.5017,20.1832 56.335,16.8499 56.5,13.5 Z"/></g>
<g><path style="opacity:0.62" fill="#171616" d="M 70.5,12.5 C 71.6946,12.8656 72.3613,13.699 72.5,15C 69.8832,20.876 68.8832,27.0427 69.5,33.5C 68.8373,31.5274 68.5039,29.3608 68.5,27C 68.855,22.1098 69.5216,17.2764 70.5,12.5 Z"/></g>
<g><path style="opacity:1" fill="#303030" d="M 33.5,21.5 C 33.5,22.1667 33.5,22.8333 33.5,23.5C 31.3487,21.0161 29.0154,21.0161 26.5,23.5C 25.8333,23.1667 25.1667,22.8333 24.5,22.5C 25.2739,21.2888 26.1072,21.2888 27,22.5C 27.8587,19.3406 29.0254,16.3406 30.5,13.5C 32.0706,15.9707 33.0706,18.6374 33.5,21.5 Z"/></g>
<g><path style="opacity:1" fill="#b4b4b4" d="M 29.5,17.5 C 31.337,17.6395 31.6704,18.3061 30.5,19.5C 29.7025,19.0431 29.3691,18.3764 29.5,17.5 Z"/></g>
<g><path style="opacity:1" fill="#5e5e5e" d="M 45.5,21.5 C 47.337,21.6395 47.6704,22.3061 46.5,23.5C 45.7025,23.0431 45.3691,22.3764 45.5,21.5 Z"/></g>
<g><path style="opacity:1" fill="#323232" d="M 50.5,13.5 C 52.3464,13.2222 53.6798,13.8888 54.5,15.5C 53.6086,16.5896 52.6086,16.5896 51.5,15.5C 50.359,17.4213 50.1923,19.4213 51,21.5C 52.2639,21.6399 53.4305,21.6399 54.5,21.5C 53.0336,23.6568 51.2003,23.9901 49,22.5C 48.068,19.1769 48.568,16.1769 50.5,13.5 Z"/></g>
<g><path style="opacity:1" fill="#a7a7a7" d="M 38.5,13.5 C 38.1872,17.0419 38.5206,20.3752 39.5,23.5C 37.6531,24.5729 35.6531,24.5729 33.5,23.5C 33.5,22.8333 33.5,22.1667 33.5,21.5C 35.1238,21.3601 36.2904,22.0267 37,23.5C 37.1787,19.9748 37.6787,16.6414 38.5,13.5 Z"/></g>
<g><path style="opacity:1" fill="#989797" d="M 32.5,7.5 C 31.5,8.16667 30.5,8.83333 29.5,9.5C 26.4965,8.5822 23.6632,7.24887 21,5.5C 17.9294,8.64754 15.0961,11.9809 12.5,15.5C 14.5218,18.8973 15.5218,22.5639 15.5,26.5C 14.4209,31.5598 13.0875,36.5598 11.5,41.5C 11.5,40.8333 11.1667,40.5 10.5,40.5C 13.1412,32.0121 13.1412,23.5121 10.5,15C 12.9499,10.2163 16.4499,6.383 21,3.5C 24.6058,5.53505 28.4391,6.86838 32.5,7.5 Z"/></g>
<g><path style="opacity:1" fill="#060807" d="M 15.5,26.5 C 32.1667,26.5 48.8333,26.5 65.5,26.5C 66.8527,32.5762 68.5193,38.5762 70.5,44.5C 70.8863,52.8453 68.2196,60.0119 62.5,66C 60.4234,67.705 58.09,68.8717 55.5,69.5C 55.5,56.1667 55.5,42.8333 55.5,29.5C 52.1667,29.5 48.8333,29.5 45.5,29.5C 45.5,43.5 45.5,57.5 45.5,71.5C 46.8333,71.5 48.1667,71.5 49.5,71.5C 46.4824,72.5027 43.4824,73.836 40.5,75.5C 38.6036,74.7255 36.937,73.7255 35.5,72.5C 35.5,58.1667 35.5,43.8333 35.5,29.5C 31.8333,29.5 28.1667,29.5 24.5,29.5C 24.5,42.8333 24.5,56.1667 24.5,69.5C 13.6821,63.1967 9.34881,53.8634 11.5,41.5C 13.0875,36.5598 14.4209,31.5598 15.5,26.5 Z"/></g>
<g><path style="opacity:1" fill="#169445" d="M 31.5,71.5 C 29.8984,69.9261 27.8984,69.2594 25.5,69.5C 25.5,56.5 25.5,43.5 25.5,30.5C 28.5,30.5 31.5,30.5 34.5,30.5C 34.5,44.1667 34.5,57.8333 34.5,71.5C 33.5,71.5 32.5,71.5 31.5,71.5 Z"/></g>
<g><path style="opacity:1" fill="#10642f" d="M 35.5,72.5 C 33.901,72.7678 32.5676,72.4345 31.5,71.5C 32.5,71.5 33.5,71.5 34.5,71.5C 34.5,57.8333 34.5,44.1667 34.5,30.5C 31.5,30.5 28.5,30.5 25.5,30.5C 25.5,43.5 25.5,56.5 25.5,69.5C 25.1667,69.5 24.8333,69.5 24.5,69.5C 24.5,56.1667 24.5,42.8333 24.5,29.5C 28.1667,29.5 31.8333,29.5 35.5,29.5C 35.5,43.8333 35.5,58.1667 35.5,72.5 Z"/></g>
<g><path style="opacity:1" fill="#169345" d="M 55.5,69.5 C 53.2143,69.595 51.2143,70.2616 49.5,71.5C 48.1667,71.5 46.8333,71.5 45.5,71.5C 45.5,57.5 45.5,43.5 45.5,29.5C 48.8333,29.5 52.1667,29.5 55.5,29.5C 55.5,42.8333 55.5,56.1667 55.5,69.5 Z"/></g>
<g><path style="opacity:0.714" fill="#545252" d="M 9.5,41.5 C 9.83333,41.5 10.1667,41.5 10.5,41.5C 9.22708,45.8652 9.22708,50.1985 10.5,54.5C 10.1667,54.5 9.83333,54.5 9.5,54.5C 8.16667,50.1667 8.16667,45.8333 9.5,41.5 Z"/></g>
<g><path style="opacity:0.394" fill="#313030" d="M 71.5,41.5 C 72.6484,45.9811 72.8151,50.6478 72,55.5C 71.5762,58.0254 70.4095,60.0254 68.5,61.5C 71.0057,56.1353 72.0057,50.4686 71.5,44.5C 71.5,43.5 71.5,42.5 71.5,41.5 Z"/></g>
<g><path style="opacity:0.196" fill="#171717" d="M 9.5,54.5 C 9.83333,54.5 10.1667,54.5 10.5,54.5C 11.9884,58.8101 13.9884,62.8101 16.5,66.5C 12.6383,63.4501 10.305,59.4501 9.5,54.5 Z"/></g>
<g><path style="opacity:0.232" fill="#111010" d="M 68.5,61.5 C 67.6519,64.8875 65.6519,67.2209 62.5,68.5C 64.2733,65.9401 66.2733,63.6068 68.5,61.5 Z"/></g>
<g><path style="opacity:0.365" fill="#191818" d="M 16.5,66.5 C 20.5079,68.8367 24.5079,71.17 28.5,73.5C 23.5499,72.695 19.5499,70.3617 16.5,66.5 Z"/></g>
<g><path style="opacity:1" fill="#b6b6b6" d="M 10.5,40.5 C 11.1667,40.5 11.5,40.8333 11.5,41.5C 9.34881,53.8634 13.6821,63.1967 24.5,69.5C 24.8333,69.5 25.1667,69.5 25.5,69.5C 27.1016,71.0739 29.1016,71.7406 31.5,71.5C 32.5676,72.4345 33.901,72.7678 35.5,72.5C 36.937,73.7255 38.6036,74.7255 40.5,75.5C 43.4824,73.836 46.4824,72.5027 49.5,71.5C 51.8984,71.7406 53.8984,71.0739 55.5,69.5C 58.09,68.8717 60.4234,67.705 62.5,66C 68.2196,60.0119 70.8863,52.8453 70.5,44.5C 70.8333,44.5 71.1667,44.5 71.5,44.5C 72.0057,50.4686 71.0057,56.1353 68.5,61.5C 66.2733,63.6068 64.2733,65.9401 62.5,68.5C 57.7653,70.5392 53.0986,72.5392 48.5,74.5C 45.6887,74.5713 43.022,75.238 40.5,76.5C 36.6548,74.872 32.6548,73.872 28.5,73.5C 24.5079,71.17 20.5079,68.8367 16.5,66.5C 13.9884,62.8101 11.9884,58.8101 10.5,54.5C 9.22708,50.1985 9.22708,45.8652 10.5,41.5C 10.5,41.1667 10.5,40.8333 10.5,40.5 Z"/></g>
<g><path style="opacity:1" fill="#1b552d" d="M 25.5,69.5 C 27.8984,69.2594 29.8984,69.9261 31.5,71.5C 29.1016,71.7406 27.1016,71.0739 25.5,69.5 Z"/></g>
<g><path style="opacity:1" fill="#204029" d="M 55.5,69.5 C 53.8984,71.0739 51.8984,71.7406 49.5,71.5C 51.2143,70.2616 53.2143,69.595 55.5,69.5 Z"/></g>
<g><path style="opacity:0.271" fill="#141313" d="M 62.5,68.5 C 58.6036,72.1104 53.9369,74.1104 48.5,74.5C 53.0986,72.5392 57.7653,70.5392 62.5,68.5 Z"/></g>
<g><path style="opacity:0.281" fill="#1c1c1c" d="M 28.5,73.5 C 32.6548,73.872 36.6548,74.872 40.5,76.5C 43.022,75.238 45.6887,74.5713 48.5,74.5C 46.604,75.4805 44.604,76.4805 42.5,77.5C 41.7025,77.9569 41.3691,78.6236 41.5,79.5C 40.8333,79.5 40.1667,79.5 39.5,79.5C 39.6309,78.6236 39.2975,77.9569 38.5,77.5C 35.0619,76.1546 31.7285,74.8213 28.5,73.5 Z"/></g>
</svg>
