<?xml version="1.0" encoding="UTF-8"?>
<!DOCTYPE svg PUBLIC "-//W3C//DTD SVG 1.1//EN" "http://www.w3.org/Graphics/SVG/1.1/DTD/svg11.dtd">
<svg xmlns="http://www.w3.org/2000/svg" version="1.1" width="80px" height="80px" style="shape-rendering:geometricPrecision; text-rendering:geometricPrecision; image-rendering:optimizeQuality; fill-rule:evenodd; clip-rule:evenodd" xmlns:xlink="http://www.w3.org/1999/xlink">
<g><path style="opacity:0.718" fill="#373636" d="M 74.5,28.5 C 75.0894,24.0293 74.4228,20.0293 72.5,16.5C 72.6107,15.8826 72.944,15.3826 73.5,15C 69.6516,10.9844 65.6516,7.15111 61.5,3.5C 47.4665,12.6571 33.4665,12.6571 19.5,3.5C 15.1456,7.1877 11.1456,11.1877 7.5,15.5C 6.51511,19.6344 6.18178,23.9677 6.5,28.5C 6.5,28.8333 6.5,29.1667 6.5,29.5C 5.35034,24.6842 5.18368,19.6842 6,14.5C 10.3482,9.98467 14.8482,5.65134 19.5,1.5C 33.5,10.8333 47.5,10.8333 61.5,1.5C 66.1518,5.65134 70.6518,9.98467 75,14.5C 75.8151,19.3522 75.6484,24.0189 74.5,28.5 Z"/></g>
<g><path style="opacity:1" fill="#eeeded" d="M 72.5,16.5 C 62.5481,21.988 51.8814,24.6546 40.5,24.5C 29.0589,24.9731 18.3922,22.3064 8.5,16.5C 8.5,15.8333 8.16667,15.5 7.5,15.5C 11.1456,11.1877 15.1456,7.1877 19.5,3.5C 33.4665,12.6571 47.4665,12.6571 61.5,3.5C 65.6516,7.15111 69.6516,10.9844 73.5,15C 72.944,15.3826 72.6107,15.8826 72.5,16.5 Z"/></g>
<g><path style="opacity:1" fill="#292929" d="M 26.5,13.5 C 27.7251,14.1522 28.3917,15.3189 28.5,17C 28.3333,18.1667 28.1667,19.3333 28,20.5C 26.7955,19.1414 25.2955,18.1414 23.5,17.5C 24.5244,16.1482 25.5244,14.8149 26.5,13.5 Z"/></g>
<g><path style="opacity:1" fill="#464646" d="M 54.5,19.5 C 52.7266,14.9051 54.3933,12.2384 59.5,11.5C 60.7678,12.4279 62.1011,12.5946 63.5,12C 62.2888,11.1072 62.2888,10.2739 63.5,9.5C 64.7515,11.0009 65.7515,12.6675 66.5,14.5C 65.6086,15.5896 64.6086,15.5896 63.5,14.5C 63.0024,15.6034 62.6691,16.6034 62.5,17.5C 61.8076,16.9747 61.3076,16.3081 61,15.5C 60.3569,19.6804 58.1902,21.0138 54.5,19.5 Z"/></g>
<g><path style="opacity:1" fill="#efefef" d="M 55.5,14.5 C 56.5,14.5 57.5,14.5 58.5,14.5C 58.5,15.8333 58.5,17.1667 58.5,18.5C 57.5,18.5 56.5,18.5 55.5,18.5C 55.5,17.1667 55.5,15.8333 55.5,14.5 Z"/></g>
<g><path style="opacity:1" fill="#424242" d="M 17.5,9.5 C 19.6648,9.11589 21.3315,9.78256 22.5,11.5C 22.3333,11.8333 22.1667,12.1667 22,12.5C 19.1308,9.6815 17.6308,10.3482 17.5,14.5C 18.675,14.281 19.675,14.6143 20.5,15.5C 15.3961,15.9051 14.3961,13.9051 17.5,9.5 Z"/></g>
<g><path style="opacity:1" fill="#cc111f" d="M 8.5,16.5 C 18.3922,22.3064 29.0589,24.9731 40.5,24.5C 40.5,42.1667 40.5,59.8333 40.5,77.5C 21.2957,66.7759 10.2957,50.4426 7.5,28.5C 7.18325,24.2984 7.51658,20.2984 8.5,16.5 Z"/></g>
<g><path style="opacity:1" fill="#3b3a3a" d="M 43.5,16.5 C 45.3234,15.7727 47.1568,15.4394 49,15.5C 49.9799,17.0589 50.8133,18.7256 51.5,20.5C 52.4168,19.8728 53.4168,19.5394 54.5,19.5C 52.8413,22.1389 51.008,22.1389 49,19.5C 47.0059,23.1195 44.5059,23.4529 41.5,20.5C 40.3409,22.3769 38.6742,22.8769 36.5,22C 35.4238,20.2739 35.2571,18.4406 36,16.5C 38.4321,15.5504 40.9321,15.5504 43.5,16.5 Z"/></g>
<g><path style="opacity:1" fill="#040404" d="M 72.5,16.5 C 74.4228,20.0293 75.0894,24.0293 74.5,28.5C 72.0096,50.8218 61.0096,67.4885 41.5,78.5C 41.5,77.8333 41.1667,77.5 40.5,77.5C 40.5,59.8333 40.5,42.1667 40.5,24.5C 51.8814,24.6546 62.5481,21.988 72.5,16.5 Z"/></g>
<g><path style="opacity:1" fill="#dedede" d="M 41.5,20.5 C 37.986,22.3318 36.486,21.3318 37,17.5C 39.7776,16.3147 41.2776,17.3147 41.5,20.5 Z"/></g>
<g><path style="opacity:1" fill="#f0f0f0" d="M 43.5,16.5 C 44.5,16.5 45.5,16.5 46.5,16.5C 46.5,17.8333 46.5,19.1667 46.5,20.5C 45.5,20.5 44.5,20.5 43.5,20.5C 43.5,19.1667 43.5,17.8333 43.5,16.5 Z"/></g>
<g><path style="opacity:1" fill="#7c181e" d="M 7.5,15.5 C 8.16667,15.5 8.5,15.8333 8.5,16.5C 7.51658,20.2984 7.18325,24.2984 7.5,28.5C 7.16667,28.5 6.83333,28.5 6.5,28.5C 6.18178,23.9677 6.51511,19.6344 7.5,15.5 Z"/></g>
<g><path style="opacity:0.812" fill="#221414" d="M 6.5,28.5 C 6.83333,28.5 7.16667,28.5 7.5,28.5C 10.2957,50.4426 21.2957,66.7759 40.5,77.5C 41.1667,77.5 41.5,77.8333 41.5,78.5C 41.5,78.8333 41.5,79.1667 41.5,79.5C 41.1667,79.5 40.8333,79.5 40.5,79.5C 20.884,68.5368 9.55067,51.8702 6.5,29.5C 6.5,29.1667 6.5,28.8333 6.5,28.5 Z"/></g>
</svg>
