<?xml version="1.0" encoding="UTF-8"?>
<!DOCTYPE svg PUBLIC "-//W3C//DTD SVG 1.1//EN" "http://www.w3.org/Graphics/SVG/1.1/DTD/svg11.dtd">
<svg xmlns="http://www.w3.org/2000/svg" version="1.1" width="80px" height="80px" style="shape-rendering:geometricPrecision; text-rendering:geometricPrecision; image-rendering:optimizeQuality; fill-rule:evenodd; clip-rule:evenodd" xmlns:xlink="http://www.w3.org/1999/xlink">
<g><path style="opacity:0.024" fill="#949292" d="M 26.5,73.5 C 17.3542,72.5212 11.8542,67.5212 10,58.5C 10.8425,47.9437 12.3425,37.4437 14.5,27C 14.3333,25.1667 14.1667,23.3333 14,21.5C 12.8179,19.6564 11.6512,17.8231 10.5,16C 11.8685,11.4327 13.8685,7.26604 16.5,3.5C 20.0099,5.83925 23.8432,7.50592 28,8.5C 32.3644,7.64944 36.3644,5.98278 40,3.5C 43.6378,5.98407 47.6378,7.65074 52,8.5C 56.4557,7.33486 60.6223,5.83486 64.5,4C 66.3575,7.90192 68.0242,11.9019 69.5,16C 68.3488,17.8231 67.1821,19.6564 66,21.5C 65.8333,23.5 65.6667,25.5 65.5,27.5C 67.3142,36.425 68.6475,45.425 69.5,54.5C 70.4289,62.8126 67.0956,68.6459 59.5,72C 53.9474,73.7937 48.2808,75.1271 42.5,76C 41.6667,76.8333 40.8333,77.6667 40,78.5C 39.1667,77.6667 38.3333,76.8333 37.5,76C 33.6526,75.3666 29.986,74.5333 26.5,73.5 Z"/></g>
<g><path style="opacity:1" fill="#737171" d="M 33.5,17.5 C 37.5132,18.7052 41.5132,18.7052 45.5,17.5C 45.5,17.8333 45.5,18.1667 45.5,18.5C 43.5588,18.8693 41.7255,19.536 40,20.5C 38.2745,19.536 36.4412,18.8693 34.5,18.5C 33.8333,18.5 33.5,18.1667 33.5,17.5 Z"/></g>
<g><path style="opacity:1" fill="#a81111" d="M 45.5,17.5 C 46.1667,17.5 46.8333,17.5 47.5,17.5C 46.5135,36.0903 46.1802,54.757 46.5,73.5C 46.1667,73.5 45.8333,73.5 45.5,73.5C 45.5,55.1667 45.5,36.8333 45.5,18.5C 45.5,18.1667 45.5,17.8333 45.5,17.5 Z"/></g>
<g><path style="opacity:1" fill="#000000" d="M 34.5,18.5 C 36.4412,18.8693 38.2745,19.536 40,20.5C 41.7255,19.536 43.5588,18.8693 45.5,18.5C 45.5,36.8333 45.5,55.1667 45.5,73.5C 43.321,73.84 41.4877,74.84 40,76.5C 38.5123,74.84 36.679,73.84 34.5,73.5C 34.5,55.1667 34.5,36.8333 34.5,18.5 Z"/></g>
<g><path style="opacity:1" fill="#010101" d="M 57.5,17.5 C 60.5,17.5 63.5,17.5 66.5,17.5C 64.8056,20.4179 63.8056,23.5846 63.5,27C 64.4452,34.281 65.9452,41.4476 68,48.5C 70.7209,59.2215 67.2209,66.8881 57.5,71.5C 57.5,53.5 57.5,35.5 57.5,17.5 Z"/></g>
<g><path style="opacity:1" fill="#e00f13" d="M 47.5,17.5 C 50.8333,17.5 54.1667,17.5 57.5,17.5C 57.5,35.5 57.5,53.5 57.5,71.5C 53.9852,72.9193 50.3186,73.586 46.5,73.5C 46.1802,54.757 46.5135,36.0903 47.5,17.5 Z"/></g>
<g><path style="opacity:1" fill="#db0f13" d="M 22.5,17.5 C 26.1667,17.5 29.8333,17.5 33.5,17.5C 33.5,18.1667 33.8333,18.5 34.5,18.5C 34.5,36.8333 34.5,55.1667 34.5,73.5C 31.8333,73.5 29.1667,73.5 26.5,73.5C 25.4863,72.3263 24.153,71.6596 22.5,71.5C 22.5,53.5 22.5,35.5 22.5,17.5 Z"/></g>
<g><path style="opacity:1" fill="#050202" d="M 13.5,17.5 C 16.5,17.5 19.5,17.5 22.5,17.5C 22.5,35.5 22.5,53.5 22.5,71.5C 12.7791,66.8881 9.27913,59.2215 12,48.5C 13.7395,41.3763 15.2395,34.2097 16.5,27C 16.4957,23.4981 15.4957,20.3314 13.5,17.5 Z"/></g>
<g><path style="opacity:1" fill="#6c5857" d="M 67.5,15.5 C 67.6716,16.4916 67.3382,17.1583 66.5,17.5C 63.5,17.5 60.5,17.5 57.5,17.5C 54.1667,17.5 50.8333,17.5 47.5,17.5C 46.8333,17.5 46.1667,17.5 45.5,17.5C 52.6034,15.8945 59.9367,15.2279 67.5,15.5 Z"/></g>
<g><path style="opacity:1" fill="#605656" d="M 33.5,17.5 C 29.8333,17.5 26.1667,17.5 22.5,17.5C 19.5,17.5 16.5,17.5 13.5,17.5C 12.6618,17.1583 12.3284,16.4916 12.5,15.5C 15.1873,15.6641 17.854,15.4974 20.5,15C 19.944,14.6174 19.6107,14.1174 19.5,13.5C 21.6951,12.3918 23.6951,12.5585 25.5,14C 24.1667,14.3333 22.8333,14.6667 21.5,15C 22.1667,15.3333 22.8333,15.6667 23.5,16C 27.0252,16.1787 30.3586,16.6787 33.5,17.5 Z"/></g>
<g><path style="opacity:1" fill="#090909" d="M 56.5,9.5 C 58.6076,7.94094 60.9409,6.60761 63.5,5.5C 65.0329,8.76789 66.3662,12.1012 67.5,15.5C 59.9367,15.2279 52.6034,15.8945 45.5,17.5C 41.5132,18.7052 37.5132,18.7052 33.5,17.5C 30.3586,16.6787 27.0252,16.1787 23.5,16C 22.8333,15.6667 22.1667,15.3333 21.5,15C 22.8333,14.6667 24.1667,14.3333 25.5,14C 23.6951,12.5585 21.6951,12.3918 19.5,13.5C 19.6107,14.1174 19.944,14.6174 20.5,15C 17.854,15.4974 15.1873,15.6641 12.5,15.5C 13.5174,11.9471 15.0174,8.61377 17,5.5C 20.7958,7.98783 24.9624,9.48783 29.5,10C 28.6634,11.0113 28.33,12.1779 28.5,13.5C 30.2259,13.8146 31.8925,13.9813 33.5,14C 32.2567,12.8455 31.2567,11.5122 30.5,10C 34.1366,9.04107 37.3033,7.20774 40,4.5C 44.6173,8.85701 50.1173,10.5237 56.5,9.5 Z"/></g>
<g><path style="opacity:1" fill="#7a7a7a" d="M 48.5,10.5 C 49.7072,11.1888 51.0406,11.3554 52.5,11C 53.3366,12.0113 53.67,13.1779 53.5,14.5C 50.9382,13.6285 48.2716,13.6285 45.5,14.5C 45.5,13.5 45.5,12.5 45.5,11.5C 46.791,11.7373 47.791,11.404 48.5,10.5 Z"/></g>
<g><path style="opacity:1" fill="#6c6c6c" d="M 56.5,9.5 C 57.552,9.35055 58.552,9.51722 59.5,10C 60.0611,11.676 61.0611,13.0094 62.5,14C 60.5273,14.4955 58.5273,14.6621 56.5,14.5C 56.5,12.8333 56.5,11.1667 56.5,9.5 Z"/></g>
<g><path style="opacity:1" fill="#757575" d="M 19.5,13.5 C 18.2089,12.4583 18.2089,11.2917 19.5,10C 21.0738,9.3013 22.4071,9.63463 23.5,11C 21.1403,9.82648 19.807,10.6598 19.5,13.5 Z"/></g>
<g><path style="opacity:1" fill="#575757" d="M 36.5,9.5 C 40.6759,8.83068 42.0093,10.3307 40.5,14C 39.2068,14.49 37.8734,14.6567 36.5,14.5C 36.5,12.8333 36.5,11.1667 36.5,9.5 Z"/></g>
</svg>
