<?xml version="1.0" encoding="UTF-8"?>
<!DOCTYPE svg PUBLIC "-//W3C//DTD SVG 1.1//EN" "http://www.w3.org/Graphics/SVG/1.1/DTD/svg11.dtd">
<svg xmlns="http://www.w3.org/2000/svg" version="1.1" width="80px" height="80px" style="shape-rendering:geometricPrecision; text-rendering:geometricPrecision; image-rendering:optimizeQuality; fill-rule:evenodd; clip-rule:evenodd" xmlns:xlink="http://www.w3.org/1999/xlink">
<g><path style="opacity:0.918" fill="#4fbdeb" d="M 20.5,6.5 C 25.0748,7.74882 29.7415,8.74882 34.5,9.5C 38.5,8.16667 42.5,8.16667 46.5,9.5C 50.641,9.00582 54.641,8.00582 58.5,6.5C 62.6845,8.17405 66.1845,10.8407 69,14.5C 74.1606,36.4033 68.3273,54.5699 51.5,69C 47.8333,71.5 44.1667,74 40.5,76.5C 28.004,69.5059 18.8373,59.5059 13,46.5C 11.4308,35.8929 11.0975,25.2262 12,14.5C 14.7291,11.6007 17.5624,8.93399 20.5,6.5 Z"/></g>
<g><path style="opacity:1" fill="#e6f6fa" d="M 20.5,9.5 C 33.1537,12.139 45.8204,12.139 58.5,9.5C 61.7434,11.2347 64.5767,13.5681 67,16.5C 71.5859,40.7745 63.4192,59.2745 42.5,72C 38.8396,71.8488 35.5063,70.5154 32.5,68C 16.0499,54.6575 9.88322,37.4908 14,16.5C 16.3722,14.2968 18.5389,11.9635 20.5,9.5 Z"/></g>
<g><path style="opacity:1" fill="#1aaee7" d="M 21.5,11.5 C 33.4853,14.1653 45.4853,14.1653 57.5,11.5C 60.1117,12.9352 62.6117,14.6019 65,16.5C 69.5382,39.587 62.0382,57.4203 42.5,70C 41.1667,70.6667 39.8333,70.6667 38.5,70C 18.9618,57.4203 11.4618,39.587 16,16.5C 18.1906,15.1666 20.024,13.5 21.5,11.5 Z"/></g>
<g><path style="opacity:1" fill="#1d5a71" d="M 40.5,37.5 C 39.075,38.922 38.075,40.5887 37.5,42.5C 36.5222,42.189 35.8555,41.5223 35.5,40.5C 36.9397,39.0476 38.6064,38.0476 40.5,37.5 Z"/></g>
<g><path style="opacity:1" fill="#1d5a71" d="M 37.5,42.5 C 41.0289,43.1106 42.8622,41.7773 43,38.5C 42.3292,37.7476 41.4959,37.4142 40.5,37.5C 41.484,34.9296 42.6507,34.9296 44,37.5C 44.8436,41.0061 43.5102,43.3395 40,44.5C 38.699,44.3613 37.8656,43.6946 37.5,42.5 Z"/></g>
<g><path style="opacity:1" fill="#15a7de" d="M 40.5,37.5 C 41.4959,37.4142 42.3292,37.7476 43,38.5C 42.8622,41.7773 41.0289,43.1106 37.5,42.5C 38.075,40.5887 39.075,38.922 40.5,37.5 Z"/></g>
<g><path style="opacity:1" fill="#1d5469" d="M 35.5,32.5 C 35.205,34.4233 34.3717,36.0899 33,37.5C 33.4969,35.8016 33.3302,34.1349 32.5,32.5C 31.1667,32.1667 29.8333,31.8333 28.5,31.5C 29.3333,31.1667 30.1667,30.8333 31,30.5C 32.6067,31.0735 34.1067,31.7402 35.5,32.5 Z"/></g>
<g><path style="opacity:1" fill="#1d4352" d="M 35.5,32.5 C 35.5858,31.5041 35.2524,30.6708 34.5,30C 38.0437,29.3211 38.3771,30.1545 35.5,32.5 Z"/></g>
<g><path style="opacity:1" fill="#1b6885" d="M 24.5,25.5 C 28.7678,27.3153 29.1012,27.9819 25.5,27.5C 24.7025,27.0431 24.3691,26.3764 24.5,25.5 Z"/></g>
<g><path style="opacity:1" fill="#1c5d75" d="M 24.5,25.5 C 23.1826,20.6549 25.1826,18.8216 30.5,20C 32.4206,21.2408 32.754,22.7408 31.5,24.5C 30.9961,21.4778 29.3294,20.3111 26.5,21C 24.9632,22.1096 24.2965,23.6096 24.5,25.5 Z"/></g>
<g><path style="opacity:1" fill="#1d5165" d="M 47.5,44.5 C 48.2389,44.369 48.9056,44.5357 49.5,45C 47.9095,46.0458 46.4095,47.2125 45,48.5C 44.9152,50.0846 44.7486,51.4179 44.5,52.5C 42.7748,48.7733 43.7748,46.1067 47.5,44.5 Z"/></g>
<g><path style="opacity:1" fill="#1c5c74" d="M 51.5,48.5 C 52.7733,49.0768 52.7733,49.7435 51.5,50.5C 50.3801,51.8334 49.0468,52.3334 47.5,52C 48.7305,50.5952 50.0639,49.4286 51.5,48.5 Z"/></g>
</svg>
