<?xml version="1.0" encoding="UTF-8"?>
<!DOCTYPE svg PUBLIC "-//W3C//DTD SVG 1.1//EN" "http://www.w3.org/Graphics/SVG/1.1/DTD/svg11.dtd">
<svg xmlns="http://www.w3.org/2000/svg" version="1.1" width="80px" height="80px" style="shape-rendering:geometricPrecision; text-rendering:geometricPrecision; image-rendering:optimizeQuality; fill-rule:evenodd; clip-rule:evenodd" xmlns:xlink="http://www.w3.org/1999/xlink">
<g><path style="opacity:1" fill="#e63332" d="M 41.5,75.5 C 39.5,74.5 37.5,73.5 35.5,72.5C 29.5338,70.9392 23.5338,69.4392 17.5,68C 16.2986,67.0975 15.4652,65.9308 15,64.5C 13.9459,45.8192 13.2792,27.1525 13,8.5C 31.0553,4.85714 49.222,4.5238 67.5,7.5C 67.5148,26.5126 67.0148,45.5126 66,64.5C 65.5348,65.9308 64.7014,67.0975 63.5,68C 58.1667,69.3333 52.8333,70.6667 47.5,72C 45.3083,72.926 43.3083,74.0927 41.5,75.5 Z"/></g>
<g><path style="opacity:1" fill="#fef4f4" d="M 20.5,9.5 C 35.1883,9.27253 49.855,9.60587 64.5,10.5C 63.8835,28.16 63.3835,45.8266 63,63.5C 55.2059,65.7925 47.5393,68.4592 40,71.5C 34.2321,68.5139 28.0654,66.6806 21.5,66C 20.0692,65.5348 18.9025,64.7014 18,63.5C 17.0956,45.8434 16.5956,28.1767 16.5,10.5C 18.099,10.7678 19.4324,10.4345 20.5,9.5 Z"/></g>
<g><path style="opacity:1" fill="#e83c3c" d="M 22.5,13.5 C 24.924,13.1924 27.2573,13.5258 29.5,14.5C 27.9793,14.8797 26.3126,15.0464 24.5,15C 23.6198,16.3561 23.2865,17.8561 23.5,19.5C 25.8211,19.7711 27.8211,19.1045 29.5,17.5C 30.5937,18.868 30.2603,20.0347 28.5,21C 22.2583,21.9235 20.2583,19.4235 22.5,13.5 Z"/></g>
<g><path style="opacity:1" fill="#e42528" d="M 36.5,12.5 C 38.5273,12.3379 40.5273,12.5045 42.5,13C 45.1667,15.3333 45.1667,17.6667 42.5,20C 40.5273,20.4955 38.5273,20.6621 36.5,20.5C 36.5,17.8333 36.5,15.1667 36.5,12.5 Z"/></g>
<g><path style="opacity:1" fill="#feeff0" d="M 38.5,14.5 C 39.8333,14.5 41.1667,14.5 42.5,14.5C 42.7678,16.099 42.4345,17.4324 41.5,18.5C 40.5,18.5 39.5,18.5 38.5,18.5C 38.5,17.1667 38.5,15.8333 38.5,14.5 Z"/></g>
<g><path style="opacity:1" fill="#f29197" d="M 38.5,14.5 C 38.5,15.8333 38.5,17.1667 38.5,18.5C 39.5,18.5 40.5,18.5 41.5,18.5C 40.4324,19.4345 39.099,19.7678 37.5,19.5C 37.2155,17.5853 37.5489,15.9187 38.5,14.5 Z"/></g>
<g><path style="opacity:1" fill="#e73638" d="M 50.5,12.5 C 52.6237,13.0312 54.1237,14.3645 55,16.5C 55.5885,14.1367 57.0885,13.1367 59.5,13.5C 59.8134,16.2469 59.48,18.9135 58.5,21.5C 57.7022,19.9223 57.2022,18.2556 57,16.5C 55.1974,23.0912 53.5308,23.0912 52,16.5C 51.7811,17.938 51.2811,19.2713 50.5,20.5C 49.2706,17.8013 49.2706,15.1346 50.5,12.5 Z"/></g>
<g><path style="opacity:1" fill="#ea4c4a" d="M 28.5,22.5 C 35.175,22.3337 41.8417,22.5004 48.5,23C 52.9905,23.1452 57.3239,23.9785 61.5,25.5C 60.6667,25.8333 59.8333,26.1667 59,26.5C 46.6311,23.9887 34.2978,23.9887 22,26.5C 21.1667,26.1667 20.3333,25.8333 19.5,25.5C 20,25.1667 20.5,24.8333 21,24.5C 23.6691,23.9839 26.1691,23.3173 28.5,22.5 Z"/></g>
<g><path style="opacity:1" fill="#e21721" d="M 35.5,26.5 C 36.8062,26.879 38.1395,27.2124 39.5,27.5C 40.3857,28.325 40.719,29.325 40.5,30.5C 38.6916,30.5086 37.0249,30.0086 35.5,29C 34.4019,28.2303 34.4019,27.397 35.5,26.5 Z"/></g>
<g><path style="opacity:1" fill="#ec5b5e" d="M 35.5,26.5 C 34.4019,27.397 34.4019,28.2303 35.5,29C 37.0249,30.0086 38.6916,30.5086 40.5,30.5C 40.3893,31.1174 40.056,31.6174 39.5,32C 40.5822,33.3297 41.2488,34.8297 41.5,36.5C 40.8333,36.5 40.5,36.8333 40.5,37.5C 39.9463,35.1112 38.4463,33.4445 36,32.5C 35.6012,32.7284 35.4346,33.0618 35.5,33.5C 35.1667,33.5 34.8333,33.5 34.5,33.5C 34.5654,33.0618 34.3988,32.7284 34,32.5C 33.2917,33.3805 32.4584,34.0472 31.5,34.5C 31.5,34.1667 31.5,33.8333 31.5,33.5C 31.7361,30.3793 33.0695,28.046 35.5,26.5 Z"/></g>
<g><path style="opacity:1" fill="#fbdbdd" d="M 40.5,37.5 C 40.631,38.2389 40.4643,38.9056 40,39.5C 37.3078,39.6213 34.4745,39.288 31.5,38.5C 34.3418,37.9955 35.6751,36.3289 35.5,33.5C 35.4346,33.0618 35.6012,32.7284 36,32.5C 38.4463,33.4445 39.9463,35.1112 40.5,37.5 Z"/></g>
<g><path style="opacity:1" fill="#fad4d6" d="M 34.5,33.5 C 33.6247,36.5051 32.6247,36.8384 31.5,34.5C 32.4584,34.0472 33.2917,33.3805 34,32.5C 34.3988,32.7284 34.5654,33.0618 34.5,33.5 Z"/></g>
<g><path style="opacity:1" fill="#e5292b" d="M 31.5,33.5 C 31.5,33.8333 31.5,34.1667 31.5,34.5C 32.6247,36.8384 33.6247,36.5051 34.5,33.5C 34.8333,33.5 35.1667,33.5 35.5,33.5C 35.6751,36.3289 34.3418,37.9955 31.5,38.5C 34.4745,39.288 37.3078,39.6213 40,39.5C 40.4643,38.9056 40.631,38.2389 40.5,37.5C 40.5,36.8333 40.8333,36.5 41.5,36.5C 42.0312,38.5441 43.1978,40.2107 45,41.5C 48.5281,35.2599 52.5281,34.9266 57,40.5C 59,44.5 59,48.5 57,52.5C 56.436,46.3615 55.1027,45.6949 53,50.5C 52.6667,49.8333 52.3333,49.1667 52,48.5C 51.1482,49.5707 50.3149,50.5707 49.5,51.5C 48.8472,47.9905 47.8472,48.3238 46.5,52.5C 46.6236,53.1067 46.9569,53.44 47.5,53.5C 48.0369,56.8058 48.2036,60.1391 48,63.5C 47.0853,62.6721 46.4186,61.6721 46,60.5C 45,61.8333 44,63.1667 43,64.5C 43,63.1667 43,61.8333 43,60.5C 42.1072,61.7112 41.2739,61.7112 40.5,60.5C 43.0532,59.9041 44.7198,58.4041 45.5,56C 45.2849,54.0922 44.2849,52.9256 42.5,52.5C 42.44,51.9569 42.1067,51.6236 41.5,51.5C 38.2684,52.9244 34.9351,53.9244 31.5,54.5C 28.7061,57.1945 27.7061,56.6945 28.5,53C 31.5535,52.8214 34.5535,52.3214 37.5,51.5C 35.144,48.9783 32.9773,46.3116 31,43.5C 30.1925,39.9733 30.3592,36.6399 31.5,33.5 Z"/></g>
<g><path style="opacity:1" fill="#facdcf" d="M 48.5,38.5 C 50.7505,38.1814 52.7505,38.6814 54.5,40C 53.1011,40.5946 51.7678,40.4279 50.5,39.5C 46.4667,43.7285 45.8,43.3952 48.5,38.5 Z"/></g>
<g><path style="opacity:1" fill="#fbcfd0" d="M 39.5,44.5 C 41.3911,45.5361 43.2245,45.5361 45,44.5C 48.2103,49.0883 47.2103,49.755 42,46.5C 41.6667,47.1667 41.3333,47.8333 41,48.5C 39.8869,47.2889 38.7202,47.2889 37.5,48.5C 36.354,47.8551 35.354,47.0217 34.5,46C 36.3817,45.8019 38.0484,45.3019 39.5,44.5 Z"/></g>
<g><path style="opacity:1" fill="#f4999c" d="M 49.5,51.5 C 48.8333,52.1667 48.1667,52.8333 47.5,53.5C 46.9569,53.44 46.6236,53.1067 46.5,52.5C 47.8472,48.3238 48.8472,47.9905 49.5,51.5 Z"/></g>
<g><path style="opacity:1" fill="#f28c91" d="M 42.5,52.5 C 38.981,54.7398 35.3144,55.4065 31.5,54.5C 34.9351,53.9244 38.2684,52.9244 41.5,51.5C 42.1067,51.6236 42.44,51.9569 42.5,52.5 Z"/></g>
<g><path style="opacity:1" fill="#f07576" d="M 28.5,62.5 C 26.8333,62.5 25.1667,62.5 23.5,62.5C 24.2625,61.7321 25.2625,61.2321 26.5,61C 24.9615,57.0278 25.9615,56.0278 29.5,58C 28.6919,58.3076 28.0253,58.8076 27.5,59.5C 29.3381,60.1887 31.0048,60.5221 32.5,60.5C 31.0508,61.1719 29.7175,61.8386 28.5,62.5 Z"/></g>
<g><path style="opacity:1" fill="#e63130" d="M 23.5,62.5 C 25.1667,62.5 26.8333,62.5 28.5,62.5C 30.3881,63.2751 32.3881,63.2751 34.5,62.5C 32.9874,56.5009 33.6541,56.1675 36.5,61.5C 36.1667,62.1667 35.8333,62.8333 35.5,63.5C 31.1667,64.8333 26.8333,64.8333 22.5,63.5C 22.6236,62.8933 22.9569,62.56 23.5,62.5 Z"/></g>
<g><path style="opacity:0.537" fill="#f37b7e" d="M 35.5,72.5 C 37.5,73.5 39.5,74.5 41.5,75.5C 41.6309,76.3764 41.2975,77.0431 40.5,77.5C 38.4788,76.1455 36.8121,74.4788 35.5,72.5 Z"/></g>
</svg>
