<?xml version="1.0" encoding="UTF-8"?>
<!DOCTYPE svg PUBLIC "-//W3C//DTD SVG 1.1//EN" "http://www.w3.org/Graphics/SVG/1.1/DTD/svg11.dtd">
<svg xmlns="http://www.w3.org/2000/svg" version="1.1" width="80px" height="80px" style="shape-rendering:geometricPrecision; text-rendering:geometricPrecision; image-rendering:optimizeQuality; fill-rule:evenodd; clip-rule:evenodd" xmlns:xlink="http://www.w3.org/1999/xlink">
<g><path style="opacity:0.02" fill="#c1c1c1" d="M 26.5,4.5 C 25.1001,5.09982 24.1001,6.09982 23.5,7.5C 23.2308,5.57135 23.7308,3.90469 25,2.5C 25.7172,3.0442 26.2172,3.71087 26.5,4.5 Z"/></g>
<g><path style="opacity:1" fill="#141414" d="M 26.5,4.5 C 35.8333,8.5 45.1667,8.5 54.5,4.5C 56.0481,4.82124 56.7148,5.82124 56.5,7.5C 55.0427,5.2476 53.5427,5.58093 52,8.5C 40.3333,22.1667 28.6667,35.8333 17,49.5C 16.5034,51.8098 16.3367,54.1432 16.5,56.5C 16.1667,56.5 15.8333,56.5 15.5,56.5C 14.8401,55.036 14.5068,53.3693 14.5,51.5C 15.6283,45.1912 16.6283,38.8579 17.5,32.5C 17.458,29.7414 16.958,27.0747 16,24.5C 14.6443,21.6711 13.1443,19.0045 11.5,16.5C 11.3893,15.8826 11.056,15.3826 10.5,15C 12.0581,14.79 13.3915,14.29 14.5,13.5C 15.9303,12.4625 17.597,11.7959 19.5,11.5C 21.8333,11.1667 23.1667,9.83333 23.5,7.5C 24.1001,6.09982 25.1001,5.09982 26.5,4.5 Z"/></g>
<g><path style="opacity:1" fill="#f4f2f2" d="M 56.5,7.5 C 58.8099,12.5067 62.8099,15.34 68.5,16C 66.1215,18.5995 64.1215,21.4328 62.5,24.5C 49.8333,38.8333 37.1667,53.1667 24.5,67.5C 22.629,67.1412 21.129,66.1412 20,64.5C 18.522,61.8421 17.3554,59.1755 16.5,56.5C 16.3367,54.1432 16.5034,51.8098 17,49.5C 28.6667,35.8333 40.3333,22.1667 52,8.5C 53.5427,5.58093 55.0427,5.2476 56.5,7.5 Z"/></g>
<g><path style="opacity:0.525" fill="#999999" d="M 23.5,7.5 C 23.1667,9.83333 21.8333,11.1667 19.5,11.5C 20.5,9.83333 21.8333,8.5 23.5,7.5 Z"/></g>
<g><path style="opacity:0.31" fill="#7d7d7d" d="M 14.5,13.5 C 13.3915,14.29 12.0581,14.79 10.5,15C 11.056,15.3826 11.3893,15.8826 11.5,16.5C 9.95186,16.1788 9.28519,15.1788 9.5,13.5C 11.1667,13.5 12.8333,13.5 14.5,13.5 Z"/></g>
<g><path style="opacity:1" fill="#686665" d="M 63.5,36.5 C 62.5206,33.3752 62.1872,30.0419 62.5,26.5C 62.5,25.8333 62.5,25.1667 62.5,24.5C 64.1215,21.4328 66.1215,18.5995 68.5,16C 62.8099,15.34 58.8099,12.5067 56.5,7.5C 56.7148,5.82124 56.0481,4.82124 54.5,4.5C 54.7828,3.71087 55.2828,3.0442 56,2.5C 58.3399,9.94271 63.5065,13.9427 71.5,14.5C 65.4691,20.5914 62.8024,27.9247 63.5,36.5 Z"/></g>
<g><path style="opacity:1" fill="#191919" d="M 48.5,17.5 C 51.5248,18.7653 54.3582,20.432 57,22.5C 57.5908,23.4835 57.2575,24.1501 56,24.5C 50.5466,20.7083 50.0466,21.7083 54.5,27.5C 52.5868,28.0512 50.5868,28.2179 48.5,28C 49.5,29 50.5,30 51.5,31C 50.9747,31.6924 50.3081,32.1924 49.5,32.5C 46.6556,30.0024 44.6556,27.0024 43.5,23.5C 48.9965,25.6398 50.3299,24.3065 47.5,19.5C 47.8627,18.8165 48.1961,18.1499 48.5,17.5 Z"/></g>
<g><path style="opacity:1" fill="#5f5f5f" d="M 59.5,18.5 C 61.337,18.6395 61.6704,19.3061 60.5,20.5C 59.7025,20.0431 59.3691,19.3764 59.5,18.5 Z"/></g>
<g><path style="opacity:1" fill="#fb0603" d="M 62.5,24.5 C 62.5,25.1667 62.5,25.8333 62.5,26.5C 61.8389,28.134 61.5056,29.9674 61.5,32C 62.4367,38.8485 63.4367,45.6819 64.5,52.5C 64.5984,60.145 61.2651,65.645 54.5,69C 49.4547,69.9578 44.7881,71.7911 40.5,74.5C 34.9385,72.4588 29.6052,70.1254 24.5,67.5C 37.1667,53.1667 49.8333,38.8333 62.5,24.5 Z"/></g>
<g><path style="opacity:1" fill="#595959" d="M 45.5,34.5 C 47.337,34.6395 47.6704,35.3061 46.5,36.5C 45.7025,36.0431 45.3691,35.3764 45.5,34.5 Z"/></g>
<g><path style="opacity:1" fill="#1d1d1d" d="M 34.5,34.5 C 42.7736,34.9286 44.4403,38.4286 39.5,45C 38.5,45.6667 37.5,45.6667 36.5,45C 34.6499,42.9824 32.6499,41.1491 30.5,39.5C 31.8569,37.8144 33.1902,36.1477 34.5,34.5 Z"/></g>
<g><path style="opacity:1" fill="#ececec" d="M 34.5,37.5 C 38.909,36.899 40.2424,38.5657 38.5,42.5C 36.3886,41.3954 35.0553,39.7288 34.5,37.5 Z"/></g>
<g><path style="opacity:1" fill="#202020" d="M 23.5,46.5 C 27.5551,46.6478 28.0551,47.6478 25,49.5C 24.3886,53.0876 25.8886,54.2542 29.5,53C 30.1258,52.2496 30.6258,51.4162 31,50.5C 33.0149,52.4783 32.8483,54.3116 30.5,56C 22.4658,56.8145 20.1325,53.6478 23.5,46.5 Z"/></g>
<g><path style="opacity:0.824" fill="#685a58" d="M 62.5,26.5 C 62.1872,30.0419 62.5206,33.3752 63.5,36.5C 67.6064,46.2355 67.4397,55.9022 63,65.5C 61.0616,68.1059 58.5616,69.9392 55.5,71C 51.3921,72.0265 47.3921,73.3599 43.5,75C 42.3816,76.0736 41.3816,77.2402 40.5,78.5C 39.6184,77.2402 38.6184,76.0736 37.5,75C 32.0531,73.3049 26.7198,71.3049 21.5,69C 17.4765,65.7868 15.4765,61.6201 15.5,56.5C 15.8333,56.5 16.1667,56.5 16.5,56.5C 17.3554,59.1755 18.522,61.8421 20,64.5C 21.129,66.1412 22.629,67.1412 24.5,67.5C 29.6052,70.1254 34.9385,72.4588 40.5,74.5C 44.7881,71.7911 49.4547,69.9578 54.5,69C 61.2651,65.645 64.5984,60.145 64.5,52.5C 63.4367,45.6819 62.4367,38.8485 61.5,32C 61.5056,29.9674 61.8389,28.134 62.5,26.5 Z"/></g>
</svg>
