<?xml version="1.0" encoding="UTF-8"?>
<!DOCTYPE svg PUBLIC "-//W3C//DTD SVG 1.1//EN" "http://www.w3.org/Graphics/SVG/1.1/DTD/svg11.dtd">
<svg xmlns="http://www.w3.org/2000/svg" version="1.1" width="80px" height="80px" style="shape-rendering:geometricPrecision; text-rendering:geometricPrecision; image-rendering:optimizeQuality; fill-rule:evenodd; clip-rule:evenodd" xmlns:xlink="http://www.w3.org/1999/xlink">
<g><path style="opacity:0.542" fill="#15120a" d="M 17.5,4.5 C 19.1992,4.33982 20.8659,4.50649 22.5,5C 29.8034,9.82444 37.8034,11.4911 46.5,10C 51.5363,8.54585 56.3696,6.71251 61,4.5C 64.903,6.20342 68.403,8.53676 71.5,11.5C 68.383,14.6784 66.7164,18.5117 66.5,23C 68.2455,30.8153 69.9121,38.6486 71.5,46.5C 71.0408,53.392 68.3741,59.2253 63.5,64C 55.8017,68.1812 48.135,72.3478 40.5,76.5C 33.2928,72.3967 25.9595,68.5633 18.5,65C 13.1073,60.2145 10.1073,54.2145 9.5,47C 11.087,38.8184 12.7537,30.6517 14.5,22.5C 14.1794,18.1981 12.5127,14.5315 9.5,11.5C 12.1982,9.15903 14.8648,6.8257 17.5,4.5 Z"/></g>
<g><path style="opacity:1" fill="#d7ad00" d="M 18.5,6.5 C 23.0577,8.41216 27.7244,10.2455 32.5,12C 42.5853,13.271 52.0853,11.4377 61,6.5C 63.7412,7.78852 66.2412,9.45519 68.5,11.5C 65.9057,14.5216 64.5724,18.0216 64.5,22C 65.7891,28.8703 67.2891,35.7036 69,42.5C 70.3907,50.7779 67.8907,57.6113 61.5,63C 54.5418,66.8779 47.3752,70.3779 40,73.5C 33.4697,70.4853 26.9697,67.3186 20.5,64C 14.6475,59.4517 11.6475,53.4517 11.5,46C 12.9603,37.9537 14.6269,29.9537 16.5,22C 15.9746,18.2679 14.6413,14.7679 12.5,11.5C 14.5707,9.81491 16.5707,8.14824 18.5,6.5 Z"/></g>
<g><path style="opacity:0.988" fill="#5b4b03" d="M 28.5,32.5 C 25.8955,40.3663 27.5622,47.0329 33.5,52.5C 27.0004,49.1631 24.5004,43.8297 26,36.5C 26.2004,34.6803 27.0337,33.347 28.5,32.5 Z"/></g>
<g><path style="opacity:0.988" fill="#6d5902" d="M 53.5,34.5 C 55.7816,37.846 56.115,41.5127 54.5,45.5C 54.2528,46.7133 53.5862,47.38 52.5,47.5C 53.3726,43.2315 53.7059,38.8982 53.5,34.5 Z"/></g>
<g><path style="opacity:0.99" fill="#d2aa00" d="M 48.5,28.5 C 49.5,30.1667 50.8333,31.5 52.5,32.5C 53.3382,32.8417 53.6716,33.5084 53.5,34.5C 53.7059,38.8982 53.3726,43.2315 52.5,47.5C 50.5,48.8333 48.8333,50.5 47.5,52.5C 46.209,52.7373 45.209,52.404 44.5,51.5C 44.5,43.8333 44.5,36.1667 44.5,28.5C 43.1667,28.5 41.8333,28.5 40.5,28.5C 39.8333,28.5 39.1667,28.5 38.5,28.5C 37.1779,28.33 36.0113,28.6634 35,29.5C 33.8837,33.2885 34.5504,36.6218 37,39.5C 37.6667,42.8333 37.6667,46.1667 37,49.5C 36.7508,48.376 36.2508,47.376 35.5,46.5C 34.5481,48.0453 34.2148,49.712 34.5,51.5C 35.5,51.5 36.5,51.5 37.5,51.5C 39.2922,52.3091 41.2922,52.8091 43.5,53C 40.1322,53.5428 36.7989,53.3761 33.5,52.5C 27.5622,47.0329 25.8955,40.3663 28.5,32.5C 30.1667,31.5 31.5,30.1667 32.5,28.5C 37.8333,25.8333 43.1667,25.8333 48.5,28.5 Z"/></g>
<g><path style="opacity:0.996" fill="#201a03" d="M 32.5,30.5 C 33.0431,30.56 33.3764,30.8933 33.5,31.5C 31.2337,33.8699 30.2337,36.7032 30.5,40C 30.6991,43.4955 31.5324,46.6622 33,49.5C 27.2256,43.3395 27.059,37.0062 32.5,30.5 Z"/></g>
<g><path style="opacity:1" fill="#171202" d="M 38.5,28.5 C 38.5,29.8333 38.5,31.1667 38.5,32.5C 37.7784,32.0825 37.2784,31.4158 37,30.5C 36.8333,31.6667 36.6667,32.8333 36.5,34C 36.3068,36.0081 36.9735,37.5081 38.5,38.5C 38.8182,43.0323 38.4849,47.3656 37.5,51.5C 36.5,51.5 35.5,51.5 34.5,51.5C 34.2148,49.712 34.5481,48.0453 35.5,46.5C 36.2508,47.376 36.7508,48.376 37,49.5C 37.6667,46.1667 37.6667,42.8333 37,39.5C 34.5504,36.6218 33.8837,33.2885 35,29.5C 36.0113,28.6634 37.1779,28.33 38.5,28.5 Z"/></g>
<g><path style="opacity:0.994" fill="#1d1702" d="M 45.5,29.5 C 47.7271,30.4006 48.7271,32.0672 48.5,34.5C 51.7749,35.019 53.1083,37.019 52.5,40.5C 52.7052,43.2285 51.8718,45.5618 50,47.5C 49.7083,45.6739 49.875,43.8405 50.5,42C 49.0395,41.1964 48.2062,39.363 48,36.5C 47.8283,41.2018 47.3283,45.8685 46.5,50.5C 45.503,43.5316 45.1697,36.5316 45.5,29.5 Z"/></g>
<g><path style="opacity:1" fill="#e9bb00" d="M 38.5,32.5 C 39.8333,34.5 39.8333,36.5 38.5,38.5C 36.9735,37.5081 36.3068,36.0081 36.5,34C 36.6667,32.8333 36.8333,31.6667 37,30.5C 37.2784,31.4158 37.7784,32.0825 38.5,32.5 Z"/></g>
<g><path style="opacity:0.988" fill="#453900" d="M 32.5,28.5 C 31.5,30.1667 30.1667,31.5 28.5,32.5C 28.8333,30.1667 30.1667,28.8333 32.5,28.5 Z"/></g>
<g><path style="opacity:0.988" fill="#443902" d="M 48.5,28.5 C 50.8333,28.8333 52.1667,30.1667 52.5,32.5C 50.8333,31.5 49.5,30.1667 48.5,28.5 Z"/></g>
<g><path style="opacity:1" fill="#020100" d="M 40.5,28.5 C 41.8333,28.5 43.1667,28.5 44.5,28.5C 44.5,36.1667 44.5,43.8333 44.5,51.5C 43.1667,51.5 41.8333,51.5 40.5,51.5C 40.5,43.8333 40.5,36.1667 40.5,28.5 Z"/></g>
<g><path style="opacity:0.992" fill="#977c00" d="M 41.5,29.5 C 42.821,32.5982 43.4877,36.0982 43.5,40C 43.1667,43.5 42.8333,47 42.5,50.5C 41.503,43.5316 41.1697,36.5316 41.5,29.5 Z"/></g>
<g><path style="opacity:0.996" fill="#6f5b02" d="M 38.5,28.5 C 39.1667,28.5 39.8333,28.5 40.5,28.5C 40.5,36.1667 40.5,43.8333 40.5,51.5C 41.8333,51.5 43.1667,51.5 44.5,51.5C 45.209,52.404 46.209,52.7373 47.5,52.5C 46.3998,53.5585 45.0664,54.3918 43.5,55C 44.448,55.4828 45.448,55.6495 46.5,55.5C 45.9455,59.0122 46.6122,62.0122 48.5,64.5C 47.791,65.404 46.791,65.7373 45.5,65.5C 45.5,62.5 45.5,59.5 45.5,56.5C 44.5,56.5 43.5,56.5 42.5,56.5C 39.3448,55.5577 36.3448,54.2243 33.5,52.5C 36.7989,53.3761 40.1322,53.5428 43.5,53C 41.2922,52.8091 39.2922,52.3091 37.5,51.5C 38.4849,47.3656 38.8182,43.0323 38.5,38.5C 39.8333,36.5 39.8333,34.5 38.5,32.5C 38.5,31.1667 38.5,29.8333 38.5,28.5 Z"/></g>
<g><path style="opacity:0.988" fill="#352c05" d="M 38.5,25.5 C 41.2788,25.2786 43.9455,25.612 46.5,26.5C 47.5,26.8333 48.1667,27.5 48.5,28.5C 43.1667,25.8333 37.8333,25.8333 32.5,28.5C 33.911,26.461 35.911,25.461 38.5,25.5 Z"/></g>
<g><path style="opacity:1" fill="#bc9900" d="M 46.5,16.5 C 46.5,19.8333 46.5,23.1667 46.5,26.5C 43.9455,25.612 41.2788,25.2786 38.5,25.5C 38.1583,24.6618 37.4916,24.3284 36.5,24.5C 39.2301,23.1834 42.0635,23.1834 45,24.5C 45.1829,21.6353 45.6829,18.9686 46.5,16.5 Z"/></g>
<g><path style="opacity:1" fill="#f8c600" d="M 48.5,64.5 C 46.6122,62.0122 45.9455,59.0122 46.5,55.5C 45.448,55.6495 44.448,55.4828 43.5,55C 45.0664,54.3918 46.3998,53.5585 47.5,52.5C 50.1667,51.8333 51.8333,50.1667 52.5,47.5C 53.5862,47.38 54.2528,46.7133 54.5,45.5C 56.115,41.5127 55.7816,37.846 53.5,34.5C 53.6716,33.5084 53.3382,32.8417 52.5,32.5C 52.1667,30.1667 50.8333,28.8333 48.5,28.5C 48.1667,27.5 47.5,26.8333 46.5,26.5C 46.5,23.1667 46.5,19.8333 46.5,16.5C 46.8333,16.5 47.1667,16.5 47.5,16.5C 50.4398,15.7979 53.2731,14.7979 56,13.5C 56.8329,29.5104 56.6662,45.5104 55.5,61.5C 53.2612,62.7878 50.9279,63.7878 48.5,64.5 Z"/></g>
<g><path style="opacity:1" fill="#f4c300" d="M 36.5,24.5 C 37.4916,24.3284 38.1583,24.6618 38.5,25.5C 35.911,25.461 33.911,26.461 32.5,28.5C 30.1667,28.8333 28.8333,30.1667 28.5,32.5C 27.0337,33.347 26.2004,34.6803 26,36.5C 24.5004,43.8297 27.0004,49.1631 33.5,52.5C 36.3448,54.2243 39.3448,55.5577 42.5,56.5C 40.8333,56.5 39.1667,56.5 37.5,56.5C 36.791,55.596 35.791,55.2627 34.5,55.5C 34.5,58.8333 34.5,62.1667 34.5,65.5C 31.1566,64.941 28.1566,63.6077 25.5,61.5C 24.3338,45.5104 24.1671,29.5104 25,13.5C 28.1732,15.6129 31.6732,16.6129 35.5,16.5C 35.1936,19.3854 35.5269,22.0521 36.5,24.5 Z"/></g>
<g><path style="opacity:1" fill="#140f01" d="M 46.5,67.5 C 46.1667,66.8333 45.8333,66.1667 45.5,65.5C 46.791,65.7373 47.791,65.404 48.5,64.5C 50.9279,63.7878 53.2612,62.7878 55.5,61.5C 56.6662,45.5104 56.8329,29.5104 56,13.5C 53.2731,14.7979 50.4398,15.7979 47.5,16.5C 47.5,16.1667 47.5,15.8333 47.5,15.5C 51.7311,13.5222 56.0645,11.5222 60.5,9.5C 61.7481,10.0402 62.9148,10.7069 64,11.5C 62.7984,15.1414 61.9651,18.9747 61.5,23C 63.18,30.7398 64.8467,38.4064 66.5,46C 66.2683,53.4598 62.935,59.1264 56.5,63C 53.1792,64.6036 49.8458,66.1036 46.5,67.5 Z"/></g>
<g><path style="opacity:1" fill="#110d01" d="M 47.5,15.5 C 47.5,15.8333 47.5,16.1667 47.5,16.5C 47.1667,16.5 46.8333,16.5 46.5,16.5C 45.6829,18.9686 45.1829,21.6353 45,24.5C 42.0635,23.1834 39.2301,23.1834 36.5,24.5C 35.5269,22.0521 35.1936,19.3854 35.5,16.5C 31.6732,16.6129 28.1732,15.6129 25,13.5C 24.1671,29.5104 24.3338,45.5104 25.5,61.5C 28.1566,63.6077 31.1566,64.941 34.5,65.5C 34.89,62.2033 35.89,59.2033 37.5,56.5C 39.1667,56.5 40.8333,56.5 42.5,56.5C 43.5,56.5 44.5,56.5 45.5,56.5C 45.5,59.5 45.5,62.5 45.5,65.5C 45.8333,66.1667 46.1667,66.8333 46.5,67.5C 44.2433,67.9617 42.2433,68.9617 40.5,70.5C 31.6241,67.4829 23.7908,62.8162 17,56.5C 15.158,53.2457 14.3246,49.7457 14.5,46C 16.362,38.0701 18.0287,30.0701 19.5,22C 19.2043,18.6129 18.2043,15.4463 16.5,12.5C 17.3467,11.1552 18.5134,10.1552 20,9.5C 28.4249,14.7302 37.5916,16.7302 47.5,15.5 Z"/></g>
<g><path style="opacity:0.99" fill="#483c01" d="M 52.5,47.5 C 51.8333,50.1667 50.1667,51.8333 47.5,52.5C 48.8333,50.5 50.5,48.8333 52.5,47.5 Z"/></g>
<g><path style="opacity:0.994" fill="#7f6800" d="M 37.5,56.5 C 35.89,59.2033 34.89,62.2033 34.5,65.5C 34.5,62.1667 34.5,58.8333 34.5,55.5C 35.791,55.2627 36.791,55.596 37.5,56.5 Z"/></g>
</svg>
