<?xml version="1.0" encoding="UTF-8"?>
<!DOCTYPE svg PUBLIC "-//W3C//DTD SVG 1.1//EN" "http://www.w3.org/Graphics/SVG/1.1/DTD/svg11.dtd">
<svg xmlns="http://www.w3.org/2000/svg" version="1.1" width="80px" height="80px" style="shape-rendering:geometricPrecision; text-rendering:geometricPrecision; image-rendering:optimizeQuality; fill-rule:evenodd; clip-rule:evenodd" xmlns:xlink="http://www.w3.org/1999/xlink">
<g><path style="opacity:0.688" fill="#2a2828" d="M 23.5,4.5 C 34.3337,9.81116 45.1671,9.81116 56,4.5C 60.5354,10.0324 65.3687,15.1991 70.5,20C 68.7603,29.8423 66.9269,39.6757 65,49.5C 61.2534,63.0346 52.92,72.3679 40,77.5C 26.0114,71.8284 17.3447,61.4951 14,46.5C 12.7325,37.4607 11.2325,28.4607 9.5,19.5C 14.8381,15.1607 19.5047,10.1607 23.5,4.5 Z"/></g>
<g><path style="opacity:1" fill="#f1f1f1" d="M 24.5,8.5 C 34.3599,12.4744 44.1932,12.4744 54,8.5C 57.995,11.6626 61.8283,14.9959 65.5,18.5C 66.4595,34.0023 63.2928,48.6689 56,62.5C 51.7867,68.0535 46.4534,72.0535 40,74.5C 27.5839,69.0825 19.9172,59.7492 17,46.5C 15.5354,37.8081 14.0354,29.1414 12.5,20.5C 16.9634,16.9406 20.9634,12.9406 24.5,8.5 Z"/></g>
<g><path style="opacity:1" fill="#333131" d="M 24.5,13.5 C 26.8273,13.2471 28.8273,13.9137 30.5,15.5C 29.2839,16.0959 27.9506,16.2626 26.5,16C 25.6634,17.0113 25.33,18.1779 25.5,19.5C 30.1001,19.3451 30.4334,20.0118 26.5,21.5C 25.5581,21.3918 24.7247,21.0585 24,20.5C 23.4436,18.1152 23.6103,15.7819 24.5,13.5 Z"/></g>
<g><path style="opacity:1" fill="#333131" d="M 51.5,13.5 C 52.3764,13.3691 53.0431,13.7025 53.5,14.5C 52.624,15.2508 51.624,15.7508 50.5,16C 54.3779,16.9486 54.3779,18.1153 50.5,19.5C 51.8333,19.8333 53.1667,20.1667 54.5,20.5C 52.604,21.4656 50.604,21.7989 48.5,21.5C 48.3259,19.139 47.9926,16.8056 47.5,14.5C 49.099,14.7678 50.4324,14.4345 51.5,13.5 Z"/></g>
<g><path style="opacity:1" fill="#444242" d="M 56.5,18.5 C 58.337,18.6395 58.6704,19.3061 57.5,20.5C 56.7025,20.0431 56.3691,19.3764 56.5,18.5 Z"/></g>
<g><path style="opacity:1" fill="#3d3c3c" d="M 31.5,20.5 C 33.337,20.6395 33.6704,21.3061 32.5,22.5C 31.7025,22.0431 31.3691,21.3764 31.5,20.5 Z"/></g>
<g><path style="opacity:1" fill="#3a3838" d="M 37.5,15.5 C 41.6654,16.1605 42.9987,18.4939 41.5,22.5C 39.4121,21.821 37.4121,21.4877 35.5,21.5C 36.1717,19.4705 36.8384,17.4705 37.5,15.5 Z"/></g>
<g><path style="opacity:1" fill="#1f1d1d" d="M 44.5,20.5 C 46.337,20.6395 46.6704,21.3061 45.5,22.5C 44.7025,22.0431 44.3691,21.3764 44.5,20.5 Z"/></g>
<g><path style="opacity:1" fill="#242222" d="M 24.5,24.5 C 24.8271,34.3478 24.4938,44.0144 23.5,53.5C 19.8656,43.3529 18.199,33.0196 18.5,22.5C 20.323,23.7472 22.323,24.4139 24.5,24.5 Z"/></g>
<g><path style="opacity:1" fill="#262424" d="M 56.5,53.5 C 55.5062,44.0144 55.1729,34.3478 55.5,24.5C 57.7819,23.0542 60.1152,22.7208 62.5,23.5C 61.5751,33.7164 59.5751,43.7164 56.5,53.5 Z"/></g>
<g><path style="opacity:1" fill="#b5b4b4" d="M 24.5,24.5 C 25.8232,34.6742 25.8232,45.0075 24.5,55.5C 23.7025,55.0431 23.3691,54.3764 23.5,53.5C 24.4938,44.0144 24.8271,34.3478 24.5,24.5 Z"/></g>
<g><path style="opacity:1" fill="#7e7d7d" d="M 55.5,24.5 C 55.1729,34.3478 55.5062,44.0144 56.5,53.5C 56.2172,54.2891 55.7172,54.9558 55,55.5C 54.1748,44.9917 54.3415,34.6584 55.5,24.5 Z"/></g>
<g><path style="opacity:1" fill="#454343" d="M 33.5,26.5 C 32.1667,26.5 30.8333,26.5 29.5,26.5C 29.5,38.5 29.5,50.5 29.5,62.5C 28.5048,50.3446 28.1714,38.0113 28.5,25.5C 30.4147,25.2155 32.0813,25.5489 33.5,26.5 Z"/></g>
<g><path style="opacity:1" fill="#5d5c5c" d="M 46.5,26.5 C 47.9187,25.5489 49.5853,25.2155 51.5,25.5C 51.8286,38.0113 51.4952,50.3446 50.5,62.5C 50.5,50.5 50.5,38.5 50.5,26.5C 49.1667,26.5 47.8333,26.5 46.5,26.5 Z"/></g>
<g><path style="opacity:1" fill="#201e1e" d="M 33.5,26.5 C 33.6666,39.5043 33.4999,52.5043 33,65.5C 31.4815,64.8366 30.3149,63.8366 29.5,62.5C 29.5,50.5 29.5,38.5 29.5,26.5C 30.8333,26.5 32.1667,26.5 33.5,26.5 Z"/></g>
<g><path style="opacity:1" fill="#bcbbbb" d="M 46.5,26.5 C 46.1712,39.6774 46.5045,52.6774 47.5,65.5C 47.44,66.0431 47.1067,66.3764 46.5,66.5C 45.1746,53.0059 45.1746,39.6726 46.5,26.5 Z"/></g>
<g><path style="opacity:1" fill="#201e1e" d="M 46.5,26.5 C 47.8333,26.5 49.1667,26.5 50.5,26.5C 50.5,38.5 50.5,50.5 50.5,62.5C 49.6935,63.7281 48.6935,64.7281 47.5,65.5C 46.5045,52.6774 46.1712,39.6774 46.5,26.5 Z"/></g>
<g><path style="opacity:1" fill="#242323" d="M 37.5,26.5 C 39.1667,26.5 40.8333,26.5 42.5,26.5C 42.5,40.8333 42.5,55.1667 42.5,69.5C 40.8333,69.5 39.1667,69.5 37.5,69.5C 37.5,55.1667 37.5,40.8333 37.5,26.5 Z"/></g>
</svg>
