<?xml version="1.0" encoding="UTF-8"?>
<!DOCTYPE svg PUBLIC "-//W3C//DTD SVG 1.1//EN" "http://www.w3.org/Graphics/SVG/1.1/DTD/svg11.dtd">
<svg xmlns="http://www.w3.org/2000/svg" version="1.1" width="80px" height="80px" style="shape-rendering:geometricPrecision; text-rendering:geometricPrecision; image-rendering:optimizeQuality; fill-rule:evenodd; clip-rule:evenodd" xmlns:xlink="http://www.w3.org/1999/xlink">
<g><path style="opacity:0.125" fill="#c5c5c5" d="M 71.5,68.5 C 71.5,47.1667 71.5,25.8333 71.5,4.5C 50.8333,4.5 30.1667,4.5 9.5,4.5C 9.5,24.8333 9.5,45.1667 9.5,65.5C 8.50279,45.0067 8.16945,24.3401 8.5,3.5C 29.8333,3.5 51.1667,3.5 72.5,3.5C 72.8307,25.3398 72.4973,47.0064 71.5,68.5 Z"/></g>
<g><path style="opacity:0.595" fill="#232221" d="M 71.5,68.5 C 71.4392,71.0495 70.1059,72.5495 67.5,73C 59.8333,73.3333 52.1667,73.6667 44.5,74C 42.0771,78.627 39.7438,78.627 37.5,74C 29.8333,73.6667 22.1667,73.3333 14.5,73C 10.7095,71.9196 9.04281,69.4196 9.5,65.5C 9.5,45.1667 9.5,24.8333 9.5,4.5C 30.1667,4.5 50.8333,4.5 71.5,4.5C 71.5,25.8333 71.5,47.1667 71.5,68.5 Z"/></g>
<g><path style="opacity:1" fill="#e5e5e5" d="M 10.5,5.5 C 30.5,5.5 50.5,5.5 70.5,5.5C 70.6666,26.5026 70.5,47.5026 70,68.5C 69.1667,69.3333 68.3333,70.1667 67.5,71C 59.1468,71.1683 50.8134,71.6683 42.5,72.5C 41.7312,74.8008 40.7312,74.9675 39.5,73C 32.1667,72.6667 24.8333,72.3333 17.5,72C 14.545,71.6083 12.3783,70.1083 11,67.5C 10.5,46.836 10.3334,26.1694 10.5,5.5 Z"/></g>
<g><path style="opacity:1" fill="#283843" d="M 16.5,66.5 C 24.1193,67.2681 31.786,67.7681 39.5,68C 40.5,70 41.5,70 42.5,68C 49.5,67.6667 56.5,67.3333 63.5,67C 64,66.5 64.5,66 65,65.5C 65.4999,49.1701 65.6666,32.8367 65.5,16.5C 48.8333,15.1667 32.1667,15.1667 15.5,16.5C 15.5,32.5 15.5,48.5 15.5,64.5C 14.5035,48.0084 14.1702,31.3417 14.5,14.5C 31.8333,14.5 49.1667,14.5 66.5,14.5C 66.6666,31.8365 66.4999,49.1699 66,66.5C 65.5,67 65,67.5 64.5,68C 57.5,68.3333 50.5,68.6667 43.5,69C 41.6534,72.1237 39.9868,72.1237 38.5,69C 31.5,68.6667 24.5,68.3333 17.5,68C 16.944,67.6174 16.6107,67.1174 16.5,66.5 Z"/></g>
<g><path style="opacity:1" fill="#0189cd" d="M 15.5,16.5 C 23.0191,16.175 30.3524,16.5084 37.5,17.5C 31.5275,18.3056 27.1942,21.3056 24.5,26.5C 22.8639,27.7489 21.6972,29.4156 21,31.5C 20.3333,35.1667 20.3333,38.8333 21,42.5C 21.2784,43.4158 21.7784,44.0825 22.5,44.5C 22.2291,46.3797 22.8958,47.713 24.5,48.5C 26.4178,52.9122 29.7512,55.7455 34.5,57C 38.8333,57.6667 43.1667,57.6667 47.5,57C 50.1064,56.2082 52.1064,54.7082 53.5,52.5C 56.9352,50.544 59.1018,47.544 60,43.5C 62.3089,29.7695 56.8089,21.1029 43.5,17.5C 50.6476,16.5084 57.9809,16.175 65.5,16.5C 65.6666,32.8367 65.4999,49.1701 65,65.5C 64.5,66 64,66.5 63.5,67C 56.5,67.3333 49.5,67.6667 42.5,68C 41.5,70 40.5,70 39.5,68C 31.786,67.7681 24.1193,67.2681 16.5,66.5C 15.6618,66.1583 15.3284,65.4916 15.5,64.5C 15.5,48.5 15.5,32.5 15.5,16.5 Z"/></g>
<g><path style="opacity:1" fill="#333b41" d="M 24.5,48.5 C 33.0655,57.4462 42.7321,58.7795 53.5,52.5C 52.1064,54.7082 50.1064,56.2082 47.5,57C 43.1667,57.6667 38.8333,57.6667 34.5,57C 29.7512,55.7455 26.4178,52.9122 24.5,48.5 Z"/></g>
<g><path style="opacity:1" fill="#2b2f33" d="M 22.5,44.5 C 23.6737,45.5137 24.3404,46.847 24.5,48.5C 22.8958,47.713 22.2291,46.3797 22.5,44.5 Z"/></g>
<g><path style="opacity:1" fill="#28323a" d="M 24.5,26.5 C 21.3722,32.192 20.7056,38.192 22.5,44.5C 21.7784,44.0825 21.2784,43.4158 21,42.5C 20.3333,38.8333 20.3333,35.1667 21,31.5C 21.6972,29.4156 22.8639,27.7489 24.5,26.5 Z"/></g>
<g><path style="opacity:1" fill="#ececec" d="M 53.5,52.5 C 42.7321,58.7795 33.0655,57.4462 24.5,48.5C 24.3404,46.847 23.6737,45.5137 22.5,44.5C 20.7056,38.192 21.3722,32.192 24.5,26.5C 35.001,15.8665 45.501,15.8665 56,26.5C 61.1729,35.7704 60.3396,44.4371 53.5,52.5 Z"/></g>
<g><path style="opacity:1" fill="#9d9d9d" d="M 25.5,38.5 C 27.2646,37.5386 29.2646,37.2053 31.5,37.5C 31.5,42.5 31.5,47.5 31.5,52.5C 30.5139,48.03 30.1805,43.3633 30.5,38.5C 28.8333,38.5 27.1667,38.5 25.5,38.5 Z"/></g>
<g><path style="opacity:1" fill="#211f1e" d="M 49.5,23.5 C 53.648,25.1481 55.8146,28.1481 56,32.5C 51.2471,24.9413 49.4138,26.2747 50.5,36.5C 59.8333,37.1667 59.8333,37.8333 50.5,38.5C 50.1796,41.8984 50.513,45.2317 51.5,48.5C 52.8448,47.6533 53.8448,46.4866 54.5,45C 55.1667,44.3333 55.8333,44.3333 56.5,45C 55.0016,47.6637 53.0016,49.8304 50.5,51.5C 49.5064,42.3483 49.1731,33.015 49.5,23.5 Z"/></g>
<g><path style="opacity:1" fill="#444342" d="M 49.5,23.5 C 49.1731,33.015 49.5064,42.3483 50.5,51.5C 50.44,52.0431 50.1067,52.3764 49.5,52.5C 49.1667,47.5 48.8333,42.5 48.5,37.5C 48.4729,32.0816 48.8063,27.4149 49.5,23.5 Z"/></g>
<g><path style="opacity:1" fill="#22201f" d="M 31.5,23.5 C 32.4938,32.9856 32.8271,42.6522 32.5,52.5C 32.1667,52.5 31.8333,52.5 31.5,52.5C 31.5,47.5 31.5,42.5 31.5,37.5C 29.2646,37.2053 27.2646,37.5386 25.5,38.5C 26.0081,41.1761 26.1747,43.8428 26,46.5C 23.0904,41.0479 22.7571,35.3812 25,29.5C 26.4055,26.5914 28.5722,24.5914 31.5,23.5 Z"/></g>
<g><path style="opacity:1" fill="#f2f2f1" d="M 30.5,26.5 C 30.5,29.5 30.5,32.5 30.5,35.5C 28.8333,35.5 27.1667,35.5 25.5,35.5C 25.3552,31.4532 27.0219,28.4532 30.5,26.5 Z"/></g>
<g><path style="opacity:1" fill="#9c9b9b" d="M 25.5,35.5 C 27.1667,35.5 28.8333,35.5 30.5,35.5C 30.5,32.5 30.5,29.5 30.5,26.5C 31.5036,29.0452 31.837,32.3786 31.5,36.5C 29.2646,36.7947 27.2646,36.4614 25.5,35.5 Z"/></g>
<g><path style="opacity:1" fill="#4d4b4b" d="M 31.5,23.5 C 31.56,22.9569 31.8933,22.6236 32.5,22.5C 33.8229,32.6589 33.8229,42.6589 32.5,52.5C 32.8271,42.6522 32.4938,32.9856 31.5,23.5 Z"/></g>
<g><path style="opacity:1" fill="#2c2a29" d="M 38.5,20.5 C 40.1667,20.5 41.8333,20.5 43.5,20.5C 44.8318,29.8252 46.1651,39.1585 47.5,48.5C 47.1667,50.1667 46.8333,51.8333 46.5,53.5C 45.3702,48.5178 44.3702,43.5178 43.5,38.5C 41.8333,38.5 40.1667,38.5 38.5,38.5C 38.3405,43.9822 37.3405,49.3155 35.5,54.5C 35.1667,53 34.8333,51.5 34.5,50C 35.7124,40.1327 37.0457,30.2994 38.5,20.5 Z"/></g>
<g><path style="opacity:1" fill="#d4d3d3" d="M 40.5,25.5 C 42.217,28.8448 42.8836,32.5115 42.5,36.5C 41.5,36.5 40.5,36.5 39.5,36.5C 39.423,32.7852 39.7564,29.1185 40.5,25.5 Z"/></g>
<g><path style="opacity:1" fill="#2d353c" d="M 37.5,17.5 C 39.5,17.5 41.5,17.5 43.5,17.5C 56.8089,21.1029 62.3089,29.7695 60,43.5C 59.1018,47.544 56.9352,50.544 53.5,52.5C 60.3396,44.4371 61.1729,35.7704 56,26.5C 45.501,15.8665 35.001,15.8665 24.5,26.5C 27.1942,21.3056 31.5275,18.3056 37.5,17.5 Z"/></g>
<g><path style="opacity:1" fill="#0b5d86" d="M 15.5,16.5 C 32.1667,15.1667 48.8333,15.1667 65.5,16.5C 57.9809,16.175 50.6476,16.5084 43.5,17.5C 41.5,17.5 39.5,17.5 37.5,17.5C 30.3524,16.5084 23.0191,16.175 15.5,16.5 Z"/></g>
<g><path style="opacity:1" fill="#969696" d="M 19.5,12.5 C 16.1166,13.7544 15.6166,12.7544 18,9.5C 19.0386,10.2438 19.5386,11.2438 19.5,12.5 Z"/></g>
<g><path style="opacity:1" fill="#adadad" d="M 27.5,9.5 C 31.1667,9.5 34.8333,9.5 38.5,9.5C 38.8333,13.5 39.1667,13.5 39.5,9.5C 42.0792,9.08332 44.2458,9.74999 46,11.5C 47,8.83333 48,8.83333 49,11.5C 49.3333,10.8333 49.6667,10.1667 50,9.5C 53.9661,9.46957 58.1328,9.63623 62.5,10C 61.3595,10.7412 61.3595,11.5745 62.5,12.5C 59.2299,14.2143 56.7299,13.5477 55,10.5C 54.3333,13.1667 53.6667,13.1667 53,10.5C 52.6667,11.5 52.3333,12.5 52,13.5C 47.4098,13.2428 42.5765,13.2428 37.5,13.5C 37.3068,9.55096 36.8068,9.55096 36,13.5C 35.7508,12.376 35.2508,11.376 34.5,10.5C 34.2635,11.2472 33.9302,12.0805 33.5,13C 31.5273,13.4955 29.5273,13.6621 27.5,13.5C 27.5,12.1667 27.5,10.8333 27.5,9.5 Z"/></g>
<g><path style="opacity:1" fill="#a5a5a4" d="M 19.5,12.5 C 21.0744,12.0629 22.2411,11.0629 23,9.5C 23.956,10.5786 24.7894,11.7453 25.5,13C 23.4824,13.1684 21.4824,13.0017 19.5,12.5 Z"/></g>
</svg>
