<?xml version="1.0" encoding="UTF-8"?>
<!DOCTYPE svg PUBLIC "-//W3C//DTD SVG 1.1//EN" "http://www.w3.org/Graphics/SVG/1.1/DTD/svg11.dtd">
<svg xmlns="http://www.w3.org/2000/svg" version="1.1" width="80px" height="80px" style="shape-rendering:geometricPrecision; text-rendering:geometricPrecision; image-rendering:optimizeQuality; fill-rule:evenodd; clip-rule:evenodd" xmlns:xlink="http://www.w3.org/1999/xlink">
<g><path style="opacity:0.858" fill="#69c590" d="M 75.5,67.5 C 75.5,45.8333 75.5,24.1667 75.5,2.5C 52.0913,2.16743 29.4247,2.50076 7.5,3.5C 7.5,8.16667 7.5,12.8333 7.5,17.5C 7.5,17.8333 7.5,18.1667 7.5,18.5C 6.54885,19.9187 6.21552,21.5853 6.5,23.5C 9.16667,23.5 11.8333,23.5 14.5,23.5C 12.3926,24.4682 10.0593,24.8016 7.5,24.5C 7.1719,36.0123 7.50523,47.3456 8.5,58.5C 7.72225,59.1556 7.05558,59.9889 6.5,61C 6.56993,61.7648 6.90326,62.2648 7.5,62.5C 7.26269,63.791 7.59603,64.791 8.5,65.5C 7.90935,66.1515 7.24269,66.8182 6.5,67.5C 7.12723,68.4168 7.46056,69.4168 7.5,70.5C 6.88258,70.3893 6.38258,70.056 6,69.5C 5.50004,46.8358 5.33337,24.1691 5.5,1.5C 29.1667,1.5 52.8333,1.5 76.5,1.5C 76.8307,23.673 76.4974,45.673 75.5,67.5 Z"/></g>
<g><path style="opacity:1" fill="#fcfdfd" d="M 7.5,3.5 C 29.5,3.5 51.5,3.5 73.5,3.5C 73.5,8.16667 73.5,12.8333 73.5,17.5C 63.3194,17.8274 53.3194,17.494 43.5,16.5C 44.525,16.1034 44.6917,15.4368 44,14.5C 42.9887,15.3366 41.8221,15.67 40.5,15.5C 40.5,12.5 40.5,9.5 40.5,6.5C 41.9778,6.76202 43.3112,6.42869 44.5,5.5C 41.503,4.52368 38.503,4.69035 35.5,6C 34.695,7.11268 34.0283,8.27935 33.5,9.5C 33.1658,12.188 33.8325,14.5214 35.5,16.5C 26.3483,17.4936 17.015,17.8269 7.5,17.5C 7.5,12.8333 7.5,8.16667 7.5,3.5 Z"/></g>
<g><path style="opacity:1" fill="#7d7a7b" d="M 43.5,16.5 C 42.8333,16.8333 42.1667,17.1667 41.5,17.5C 40.5,16.8333 39.5,16.1667 38.5,15.5C 39.8333,12.5 39.8333,9.5 38.5,6.5C 37.8826,6.61071 37.3826,6.94404 37,7.5C 36.5045,9.4727 36.3379,11.4727 36.5,13.5C 35.5,12.1667 34.5,10.8333 33.5,9.5C 34.0283,8.27935 34.695,7.11268 35.5,6C 38.503,4.69035 41.503,4.52368 44.5,5.5C 43.3112,6.42869 41.9778,6.76202 40.5,6.5C 40.5,9.5 40.5,12.5 40.5,15.5C 41.8221,15.67 42.9887,15.3366 44,14.5C 44.6917,15.4368 44.525,16.1034 43.5,16.5 Z"/></g>
<g><path style="opacity:1" fill="#2a2627" d="M 38.5,6.5 C 38.6621,8.5273 38.4955,10.5273 38,12.5C 37.6174,13.056 37.1174,13.3893 36.5,13.5C 36.3379,11.4727 36.5045,9.4727 37,7.5C 37.3826,6.94404 37.8826,6.61071 38.5,6.5 Z"/></g>
<g><path style="opacity:1" fill="#292526" d="M 33.5,9.5 C 34.5,10.8333 35.5,12.1667 36.5,13.5C 36.8333,14.5 37.5,15.1667 38.5,15.5C 39.5,16.1667 40.5,16.8333 41.5,17.5C 39.3792,17.6747 37.3792,17.3414 35.5,16.5C 33.8325,14.5214 33.1658,12.188 33.5,9.5 Z"/></g>
<g><path style="opacity:1" fill="#dadada" d="M 38.5,6.5 C 39.8333,9.5 39.8333,12.5 38.5,15.5C 37.5,15.1667 36.8333,14.5 36.5,13.5C 37.1174,13.3893 37.6174,13.056 38,12.5C 38.4955,10.5273 38.6621,8.5273 38.5,6.5 Z"/></g>
<g><path style="opacity:1" fill="#cde9da" d="M 35.5,16.5 C 37.3792,17.3414 39.3792,17.6747 41.5,17.5C 42.1667,17.1667 42.8333,16.8333 43.5,16.5C 53.3194,17.494 63.3194,17.8274 73.5,17.5C 51.673,18.4974 29.673,18.8307 7.5,18.5C 7.5,18.1667 7.5,17.8333 7.5,17.5C 17.015,17.8269 26.3483,17.4936 35.5,16.5 Z"/></g>
<g><path style="opacity:1" fill="#68ca97" d="M 46.5,22.5 C 41.2423,22.3949 36.0756,23.0616 31,24.5C 29.0145,24.4313 27.5145,23.7647 26.5,22.5C 33.2212,22.0374 39.8879,22.0374 46.5,22.5 Z"/></g>
<g><path style="opacity:1" fill="#f7f9f8" d="M 26.5,22.5 C 27.5145,23.7647 29.0145,24.4313 31,24.5C 36.0756,23.0616 41.2423,22.3949 46.5,22.5C 47.3339,23.7479 48.6672,24.4146 50.5,24.5C 53.7895,23.6184 57.1228,22.9517 60.5,22.5C 64.8245,23.3572 69.1578,24.0239 73.5,24.5C 73.8279,35.6794 73.4946,46.6794 72.5,57.5C 61.7732,46.7732 51.1065,36.1065 40.5,25.5C 29.812,36.5207 19.1453,47.5207 8.5,58.5C 7.50523,47.3456 7.1719,36.0123 7.5,24.5C 10.0593,24.8016 12.3926,24.4682 14.5,23.5C 18.2984,22.5166 22.2984,22.1832 26.5,22.5 Z"/></g>
<g><path style="opacity:1" fill="#72cd9e" d="M 73.5,24.5 C 74.824,35.6735 74.824,47.0069 73.5,58.5C 72.8933,58.3764 72.56,58.0431 72.5,57.5C 73.4946,46.6794 73.8279,35.6794 73.5,24.5 Z"/></g>
<g><path style="opacity:1" fill="#3a3637" d="M 17.5,28.5 C 23.6966,28.3251 24.3633,29.3251 19.5,31.5C 20.0253,32.1924 20.6919,32.6924 21.5,33C 19.8624,35.1335 19.029,37.6335 19,40.5C 15.9552,43.4359 12.4552,44.1025 8.5,42.5C 10.437,41.8425 12.2703,41.5092 14,41.5C 14.4974,38.854 14.6641,36.1873 14.5,33.5C 13.448,33.6495 12.448,33.4828 11.5,33C 13.4072,31.2436 15.4072,29.7436 17.5,28.5 Z"/></g>
<g><path style="opacity:1" fill="#c6c5c6" d="M 16.5,30.5 C 17.1599,31.964 17.4932,33.6307 17.5,35.5C 17.5877,37.7125 17.0877,39.7125 16,41.5C 16.337,37.9206 16.5036,34.254 16.5,30.5 Z"/></g>
<g><path style="opacity:1" fill="#0fa654" d="M 75.5,67.5 C 75.1412,69.371 74.1412,70.871 72.5,72C 63.7579,72.0892 55.0912,72.7559 46.5,74C 43.921,75.0757 42.2543,76.909 41.5,79.5C 40.8333,79.5 40.1667,79.5 39.5,79.5C 38.3418,76.1783 36.0084,74.0117 32.5,73C 24.5,72.6667 16.5,72.3333 8.5,72C 7.94404,71.6174 7.61071,71.1174 7.5,70.5C 7.46056,69.4168 7.12723,68.4168 6.5,67.5C 7.24269,66.8182 7.90935,66.1515 8.5,65.5C 18.8401,54.3265 29.6734,43.6599 41,33.5C 51.821,42.9877 61.9877,53.1544 71.5,64C 72.4835,64.5908 73.1501,64.2575 73.5,63C 63.0279,51.3609 52.0279,40.1942 40.5,29.5C 29.1457,40.1877 18.1457,51.1877 7.5,62.5C 6.90326,62.2648 6.56993,61.7648 6.5,61C 7.05558,59.9889 7.72225,59.1556 8.5,58.5C 19.1453,47.5207 29.812,36.5207 40.5,25.5C 51.1065,36.1065 61.7732,46.7732 72.5,57.5C 72.56,58.0431 72.8933,58.3764 73.5,58.5C 74.824,47.0069 74.824,35.6735 73.5,24.5C 69.1578,24.0239 64.8245,23.3572 60.5,22.5C 57.1228,22.9517 53.7895,23.6184 50.5,24.5C 48.6672,24.4146 47.3339,23.7479 46.5,22.5C 39.8879,22.0374 33.2212,22.0374 26.5,22.5C 22.2984,22.1832 18.2984,22.5166 14.5,23.5C 11.8333,23.5 9.16667,23.5 6.5,23.5C 6.21552,21.5853 6.54885,19.9187 7.5,18.5C 29.673,18.8307 51.673,18.4974 73.5,17.5C 73.5,12.8333 73.5,8.16667 73.5,3.5C 51.5,3.5 29.5,3.5 7.5,3.5C 29.4247,2.50076 52.0913,2.16743 75.5,2.5C 75.5,24.1667 75.5,45.8333 75.5,67.5 Z"/></g>
<g><path style="opacity:1" fill="#a8a7a7" d="M 63.5,29.5 C 64.4916,29.3284 65.1583,29.6618 65.5,30.5C 64.5233,33.2869 64.19,36.2869 64.5,39.5C 63.0047,39.5852 62.0047,38.9185 61.5,37.5C 62.5443,35.2324 62.711,32.8991 62,30.5C 60.8372,32.2852 60.1705,34.2852 60,36.5C 59.8019,34.6183 59.3019,32.9516 58.5,31.5C 59.6354,29.7868 61.302,29.1201 63.5,29.5 Z"/></g>
<g><path style="opacity:1" fill="#393536" d="M 63.5,29.5 C 65.0348,28.2121 66.7015,28.2121 68.5,29.5C 67.675,30.3857 66.675,30.719 65.5,30.5C 65.1583,29.6618 64.4916,29.3284 63.5,29.5 Z"/></g>
<g><path style="opacity:1" fill="#daf2e5" d="M 8.5,65.5 C 7.59603,64.791 7.26269,63.791 7.5,62.5C 18.1457,51.1877 29.1457,40.1877 40.5,29.5C 52.0279,40.1942 63.0279,51.3609 73.5,63C 73.1501,64.2575 72.4835,64.5908 71.5,64C 61.9877,53.1544 51.821,42.9877 41,33.5C 29.6734,43.6599 18.8401,54.3265 8.5,65.5 Z"/></g>
<g><path style="opacity:1" fill="#433f40" d="M 64.5,39.5 C 66.1092,39.0941 67.4425,39.0941 68.5,39.5C 60.1803,43.1845 56.8469,40.5178 58.5,31.5C 59.3019,32.9516 59.8019,34.6183 60,36.5C 60.1705,34.2852 60.8372,32.2852 62,30.5C 62.711,32.8991 62.5443,35.2324 61.5,37.5C 62.0047,38.9185 63.0047,39.5852 64.5,39.5 Z"/></g>
<g><path style="opacity:1" fill="#ddf3e7" d="M 44.5,62.5 C 46.7103,57.249 45.0436,54.249 39.5,53.5C 42.066,51.0361 44.566,51.3695 47,54.5C 48.1657,57.9268 47.3324,60.5935 44.5,62.5 Z"/></g>
<g><path style="opacity:1" fill="#45ba78" d="M 39.5,53.5 C 45.0436,54.249 46.7103,57.249 44.5,62.5C 43.1825,62.821 41.8492,63.1543 40.5,63.5C 38.9623,63.5466 37.9623,62.8799 37.5,61.5C 38.1174,61.3893 38.6174,61.056 39,60.5C 39.4966,58.1902 39.6633,55.8568 39.5,53.5 Z"/></g>
<g><path style="opacity:1" fill="#dbf2e6" d="M 39.5,53.5 C 39.6633,55.8568 39.4966,58.1902 39,60.5C 38.6174,61.056 38.1174,61.3893 37.5,61.5C 37.7947,59.2646 37.4614,57.2646 36.5,55.5C 36.9731,54.0937 37.9731,53.427 39.5,53.5 Z"/></g>
<g><path style="opacity:1" fill="#3eb56e" d="M 36.5,55.5 C 37.4614,57.2646 37.7947,59.2646 37.5,61.5C 35.195,59.9555 34.8617,57.9555 36.5,55.5 Z"/></g>
<g><path style="opacity:1" fill="#dff4e9" d="M 36.5,55.5 C 34.8617,57.9555 35.195,59.9555 37.5,61.5C 37.9623,62.8799 38.9623,63.5466 40.5,63.5C 41.8492,63.1543 43.1825,62.821 44.5,62.5C 42.484,65.1438 39.8173,65.9772 36.5,65C 35.0203,63.7009 34.3536,62.0342 34.5,60C 34.3068,57.9919 34.9735,56.4919 36.5,55.5 Z"/></g>
</svg>
