<?xml version="1.0" encoding="UTF-8"?>
<!DOCTYPE svg PUBLIC "-//W3C//DTD SVG 1.1//EN" "http://www.w3.org/Graphics/SVG/1.1/DTD/svg11.dtd">
<svg xmlns="http://www.w3.org/2000/svg" version="1.1" width="203px" height="225px" style="shape-rendering:geometricPrecision; text-rendering:geometricPrecision; image-rendering:optimizeQuality; fill-rule:evenodd; clip-rule:evenodd" xmlns:xlink="http://www.w3.org/1999/xlink">
<g><path style="opacity:1" fill="#43b4e4" d="M 57.5,-0.5 C 58.1667,-0.5 58.8333,-0.5 59.5,-0.5C 87.1284,18.1634 114.795,18.1634 142.5,-0.5C 143.167,-0.5 143.833,-0.5 144.5,-0.5C 157.271,16.7719 172.271,31.9385 189.5,45C 193.734,48.0822 198.067,50.9155 202.5,53.5C 202.5,61.1667 202.5,68.8333 202.5,76.5C 198.518,137.327 170.851,183.827 119.5,216C 113.741,218.879 108.075,221.713 102.5,224.5C 101.5,224.5 100.5,224.5 99.5,224.5C 49,201.474 17.1667,162.808 4,108.5C 2.24923,99.0601 0.749227,89.7268 -0.5,80.5C -0.5,71.5 -0.5,62.5 -0.5,53.5C 11.8625,45.3066 23.5291,36.14 34.5,26C 42.7201,17.6156 50.3868,8.78222 57.5,-0.5 Z"/></g>
<g><path style="opacity:1" fill="#fdfefe" d="M 59.5,6.5 C 86.9681,23.778 114.468,23.778 142,6.5C 157.743,25.6873 175.743,42.354 196,56.5C 198.839,111.679 180.006,157.845 139.5,195C 127.901,204.722 115.068,212.556 101,218.5C 51.0955,195.756 20.4289,157.422 9,103.5C 5.87699,87.9679 4.87699,72.3012 6,56.5C 25.9433,42.0555 43.7766,25.3889 59.5,6.5 Z"/></g>
<g><path style="opacity:1" fill="#b2ddf2" d="M 69.5,19.5 C 68.5031,37.9925 68.1698,56.6592 68.5,75.5C 67.1723,56.6625 67.1723,37.6625 68.5,18.5C 69.1067,18.6236 69.44,18.9569 69.5,19.5 Z"/></g>
<g><path style="opacity:1" fill="#29afe3" d="M 69.5,19.5 C 75.8503,22.3938 82.517,24.0605 89.5,24.5C 89.5,41.5 89.5,58.5 89.5,75.5C 82.5,75.5 75.5,75.5 68.5,75.5C 68.1698,56.6592 68.5031,37.9925 69.5,19.5 Z"/></g>
<g><path style="opacity:1" fill="#2fb0e3" d="M 132.5,18.5 C 133.497,37.326 133.83,56.326 133.5,75.5C 126.167,75.5 118.833,75.5 111.5,75.5C 111.333,58.83 111.5,42.1633 112,25.5C 119.212,24.0409 126.046,21.7076 132.5,18.5 Z"/></g>
<g><path style="opacity:1" fill="#2eb0e3" d="M 155.5,31.5 C 162.795,37.6251 169.962,43.9584 177,50.5C 177.5,58.8267 177.666,67.16 177.5,75.5C 170.167,75.5 162.833,75.5 155.5,75.5C 155.5,60.8333 155.5,46.1667 155.5,31.5 Z"/></g>
<g><path style="opacity:1" fill="#2db0e3" d="M 45.5,31.5 C 46.496,45.9905 46.8293,60.6572 46.5,75.5C 39.1667,75.5 31.8333,75.5 24.5,75.5C 24.1686,66.8078 24.502,58.1411 25.5,49.5C 32.5108,43.8194 39.1774,37.8194 45.5,31.5 Z"/></g>
<g><path style="opacity:1" fill="#8f8f90" d="M 123.5,85.5 C 131.316,84.5076 139.316,84.1743 147.5,84.5C 147.795,86.7354 147.461,88.7354 146.5,90.5C 146.5,88.8333 146.5,87.1667 146.5,85.5C 138.833,85.5 131.167,85.5 123.5,85.5 Z"/></g>
<g><path style="opacity:1" fill="#39393b" d="M 62.5,84.5 C 66.8814,84.3718 71.2147,84.7051 75.5,85.5C 75.5,87.1667 75.5,88.8333 75.5,90.5C 63.5263,87.3084 59.0263,91.6417 62,103.5C 64.8263,105.34 67.9929,106.006 71.5,105.5C 71.5,103.833 71.5,102.167 71.5,100.5C 69.8333,100.5 68.1667,100.5 66.5,100.5C 66.5,98.8333 66.5,97.1667 66.5,95.5C 70.1667,95.5 73.8333,95.5 77.5,95.5C 77.5,100.5 77.5,105.5 77.5,110.5C 59.5803,115.299 52.4136,108.632 56,90.5C 57.4936,87.6865 59.6603,85.6865 62.5,84.5 Z"/></g>
<g><path style="opacity:1" fill="#3c3c3e" d="M 123.5,85.5 C 131.167,85.5 138.833,85.5 146.5,85.5C 146.5,87.1667 146.5,88.8333 146.5,90.5C 143.833,90.5 141.167,90.5 138.5,90.5C 138.5,97.5 138.5,104.5 138.5,111.5C 136.5,111.5 134.5,111.5 132.5,111.5C 132.5,104.5 132.5,97.5 132.5,90.5C 129.5,90.5 126.5,90.5 123.5,90.5C 123.5,88.8333 123.5,87.1667 123.5,85.5 Z"/></g>
<g><path style="opacity:1" fill="#3b3b3d" d="M 91.5,88.5 C 93.288,88.2148 94.9547,88.5481 96.5,89.5C 97.7567,91.6789 99.2567,93.6789 101,95.5C 102.5,93.3333 104,91.1667 105.5,89C 107.167,88.3333 108.833,88.3333 110.5,89C 105.198,93.7516 102.531,99.585 102.5,106.5C 101.167,106.5 99.8333,106.5 98.5,106.5C 98.6641,103.813 98.4974,101.146 98,98.5C 95.5633,95.2804 93.3967,91.947 91.5,88.5 Z"/></g>
<g><path style="opacity:1" fill="#a6a6a6" d="M 123.5,90.5 C 126.5,90.5 129.5,90.5 132.5,90.5C 132.5,97.5 132.5,104.5 132.5,111.5C 131.509,105.021 131.176,98.3543 131.5,91.5C 128.615,91.8064 125.948,91.4731 123.5,90.5 Z"/></g>
<g><path style="opacity:1" fill="#b3ddf3" d="M 89.5,120.5 C 90.8295,149.003 90.8295,177.669 89.5,206.5C 88.8933,206.376 88.56,206.043 88.5,205.5C 89.498,177.338 89.8313,149.005 89.5,120.5 Z"/></g>
<g><path style="opacity:1" fill="#32b1e3" d="M 24.5,119.5 C 31.8333,119.5 39.1667,119.5 46.5,119.5C 46.6666,136.17 46.4999,152.837 46,169.5C 37.4092,158.882 30.4092,147.215 25,134.5C 24.5007,129.511 24.3341,124.511 24.5,119.5 Z"/></g>
<g><path style="opacity:1" fill="#2cb0e3" d="M 89.5,120.5 C 89.8313,149.005 89.498,177.338 88.5,205.5C 81.5986,201.797 75.0986,197.464 69,192.5C 68.5,168.169 68.3334,143.836 68.5,119.5C 75.6866,119.175 82.6866,119.509 89.5,120.5 Z"/></g>
<g><path style="opacity:1" fill="#89cdec" d="M 133.5,120.5 C 126.5,120.5 119.5,120.5 112.5,120.5C 112.5,148.833 112.5,177.167 112.5,205.5C 111.502,177.005 111.169,148.338 111.5,119.5C 119.019,119.175 126.352,119.508 133.5,120.5 Z"/></g>
<g><path style="opacity:1" fill="#29afe2" d="M 133.5,120.5 C 133.667,144.169 133.5,167.836 133,191.5C 126.745,197.042 119.912,201.708 112.5,205.5C 112.5,177.167 112.5,148.833 112.5,120.5C 119.5,120.5 126.5,120.5 133.5,120.5 Z"/></g>
<g><path style="opacity:1" fill="#32b1e3" d="M 155.5,119.5 C 162.833,119.5 170.167,119.5 177.5,119.5C 177.666,124.179 177.499,128.845 177,133.5C 171.258,145.995 164.258,157.662 156,168.5C 155.5,152.17 155.333,135.837 155.5,119.5 Z"/></g>
</svg>
