<?xml version="1.0" encoding="UTF-8"?>
<!DOCTYPE svg PUBLIC "-//W3C//DTD SVG 1.1//EN" "http://www.w3.org/Graphics/SVG/1.1/DTD/svg11.dtd">
<svg xmlns="http://www.w3.org/2000/svg" version="1.1" width="80px" height="80px" style="shape-rendering:geometricPrecision; text-rendering:geometricPrecision; image-rendering:optimizeQuality; fill-rule:evenodd; clip-rule:evenodd" xmlns:xlink="http://www.w3.org/1999/xlink">
<g><path style="opacity:0.101" fill="#c7c6c6" d="M 72.5,15.5 C 72.5,11.1667 72.5,6.83333 72.5,2.5C 51.1667,2.5 29.8333,2.5 8.5,2.5C 8.5,6.83333 8.5,11.1667 8.5,15.5C 7.51388,11.03 7.18054,6.36329 7.5,1.5C 29.5,1.5 51.5,1.5 73.5,1.5C 73.8195,6.36329 73.4861,11.03 72.5,15.5 Z"/></g>
<g><path style="opacity:1" fill="#282525" d="M 72.5,15.5 C 72.8307,42.2607 62.4973,63.594 41.5,79.5C 40.8333,79.5 40.1667,79.5 39.5,79.5C 18.5027,63.594 8.16934,42.2607 8.5,15.5C 8.5,11.1667 8.5,6.83333 8.5,2.5C 29.8333,2.5 51.1667,2.5 72.5,2.5C 72.5,6.83333 72.5,11.1667 72.5,15.5 Z"/></g>
<g><path style="opacity:1" fill="#797677" d="M 70.5,17.5 C 70.5,17.1667 70.5,16.8333 70.5,16.5C 70.5,12.5 70.5,8.5 70.5,4.5C 50.5,4.5 30.5,4.5 10.5,4.5C 10.5,8.5 10.5,12.5 10.5,16.5C 10.5,16.8333 10.5,17.1667 10.5,17.5C 9.51388,13.03 9.18054,8.36329 9.5,3.5C 30.1667,3.5 50.8333,3.5 71.5,3.5C 71.8195,8.36329 71.4861,13.03 70.5,17.5 Z"/></g>
<g><path style="opacity:1" fill="#cccbcb" d="M 25.5,14.5 C 25.5,15.1667 25.8333,15.5 26.5,15.5C 40.9905,16.496 55.6572,16.8293 70.5,16.5C 70.5,16.8333 70.5,17.1667 70.5,17.5C 50.5,17.5 30.5,17.5 10.5,17.5C 10.5,17.1667 10.5,16.8333 10.5,16.5C 15.807,17.0265 20.807,16.3598 25.5,14.5 Z"/></g>
<g><path style="opacity:1" fill="#f7f7f7" d="M 70.5,16.5 C 55.6572,16.8293 40.9905,16.496 26.5,15.5C 27.905,13.7749 28.405,11.7749 28,9.5C 26.8403,11.797 25.8403,11.4637 25,8.5C 24.4644,10.5672 24.9644,12.4006 26.5,14C 26.2716,14.3988 25.9382,14.5654 25.5,14.5C 20.807,16.3598 15.807,17.0265 10.5,16.5C 10.5,12.5 10.5,8.5 10.5,4.5C 30.5,4.5 50.5,4.5 70.5,4.5C 70.5,8.5 70.5,12.5 70.5,16.5 Z"/></g>
<g><path style="opacity:1" fill="#716e6f" d="M 26.5,15.5 C 25.8333,15.5 25.5,15.1667 25.5,14.5C 25.9382,14.5654 26.2716,14.3988 26.5,14C 24.9644,12.4006 24.4644,10.5672 25,8.5C 25.8403,11.4637 26.8403,11.797 28,9.5C 28.405,11.7749 27.905,13.7749 26.5,15.5 Z"/></g>
<g><path style="opacity:1" fill="#797778" d="M 13.5,6.5 C 15.5273,6.33788 17.5273,6.50454 19.5,7C 20.6956,7.65431 20.6956,8.15431 19.5,8.5C 17.9291,7.69063 16.2624,7.35729 14.5,7.5C 14.5,9.16667 14.5,10.8333 14.5,12.5C 15.8734,12.6567 17.2068,12.49 18.5,12C 16.3553,11.2569 16.1886,10.4235 18,9.5C 19.9457,9.76275 20.6123,10.7627 20,12.5C 17.9592,13.4231 15.7925,13.7564 13.5,13.5C 13.5,11.1667 13.5,8.83333 13.5,6.5 Z"/></g>
<g><path style="opacity:1" fill="#888586" d="M 53.5,6.5 C 58.4837,6.65852 63.4837,6.65852 68.5,6.5C 68.5,8.83333 68.5,11.1667 68.5,13.5C 63.4631,13.5179 58.4631,13.3512 53.5,13C 54.5,12.6667 55.5,12.3333 56.5,12C 52.7496,11.5576 51.7496,9.72427 53.5,6.5 Z"/></g>
<g><path style="opacity:1" fill="#f1f1f1" d="M 64.5,10.5 C 65.675,10.281 66.675,10.6143 67.5,11.5C 65.9483,12.7979 64.9483,12.4646 64.5,10.5 Z"/></g>
<g><path style="opacity:1" fill="#5e5b5b" d="M 48.5,6.5 C 49.7251,7.1522 50.3917,8.31887 50.5,10C 50.3333,11.1667 50.1667,12.3333 50,13.5C 49.5604,11.1341 49.0604,8.80079 48.5,6.5 Z"/></g>
<g><path style="opacity:1" fill="#fefefe" d="M 59.5,7.5 C 60.6491,7.79106 61.3158,8.62439 61.5,10C 61.1667,10.8333 60.8333,11.6667 60.5,12.5C 59.5481,10.9547 59.2148,9.28801 59.5,7.5 Z"/></g>
<g><path style="opacity:1" fill="#696667" d="M 33.5,6.5 C 40.6258,6.3631 40.9592,7.02977 34.5,8.5C 35.7287,9.28107 37.062,9.78107 38.5,10C 33.1667,11 33.1667,12 38.5,13C 36.8659,13.4935 35.1992,13.6602 33.5,13.5C 33.5,11.1667 33.5,8.83333 33.5,6.5 Z"/></g>
<g><path style="opacity:1" fill="#a3a1a1" d="M 26.5,19.5 C 26.1667,19.5 25.8333,19.5 25.5,19.5C 22.5,19.5 19.5,19.5 16.5,19.5C 16.5,28.1667 16.5,36.8333 16.5,45.5C 15.5067,36.6822 15.1734,27.6822 15.5,18.5C 19.3714,18.185 23.0381,18.5184 26.5,19.5 Z"/></g>
<g><path style="opacity:1" fill="#fdfdfd" d="M 25.5,19.5 C 25.8291,33.6766 25.4958,47.6766 24.5,61.5C 20.7812,56.7292 18.1146,51.3958 16.5,45.5C 16.5,36.8333 16.5,28.1667 16.5,19.5C 19.5,19.5 22.5,19.5 25.5,19.5 Z"/></g>
<g><path style="opacity:1" fill="#e1e1e1" d="M 25.5,19.5 C 25.8333,19.5 26.1667,19.5 26.5,19.5C 26.6666,34.1705 26.4999,48.8371 26,63.5C 25.2828,62.9558 24.7828,62.2891 24.5,61.5C 25.4958,47.6766 25.8291,33.6766 25.5,19.5 Z"/></g>
<g><path style="opacity:1" fill="#fefefe" d="M 35.5,19.5 C 38.8333,19.5 42.1667,19.5 45.5,19.5C 45.6666,37.5031 45.4999,55.5031 45,73.5C 42,77.5 39,77.5 36,73.5C 35.5001,55.5031 35.3334,37.5031 35.5,19.5 Z"/></g>
<g><path style="opacity:1" fill="#e1e1e1" d="M 54.5,19.5 C 54.8333,19.5 55.1667,19.5 55.5,19.5C 55.1709,33.6766 55.5042,47.6766 56.5,61.5C 56.2172,62.2891 55.7172,62.9558 55,63.5C 54.5001,48.8371 54.3334,34.1705 54.5,19.5 Z"/></g>
<g><path style="opacity:1" fill="#fdfdfd" d="M 55.5,19.5 C 58.5,19.5 61.5,19.5 64.5,19.5C 64.5,28.1667 64.5,36.8333 64.5,45.5C 62.8854,51.3958 60.2188,56.7292 56.5,61.5C 55.5042,47.6766 55.1709,33.6766 55.5,19.5 Z"/></g>
<g><path style="opacity:1" fill="#a3a1a1" d="M 54.5,19.5 C 57.9619,18.5184 61.6286,18.185 65.5,18.5C 65.8266,27.6822 65.4933,36.6822 64.5,45.5C 64.5,36.8333 64.5,28.1667 64.5,19.5C 61.5,19.5 58.5,19.5 55.5,19.5C 55.1667,19.5 54.8333,19.5 54.5,19.5 Z"/></g>
</svg>
