<?xml version="1.0" encoding="UTF-8"?>
<!DOCTYPE svg PUBLIC "-//W3C//DTD SVG 1.1//EN" "http://www.w3.org/Graphics/SVG/1.1/DTD/svg11.dtd">
<svg xmlns="http://www.w3.org/2000/svg" version="1.1" width="80px" height="80px" style="shape-rendering:geometricPrecision; text-rendering:geometricPrecision; image-rendering:optimizeQuality; fill-rule:evenodd; clip-rule:evenodd" xmlns:xlink="http://www.w3.org/1999/xlink">
<g><path style="opacity:0.85" fill="#242327" d="M 23.5,1.5 C 28.5285,5.17471 34.1952,7.50804 40.5,8.5C 46.5478,7.70961 51.8811,5.37628 56.5,1.5C 61.1138,3.79365 65.1138,6.79365 68.5,10.5C 67.1066,14.5735 66.1066,18.7402 65.5,23C 67.2357,29.3075 69.4023,35.4742 72,41.5C 72.8014,55.6994 66.6347,65.5327 53.5,71C 48.0598,71.7421 43.7264,74.2421 40.5,78.5C 37.2736,74.2421 32.9402,71.7421 27.5,71C 14.3653,65.5327 8.19862,55.6994 9,41.5C 11.5977,35.4742 13.7643,29.3075 15.5,23C 14.8934,18.7402 13.8934,14.5735 12.5,10.5C 15.8706,7.12852 19.5373,4.12852 23.5,1.5 Z"/></g>
<g><path style="opacity:1" fill="#299ad7" d="M 52.5,27.5 C 53.7079,28.2341 55.0413,28.5674 56.5,28.5C 58.8333,28.5 61.1667,28.5 63.5,28.5C 67.9947,35.0913 69.6614,42.4246 68.5,50.5C 62.8333,50.5 57.1667,50.5 51.5,50.5C 52.8284,49.4928 53.8284,48.1595 54.5,46.5C 49.2079,45.5052 43.8746,45.1718 38.5,45.5C 38.5,46.5 38.5,47.5 38.5,48.5C 41.5184,48.3354 44.5184,48.502 47.5,49C 42.7877,52.4959 38.4544,51.9959 34.5,47.5C 31.1066,40.8457 32.1066,35.0124 37.5,30C 39.1667,29.8333 40.8333,29.6667 42.5,29.5C 46.1865,29.5644 49.5198,30.5644 52.5,32.5C 52.5674,31.0413 52.2341,29.7079 51.5,28.5C 52.1667,28.5 52.5,28.1667 52.5,27.5 Z"/></g>
<g><path style="opacity:1" fill="#2b9edc" d="M 17.5,28.5 C 20.8333,28.5 24.1667,28.5 27.5,28.5C 23.8574,35.5767 23.524,42.9101 26.5,50.5C 21.8333,50.5 17.1667,50.5 12.5,50.5C 11.3407,42.4617 13.0074,35.1284 17.5,28.5 Z"/></g>
<g><path style="opacity:1" fill="#12181e" d="M 51.5,28.5 C 52.2341,29.7079 52.5674,31.0413 52.5,32.5C 49.5198,30.5644 46.1865,29.5644 42.5,29.5C 40.8333,29.6667 39.1667,29.8333 37.5,30C 32.1066,35.0124 31.1066,40.8457 34.5,47.5C 38.4544,51.9959 42.7877,52.4959 47.5,49C 44.5184,48.502 41.5184,48.3354 38.5,48.5C 38.5,47.5 38.5,46.5 38.5,45.5C 43.8746,45.1718 49.2079,45.5052 54.5,46.5C 53.8284,48.1595 52.8284,49.4928 51.5,50.5C 45.433,54.4396 39.433,54.4396 33.5,50.5C 27.8727,42.8661 28.206,35.5327 34.5,28.5C 40.0749,25.9619 45.7416,25.9619 51.5,28.5 Z"/></g>
<g><path style="opacity:1" fill="#171a1c" d="M 56.5,28.5 C 55.0413,28.5674 53.7079,28.2341 52.5,27.5C 45.4038,21.8491 38.7372,22.1824 32.5,28.5C 28.9672,31.2374 27.3005,34.9041 27.5,39.5C 27.2803,43.8507 28.6137,47.5173 31.5,50.5C 34.186,54.1627 37.8526,56.1627 42.5,56.5C 47.1545,54.8572 51.8212,53.1906 56.5,51.5C 56.4894,53.0174 55.8228,54.1841 54.5,55C 44.306,61.8528 35.306,60.6862 27.5,51.5C 27.5,50.8333 27.1667,50.5 26.5,50.5C 23.524,42.9101 23.8574,35.5767 27.5,28.5C 37.2968,17.8566 46.9634,17.8566 56.5,28.5 Z"/></g>
<g><path style="opacity:1" fill="#f9f9f9" d="M 63.5,28.5 C 61.1667,28.5 58.8333,28.5 56.5,28.5C 46.9634,17.8566 37.2968,17.8566 27.5,28.5C 24.1667,28.5 20.8333,28.5 17.5,28.5C 17.3554,22.1384 17.1887,15.805 17,9.5C 19.3333,7.83333 21.6667,6.16667 24,4.5C 34.9546,12.3748 45.9546,12.3748 57,4.5C 60.1345,6.31225 62.9678,8.47891 65.5,11C 63.7412,16.6878 63.0745,22.5211 63.5,28.5 Z"/></g>
<g><path style="opacity:1" fill="#d5d5d6" d="M 52.5,27.5 C 52.5,28.1667 52.1667,28.5 51.5,28.5C 45.7416,25.9619 40.0749,25.9619 34.5,28.5C 33.8333,28.5 33.1667,28.5 32.5,28.5C 38.7372,22.1824 45.4038,21.8491 52.5,27.5 Z"/></g>
<g><path style="opacity:1" fill="#070a0e" d="M 54.5,39.5 C 38.6961,40.6355 38.6961,41.3022 54.5,41.5C 54.5,42.5 54.5,43.5 54.5,44.5C 49.1667,44.5 43.8333,44.5 38.5,44.5C 38.5,41.1667 38.5,37.8333 38.5,34.5C 43.8333,34.5 49.1667,34.5 54.5,34.5C 54.5,35.5 54.5,36.5 54.5,37.5C 50.4862,37.3345 46.4862,37.5012 42.5,38C 46.6877,38.1762 50.6877,38.6762 54.5,39.5 Z"/></g>
<g><path style="opacity:1" fill="#12445f" d="M 54.5,39.5 C 54.5,40.1667 54.5,40.8333 54.5,41.5C 38.6961,41.3022 38.6961,40.6355 54.5,39.5 Z"/></g>
<g><path style="opacity:1" fill="#248bc3" d="M 32.5,28.5 C 33.1667,28.5 33.8333,28.5 34.5,28.5C 28.206,35.5327 27.8727,42.8661 33.5,50.5C 32.8333,50.5 32.1667,50.5 31.5,50.5C 28.6137,47.5173 27.2803,43.8507 27.5,39.5C 27.3005,34.9041 28.9672,31.2374 32.5,28.5 Z"/></g>
<g><path style="opacity:1" fill="#a6d4ec" d="M 12.5,50.5 C 17.1667,50.5 21.8333,50.5 26.5,50.5C 27.1667,50.5 27.5,50.8333 27.5,51.5C 22.6367,51.1805 17.97,51.5139 13.5,52.5C 12.6618,52.1583 12.3284,51.4916 12.5,50.5 Z"/></g>
<g><path style="opacity:1" fill="#f9f9f9" d="M 27.5,51.5 C 35.306,60.6862 44.306,61.8528 54.5,55C 55.8228,54.1841 56.4894,53.0174 56.5,51.5C 60.3714,51.185 64.0381,51.5184 67.5,52.5C 65.9626,57.06 63.2959,60.8933 59.5,64C 53.3833,67.0345 47.2166,69.8678 41,72.5C 31.673,70.5051 23.673,66.1717 17,59.5C 15.295,57.4234 14.1283,55.09 13.5,52.5C 17.97,51.5139 22.6367,51.1805 27.5,51.5 Z"/></g>
<g><path style="opacity:1" fill="#cfd9df" d="M 31.5,50.5 C 32.1667,50.5 32.8333,50.5 33.5,50.5C 39.433,54.4396 45.433,54.4396 51.5,50.5C 57.1667,50.5 62.8333,50.5 68.5,50.5C 68.6716,51.4916 68.3382,52.1583 67.5,52.5C 64.0381,51.5184 60.3714,51.185 56.5,51.5C 51.8212,53.1906 47.1545,54.8572 42.5,56.5C 37.8526,56.1627 34.186,54.1627 31.5,50.5 Z"/></g>
</svg>
