<?xml version="1.0" encoding="UTF-8"?>
<!DOCTYPE svg PUBLIC "-//W3C//DTD SVG 1.1//EN" "http://www.w3.org/Graphics/SVG/1.1/DTD/svg11.dtd">
<svg xmlns="http://www.w3.org/2000/svg" version="1.1" width="80px" height="80px" style="shape-rendering:geometricPrecision; text-rendering:geometricPrecision; image-rendering:optimizeQuality; fill-rule:evenodd; clip-rule:evenodd" xmlns:xlink="http://www.w3.org/1999/xlink">
<g><path style="opacity:0.89" fill="#f82119" d="M 4.5,4.5 C 9.64789,9.05913 15.6479,10.5591 22.5,9C 27.8071,5.44836 33.8071,3.94836 40.5,4.5C 44.8333,4.66667 49.1667,4.83333 53.5,5C 58.7378,9.79771 64.7378,10.7977 71.5,8C 73.0905,6.95416 74.5905,5.78749 76,4.5C 79.9443,21.631 78.2776,38.2977 71,54.5C 53.6447,81.1882 34.3114,82.8548 13,59.5C 3.43096,42.2144 0.597625,23.881 4.5,4.5 Z"/></g>
<g><path style="opacity:1" fill="#1c3194" d="M 28.5,7.5 C 36.5069,7.33362 44.5069,7.50029 52.5,8C 55.4818,11.1571 59.1485,12.6571 63.5,12.5C 67.6605,12.083 71.6605,11.083 75.5,9.5C 75.5,15.5 75.5,21.5 75.5,27.5C 52.1667,27.5 28.8333,27.5 5.5,27.5C 5.5,21.5 5.5,15.5 5.5,9.5C 9.07713,10.7861 12.7438,11.7861 16.5,12.5C 19.2263,12.3184 21.8929,11.8184 24.5,11C 26.3237,10.34 27.657,9.17335 28.5,7.5 Z"/></g>
<g><path style="opacity:1" fill="#ffedec" d="M 14.5,30.5 C 17.6852,30.0196 20.5185,30.6863 23,32.5C 23.5908,33.4835 23.2575,34.1501 22,34.5C 16.6316,32.2038 14.6316,33.8705 16,39.5C 16.5613,40.0219 17.228,40.3552 18,40.5C 19.3333,39.8333 20.6667,39.1667 22,38.5C 23.726,39.6479 23.5593,40.8145 21.5,42C 11.4151,42.7604 9.08175,38.9271 14.5,30.5 Z"/></g>
<g><path style="opacity:1" fill="#fff0f0" d="M 34.5,30.5 C 36.4672,30.2606 38.3005,30.5939 40,31.5C 41.6738,35.0207 42.8404,38.6873 43.5,42.5C 41.3254,42.3178 39.3254,41.6511 37.5,40.5C 35.6746,41.6511 33.6746,42.3178 31.5,42.5C 32.4881,38.5152 33.4881,34.5152 34.5,30.5 Z"/></g>
<g><path style="opacity:1" fill="#ffeceb" d="M 53.5,30.5 C 56.4475,30.2229 59.2809,30.5562 62,31.5C 62.4317,32.6001 61.9317,33.2668 60.5,33.5C 55.547,32.2904 53.7137,34.2904 55,39.5C 56.9645,40.885 58.7979,40.7184 60.5,39C 59.552,38.5172 58.552,38.3505 57.5,38.5C 57.5,37.5 57.5,36.5 57.5,35.5C 59.5,35.5 61.5,35.5 63.5,35.5C 63.7989,37.604 63.4656,39.604 62.5,41.5C 59.562,42.5748 56.562,42.7415 53.5,42C 49.5548,38.1694 49.5548,34.3361 53.5,30.5 Z"/></g>
<g><path style="opacity:1" fill="#ff463e" d="M 36.5,34.5 C 38.4759,35.4271 38.8092,36.7605 37.5,38.5C 36.5713,37.3112 36.238,35.9778 36.5,34.5 Z"/></g>
<g><path style="opacity:1" fill="#ffe8e8" d="M 25.5,39.5 C 26.8333,39.5 28.1667,39.5 29.5,39.5C 29.5,40.5 29.5,41.5 29.5,42.5C 28.1667,42.5 26.8333,42.5 25.5,42.5C 25.5,41.5 25.5,40.5 25.5,39.5 Z"/></g>
<g><path style="opacity:1" fill="#fffdfd" d="M 45.5,39.5 C 46.5,39.5 47.5,39.5 48.5,39.5C 48.5,40.5 48.5,41.5 48.5,42.5C 47.5,42.5 46.5,42.5 45.5,42.5C 45.5,41.5 45.5,40.5 45.5,39.5 Z"/></g>
<g><path style="opacity:1" fill="#ffe8e8" d="M 65.5,39.5 C 66.8333,39.5 68.1667,39.5 69.5,39.5C 69.5,40.5 69.5,41.5 69.5,42.5C 68.1667,42.5 66.8333,42.5 65.5,42.5C 65.5,41.5 65.5,40.5 65.5,39.5 Z"/></g>
<g><path style="opacity:1" fill="#113296" d="M 9.5,47.5 C 29.9959,46.3374 50.6626,46.1707 71.5,47C 65.8565,61.5761 55.3565,70.4095 40,73.5C 25.2593,70.0667 15.0927,61.4 9.5,47.5 Z"/></g>
</svg>
