<?xml version="1.0" encoding="UTF-8"?>
<!DOCTYPE svg PUBLIC "-//W3C//DTD SVG 1.1//EN" "http://www.w3.org/Graphics/SVG/1.1/DTD/svg11.dtd">
<svg xmlns="http://www.w3.org/2000/svg" version="1.1" width="80px" height="80px" style="shape-rendering:geometricPrecision; text-rendering:geometricPrecision; image-rendering:optimizeQuality; fill-rule:evenodd; clip-rule:evenodd" xmlns:xlink="http://www.w3.org/1999/xlink">
<g><path style="opacity:0.192" fill="#9086b1" d="M 61.5,16.5 C 60.5768,17.3029 59.5768,17.4696 58.5,17C 61.1924,14.3676 60.859,12.0342 57.5,10C 55.3901,10.3466 53.3901,10.1799 51.5,9.5C 57.1326,6.00046 60.7993,7.50046 62.5,14C 62.472,15.0698 62.1386,15.9032 61.5,16.5 Z"/></g>
<g><path style="opacity:0.696" fill="#564788" d="M 51.5,9.5 C 53.3901,10.1799 55.3901,10.3466 57.5,10C 60.859,12.0342 61.1924,14.3676 58.5,17C 59.5768,17.4696 60.5768,17.3029 61.5,16.5C 62.5346,20.7391 63.2012,25.0725 63.5,29.5C 61.5328,29.7394 59.6995,29.4061 58,28.5C 57.5045,30.4727 57.3379,32.4727 57.5,34.5C 56.9068,29.7623 56.5735,25.2623 56.5,21C 58.9316,19.9125 58.5983,19.4125 55.5,19.5C 46.3483,18.5064 37.015,18.1731 27.5,18.5C 27.5,25.1667 27.5,31.8333 27.5,38.5C 26.5,38.8333 25.8333,39.5 25.5,40.5C 24.5188,42.3092 23.0188,43.6426 21,44.5C 20.5983,45.8721 20.0983,47.2054 19.5,48.5C 20.2624,48.9106 21.2624,49.0773 22.5,49C 21.8829,52.5013 22.2162,56.0013 23.5,59.5C 21.8881,61.9631 22.3881,63.9631 25,65.5C 25.2321,64.2625 25.7321,63.2625 26.5,62.5C 26.8462,66.667 29.1795,68.5003 33.5,68C 32.2617,68.69 32.2617,69.19 33.5,69.5C 35.1667,70.8333 36.8333,72.1667 38.5,73.5C 34.1434,73.4135 29.81,73.0802 25.5,72.5C 25.6495,71.448 25.4828,70.448 25,69.5C 17.7681,63.4993 15.4347,55.8326 18,46.5C 19.2515,44.9991 20.2515,43.3325 21,41.5C 22.9552,40.5467 24.6218,39.2134 26,37.5C 26.4996,30.5079 26.6663,23.5079 26.5,16.5C 33.9296,16.6539 41.2629,15.9872 48.5,14.5C 47.9162,11.715 48.9162,10.0483 51.5,9.5 Z"/></g>
<g><path style="opacity:1" fill="#dedbe6" d="M 53.5,15.5 C 55.9828,15.73 56.4828,16.3966 55,17.5C 53.9701,17.1639 53.4701,16.4972 53.5,15.5 Z"/></g>
<g><path style="opacity:1" fill="#a7a0bf" d="M 60.5,24.5 C 61.7125,25.4971 61.5458,26.4971 60,27.5C 59.5304,26.4232 59.6971,25.4232 60.5,24.5 Z"/></g>
<g><path style="opacity:1" fill="#978eb5" d="M 53.5,55.5 C 53.6664,46.8269 53.4998,38.1603 53,29.5C 47.7252,38.4002 42.2252,47.0669 36.5,55.5C 36.1667,55.5 35.8333,55.5 35.5,55.5C 34.8333,56.1667 34.1667,56.8333 33.5,57.5C 31.597,57.2041 29.9303,56.5375 28.5,55.5C 28.3625,43.808 28.6958,32.1414 29.5,20.5C 29.3336,28.84 29.5003,37.1733 30,45.5C 34.9416,37.265 40.1083,29.265 45.5,21.5C 48.1842,19.4579 51.1842,19.1246 54.5,20.5C 54.6434,32.2495 54.3101,43.9162 53.5,55.5 Z"/></g>
<g><path style="opacity:1" fill="#887fa9" d="M 55.5,19.5 C 58.5983,19.4125 58.9316,19.9125 56.5,21C 56.5735,25.2623 56.9068,29.7623 57.5,34.5C 57.5,37.1667 57.5,39.8333 57.5,42.5C 56.8333,40.5 56.1667,38.5 55.5,36.5C 55.5,30.8333 55.5,25.1667 55.5,19.5 Z"/></g>
<g><path style="opacity:1" fill="#d6d3e0" d="M 25.5,40.5 C 25.988,43.7107 25.3213,46.544 23.5,49C 24.8198,52.6013 24.8198,56.1013 23.5,59.5C 22.2162,56.0013 21.8829,52.5013 22.5,49C 21.2624,49.0773 20.2624,48.9106 19.5,48.5C 20.0983,47.2054 20.5983,45.8721 21,44.5C 23.0188,43.6426 24.5188,42.3092 25.5,40.5 Z"/></g>
<g><path style="opacity:1" fill="#e0dee8" d="M 55.5,19.5 C 55.5,25.1667 55.5,30.8333 55.5,36.5C 55.6663,43.175 55.4996,49.8417 55,56.5C 50.3019,58.0486 45.4686,59.0486 40.5,59.5C 38.0347,59.233 35.7014,58.5664 33.5,57.5C 34.1667,56.8333 34.8333,56.1667 35.5,55.5C 35.8333,55.5 36.1667,55.5 36.5,55.5C 37.3155,57.3023 38.8155,58.3023 41,58.5C 45.07,57.0531 49.2367,56.0531 53.5,55.5C 54.3101,43.9162 54.6434,32.2495 54.5,20.5C 51.1842,19.1246 48.1842,19.4579 45.5,21.5C 40.3595,20.5119 35.0262,20.1786 29.5,20.5C 28.6958,32.1414 28.3625,43.808 28.5,55.5C 27.5111,50.0247 27.1778,44.358 27.5,38.5C 27.5,31.8333 27.5,25.1667 27.5,18.5C 37.015,18.1731 46.3483,18.5064 55.5,19.5 Z"/></g>
<g><path style="opacity:1" fill="#f3f3f5" d="M 32.5,45.5 C 32.2155,47.4147 32.5489,49.0813 33.5,50.5C 34.3984,51.1577 35.3984,51.8243 36.5,52.5C 35.8728,53.4168 35.5394,54.4168 35.5,55.5C 33.5648,54.8505 31.5648,54.5172 29.5,54.5C 29.1324,50.9557 30.1324,47.9557 32.5,45.5 Z"/></g>
<g><path style="opacity:1" fill="#4c3c84" d="M 33.5,44.5 C 34.2389,44.369 34.9056,44.5357 35.5,45C 32.9211,46.6117 32.9211,48.1117 35.5,49.5C 36.1667,48.5 36.8333,47.5 37.5,46.5C 38.2975,46.9569 38.6309,47.6236 38.5,48.5C 37.2209,49.968 35.5542,50.6347 33.5,50.5C 32.5489,49.0813 32.2155,47.4147 32.5,45.5C 33.1667,45.5 33.5,45.1667 33.5,44.5 Z"/></g>
<g><path style="opacity:1" fill="#534287" d="M 38.5,36.5 C 40.604,36.2011 42.604,36.5344 44.5,37.5C 42.8409,38.8168 41.6743,40.4835 41,42.5C 39.9054,41.3066 39.072,39.9733 38.5,38.5C 38.5,37.8333 38.5,37.1667 38.5,36.5 Z"/></g>
<g><path style="opacity:1" fill="#efedf2" d="M 43.5,30.5 C 44.2905,31.4013 45.2905,32.0679 46.5,32.5C 46.8039,33.1499 47.1373,33.8165 47.5,34.5C 44.9744,39.5713 41.9744,44.238 38.5,48.5C 38.6309,47.6236 38.2975,46.9569 37.5,46.5C 36.8333,47.5 36.1667,48.5 35.5,49.5C 32.9211,48.1117 32.9211,46.6117 35.5,45C 34.9056,44.5357 34.2389,44.369 33.5,44.5C 34.2471,41.6385 35.9138,39.6385 38.5,38.5C 39.072,39.9733 39.9054,41.3066 41,42.5C 41.6743,40.4835 42.8409,38.8168 44.5,37.5C 42.604,36.5344 40.604,36.2011 38.5,36.5C 39.2471,33.6385 40.9138,31.6385 43.5,30.5 Z"/></g>
<g><path style="opacity:1" fill="#46357f" d="M 46.5,26.5 C 47.7095,26.9321 48.7095,27.5987 49.5,28.5C 49.6716,29.4916 49.3382,30.1583 48.5,30.5C 48.5,31.8333 47.8333,32.5 46.5,32.5C 45.2905,32.0679 44.2905,31.4013 43.5,30.5C 43.5544,28.368 44.5544,27.0347 46.5,26.5 Z"/></g>
<g><path style="opacity:1" fill="#2b1870" d="M 53.5,55.5 C 49.2367,56.0531 45.07,57.0531 41,58.5C 38.8155,58.3023 37.3155,57.3023 36.5,55.5C 42.2252,47.0669 47.7252,38.4002 53,29.5C 53.4998,38.1603 53.6664,46.8269 53.5,55.5 Z"/></g>
<g><path style="opacity:1" fill="#bbb6cd" d="M 48.5,30.5 C 46.1081,31.3678 45.9414,30.7012 48,28.5C 48.4643,29.0944 48.631,29.7611 48.5,30.5 Z"/></g>
<g><path style="opacity:1" fill="#f9f8f9" d="M 49.5,28.5 C 48.7095,27.5987 47.7095,26.9321 46.5,26.5C 45.119,24.7259 45.4523,23.2259 47.5,22C 49.4727,21.5045 51.4727,21.3379 53.5,21.5C 53.9236,25.0017 52.5902,27.335 49.5,28.5 Z"/></g>
<g><path style="opacity:1" fill="#2b1870" d="M 29.5,20.5 C 35.0262,20.1786 40.3595,20.5119 45.5,21.5C 40.1083,29.265 34.9416,37.265 30,45.5C 29.5003,37.1733 29.3336,28.84 29.5,20.5 Z"/></g>
<g><path style="opacity:1" fill="#edecf1" d="M 42.5,62.5 C 42.56,61.9569 42.8933,61.6236 43.5,61.5C 44.6951,63.297 46.3618,64.297 48.5,64.5C 49.1667,64.5 49.5,64.8333 49.5,65.5C 48.3998,66.5585 47.0664,67.3918 45.5,68C 41.4155,68.2332 37.4155,68.7332 33.5,69.5C 32.2617,69.19 32.2617,68.69 33.5,68C 29.1795,68.5003 26.8462,66.667 26.5,62.5C 26.5323,60.4334 27.5323,59.1001 29.5,58.5C 32.8132,60.1638 35.8132,62.3304 38.5,65C 40.2588,65.7975 41.9255,65.6309 43.5,64.5C 43.1373,63.8165 42.8039,63.1499 42.5,62.5 Z"/></g>
<g><path style="opacity:1" fill="#43327d" d="M 27.5,38.5 C 27.1778,44.358 27.5111,50.0247 28.5,55.5C 29.9303,56.5375 31.597,57.2041 33.5,57.5C 35.7014,58.5664 38.0347,59.233 40.5,59.5C 40.9321,60.7095 41.5987,61.7095 42.5,62.5C 42.8039,63.1499 43.1373,63.8165 43.5,64.5C 41.9255,65.6309 40.2588,65.7975 38.5,65C 35.8132,62.3304 32.8132,60.1638 29.5,58.5C 27.5323,59.1001 26.5323,60.4334 26.5,62.5C 25.7321,63.2625 25.2321,64.2625 25,65.5C 22.3881,63.9631 21.8881,61.9631 23.5,59.5C 24.8198,56.1013 24.8198,52.6013 23.5,49C 25.3213,46.544 25.988,43.7107 25.5,40.5C 25.8333,39.5 26.5,38.8333 27.5,38.5 Z"/></g>
<g><path style="opacity:1" fill="#aba4c2" d="M 49.5,65.5 C 49.5,64.8333 49.1667,64.5 48.5,64.5C 48.0472,63.5416 47.3805,62.7083 46.5,62C 48.3008,61.6827 48.6341,61.016 47.5,60C 50.1978,61.0013 52.6978,60.5013 55,58.5C 55.5444,62.0907 54.3777,65.0907 51.5,67.5C 50.8182,66.7573 50.1515,66.0906 49.5,65.5 Z"/></g>
<g><path style="opacity:0.961" fill="#655893" d="M 55.5,36.5 C 56.1667,38.5 56.8333,40.5 57.5,42.5C 58.1025,50.6848 57.2692,58.6848 55,66.5C 53.6598,67.8678 52.3264,69.2011 51,70.5C 50,69.8333 49,69.1667 48,68.5C 45.1841,70.8117 42.0175,72.4784 38.5,73.5C 36.8333,72.1667 35.1667,70.8333 33.5,69.5C 37.4155,68.7332 41.4155,68.2332 45.5,68C 47.0664,67.3918 48.3998,66.5585 49.5,65.5C 50.1515,66.0906 50.8182,66.7573 51.5,67.5C 54.3777,65.0907 55.5444,62.0907 55,58.5C 52.6978,60.5013 50.1978,61.0013 47.5,60C 48.6341,61.016 48.3008,61.6827 46.5,62C 47.3805,62.7083 48.0472,63.5416 48.5,64.5C 46.3618,64.297 44.6951,63.297 43.5,61.5C 42.8933,61.6236 42.56,61.9569 42.5,62.5C 41.5987,61.7095 40.9321,60.7095 40.5,59.5C 45.4686,59.0486 50.3019,58.0486 55,56.5C 55.4996,49.8417 55.6663,43.175 55.5,36.5 Z"/></g>
</svg>
