<?xml version="1.0" encoding="UTF-8"?>
<!DOCTYPE svg PUBLIC "-//W3C//DTD SVG 1.1//EN" "http://www.w3.org/Graphics/SVG/1.1/DTD/svg11.dtd">
<svg xmlns="http://www.w3.org/2000/svg" version="1.1" width="80px" height="80px" style="shape-rendering:geometricPrecision; text-rendering:geometricPrecision; image-rendering:optimizeQuality; fill-rule:evenodd; clip-rule:evenodd" xmlns:xlink="http://www.w3.org/1999/xlink">
<g><path style="opacity:0.418" fill="#989691" d="M 69.5,2.5 C 50.4971,2.33338 31.4971,2.50005 12.5,3C 11.8366,4.51845 10.8366,5.68512 9.5,6.5C 9.75115,4.82972 10.4178,3.32972 11.5,2C 31.0044,1.171 50.3377,1.33766 69.5,2.5 Z"/></g>
<g><path style="opacity:1" fill="#2a2210" d="M 69.5,2.5 C 69.1667,3.16667 68.8333,3.83333 68.5,4.5C 50.1667,4.5 31.8333,4.5 13.5,4.5C 11.3754,7.08781 10.0421,10.0878 9.5,13.5C 8.54885,12.0813 8.21552,10.4147 8.5,8.5C 8.32842,7.50838 8.66175,6.84171 9.5,6.5C 10.8366,5.68512 11.8366,4.51845 12.5,3C 31.4971,2.50005 50.4971,2.33338 69.5,2.5 Z"/></g>
<g><path style="opacity:1" fill="#fac702" d="M 13.5,4.5 C 31.8333,4.5 50.1667,4.5 68.5,4.5C 69.2326,6.96334 70.2326,9.29667 71.5,11.5C 71.2427,13.6924 70.2427,15.3591 68.5,16.5C 68.81,13.2869 68.4767,10.2869 67.5,7.5C 49.3101,7.16247 31.3101,6.16247 13.5,4.5 Z"/></g>
<g><path style="opacity:1" fill="#d0a709" d="M 13.5,4.5 C 31.3101,6.16247 49.3101,7.16247 67.5,7.5C 49.5,7.5 31.5,7.5 13.5,7.5C 13.5,10.1667 13.5,12.8333 13.5,15.5C 13.5,15.8333 13.5,16.1667 13.5,16.5C 13.1667,16.5 12.8333,16.5 12.5,16.5C 11.8333,16.5 11.5,16.1667 11.5,15.5C 11.1667,14.5 10.5,13.8333 9.5,13.5C 10.0421,10.0878 11.3754,7.08781 13.5,4.5 Z"/></g>
<g><path style="opacity:1" fill="#47443d" d="M 69.5,2.5 C 71.5272,5.38372 73.1938,8.55039 74.5,12C 70.0316,18.8126 68.365,26.3126 69.5,34.5C 68.612,29.1068 68.2787,23.7734 68.5,18.5C 68.5,17.8333 68.5,17.1667 68.5,16.5C 70.2427,15.3591 71.2427,13.6924 71.5,11.5C 70.2326,9.29667 69.2326,6.96334 68.5,4.5C 68.8333,3.83333 69.1667,3.16667 69.5,2.5 Z"/></g>
<g><path style="opacity:1" fill="#0a070a" d="M 67.5,7.5 C 67.5,10.1667 67.5,12.8333 67.5,15.5C 49.5,15.5 31.5,15.5 13.5,15.5C 13.5,12.8333 13.5,10.1667 13.5,7.5C 31.5,7.5 49.5,7.5 67.5,7.5 Z"/></g>
<g><path style="opacity:1" fill="#7c6307" d="M 23.5,13.5 C 20.6777,13.8553 17.8444,13.8553 15,13.5C 14.2797,11.8876 14.4464,10.3876 15.5,9C 17.4884,8.8195 19.4884,8.98617 21.5,9.5C 21.1568,11.4832 21.8235,12.8166 23.5,13.5 Z"/></g>
<g><path style="opacity:1" fill="#785f09" d="M 23.5,13.5 C 23.9417,8.30554 24.9417,8.30554 26.5,13.5C 27.2073,9.40598 29.3739,8.07264 33,9.5C 33.4935,11.1341 33.6602,12.8008 33.5,14.5C 30.0613,14.7471 26.728,14.4137 23.5,13.5 Z"/></g>
<g><path style="opacity:1" fill="#7a6108" d="M 49.5,8.5 C 55.3353,9.13508 61.0019,9.46841 66.5,9.5C 64.0087,10.5407 64.0087,11.3741 66.5,12C 63.8333,12.6667 63.8333,13.3333 66.5,14C 63.9369,14.9181 61.7702,14.4181 60,12.5C 59.6924,13.3081 59.1924,13.9747 58.5,14.5C 57.7189,13.2713 57.2189,11.938 57,10.5C 56,15.8333 55,15.8333 54,10.5C 53.51,11.7932 53.3433,13.1266 53.5,14.5C 51.4588,14.1459 49.6255,14.1459 48,14.5C 47.3333,11.8333 46.6667,11.8333 46,14.5C 45.2025,12.7412 45.3691,11.0745 46.5,9.5C 47.8813,11.9288 48.8813,11.5954 49.5,8.5 Z"/></g>
<g><path style="opacity:1" fill="#1e1809" d="M 15.5,10.5 C 19.7009,10.442 20.2009,11.442 17,13.5C 15.9614,12.7562 15.4614,11.7562 15.5,10.5 Z"/></g>
<g><path style="opacity:1" fill="#947506" d="M 37.5,9.5 C 39.2574,10.787 40.9241,12.287 42.5,14C 40.1091,13.6094 37.7757,13.6094 35.5,14C 36.2666,12.5295 36.9332,11.0295 37.5,9.5 Z"/></g>
<g><path style="opacity:1" fill="#6a6864" d="M 8.5,8.5 C 8.21552,10.4147 8.54885,12.0813 9.5,13.5C 10.5,13.8333 11.1667,14.5 11.5,15.5C 10.9569,15.56 10.6236,15.8933 10.5,16.5C 11.7853,19.0205 12.4519,21.6872 12.5,24.5C 10.9457,20.2214 8.94573,16.0547 6.5,12C 6.80822,10.5405 7.47489,9.37386 8.5,8.5 Z"/></g>
<g><path style="opacity:1" fill="#4c3d0d" d="M 67.5,7.5 C 68.4767,10.2869 68.81,13.2869 68.5,16.5C 50.1667,16.5 31.8333,16.5 13.5,16.5C 13.5,16.1667 13.5,15.8333 13.5,15.5C 31.5,15.5 49.5,15.5 67.5,15.5C 67.5,12.8333 67.5,10.1667 67.5,7.5 Z"/></g>
<g><path style="opacity:1" fill="#f1c004" d="M 12.5,16.5 C 12.8333,16.5 13.1667,16.5 13.5,16.5C 31.8333,16.5 50.1667,16.5 68.5,16.5C 68.5,17.1667 68.5,17.8333 68.5,18.5C 67.7321,19.2625 67.2321,20.2625 67,21.5C 66.5014,25.1516 66.3347,28.8183 66.5,32.5C 66.7373,33.791 66.404,34.791 65.5,35.5C 64.5436,30.0341 64.2102,24.7008 64.5,19.5C 63.3338,34.4889 63.1672,49.4889 64,64.5C 68.2518,60.8598 70.0851,56.1932 69.5,50.5C 70.6004,51.3049 70.9337,53.6382 70.5,57.5C 70.1031,63.0651 67.1031,66.2318 61.5,67C 56.8768,67.9582 52.2101,68.6249 47.5,69C 44.8268,70.0014 42.4935,71.5014 40.5,73.5C 34.9235,69.3528 28.5902,67.5195 21.5,68C 19.1887,67.7641 17.1887,66.9307 15.5,65.5C 15.5,64.8333 15.8333,64.5 16.5,64.5C 17.8308,57.3644 18.4975,49.8644 18.5,42C 18.1667,34.5 17.8333,27 17.5,19.5C 16.5108,23.1073 16.1774,26.774 16.5,30.5C 16.4535,33.9686 15.7868,37.302 14.5,40.5C 13.596,39.791 13.2627,38.791 13.5,37.5C 15.1308,30.3498 14.7975,23.3498 12.5,16.5 Z"/></g>
<g><path style="opacity:0.694" fill="#787978" d="M 70.5,38.5 C 72.0395,40.8383 72.7062,43.5049 72.5,46.5C 71.2318,44.0948 70.5651,41.4282 70.5,38.5 Z"/></g>
<g><path style="opacity:1" fill="#34312c" d="M 11.5,15.5 C 11.5,16.1667 11.8333,16.5 12.5,16.5C 14.7975,23.3498 15.1308,30.3498 13.5,37.5C 9.93123,44.8074 9.0979,52.4741 11,60.5C 11.9959,62.6605 13.4959,64.3272 15.5,65.5C 17.1887,66.9307 19.1887,67.7641 21.5,68C 28.5902,67.5195 34.9235,69.3528 40.5,73.5C 42.4935,71.5014 44.8268,70.0014 47.5,69C 52.2101,68.6249 56.8768,67.9582 61.5,67C 67.1031,66.2318 70.1031,63.0651 70.5,57.5C 71.6408,54.3601 71.8075,51.0267 71,47.5C 69.6314,42.336 68.1314,37.336 66.5,32.5C 66.3347,28.8183 66.5014,25.1516 67,21.5C 67.2321,20.2625 67.7321,19.2625 68.5,18.5C 68.2787,23.7734 68.612,29.1068 69.5,34.5C 70.4345,35.5676 70.7678,36.901 70.5,38.5C 70.5651,41.4282 71.2318,44.0948 72.5,46.5C 73.8698,52.0719 73.7031,57.7386 72,63.5C 70.1136,66.242 67.6136,67.9087 64.5,68.5C 60.181,69.0355 55.8477,69.5355 51.5,70C 49.1484,70.2401 47.1484,71.0735 45.5,72.5C 43.3963,74.3718 42.063,76.7052 41.5,79.5C 40.8333,79.5 40.1667,79.5 39.5,79.5C 38.914,77.1602 37.914,74.9935 36.5,73C 29.9013,71.3416 23.2346,70.0083 16.5,69C 9.79065,66.0916 6.79065,60.925 7.5,53.5C 9.38501,43.8533 11.0517,34.1866 12.5,24.5C 12.4519,21.6872 11.7853,19.0205 10.5,16.5C 10.6236,15.8933 10.9569,15.56 11.5,15.5 Z"/></g>
<g><path style="opacity:1" fill="#c69f0f" d="M 13.5,37.5 C 13.2627,38.791 13.596,39.791 14.5,40.5C 12.245,47.4627 12.0783,54.4627 14,61.5C 14.7083,62.3805 15.5416,63.0472 16.5,63.5C 16.5,63.8333 16.5,64.1667 16.5,64.5C 15.8333,64.5 15.5,64.8333 15.5,65.5C 13.4959,64.3272 11.9959,62.6605 11,60.5C 9.0979,52.4741 9.93123,44.8074 13.5,37.5 Z"/></g>
<g><path style="opacity:1" fill="#0b0804" d="M 16.5,30.5 C 17.8333,41.5 17.8333,52.5 16.5,63.5C 15.5416,63.0472 14.7083,62.3805 14,61.5C 12.0783,54.4627 12.245,47.4627 14.5,40.5C 15.7868,37.302 16.4535,33.9686 16.5,30.5 Z"/></g>
<g><path style="opacity:1" fill="#caa10a" d="M 66.5,32.5 C 68.1314,37.336 69.6314,42.336 71,47.5C 71.8075,51.0267 71.6408,54.3601 70.5,57.5C 70.9337,53.6382 70.6004,51.3049 69.5,50.5C 67.722,45.7285 66.3887,40.7285 65.5,35.5C 66.404,34.791 66.7373,33.791 66.5,32.5 Z"/></g>
<g><path style="opacity:1" fill="#0f0a05" d="M 65.5,35.5 C 66.3887,40.7285 67.722,45.7285 69.5,50.5C 70.0851,56.1932 68.2518,60.8598 64,64.5C 63.1672,49.4889 63.3338,34.4889 64.5,19.5C 64.2102,24.7008 64.5436,30.0341 65.5,35.5 Z"/></g>
<g><path style="opacity:1" fill="#342709" d="M 16.5,64.5 C 16.5,64.1667 16.5,63.8333 16.5,63.5C 17.8333,52.5 17.8333,41.5 16.5,30.5C 16.1774,26.774 16.5108,23.1073 17.5,19.5C 17.8333,27 18.1667,34.5 18.5,42C 18.4975,49.8644 17.8308,57.3644 16.5,64.5 Z"/></g>
<g><path style="opacity:1" fill="#48390d" d="M 25.5,19.5 C 25.5,34.8333 25.5,50.1667 25.5,65.5C 26.791,65.2627 27.791,65.596 28.5,66.5C 27.1667,66.5 25.8333,66.5 24.5,66.5C 24.1704,50.6578 24.5037,34.9911 25.5,19.5 Z"/></g>
<g><path style="opacity:1" fill="#151106" d="M 25.5,19.5 C 27.5,19.5 29.5,19.5 31.5,19.5C 31.5,35.1667 31.5,50.8333 31.5,66.5C 30.5,66.5 29.5,66.5 28.5,66.5C 27.791,65.596 26.791,65.2627 25.5,65.5C 25.5,50.1667 25.5,34.8333 25.5,19.5 Z"/></g>
<g><path style="opacity:1" fill="#040301" d="M 50.5,19.5 C 52.5,19.5 54.5,19.5 56.5,19.5C 56.5,35.1667 56.5,50.8333 56.5,66.5C 54.5,66.5 52.5,66.5 50.5,66.5C 50.5,50.8333 50.5,35.1667 50.5,19.5 Z"/></g>
<g><path style="opacity:1" fill="#060401" d="M 37.5,19.5 C 39.5,19.5 41.5,19.5 43.5,19.5C 43.6666,35.8367 43.4999,52.1701 43,68.5C 41.3333,71.1667 39.6667,71.1667 38,68.5C 37.5001,52.1701 37.3334,35.8367 37.5,19.5 Z"/></g>
<g><path style="opacity:0.125" fill="#7a7a7c" d="M 64.5,68.5 C 58.3597,70.1208 52.0264,71.4541 45.5,72.5C 47.1484,71.0735 49.1484,70.2401 51.5,70C 55.8477,69.5355 60.181,69.0355 64.5,68.5 Z"/></g>
</svg>
