<?xml version="1.0" encoding="UTF-8"?>
<!DOCTYPE svg PUBLIC "-//W3C//DTD SVG 1.1//EN" "http://www.w3.org/Graphics/SVG/1.1/DTD/svg11.dtd">
<svg xmlns="http://www.w3.org/2000/svg" version="1.1" width="80px" height="80px" style="shape-rendering:geometricPrecision; text-rendering:geometricPrecision; image-rendering:optimizeQuality; fill-rule:evenodd; clip-rule:evenodd" xmlns:xlink="http://www.w3.org/1999/xlink">
<g><path style="opacity:0.759" fill="#d5a94f" d="M 39.5,3.5 C 41.0727,5.20615 43.0727,6.37282 45.5,7C 44.1341,8.59982 43.1341,10.4332 42.5,12.5C 41.1667,11.1667 39.8333,11.1667 38.5,12.5C 37.8659,10.4332 36.8659,8.59982 35.5,7C 37.9102,6.9428 39.2435,5.77613 39.5,3.5 Z"/></g>
<g><path style="opacity:0.639" fill="#c31011" d="M 42.5,20.5 C 41.1667,20.5 39.8333,20.5 38.5,20.5C 39.8333,17.8333 41.1667,17.8333 42.5,20.5 Z"/></g>
<g><path style="opacity:0.239" fill="#be0f11" d="M 38.5,20.5 C 38.1667,21.1667 37.8333,21.8333 37.5,22.5C 34.5939,23.7866 31.5939,24.7866 28.5,25.5C 31.5154,23.3256 34.8487,21.6589 38.5,20.5 Z"/></g>
<g><path style="opacity:1" fill="#370b08" d="M 38.5,20.5 C 39.8333,20.5 41.1667,20.5 42.5,20.5C 42.8333,21.1667 43.1667,21.8333 43.5,22.5C 41.5,21.1667 39.5,21.1667 37.5,22.5C 37.8333,21.8333 38.1667,21.1667 38.5,20.5 Z"/></g>
<g><path style="opacity:1" fill="#bb1313" d="M 43.5,22.5 C 44.4578,28.7436 44.7912,35.077 44.5,41.5C 42.0239,34.9756 39.3573,34.9756 36.5,41.5C 36.2088,35.077 36.5422,28.7436 37.5,22.5C 39.5,21.1667 41.5,21.1667 43.5,22.5 Z"/></g>
<g><path style="opacity:1" fill="#0c0606" d="M 37.5,22.5 C 36.5422,28.7436 36.2088,35.077 36.5,41.5C 35.9035,43.398 35.9035,45.0646 36.5,46.5C 36.5,55.5 36.5,64.5 36.5,73.5C 35.1667,73.1667 33.8333,72.8333 32.5,72.5C 31.4154,70.4131 29.7488,69.0798 27.5,68.5C 26.2003,67.399 25.7003,66.0657 26,64.5C 26.6667,65.1667 27.3333,65.8333 28,66.5C 28.4992,61.8452 28.6658,57.1785 28.5,52.5C 29.625,51.3478 29.625,50.3478 28.5,49.5C 28.5,48.5 28.5,47.5 28.5,46.5C 29.625,45.6522 29.625,44.6522 28.5,43.5C 29.0868,37.6973 28.4202,32.1973 26.5,27C 27.4158,26.7216 28.0825,26.2216 28.5,25.5C 31.5939,24.7866 34.5939,23.7866 37.5,22.5 Z"/></g>
<g><path style="opacity:1" fill="#0c0605" d="M 43.5,22.5 C 46.5777,24.3687 49.911,25.702 53.5,26.5C 53.5,26.8333 53.5,27.1667 53.5,27.5C 52.5655,28.5676 52.2322,29.901 52.5,31.5C 52.5,34.8333 52.5,38.1667 52.5,41.5C 52.3336,49.84 52.5003,58.1733 53,66.5C 53.7083,65.6195 54.5416,64.9528 55.5,64.5C 55.2671,66.0618 54.6005,67.3951 53.5,68.5C 51.2512,69.0798 49.5846,70.4131 48.5,72.5C 47.1667,72.8333 45.8333,73.1667 44.5,73.5C 44.5,64.5 44.5,55.5 44.5,46.5C 45.0965,45.0646 45.0965,43.398 44.5,41.5C 44.7912,35.077 44.4578,28.7436 43.5,22.5 Z"/></g>
<g><path style="opacity:0.976" fill="#4f0c0b" d="M 53.5,26.5 C 56.0098,26.9267 58.3432,27.5933 60.5,28.5C 60.5,29.8333 60.5,31.1667 60.5,32.5C 60.1667,32.5 59.8333,32.5 59.5,32.5C 59.5,31.1667 59.5,29.8333 59.5,28.5C 57.2646,28.7947 55.2646,28.4614 53.5,27.5C 53.5,27.1667 53.5,26.8333 53.5,26.5 Z"/></g>
<g><path style="opacity:0.413" fill="#bd2e22" d="M 42.5,20.5 C 50.2412,24.8527 58.5746,27.186 67.5,27.5C 68.9694,36.3611 68.1361,45.0278 65,53.5C 63.9741,56.2387 62.4741,58.572 60.5,60.5C 60.5569,59.391 60.8902,58.391 61.5,57.5C 65.8491,48.3617 67.5158,38.6951 66.5,28.5C 64.5,28.5 62.5,28.5 60.5,28.5C 58.3432,27.5933 56.0098,26.9267 53.5,26.5C 49.911,25.702 46.5777,24.3687 43.5,22.5C 43.1667,21.8333 42.8333,21.1667 42.5,20.5 Z"/></g>
<g><path style="opacity:1" fill="#0c0707" d="M 20.5,28.5 C 20.5,34.1667 20.5,39.8333 20.5,45.5C 20.5,47.5 20.5,49.5 20.5,51.5C 20.7947,53.7354 20.4614,55.7354 19.5,57.5C 15.1509,48.3617 13.4842,38.6951 14.5,28.5C 16.5,28.5 18.5,28.5 20.5,28.5 Z"/></g>
<g><path style="opacity:1" fill="#c4241c" d="M 28.5,25.5 C 28.0825,26.2216 27.4158,26.7216 26.5,27C 28.4202,32.1973 29.0868,37.6973 28.5,43.5C 26.0504,43.298 23.717,43.6314 21.5,44.5C 21.5,39.1667 21.5,33.8333 21.5,28.5C 26.1393,27.6286 25.8059,27.6286 20.5,28.5C 18.5,28.5 16.5,28.5 14.5,28.5C 13.4842,38.6951 15.1509,48.3617 19.5,57.5C 20.1098,58.391 20.4431,59.391 20.5,60.5C 17.0262,56.5466 14.8595,51.88 14,46.5C 12.2524,40.1957 12.0858,33.8624 13.5,27.5C 18.5368,27.0925 23.5368,26.4258 28.5,25.5 Z"/></g>
<g><path style="opacity:1" fill="#c41616" d="M 53.5,27.5 C 55.2646,28.4614 57.2646,28.7947 59.5,28.5C 59.5,29.8333 59.5,31.1667 59.5,32.5C 57.283,31.6314 54.9496,31.298 52.5,31.5C 52.2322,29.901 52.5655,28.5676 53.5,27.5 Z"/></g>
<g><path style="opacity:1" fill="#0c0707" d="M 60.5,28.5 C 62.5,28.5 64.5,28.5 66.5,28.5C 67.5158,38.6951 65.8491,48.3617 61.5,57.5C 60.5093,51.021 60.176,44.3543 60.5,37.5C 60.5,35.8333 60.5,34.1667 60.5,32.5C 60.5,31.1667 60.5,29.8333 60.5,28.5 Z"/></g>
<g><path style="opacity:1" fill="#4d0f0e" d="M 21.5,44.5 C 21.5,45.1667 21.1667,45.5 20.5,45.5C 20.5,39.8333 20.5,34.1667 20.5,28.5C 25.8059,27.6286 26.1393,27.6286 21.5,28.5C 21.5,33.8333 21.5,39.1667 21.5,44.5 Z"/></g>
<g><path style="opacity:1" fill="#f5e0e0" d="M 52.5,31.5 C 54.9496,31.298 57.283,31.6314 59.5,32.5C 59.8333,32.5 60.1667,32.5 60.5,32.5C 60.5,34.1667 60.5,35.8333 60.5,37.5C 60.1667,37.5 59.8333,37.5 59.5,37.5C 57.9582,38.3007 56.2915,38.634 54.5,38.5C 54.7148,40.1788 54.0481,41.1788 52.5,41.5C 52.5,38.1667 52.5,34.8333 52.5,31.5 Z"/></g>
<g><path style="opacity:1" fill="#cd2a26" d="M 54.5,33.5 C 55.8333,33.5 57.1667,33.5 58.5,33.5C 58.5,34.5 58.5,35.5 58.5,36.5C 57.1667,36.5 55.8333,36.5 54.5,36.5C 54.5,35.5 54.5,34.5 54.5,33.5 Z"/></g>
<g><path style="opacity:1" fill="#490909" d="M 59.5,37.5 C 59.8333,37.5 60.1667,37.5 60.5,37.5C 60.176,44.3543 60.5093,51.021 61.5,57.5C 60.8902,58.391 60.5569,59.391 60.5,60.5C 59.5,61.1667 58.5,61.8333 57.5,62.5C 57.4614,61.2438 57.9614,60.2438 59,59.5C 59.4997,52.1742 59.6663,44.8409 59.5,37.5 Z"/></g>
<g><path style="opacity:1" fill="#c81615" d="M 59.5,37.5 C 59.6663,44.8409 59.4997,52.1742 59,59.5C 57.9614,60.2438 57.4614,61.2438 57.5,62.5C 56.5,62.8333 55.8333,63.5 55.5,64.5C 54.5416,64.9528 53.7083,65.6195 53,66.5C 52.5003,58.1733 52.3336,49.84 52.5,41.5C 54.0481,41.1788 54.7148,40.1788 54.5,38.5C 56.2915,38.634 57.9582,38.3007 59.5,37.5 Z"/></g>
<g><path style="opacity:1" fill="#eee0e0" d="M 44.5,41.5 C 45.0965,43.398 45.0965,45.0646 44.5,46.5C 41.937,42.5379 39.2703,42.5379 36.5,46.5C 35.9035,45.0646 35.9035,43.398 36.5,41.5C 39.3573,34.9756 42.0239,34.9756 44.5,41.5 Z"/></g>
<g><path style="opacity:1" fill="#d54a44" d="M 39.5,39.5 C 41.337,39.6395 41.6704,40.3061 40.5,41.5C 39.7025,41.0431 39.3691,40.3764 39.5,39.5 Z"/></g>
<g><path style="opacity:1" fill="#be1313" d="M 44.5,46.5 C 44.5,55.5 44.5,64.5 44.5,73.5C 41.8333,74.8333 39.1667,74.8333 36.5,73.5C 36.5,64.5 36.5,55.5 36.5,46.5C 39.2703,42.5379 41.937,42.5379 44.5,46.5 Z"/></g>
<g><path style="opacity:1" fill="#cc2521" d="M 28.5,46.5 C 28.5,47.5 28.5,48.5 28.5,49.5C 23.6737,52.8066 21.8403,51.4733 23,45.5C 25.0765,44.2427 26.9098,44.576 28.5,46.5 Z"/></g>
<g><path style="opacity:1" fill="#f4e1e1" d="M 28.5,43.5 C 29.625,44.6522 29.625,45.6522 28.5,46.5C 26.9098,44.576 25.0765,44.2427 23,45.5C 21.8403,51.4733 23.6737,52.8066 28.5,49.5C 29.625,50.3478 29.625,51.3478 28.5,52.5C 26.1667,53.8333 23.8333,53.8333 21.5,52.5C 21.5,51.8333 21.1667,51.5 20.5,51.5C 20.5,49.5 20.5,47.5 20.5,45.5C 21.1667,45.5 21.5,45.1667 21.5,44.5C 23.717,43.6314 26.0504,43.298 28.5,43.5 Z"/></g>
<g><path style="opacity:1" fill="#bd1213" d="M 21.5,52.5 C 23.8333,53.8333 26.1667,53.8333 28.5,52.5C 28.6658,57.1785 28.4992,61.8452 28,66.5C 27.3333,65.8333 26.6667,65.1667 26,64.5C 25.7003,66.0657 26.2003,67.399 27.5,68.5C 26.5041,68.5858 25.6708,68.2524 25,67.5C 23.2502,65.2657 21.7502,62.9324 20.5,60.5C 23.4198,63.3149 23.9198,62.9815 22,59.5C 21.5034,57.1902 21.3367,54.8568 21.5,52.5 Z"/></g>
<g><path style="opacity:1" fill="#430d0d" d="M 20.5,51.5 C 21.1667,51.5 21.5,51.8333 21.5,52.5C 21.3367,54.8568 21.5034,57.1902 22,59.5C 23.9198,62.9815 23.4198,63.3149 20.5,60.5C 20.4431,59.391 20.1098,58.391 19.5,57.5C 20.4614,55.7354 20.7947,53.7354 20.5,51.5 Z"/></g>
<g><path style="opacity:0.965" fill="#8d1311" d="M 60.5,60.5 C 59.2498,62.9324 57.7498,65.2657 56,67.5C 55.3292,68.2524 54.4959,68.5858 53.5,68.5C 54.6005,67.3951 55.2671,66.0618 55.5,64.5C 55.8333,63.5 56.5,62.8333 57.5,62.5C 58.5,61.8333 59.5,61.1667 60.5,60.5 Z"/></g>
<g><path style="opacity:0.18" fill="#b80f10" d="M 53.5,68.5 C 52.4154,70.5869 50.7488,71.9202 48.5,72.5C 49.5846,70.4131 51.2512,69.0798 53.5,68.5 Z"/></g>
<g><path style="opacity:0.576" fill="#b20f11" d="M 27.5,68.5 C 29.7488,69.0798 31.4154,70.4131 32.5,72.5C 30.2512,71.9202 28.5846,70.5869 27.5,68.5 Z"/></g>
<g><path style="opacity:0.514" fill="#c53a2e" d="M 32.5,72.5 C 33.8333,72.8333 35.1667,73.1667 36.5,73.5C 37.6594,75.2503 39.326,76.2503 41.5,76.5C 41.8333,76.5 42.1667,76.5 42.5,76.5C 38.4528,77.493 35.1195,76.1597 32.5,72.5 Z"/></g>
<g><path style="opacity:1" fill="#3f0b08" d="M 36.5,73.5 C 39.1667,74.8333 41.8333,74.8333 44.5,73.5C 43.6935,74.7281 42.6935,75.7281 41.5,76.5C 39.326,76.2503 37.6594,75.2503 36.5,73.5 Z"/></g>
<g><path style="opacity:0.024" fill="#bd0f11" d="M 48.5,72.5 C 46.8525,74.3264 44.8525,75.6597 42.5,76.5C 42.1667,76.5 41.8333,76.5 41.5,76.5C 42.6935,75.7281 43.6935,74.7281 44.5,73.5C 45.8333,73.1667 47.1667,72.8333 48.5,72.5 Z"/></g>
</svg>
