<?xml version="1.0" encoding="UTF-8"?>
<!DOCTYPE svg PUBLIC "-//W3C//DTD SVG 1.1//EN" "http://www.w3.org/Graphics/SVG/1.1/DTD/svg11.dtd">
<svg xmlns="http://www.w3.org/2000/svg" version="1.1" width="80px" height="80px" style="shape-rendering:geometricPrecision; text-rendering:geometricPrecision; image-rendering:optimizeQuality; fill-rule:evenodd; clip-rule:evenodd" xmlns:xlink="http://www.w3.org/1999/xlink">
<g><path style="opacity:0.999" fill="#353071" d="M 41.5,79.5 C 40.8333,79.5 40.1667,79.5 39.5,79.5C 16.2211,62.9394 5.22112,40.2727 6.5,11.5C 18.7184,11.2053 30.0518,7.87193 40.5,1.5C 50.882,7.93042 62.2153,11.2638 74.5,11.5C 75.7633,40.3031 64.7633,62.9698 41.5,79.5 Z"/></g>
<g><path style="opacity:1" fill="#f9f9fb" d="M 38.5,6.5 C 43.6332,8.10145 48.6332,10.1014 53.5,12.5C 40.6743,21.7467 27.6743,30.7467 14.5,39.5C 13.914,39.2907 13.414,38.9574 13,38.5C 10.9852,30.6275 10.1518,22.6275 10.5,14.5C 20.6371,14.3023 29.9704,11.6356 38.5,6.5 Z"/></g>
<g><path style="opacity:1" fill="#ecebf2" d="M 53.5,15.5 C 55.5,15.5 57.5,15.5 59.5,15.5C 59.5,16.5 59.5,17.5 59.5,18.5C 54.5194,18.3794 52.3527,20.7127 53,25.5C 57.1446,29.5761 60.978,29.2428 64.5,24.5C 66.3941,27.2784 65.3941,29.445 61.5,31C 54.3757,32.8766 50.0424,30.2099 48.5,23C 49.2993,19.8958 50.966,17.3958 53.5,15.5 Z"/></g>
<g><path style="opacity:1" fill="#edecf3" d="M 37.5,26.5 C 42.5621,28.8669 47.5621,31.5336 52.5,34.5C 53.521,35.0016 53.6877,35.6683 53,36.5C 50.0906,36.72 47.2573,37.22 44.5,38C 44.05,40.5006 43.05,42.6672 41.5,44.5C 39.4341,39.5173 37.7675,34.3506 36.5,29C 36.7432,28.0979 37.0766,27.2646 37.5,26.5 Z"/></g>
<g><path style="opacity:1" fill="#fafafb" d="M 67.5,29.5 C 68.4972,29.4701 69.1639,29.9701 69.5,31C 65.7621,47.477 57.4288,61.1437 44.5,72C 42.9452,73.2893 41.2785,73.956 39.5,74C 34.1988,69.7002 29.1988,65.0336 24.5,60C 38.9001,49.8114 53.2334,39.6447 67.5,29.5 Z"/></g>
<g><path style="opacity:1" fill="#514a8a" d="M 40.5,31.5 C 41.6828,32.5045 43.0161,33.3378 44.5,34C 42.0316,35.7578 40.6982,34.9244 40.5,31.5 Z"/></g>
<g><path style="opacity:1" fill="#f0f0f5" d="M 22.5,36.5 C 31.2085,35.2176 36.2085,38.8842 37.5,47.5C 35.0947,48.6871 32.7613,50.1871 30.5,52C 21.3333,53.5 17.5,49.6667 19,40.5C 20.3756,39.2949 21.5423,37.9616 22.5,36.5 Z"/></g>
<g><path style="opacity:1" fill="#39337a" d="M 24.5,39.5 C 27.4629,39.1507 29.7962,40.1507 31.5,42.5C 29.3636,43.8517 29.0302,45.5183 30.5,47.5C 27.3295,50.3353 24.4962,50.0019 22,46.5C 21.3333,45.1667 21.3333,43.8333 22,42.5C 23.045,41.6266 23.8783,40.6266 24.5,39.5 Z"/></g>
</svg>
