<?xml version="1.0" encoding="UTF-8"?>
<!DOCTYPE svg PUBLIC "-//W3C//DTD SVG 1.1//EN" "http://www.w3.org/Graphics/SVG/1.1/DTD/svg11.dtd">
<svg xmlns="http://www.w3.org/2000/svg" version="1.1" width="80px" height="80px" style="shape-rendering:geometricPrecision; text-rendering:geometricPrecision; image-rendering:optimizeQuality; fill-rule:evenodd; clip-rule:evenodd" xmlns:xlink="http://www.w3.org/1999/xlink">
<g><path style="opacity:0.567" fill="#98d6f1" d="M 70.5,64.5 C 70.833,44.4889 70.4996,24.4889 69.5,4.5C 68.8933,4.62358 68.56,4.95691 68.5,5.5C 49.8333,5.5 31.1667,5.5 12.5,5.5C 12.44,4.95691 12.1067,4.62358 11.5,4.5C 10.5004,23.8218 10.1671,43.1552 10.5,62.5C 9.50293,43.0071 9.1696,23.3404 9.5,3.5C 30.1667,3.5 50.8333,3.5 71.5,3.5C 71.8305,24.0069 71.4972,44.3402 70.5,64.5 Z"/></g>
<g><path style="opacity:0.967" fill="#0fa3df" d="M 12.5,5.5 C 11.5184,8.96192 11.185,12.6286 11.5,16.5C 30.8333,16.5 50.1667,16.5 69.5,16.5C 69.815,12.6286 69.4816,8.96192 68.5,5.5C 68.56,4.95691 68.8933,4.62358 69.5,4.5C 70.4996,24.4889 70.833,44.4889 70.5,64.5C 70.3757,66.5816 69.3757,68.0816 67.5,69C 61.1853,70.0547 54.8519,71.0547 48.5,72C 45.4423,73.2177 42.7756,75.051 40.5,77.5C 38.6841,76.1851 37.0175,74.6851 35.5,73C 27.8743,71.1888 20.2076,69.5221 12.5,68C 11.1387,66.4157 10.472,64.5824 10.5,62.5C 10.1671,43.1552 10.5004,23.8218 11.5,4.5C 12.1067,4.62358 12.44,4.95691 12.5,5.5 Z"/></g>
<g><path style="opacity:1" fill="#7eceee" d="M 12.5,5.5 C 12.5,8.83333 12.5,12.1667 12.5,15.5C 15.5,15.5 18.5,15.5 21.5,15.5C 23.2915,15.634 24.9582,15.3007 26.5,14.5C 29.9792,15.99 33.3125,15.6567 36.5,13.5C 36.5,14.1667 36.8333,14.5 37.5,14.5C 39.1667,15.8333 40.8333,15.8333 42.5,14.5C 43.1667,14.5 43.8333,14.5 44.5,14.5C 46.9479,15.4731 49.6146,15.8064 52.5,15.5C 52.19,12.2869 52.5233,9.2869 53.5,6.5C 53.3359,9.1873 53.5026,11.854 54,14.5C 54.2492,13.376 54.7492,12.376 55.5,11.5C 56.1067,11.6236 56.44,11.9569 56.5,12.5C 55.596,13.209 55.2627,14.209 55.5,15.5C 56.791,15.7373 57.791,15.404 58.5,14.5C 59.1667,14.5 59.8333,14.5 60.5,14.5C 63.0545,15.388 65.7212,15.7214 68.5,15.5C 68.5,12.1667 68.5,8.83333 68.5,5.5C 69.4816,8.96192 69.815,12.6286 69.5,16.5C 50.1667,16.5 30.8333,16.5 11.5,16.5C 11.185,12.6286 11.5184,8.96192 12.5,5.5 Z"/></g>
<g><path style="opacity:1" fill="#fafcfe" d="M 12.5,5.5 C 31.1667,5.5 49.8333,5.5 68.5,5.5C 68.5,8.83333 68.5,12.1667 68.5,15.5C 65.7212,15.7214 63.0545,15.388 60.5,14.5C 59.6448,12.2132 59.4782,9.87986 60,7.5C 57.9592,6.57692 55.7925,6.24358 53.5,6.5C 52.5233,9.2869 52.19,12.2869 52.5,15.5C 49.6146,15.8064 46.9479,15.4731 44.5,14.5C 42.2811,4.51383 39.6145,4.1805 36.5,13.5C 33.3125,15.6567 29.9792,15.99 26.5,14.5C 27.7733,13.9232 27.7733,13.2565 26.5,12.5C 22.56,14.2361 20.8933,12.9028 21.5,8.5C 23.674,8.92016 25.674,8.92016 27.5,8.5C 25.085,5.87174 22.585,5.87174 20,8.5C 19.1668,11.171 19.6668,13.5043 21.5,15.5C 18.5,15.5 15.5,15.5 12.5,15.5C 12.5,12.1667 12.5,8.83333 12.5,5.5 Z"/></g>
<g><path style="opacity:1" fill="#2aabe2" d="M 53.5,6.5 C 55.7925,6.24358 57.9592,6.57692 60,7.5C 59.4782,9.87986 59.6448,12.2132 60.5,14.5C 59.8333,14.5 59.1667,14.5 58.5,14.5C 57.791,15.404 56.791,15.7373 55.5,15.5C 55.2627,14.209 55.596,13.209 56.5,12.5C 56.44,11.9569 56.1067,11.6236 55.5,11.5C 54.7492,12.376 54.2492,13.376 54,14.5C 53.5026,11.854 53.3359,9.1873 53.5,6.5 Z"/></g>
<g><path style="opacity:1" fill="#f7fcfe" d="M 42.5,14.5 C 40.8333,15.8333 39.1667,15.8333 37.5,14.5C 39.2837,13.2801 40.9504,13.2801 42.5,14.5 Z"/></g>
<g><path style="opacity:1" fill="#f2f9fd" d="M 56.5,12.5 C 57.5,12.8333 58.1667,13.5 58.5,14.5C 58.1667,13.5 57.5,12.8333 56.5,12.5 Z"/></g>
<g><path style="opacity:1" fill="#47b2e5" d="M 44.5,14.5 C 43.8333,14.5 43.1667,14.5 42.5,14.5C 40.9504,13.2801 39.2837,13.2801 37.5,14.5C 36.8333,14.5 36.5,14.1667 36.5,13.5C 39.6145,4.1805 42.2811,4.51383 44.5,14.5 Z"/></g>
<g><path style="opacity:1" fill="#39b1e4" d="M 26.5,14.5 C 24.9582,15.3007 23.2915,15.634 21.5,15.5C 19.6668,13.5043 19.1668,11.171 20,8.5C 22.585,5.87174 25.085,5.87174 27.5,8.5C 25.674,8.92016 23.674,8.92016 21.5,8.5C 20.8933,12.9028 22.56,14.2361 26.5,12.5C 27.7733,13.2565 27.7733,13.9232 26.5,14.5 Z"/></g>
<g><path style="opacity:1" fill="#c3e7f7" d="M 55.5,8.5 C 56.675,8.28099 57.675,8.61432 58.5,9.5C 56.9483,10.7979 55.9483,10.4646 55.5,8.5 Z"/></g>
<g><path style="opacity:1" fill="#9ad9f2" d="M 60.5,17.5 C 61.4966,34.3251 61.8299,51.3251 61.5,68.5C 60.5,68.5 59.5,68.5 58.5,68.5C 60.4637,51.7381 61.1304,34.7381 60.5,17.5 Z"/></g>
<g><path style="opacity:1" fill="#fafdfe" d="M 19.5,17.5 C 22.1667,17.5 24.8333,17.5 27.5,17.5C 27.5,34.5 27.5,51.5 27.5,68.5C 24.8333,68.5 22.1667,68.5 19.5,68.5C 19.5,51.5 19.5,34.5 19.5,17.5 Z"/></g>
<g><path style="opacity:1" fill="#fbfdfe" d="M 36.5,17.5 C 39.1667,17.5 41.8333,17.5 44.5,17.5C 44.6666,35.5031 44.4999,53.5031 44,71.5C 41.6667,74.1667 39.3333,74.1667 37,71.5C 36.5001,53.5031 36.3334,35.5031 36.5,17.5 Z"/></g>
<g><path style="opacity:1" fill="#f5fbfd" d="M 60.5,17.5 C 61.1304,34.7381 60.4637,51.7381 58.5,68.5C 56.5,68.5 54.5,68.5 52.5,68.5C 52.5,51.5 52.5,34.5 52.5,17.5C 55.1667,17.5 57.8333,17.5 60.5,17.5 Z"/></g>
</svg>
