<?xml version="1.0" encoding="UTF-8"?>
<!DOCTYPE svg PUBLIC "-//W3C//DTD SVG 1.1//EN" "http://www.w3.org/Graphics/SVG/1.1/DTD/svg11.dtd">
<svg xmlns="http://www.w3.org/2000/svg" version="1.1" width="80px" height="80px" style="shape-rendering:geometricPrecision; text-rendering:geometricPrecision; image-rendering:optimizeQuality; fill-rule:evenodd; clip-rule:evenodd" xmlns:xlink="http://www.w3.org/1999/xlink">
<g><path style="opacity:0.537" fill="#cfa8a3" d="M 17.5,18.5 C 17.0269,19.9063 16.0269,20.573 14.5,20.5C 14.9731,19.0937 15.9731,18.427 17.5,18.5 Z"/></g>
<g><path style="opacity:1" fill="#f5f4f4" d="M 38.5,14.5 C 39.8333,14.5 41.1667,14.5 42.5,14.5C 43.0531,20.7921 42.3864,26.7921 40.5,32.5C 38.5467,26.9262 37.88,20.9262 38.5,14.5 Z"/></g>
<g><path style="opacity:1" fill="#d07974" d="M 36.5,12.5 C 39.5,12.5 42.5,12.5 45.5,12.5C 43.6068,18.5454 42.9401,24.8787 43.5,31.5C 42.7095,32.4013 41.7095,33.0679 40.5,33.5C 40.5,33.1667 40.5,32.8333 40.5,32.5C 42.3864,26.7921 43.0531,20.7921 42.5,14.5C 41.1667,14.5 39.8333,14.5 38.5,14.5C 37.8333,13.8333 37.1667,13.1667 36.5,12.5 Z"/></g>
<g><path style="opacity:1" fill="#d06b64" d="M 54.5,12.5 C 53.1914,14.5706 52.5248,17.0706 52.5,20C 52.5029,22.6903 52.8362,25.1903 53.5,27.5C 52.2196,28.9313 50.5529,29.5979 48.5,29.5C 49.172,28.7326 50.0053,28.0659 51,27.5C 51.9434,21.9882 51.61,16.6548 50,11.5C 49.586,11.9574 49.086,12.2907 48.5,12.5C 47.5046,18.1278 47.1712,23.7945 47.5,29.5C 46.8333,23.8333 46.1667,18.1667 45.5,12.5C 48.6132,8.74461 51.6132,8.74461 54.5,12.5 Z"/></g>
<g><path style="opacity:1" fill="#f5f4f4" d="M 48.5,29.5 C 48.1667,29.5 47.8333,29.5 47.5,29.5C 47.1712,23.7945 47.5046,18.1278 48.5,12.5C 49.086,12.2907 49.586,11.9574 50,11.5C 51.61,16.6548 51.9434,21.9882 51,27.5C 50.0053,28.0659 49.172,28.7326 48.5,29.5 Z"/></g>
<g><path style="opacity:1" fill="#d37069" d="M 55.5,13.5 C 58.0041,14.5839 60.3374,15.9172 62.5,17.5C 61.8333,17.5 61.1667,17.5 60.5,17.5C 58.9826,17.4894 57.8159,16.8228 57,15.5C 56.8333,17.1667 56.6667,18.8333 56.5,20.5C 56.6132,22.6413 57.2799,24.4747 58.5,26C 57.4734,26.5133 56.4734,27.0133 55.5,27.5C 55.5,22.8333 55.5,18.1667 55.5,13.5 Z"/></g>
<g><path style="opacity:1" fill="#b2241d" d="M 27.5,12.5 C 28.1667,12.5 28.8333,12.5 29.5,12.5C 29.1842,20.7524 29.5175,28.919 30.5,37C 28.8455,37.6077 27.1789,38.1077 25.5,38.5C 25.4238,29.9568 25.4238,21.6234 25.5,13.5C 25.8417,12.6618 26.5084,12.3284 27.5,12.5 Z"/></g>
<g><path style="opacity:1" fill="#c1261e" d="M 54.5,12.5 C 55.1667,12.5 55.5,12.8333 55.5,13.5C 55.5,18.1667 55.5,22.8333 55.5,27.5C 54.8333,27.5 54.1667,27.5 53.5,27.5C 52.8362,25.1903 52.5029,22.6903 52.5,20C 52.5248,17.0706 53.1914,14.5706 54.5,12.5 Z"/></g>
<g><path style="opacity:1" fill="#bc241d" d="M 45.5,12.5 C 46.1667,18.1667 46.8333,23.8333 47.5,29.5C 47.8333,29.5 48.1667,29.5 48.5,29.5C 47.0697,30.5375 45.403,31.2041 43.5,31.5C 42.9401,24.8787 43.6068,18.5454 45.5,12.5 Z"/></g>
<g><path style="opacity:1" fill="#d38d88" d="M 36.5,12.5 C 34.8476,19.6101 33.8476,26.9434 33.5,34.5C 33.8306,27.1365 33.4973,19.8032 32.5,12.5C 31.4728,11.2086 30.4728,11.2086 29.5,12.5C 28.8333,12.5 28.1667,12.5 27.5,12.5C 28.4057,11.0351 29.739,10.0351 31.5,9.5C 33.1446,10.6963 34.8113,11.6963 36.5,12.5 Z"/></g>
<g><path style="opacity:1" fill="#f9eceb" d="M 33.5,34.5 C 33.7352,35.0967 34.2352,35.4301 35,35.5C 36.5671,34.1439 38.4004,33.4772 40.5,33.5C 41.7095,33.0679 42.7095,32.4013 43.5,31.5C 45.403,31.2041 47.0697,30.5375 48.5,29.5C 50.5529,29.5979 52.2196,28.9313 53.5,27.5C 54.1667,27.5 54.8333,27.5 55.5,27.5C 56.4734,27.0133 57.4734,26.5133 58.5,26C 57.2799,24.4747 56.6132,22.6413 56.5,20.5C 56.6667,18.8333 56.8333,17.1667 57,15.5C 57.8159,16.8228 58.9826,17.4894 60.5,17.5C 61.8216,24.4225 62.4882,31.4225 62.5,38.5C 61.1667,38.8333 59.8333,39.1667 58.5,39.5C 57.2905,39.9321 56.2905,40.5987 55.5,41.5C 54.209,41.2627 53.209,41.596 52.5,42.5C 51.5084,42.3284 50.8417,42.6618 50.5,43.5C 48.2143,43.595 46.2143,44.2616 44.5,45.5C 44.1667,45.5 43.8333,45.5 43.5,45.5C 42.2905,45.9321 41.2905,46.5987 40.5,47.5C 38.0347,47.767 35.7014,48.4336 33.5,49.5C 31.2504,50.1302 29.2504,51.1302 27.5,52.5C 26.8333,52.5 26.1667,52.5 25.5,52.5C 24.2905,52.9321 23.2905,53.5987 22.5,54.5C 21.5,54.5 20.5,54.5 19.5,54.5C 19.2053,52.2646 19.5386,50.2646 20.5,48.5C 22.7933,52.4813 25.1266,52.4813 27.5,48.5C 27.1667,48.1667 26.8333,47.8333 26.5,47.5C 25.4679,49.0396 24.1346,49.5396 22.5,49C 21.9011,47.3775 21.2344,45.8775 20.5,44.5C 19.596,43.791 19.2627,42.791 19.5,41.5C 20.391,40.8902 21.391,40.5569 22.5,40.5C 24.0269,40.573 25.0269,39.9063 25.5,38.5C 27.1789,38.1077 28.8455,37.6077 30.5,37C 29.5175,28.919 29.1842,20.7524 29.5,12.5C 30.4728,11.2086 31.4728,11.2086 32.5,12.5C 33.4973,19.8032 33.8306,27.1365 33.5,34.5 Z"/></g>
<g><path style="opacity:1" fill="#dea6a3" d="M 25.5,13.5 C 25.4238,21.6234 25.4238,29.9568 25.5,38.5C 25.0269,39.9063 24.0269,40.573 22.5,40.5C 22.5,40.1667 22.5,39.8333 22.5,39.5C 24.7428,32.0813 25.0762,24.4146 23.5,16.5C 22.914,16.7093 22.414,17.0426 22,17.5C 21.5003,24.8258 21.3337,32.1591 21.5,39.5C 20.8333,32.1667 20.1667,24.8333 19.5,17.5C 21.1475,15.6736 23.1475,14.3403 25.5,13.5 Z"/></g>
<g><path style="opacity:1" fill="#f4f4f4" d="M 22.5,39.5 C 22.1667,39.5 21.8333,39.5 21.5,39.5C 21.3337,32.1591 21.5003,24.8258 22,17.5C 22.414,17.0426 22.914,16.7093 23.5,16.5C 25.0762,24.4146 24.7428,32.0813 22.5,39.5 Z"/></g>
<g><path style="opacity:1" fill="#bf3028" d="M 36.5,12.5 C 37.1667,13.1667 37.8333,13.8333 38.5,14.5C 37.88,20.9262 38.5467,26.9262 40.5,32.5C 40.5,32.8333 40.5,33.1667 40.5,33.5C 38.4004,33.4772 36.5671,34.1439 35,35.5C 34.2352,35.4301 33.7352,35.0967 33.5,34.5C 33.8476,26.9434 34.8476,19.6101 36.5,12.5 Z"/></g>
<g><path style="opacity:1" fill="#dc5046" d="M 53.5,30.5 C 54.5,30.5 55.5,30.5 56.5,30.5C 56.5861,32.677 57.2528,34.677 58.5,36.5C 58.1667,36.8333 57.8333,37.1667 57.5,37.5C 56.7492,36.624 56.2492,35.624 56,34.5C 55.1408,37.3095 53.8074,39.3095 52,40.5C 49.9015,38.0257 49.4015,35.359 50.5,32.5C 53.0547,35.2508 54.0547,34.5841 53.5,30.5 Z"/></g>
<g><path style="opacity:1" fill="#d74d43" d="M 60.5,17.5 C 61.1667,17.5 61.8333,17.5 62.5,17.5C 64.7541,18.4151 66.7541,19.7484 68.5,21.5C 67.3717,22.2621 66.2051,22.9288 65,23.5C 64.5001,36.4957 64.3334,49.4957 64.5,62.5C 64.1667,62.5 63.8333,62.5 63.5,62.5C 63.8257,54.3159 63.4924,46.3159 62.5,38.5C 62.4882,31.4225 61.8216,24.4225 60.5,17.5 Z"/></g>
<g><path style="opacity:1" fill="#bd251d" d="M 19.5,17.5 C 20.1667,24.8333 20.8333,32.1667 21.5,39.5C 21.8333,39.5 22.1667,39.5 22.5,39.5C 22.5,39.8333 22.5,40.1667 22.5,40.5C 21.391,40.5569 20.391,40.8902 19.5,41.5C 18.8367,43.6413 18.5034,45.9746 18.5,48.5C 18.9844,52.5624 19.651,56.5624 20.5,60.5C 19.609,61.1098 18.609,61.4431 17.5,61.5C 17.6666,48.4957 17.4999,35.4957 17,22.5C 16.0053,21.9341 15.172,21.2674 14.5,20.5C 16.0269,20.573 17.0269,19.9063 17.5,18.5C 17.8417,17.6618 18.5084,17.3284 19.5,17.5 Z"/></g>
<g><path style="opacity:1" fill="#df5f54" d="M 41.5,35.5 C 45.4557,36.0527 45.4557,36.8861 41.5,38C 43.1341,38.4935 44.8008,38.6602 46.5,38.5C 47.101,42.909 45.4343,44.2424 41.5,42.5C 42.376,41.7492 43.376,41.2492 44.5,41C 39.5251,40.8468 38.5251,39.0135 41.5,35.5 Z"/></g>
<g><path style="opacity:1" fill="#d63d33" d="M 36.5,45.5 C 35.1986,44.36 34.0319,43.0267 33,41.5C 32.4209,42.9285 32.5876,44.2618 33.5,45.5C 32.7784,45.9175 32.2784,46.5842 32,47.5C 31.1816,44.7728 31.3483,42.1062 32.5,39.5C 34.6499,41.1491 36.6499,42.9824 38.5,45C 37.9056,45.4643 37.2389,45.631 36.5,45.5 Z"/></g>
<g><path style="opacity:1" fill="#e89793" d="M 36.5,45.5 C 35.5,45.5 34.5,45.5 33.5,45.5C 32.5876,44.2618 32.4209,42.9285 33,41.5C 34.0319,43.0267 35.1986,44.36 36.5,45.5 Z"/></g>
<g><path style="opacity:1" fill="#fbf9f9" d="M 40.5,47.5 C 41.821,50.5982 42.4877,54.0982 42.5,58C 42.3333,61.5 42.1667,65 42,68.5C 41.0138,69.1712 39.8471,69.1712 38.5,68.5C 37.9287,61.2192 38.5953,54.2192 40.5,47.5 Z"/></g>
<g><path style="opacity:1" fill="#c8251e" d="M 55.5,41.5 C 55.831,49.5277 55.4977,57.5277 54.5,65.5C 53.3132,66.6527 52.3132,66.6527 51.5,65.5C 52.492,58.0182 52.8254,50.3516 52.5,42.5C 53.209,41.596 54.209,41.2627 55.5,41.5 Z"/></g>
<g><path style="opacity:1" fill="#d6625d" d="M 50.5,43.5 C 50.8417,42.6618 51.5084,42.3284 52.5,42.5C 52.8254,50.3516 52.492,58.0182 51.5,65.5C 51.825,57.9809 51.4916,50.6476 50.5,43.5 Z"/></g>
<g><path style="opacity:1" fill="#d76c66" d="M 58.5,39.5 C 58.5,39.8333 58.5,40.1667 58.5,40.5C 56.5785,48.5637 55.9118,56.897 56.5,65.5C 57.791,65.2627 58.791,65.596 59.5,66.5C 56.6085,67.4025 53.6085,67.7359 50.5,67.5C 50.1583,66.6618 49.4916,66.3284 48.5,66.5C 49.209,65.596 50.209,65.2627 51.5,65.5C 52.3132,66.6527 53.3132,66.6527 54.5,65.5C 55.4977,57.5277 55.831,49.5277 55.5,41.5C 56.2905,40.5987 57.2905,39.9321 58.5,39.5 Z"/></g>
<g><path style="opacity:1" fill="#da5044" d="M 20.5,44.5 C 21.2344,45.8775 21.9011,47.3775 22.5,49C 24.1346,49.5396 25.4679,49.0396 26.5,47.5C 26.8333,47.8333 27.1667,48.1667 27.5,48.5C 25.1266,52.4813 22.7933,52.4813 20.5,48.5C 20.5,47.1667 20.5,45.8333 20.5,44.5 Z"/></g>
<g><path style="opacity:1" fill="#ca231d" d="M 43.5,45.5 C 43.8333,45.5 44.1667,45.5 44.5,45.5C 45.8142,47.9151 46.4809,50.7485 46.5,54C 46.3333,56.8333 46.1667,59.6667 46,62.5C 45.3292,63.2524 44.4959,63.5858 43.5,63.5C 43.5,57.5 43.5,51.5 43.5,45.5 Z"/></g>
<g><path style="opacity:1" fill="#f6f4f4" d="M 58.5,40.5 C 60.1548,48.6168 61.1548,56.9501 61.5,65.5C 61.1583,66.3382 60.4916,66.6716 59.5,66.5C 58.791,65.596 57.791,65.2627 56.5,65.5C 55.9118,56.897 56.5785,48.5637 58.5,40.5 Z"/></g>
<g><path style="opacity:0.275" fill="#e78284" d="M 14.5,20.5 C 15.172,21.2674 16.0053,21.9341 17,22.5C 17.4999,35.4957 17.6666,48.4957 17.5,61.5C 17.5,61.8333 17.5,62.1667 17.5,62.5C 16.669,49.6731 16.169,36.6731 16,23.5C 14.7949,22.9288 13.6283,22.2621 12.5,21.5C 12.9569,20.7025 13.6236,20.3691 14.5,20.5 Z"/></g>
<g><path style="opacity:1" fill="#fcf7f6" d="M 33.5,66.5 C 33.1667,66.5 32.8333,66.5 32.5,66.5C 31.791,65.596 30.791,65.2627 29.5,65.5C 29.5,61.1667 29.5,56.8333 29.5,52.5C 30.7079,51.7659 32.0413,51.4326 33.5,51.5C 33.5,56.5 33.5,61.5 33.5,66.5 Z"/></g>
<g><path style="opacity:1" fill="#e28a86" d="M 33.5,49.5 C 34.804,55.266 34.804,60.9327 33.5,66.5C 33.5,61.5 33.5,56.5 33.5,51.5C 32.0413,51.4326 30.7079,51.7659 29.5,52.5C 28.8333,52.5 28.1667,52.5 27.5,52.5C 29.2504,51.1302 31.2504,50.1302 33.5,49.5 Z"/></g>
<g><path style="opacity:1" fill="#db807a" d="M 43.5,45.5 C 43.5,51.5 43.5,57.5 43.5,63.5C 43.2155,65.4147 43.5489,67.0813 44.5,68.5C 43.2347,69.4793 41.9014,70.4793 40.5,71.5C 39.0986,70.4793 37.7653,69.4793 36.5,68.5C 37.1667,68.5 37.8333,68.5 38.5,68.5C 39.8471,69.1712 41.0138,69.1712 42,68.5C 42.1667,65 42.3333,61.5 42.5,58C 42.4877,54.0982 41.821,50.5982 40.5,47.5C 41.2905,46.5987 42.2905,45.9321 43.5,45.5 Z"/></g>
<g><path style="opacity:1" fill="#ecaca8" d="M 19.5,41.5 C 19.2627,42.791 19.596,43.791 20.5,44.5C 20.5,45.8333 20.5,47.1667 20.5,48.5C 19.5386,50.2646 19.2053,52.2646 19.5,54.5C 20.5,54.5 21.5,54.5 22.5,54.5C 21.5863,57.728 21.2529,61.0613 21.5,64.5C 20.5655,63.4324 20.2322,62.099 20.5,60.5C 19.651,56.5624 18.9844,52.5624 18.5,48.5C 18.5034,45.9746 18.8367,43.6413 19.5,41.5 Z"/></g>
<g><path style="opacity:1" fill="#e89d9a" d="M 25.5,52.5 C 25.5,56.8333 25.5,61.1667 25.5,65.5C 25.1667,65.5 24.8333,65.5 24.5,65.5C 25.0803,61.351 24.4136,57.6843 22.5,54.5C 23.2905,53.5987 24.2905,52.9321 25.5,52.5 Z"/></g>
<g><path style="opacity:1" fill="#fdfbfa" d="M 22.5,54.5 C 24.4136,57.6843 25.0803,61.351 24.5,65.5C 23.209,65.7373 22.209,65.404 21.5,64.5C 21.2529,61.0613 21.5863,57.728 22.5,54.5 Z"/></g>
<g><path style="opacity:1" fill="#f8f8f8" d="M 50.5,43.5 C 51.4916,50.6476 51.825,57.9809 51.5,65.5C 50.209,65.2627 49.209,65.596 48.5,66.5C 47.3454,59.6791 47.1787,52.6791 48,45.5C 48.9947,44.9341 49.828,44.2674 50.5,43.5 Z"/></g>
<g><path style="opacity:1" fill="#c52720" d="M 62.5,38.5 C 63.4924,46.3159 63.8257,54.3159 63.5,62.5C 62.8333,63.5 62.1667,64.5 61.5,65.5C 61.1548,56.9501 60.1548,48.6168 58.5,40.5C 58.5,40.1667 58.5,39.8333 58.5,39.5C 59.8333,39.1667 61.1667,38.8333 62.5,38.5 Z"/></g>
<g><path style="opacity:1" fill="#cb241d" d="M 25.5,52.5 C 26.1667,52.5 26.8333,52.5 27.5,52.5C 28.1667,52.5 28.8333,52.5 29.5,52.5C 29.5,56.8333 29.5,61.1667 29.5,65.5C 28.1667,66.8333 26.8333,66.8333 25.5,65.5C 25.5,61.1667 25.5,56.8333 25.5,52.5 Z"/></g>
<g><path style="opacity:1" fill="#ca3229" d="M 40.5,47.5 C 38.5953,54.2192 37.9287,61.2192 38.5,68.5C 37.8333,68.5 37.1667,68.5 36.5,68.5C 34.7085,68.634 33.0418,68.3007 31.5,67.5C 31.5,66.8333 31.8333,66.5 32.5,66.5C 32.8333,66.5 33.1667,66.5 33.5,66.5C 34.804,60.9327 34.804,55.266 33.5,49.5C 35.7014,48.4336 38.0347,47.767 40.5,47.5 Z"/></g>
<g><path style="opacity:1" fill="#d6584d" d="M 20.5,60.5 C 20.2322,62.099 20.5655,63.4324 21.5,64.5C 22.209,65.404 23.209,65.7373 24.5,65.5C 24.8333,65.5 25.1667,65.5 25.5,65.5C 26.8333,66.8333 28.1667,66.8333 29.5,65.5C 30.791,65.2627 31.791,65.596 32.5,66.5C 31.8333,66.5 31.5,66.8333 31.5,67.5C 27.3951,67.7662 23.3951,67.2662 19.5,66C 18.1772,65.1841 17.5106,64.0174 17.5,62.5C 17.5,62.1667 17.5,61.8333 17.5,61.5C 18.609,61.4431 19.609,61.1098 20.5,60.5 Z"/></g>
<g><path style="opacity:0.999" fill="#cb463c" d="M 50.5,43.5 C 49.828,44.2674 48.9947,44.9341 48,45.5C 47.1787,52.6791 47.3454,59.6791 48.5,66.5C 49.4916,66.3284 50.1583,66.6618 50.5,67.5C 48.5648,68.1495 46.5648,68.4828 44.5,68.5C 43.5489,67.0813 43.2155,65.4147 43.5,63.5C 44.4959,63.5858 45.3292,63.2524 46,62.5C 46.1667,59.6667 46.3333,56.8333 46.5,54C 46.4809,50.7485 45.8142,47.9151 44.5,45.5C 46.2143,44.2616 48.2143,43.595 50.5,43.5 Z"/></g>
<g><path style="opacity:0.008" fill="#ddd3ca" d="M 63.5,62.5 C 63.8333,62.5 64.1667,62.5 64.5,62.5C 64.5,64.5 63.5,65.5 61.5,65.5C 62.1667,64.5 62.8333,63.5 63.5,62.5 Z"/></g>
</svg>
