<?xml version="1.0" encoding="UTF-8"?>
<!DOCTYPE svg PUBLIC "-//W3C//DTD SVG 1.1//EN" "http://www.w3.org/Graphics/SVG/1.1/DTD/svg11.dtd">
<svg xmlns="http://www.w3.org/2000/svg" version="1.1" width="80px" height="80px" style="shape-rendering:geometricPrecision; text-rendering:geometricPrecision; image-rendering:optimizeQuality; fill-rule:evenodd; clip-rule:evenodd" xmlns:xlink="http://www.w3.org/1999/xlink">
<g><path style="opacity:1" fill="#19599c" d="M 15.5,10.5 C 14.5048,22.6554 14.1714,34.9887 14.5,47.5C 13.175,34.9938 13.175,22.3271 14.5,9.5C 15.1067,9.62358 15.44,9.95691 15.5,10.5 Z"/></g>
<g><path style="opacity:1" fill="#2a2a67" d="M 46.5,27.5 C 42.9754,28.7589 39.9754,30.7589 37.5,33.5C 35.5349,26.2395 34.8682,18.5729 35.5,10.5C 39.1667,9.16667 42.8333,9.16667 46.5,10.5C 46.5,16.1667 46.5,21.8333 46.5,27.5 Z"/></g>
<g><path style="opacity:0.471" fill="#4c4e83" d="M 12.5,6.5 C 21.9883,10.4605 31.4883,10.4605 41,6.5C 50.5244,10.4578 60.0244,10.4578 69.5,6.5C 67.0704,8.38146 64.4038,9.7148 61.5,10.5C 54.569,10.7747 47.7356,10.108 41,8.5C 37.4728,9.09086 33.9728,9.75752 30.5,10.5C 25.0494,10.755 19.7161,10.0883 14.5,8.5C 13.2867,8.25284 12.62,7.58617 12.5,6.5 Z"/></g>
<g><path style="opacity:1" fill="#2b2a67" d="M 15.5,10.5 C 18.4824,10.9629 21.4824,11.2962 24.5,11.5C 24.6665,21.5056 24.4998,31.5056 24,41.5C 22.7453,42.2106 21.5786,43.044 20.5,44C 23.7714,43.2737 26.7714,41.7737 29.5,39.5C 30.7752,42.3962 30.7752,45.3962 29.5,48.5C 29.1667,48.5 28.8333,48.5 28.5,48.5C 26.8007,48.4729 25.4674,47.8062 24.5,46.5C 20.1567,46.3474 17.99,48.3474 18,52.5C 18.7083,53.3805 19.5416,54.0472 20.5,54.5C 21.5,55.1667 22.5,55.8333 23.5,56.5C 20.5461,58.2805 17.7128,60.2805 15,62.5C 14.1717,57.798 14.3384,53.1313 15.5,48.5C 17.9367,46.5362 17.6034,46.2028 14.5,47.5C 14.1714,34.9887 14.5048,22.6554 15.5,10.5 Z"/></g>
<g><path style="opacity:1" fill="#03a0eb" d="M 61.5,10.5 C 61.5,10.8333 61.5,11.1667 61.5,11.5C 60.1667,11.5 58.8333,11.5 57.5,11.5C 57.3359,14.1873 57.5026,16.854 58,19.5C 58.7175,18.5494 59.5509,18.3828 60.5,19C 56.1382,21.8437 51.8049,24.6771 47.5,27.5C 47.1667,27.5 46.8333,27.5 46.5,27.5C 46.5,21.8333 46.5,16.1667 46.5,10.5C 42.8333,9.16667 39.1667,9.16667 35.5,10.5C 34.8682,18.5729 35.5349,26.2395 37.5,33.5C 34.8333,35.5 32.1667,37.5 29.5,39.5C 26.7714,41.7737 23.7714,43.2737 20.5,44C 21.5786,43.044 22.7453,42.2106 24,41.5C 24.4998,31.5056 24.6665,21.5056 24.5,11.5C 26.7354,11.7947 28.7354,11.4614 30.5,10.5C 33.9728,9.75752 37.4728,9.09086 41,8.5C 47.7356,10.108 54.569,10.7747 61.5,10.5 Z"/></g>
<g><path style="opacity:1" fill="#302f6b" d="M 60.5,32.5 C 59.8333,32.5 59.1667,32.5 58.5,32.5C 57.8333,33.5 57.1667,34.5 56.5,35.5C 54.2163,35.9752 52.2163,36.9752 50.5,38.5C 49.8333,38.5 49.5,38.1667 49.5,37.5C 50.6843,36.3121 50.6843,35.1455 49.5,34C 47.5,34 45.5,34 43.5,34C 44.8584,33.0656 46.1917,32.2323 47.5,31.5C 46.791,30.596 45.791,30.2627 44.5,30.5C 45.3065,29.2719 46.3065,28.2719 47.5,27.5C 51.8049,24.6771 56.1382,21.8437 60.5,19C 59.5509,18.3828 58.7175,18.5494 58,19.5C 57.5026,16.854 57.3359,14.1873 57.5,11.5C 58.8333,11.5 60.1667,11.5 61.5,11.5C 63.4412,11.1307 65.2745,10.464 67,9.5C 68.0419,12.8039 66.8753,14.9705 63.5,16C 64.549,16.4922 65.549,16.3256 66.5,15.5C 67.6599,19.4589 67.8265,23.4589 67,27.5C 64.648,29.0303 62.4813,30.6969 60.5,32.5 Z"/></g>
<g><path style="opacity:1" fill="#dddce6" d="M 58.5,32.5 C 56.5669,31.3583 55.0669,29.6917 54,27.5C 53.1072,28.7112 52.2739,28.7112 51.5,27.5C 53.3944,25.219 55.7277,24.0524 58.5,24C 57.8333,24.6667 57.1667,25.3333 56.5,26C 58.6891,27.9106 59.3558,30.0773 58.5,32.5 Z"/></g>
<g><path style="opacity:1" fill="#d4d3e0" d="M 62.5,26.5 C 63.7125,27.4971 63.5458,28.4971 62,29.5C 61.5304,28.4232 61.6971,27.4232 62.5,26.5 Z"/></g>
<g><path style="opacity:1" fill="#2a2865" d="M 57.5,69.5 C 57.3335,58.1618 57.5001,46.8284 58,35.5C 59.045,34.6266 59.8783,33.6266 60.5,32.5C 62.7567,32.0383 64.7567,31.0383 66.5,29.5C 67.6659,41.4861 67.8326,53.4861 67,65.5C 64.7607,68.962 61.594,70.2954 57.5,69.5 Z"/></g>
<g><path style="opacity:1" fill="#507cb6" d="M 69.5,6.5 C 70.6623,25.6623 70.829,44.9956 70,64.5C 69.0932,67.5721 67.2599,69.9055 64.5,71.5C 63.791,70.596 62.791,70.2627 61.5,70.5C 59.901,70.7678 58.5676,70.4345 57.5,69.5C 61.594,70.2954 64.7607,68.962 67,65.5C 67.8326,53.4861 67.6659,41.4861 66.5,29.5C 64.7567,31.0383 62.7567,32.0383 60.5,32.5C 62.4813,30.6969 64.648,29.0303 67,27.5C 67.8265,23.4589 67.6599,19.4589 66.5,15.5C 65.549,16.3256 64.549,16.4922 63.5,16C 66.8753,14.9705 68.0419,12.8039 67,9.5C 65.2745,10.464 63.4412,11.1307 61.5,11.5C 61.5,11.1667 61.5,10.8333 61.5,10.5C 64.4038,9.7148 67.0704,8.38146 69.5,6.5 Z"/></g>
<g><path style="opacity:1" fill="#156fb4" d="M 46.5,27.5 C 46.8333,27.5 47.1667,27.5 47.5,27.5C 46.3065,28.2719 45.3065,29.2719 44.5,30.5C 42.3131,31.758 39.9798,32.758 37.5,33.5C 39.9754,30.7589 42.9754,28.7589 46.5,27.5 Z"/></g>
<g><path style="opacity:1" fill="#373a75" d="M 44.5,30.5 C 45.791,30.2627 46.791,30.596 47.5,31.5C 43.1667,31.1667 41.1667,33.1667 41.5,37.5C 43.5116,36.9862 45.5116,36.8195 47.5,37C 46.3774,38.0437 45.0441,38.7104 43.5,39C 45.8401,39.7484 47.8401,39.2484 49.5,37.5C 49.5,38.1667 49.8333,38.5 50.5,38.5C 48.6838,40.1366 46.6838,41.6366 44.5,43C 46.4555,51.9012 47.1222,61.0679 46.5,70.5C 45.8333,70.5 45.1667,70.5 44.5,70.5C 45.802,61.8924 45.802,53.2257 44.5,44.5C 42.0447,46.2967 39.378,47.63 36.5,48.5C 32.0274,50.9048 27.694,53.5715 23.5,56.5C 22.5,55.8333 21.5,55.1667 20.5,54.5C 24.509,54.9864 26.3423,53.3197 26,49.5C 24.8139,51.6766 22.9806,52.6766 20.5,52.5C 20.5,51.1667 20.5,49.8333 20.5,48.5C 22.4832,48.8432 23.8166,48.1765 24.5,46.5C 25.4674,47.8062 26.8007,48.4729 28.5,48.5C 28.3691,49.3764 28.7025,50.0431 29.5,50.5C 30.7733,49.7435 30.7733,49.0768 29.5,48.5C 30.7752,45.3962 30.7752,42.3962 29.5,39.5C 32.1667,37.5 34.8333,35.5 37.5,33.5C 39.9798,32.758 42.3131,31.758 44.5,30.5 Z"/></g>
<g><path style="opacity:1" fill="#dddce6" d="M 47.5,31.5 C 46.1917,32.2323 44.8584,33.0656 43.5,34C 45.5,34 47.5,34 49.5,34C 50.6843,35.1455 50.6843,36.3121 49.5,37.5C 47.8401,39.2484 45.8401,39.7484 43.5,39C 45.0441,38.7104 46.3774,38.0437 47.5,37C 45.5116,36.8195 43.5116,36.9862 41.5,37.5C 41.1667,33.1667 43.1667,31.1667 47.5,31.5 Z"/></g>
<g><path style="opacity:1" fill="#4985c3" d="M 12.5,6.5 C 12.62,7.58617 13.2867,8.25284 14.5,8.5C 19.7161,10.0883 25.0494,10.755 30.5,10.5C 28.7354,11.4614 26.7354,11.7947 24.5,11.5C 21.4824,11.2962 18.4824,10.9629 15.5,10.5C 15.44,9.95691 15.1067,9.62358 14.5,9.5C 13.175,22.3271 13.175,34.9938 14.5,47.5C 17.6034,46.2028 17.9367,46.5362 15.5,48.5C 14.3384,53.1313 14.1717,57.798 15,62.5C 17.7128,60.2805 20.5461,58.2805 23.5,56.5C 23.5,56.8333 23.5,57.1667 23.5,57.5C 20.75,60.0551 17.75,62.3884 14.5,64.5C 16.413,68.7902 19.7464,70.4568 24.5,69.5C 27.9619,70.4816 31.6286,70.815 35.5,70.5C 37.7224,70.178 39.5557,70.8446 41,72.5C 41.8159,71.1772 42.9826,70.5106 44.5,70.5C 45.1667,70.5 45.8333,70.5 46.5,70.5C 49.8333,70.5 53.1667,70.5 56.5,70.5C 56.5,58.8333 56.5,47.1667 56.5,35.5C 57.1667,34.5 57.8333,33.5 58.5,32.5C 59.1667,32.5 59.8333,32.5 60.5,32.5C 59.8783,33.6266 59.045,34.6266 58,35.5C 57.5001,46.8284 57.3335,58.1618 57.5,69.5C 58.5676,70.4345 59.901,70.7678 61.5,70.5C 55.6807,71.3276 49.6807,71.8276 43.5,72C 42.7476,72.6708 42.4142,73.5041 42.5,74.5C 41.0013,76.8022 39.668,76.4689 38.5,73.5C 39.7383,73.19 39.7383,72.69 38.5,72C 32.1667,71.6667 25.8333,71.3333 19.5,71C 18.0544,69.702 16.7211,69.5354 15.5,70.5C 13.39,69.5475 12.2233,67.8808 12,65.5C 11.1709,45.6624 11.3376,25.9957 12.5,6.5 Z"/></g>
<g><path style="opacity:1" fill="#2a2b68" d="M 23.5,57.5 C 24.4834,61.2984 24.8168,65.2984 24.5,69.5C 19.7464,70.4568 16.413,68.7902 14.5,64.5C 17.75,62.3884 20.75,60.0551 23.5,57.5 Z"/></g>
<g><path style="opacity:1" fill="#01a4ee" d="M 36.5,48.5 C 35.536,55.7463 35.2027,63.0796 35.5,70.5C 31.6286,70.815 27.9619,70.4816 24.5,69.5C 24.8168,65.2984 24.4834,61.2984 23.5,57.5C 23.5,57.1667 23.5,56.8333 23.5,56.5C 27.694,53.5715 32.0274,50.9048 36.5,48.5 Z"/></g>
<g><path style="opacity:1" fill="#e5e4ec" d="M 24.5,46.5 C 23.8166,48.1765 22.4832,48.8432 20.5,48.5C 20.5,49.8333 20.5,51.1667 20.5,52.5C 22.9806,52.6766 24.8139,51.6766 26,49.5C 26.3423,53.3197 24.509,54.9864 20.5,54.5C 19.5416,54.0472 18.7083,53.3805 18,52.5C 17.99,48.3474 20.1567,46.3474 24.5,46.5 Z"/></g>
<g><path style="opacity:1" fill="#d2d2de" d="M 28.5,48.5 C 28.8333,48.5 29.1667,48.5 29.5,48.5C 30.7733,49.0768 30.7733,49.7435 29.5,50.5C 28.7025,50.0431 28.3691,49.3764 28.5,48.5 Z"/></g>
<g><path style="opacity:1" fill="#2a2966" d="M 44.5,70.5 C 42.9826,70.5106 41.8159,71.1772 41,72.5C 39.5557,70.8446 37.7224,70.178 35.5,70.5C 35.2027,63.0796 35.536,55.7463 36.5,48.5C 39.378,47.63 42.0447,46.2967 44.5,44.5C 45.802,53.2257 45.802,61.8924 44.5,70.5 Z"/></g>
<g><path style="opacity:1" fill="#dbdbe5" d="M 40.5,40.5 C 42.337,40.6395 42.6704,41.3061 41.5,42.5C 40.7025,42.0431 40.3691,41.3764 40.5,40.5 Z"/></g>
<g><path style="opacity:1" fill="#dfdfe8" d="M 31.5,39.5 C 34.691,39.7622 37.3577,41.0955 39.5,43.5C 36.2642,43.9473 33.9309,45.6139 32.5,48.5C 31.5159,45.5719 31.1826,42.5719 31.5,39.5 Z"/></g>
<g><path style="opacity:1" fill="#00a5f0" d="M 56.5,35.5 C 56.5,47.1667 56.5,58.8333 56.5,70.5C 53.1667,70.5 49.8333,70.5 46.5,70.5C 47.1222,61.0679 46.4555,51.9012 44.5,43C 46.6838,41.6366 48.6838,40.1366 50.5,38.5C 52.2163,36.9752 54.2163,35.9752 56.5,35.5 Z"/></g>
<g><path style="opacity:1" fill="#a2a0bb" d="M 51.5,33.5 C 54.7973,33.3287 55.1306,33.9954 52.5,35.5C 51.7025,35.0431 51.3691,34.3764 51.5,33.5 Z"/></g>
<g><path style="opacity:0.584" fill="#49487d" d="M 15.5,70.5 C 16.7211,69.5354 18.0544,69.702 19.5,71C 25.8333,71.3333 32.1667,71.6667 38.5,72C 39.7383,72.69 39.7383,73.19 38.5,73.5C 31.5793,72.7027 24.5793,72.2027 17.5,72C 16.9558,71.2828 16.2891,70.7828 15.5,70.5 Z"/></g>
<g><path style="opacity:0.584" fill="#3e3b74" d="M 61.5,70.5 C 62.791,70.2627 63.791,70.596 64.5,71.5C 57.9131,72.2953 51.2464,72.7953 44.5,73C 43.9558,73.7172 43.2891,74.2172 42.5,74.5C 42.4142,73.5041 42.7476,72.6708 43.5,72C 49.6807,71.8276 55.6807,71.3276 61.5,70.5 Z"/></g>
</svg>
