<?xml version="1.0" encoding="UTF-8"?>
<!DOCTYPE svg PUBLIC "-//W3C//DTD SVG 1.1//EN" "http://www.w3.org/Graphics/SVG/1.1/DTD/svg11.dtd">
<svg xmlns="http://www.w3.org/2000/svg" version="1.1" width="80px" height="80px" style="shape-rendering:geometricPrecision; text-rendering:geometricPrecision; image-rendering:optimizeQuality; fill-rule:evenodd; clip-rule:evenodd" xmlns:xlink="http://www.w3.org/1999/xlink">
<g><path style="opacity:0.971" fill="#16140f" d="M 74.5,12.5 C 76.4136,15.6843 77.0803,19.351 76.5,23.5C 74.8589,48.7745 62.8589,67.1078 40.5,78.5C 20.9821,68.7938 9.14872,53.1272 5,31.5C 3.94768,24.8724 3.44768,18.2057 3.5,11.5C 9.46316,12.5304 15.4632,12.6971 21.5,12C 28.4277,9.86951 34.761,6.70285 40.5,2.5C 46.239,6.70285 52.5723,9.86951 59.5,12C 64.4889,12.4993 69.4889,12.6659 74.5,12.5 Z"/></g>
<g><path style="opacity:0.309" fill="#989795" d="M 74.5,12.5 C 75.209,11.596 76.209,11.2627 77.5,11.5C 77.8168,15.7016 77.4834,19.7016 76.5,23.5C 77.0803,19.351 76.4136,15.6843 74.5,12.5 Z"/></g>
<g><path style="opacity:1" fill="#d3d2d2" d="M 31.5,20.5 C 31.8333,20.5 32.1667,20.5 32.5,20.5C 32.6309,21.3764 32.2975,22.0431 31.5,22.5C 30.4822,21.8075 29.4822,21.1408 28.5,20.5C 28.0269,19.0937 27.0269,18.427 25.5,18.5C 24.1498,17.3501 24.3164,16.6834 26,16.5C 27.981,17.6502 29.8143,18.9835 31.5,20.5 Z"/></g>
<g><path style="opacity:1" fill="#73716f" d="M 32.5,20.5 C 32.1667,20.5 31.8333,20.5 31.5,20.5C 30.5661,18.7615 30.5661,17.0948 31.5,15.5C 32.4519,17.0453 32.7852,18.712 32.5,20.5 Z"/></g>
<g><path style="opacity:1" fill="#767472" d="M 19.5,20.5 C 21.1436,20.8102 22.1436,21.8102 22.5,23.5C 21.448,23.3505 20.448,23.5172 19.5,24C 20.6956,24.6543 20.6956,25.1543 19.5,25.5C 18.2121,23.7015 18.2121,22.0348 19.5,20.5 Z"/></g>
<g><path style="opacity:1" fill="#a2a19f" d="M 12.5,18.5 C 16.4557,19.0527 16.4557,19.8861 12.5,21C 13.7932,21.49 15.1266,21.6567 16.5,21.5C 17.101,25.909 15.4343,27.2424 11.5,25.5C 12.8255,25.7948 14.1588,25.2948 15.5,24C 14.2068,23.51 12.8734,23.3433 11.5,23.5C 11.366,21.7085 11.6993,20.0418 12.5,18.5 Z"/></g>
<g><path style="opacity:1" fill="#d8d8d7" d="M 24.5,23.5 C 24.5,23.8333 24.5,24.1667 24.5,24.5C 23.5084,24.6716 22.8417,24.3382 22.5,23.5C 22.1436,21.8102 21.1436,20.8102 19.5,20.5C 19.5173,18.9719 20.184,18.4719 21.5,19C 22.3862,20.6147 23.3862,22.1147 24.5,23.5 Z"/></g>
<g><path style="opacity:1" fill="#585754" d="M 25.5,18.5 C 27.0269,18.427 28.0269,19.0937 28.5,20.5C 27.3473,21.3132 27.3473,22.3132 28.5,23.5C 27.3112,24.4287 25.9778,24.762 24.5,24.5C 24.5,24.1667 24.5,23.8333 24.5,23.5C 25.4511,22.0813 25.7845,20.4147 25.5,18.5 Z"/></g>
<g><path style="opacity:1" fill="#b6b5b4" d="M 54.5,24.5 C 54.8417,25.3382 55.5084,25.6716 56.5,25.5C 56.6309,26.3764 56.2975,27.0431 55.5,27.5C 54.086,26.376 52.586,25.376 51,24.5C 50.9152,26.0846 50.7486,27.4179 50.5,28.5C 49.3526,26.2351 49.1859,23.9018 50,21.5C 51.2708,22.8825 52.7708,23.8825 54.5,24.5 Z"/></g>
<g><path style="opacity:1" fill="#7b7a78" d="M 56.5,25.5 C 55.5084,25.6716 54.8417,25.3382 54.5,24.5C 54.0941,22.8908 54.0941,21.5575 54.5,20.5C 55.562,22.0217 56.2287,23.6883 56.5,25.5 Z"/></g>
<g><path style="opacity:1" fill="#aaaaa8" d="M 41.5,22.5 C 43.5,22.5 45.5,22.5 47.5,22.5C 47.2436,24.7925 47.5769,26.9592 48.5,29C 47.552,29.4828 46.552,29.6495 45.5,29.5C 45.5,27.8333 45.5,26.1667 45.5,24.5C 44.1667,24.5 42.8333,24.5 41.5,24.5C 41.472,26.5824 42.1387,28.4157 43.5,30C 42.552,30.4828 41.552,30.6495 40.5,30.5C 40.7989,28.396 40.4656,26.396 39.5,24.5C 38.6043,25.5063 37.9377,25.5063 37.5,24.5C 38.9492,23.8281 40.2825,23.1614 41.5,22.5 Z"/></g>
<g><path style="opacity:1" fill="#b0afae" d="M 35.5,30.5 C 33.2448,24.089 32.4114,24.4223 33,31.5C 32.6174,30.944 32.1174,30.6107 31.5,30.5C 31.6427,28.7376 31.3094,27.0709 30.5,25.5C 32.3529,24.2404 34.1862,24.2404 36,25.5C 35.1894,27.7912 36.0228,29.6246 38.5,31C 37.2506,31.7401 36.2506,31.5735 35.5,30.5 Z"/></g>
<g><path style="opacity:1" fill="#5d5b59" d="M 35.5,30.5 C 34.2209,31.968 32.5542,32.6347 30.5,32.5C 30.5,32.1667 30.5,31.8333 30.5,31.5C 31.1667,31.5 31.5,31.1667 31.5,30.5C 32.1174,30.6107 32.6174,30.944 33,31.5C 32.4114,24.4223 33.2448,24.089 35.5,30.5 Z"/></g>
<g><path style="opacity:1" fill="#e0e0e0" d="M 30.5,31.5 C 30.5,31.8333 30.5,32.1667 30.5,32.5C 29.391,32.4431 28.391,32.1098 27.5,31.5C 27.2671,29.9382 26.6005,28.6049 25.5,27.5C 25.4346,27.0618 25.6012,26.7284 26,26.5C 27.517,28.2395 29.017,29.9062 30.5,31.5 Z"/></g>
<g><path style="opacity:1" fill="#b9b9b8" d="M 21.5,31.5 C 21.5,32.5 21.5,33.5 21.5,34.5C 20.2379,31.9292 18.9045,31.9292 17.5,34.5C 16.6667,33.5 15.8333,32.5 15,31.5C 14.9152,33.0846 14.7486,34.4179 14.5,35.5C 13.1667,33.1667 13.1667,30.8333 14.5,28.5C 15.2807,29.7366 16.2807,30.7366 17.5,31.5C 19.5059,26.4521 20.8392,26.4521 21.5,31.5 Z"/></g>
<g><path style="opacity:1" fill="#3fa834" d="M 56.5,62.5 C 56.5,51.8333 56.5,41.1667 56.5,30.5C 57.791,30.7373 58.791,30.404 59.5,29.5C 61.3792,28.6586 63.3792,28.3253 65.5,28.5C 65.6664,36.5069 65.4997,44.5069 65,52.5C 62.8601,56.4623 60.0267,59.7956 56.5,62.5 Z"/></g>
<g><path style="opacity:1" fill="#36872b" d="M 59.5,29.5 C 58.791,30.404 57.791,30.7373 56.5,30.5C 56.5,41.1667 56.5,51.8333 56.5,62.5C 55.501,52.2491 55.1677,41.2491 55.5,29.5C 56.8333,29.5 58.1667,29.5 59.5,29.5 Z"/></g>
<g><path style="opacity:1" fill="#7d7c7a" d="M 25.5,27.5 C 26.6005,28.6049 27.2671,29.9382 27.5,31.5C 25.9878,33.3167 23.9878,34.3167 21.5,34.5C 21.5,33.5 21.5,32.5 21.5,31.5C 22.2216,31.9175 22.7216,32.5842 23,33.5C 24.0192,31.4982 24.8525,29.4982 25.5,27.5 Z"/></g>
<g><path style="opacity:1" fill="#3fa734" d="M 40.5,32.5 C 42.1667,32.5 43.8333,32.5 45.5,32.5C 45.6666,45.8375 45.4999,59.1708 45,72.5C 42,76.5 39,76.5 36,72.5C 35.5001,59.5043 35.3334,46.5043 35.5,33.5C 37.4147,33.7845 39.0813,33.4511 40.5,32.5 Z"/></g>
<g><path style="opacity:1" fill="#3ea433" d="M 19.5,36.5 C 21.5,36.5 23.5,36.5 25.5,36.5C 25.6664,45.5062 25.4998,54.5062 25,63.5C 21.2823,60.3844 18.2823,56.7177 16,52.5C 15.5007,47.5111 15.3341,42.5111 15.5,37.5C 17.099,37.7678 18.4324,37.4345 19.5,36.5 Z"/></g>
</svg>
