<?xml version="1.0" encoding="UTF-8"?>
<!DOCTYPE svg PUBLIC "-//W3C//DTD SVG 1.1//EN" "http://www.w3.org/Graphics/SVG/1.1/DTD/svg11.dtd">
<svg xmlns="http://www.w3.org/2000/svg" version="1.1" width="80px" height="80px" style="shape-rendering:geometricPrecision; text-rendering:geometricPrecision; image-rendering:optimizeQuality; fill-rule:evenodd; clip-rule:evenodd" xmlns:xlink="http://www.w3.org/1999/xlink">
<g><path style="opacity:0.974" fill="#1d9e3d" d="M 13.5,6.5 C 31.5,6.5 49.5,6.5 67.5,6.5C 67.6666,23.5033 67.4999,40.5033 67,57.5C 66.1166,60.1024 64.6166,62.2691 62.5,64C 54.9996,68.2491 47.6663,72.7491 40.5,77.5C 33.3337,72.7491 26.0004,68.2491 18.5,64C 16.3834,62.2691 14.8834,60.1024 14,57.5C 13.5001,40.5033 13.3334,23.5033 13.5,6.5 Z"/></g>
<g><path style="opacity:1" fill="#edf7f0" d="M 22.5,10.5 C 23.8333,10.5 25.1667,10.5 26.5,10.5C 25.1392,13.025 23.4726,15.3584 21.5,17.5C 22.0728,20.0853 23.7395,21.0853 26.5,20.5C 26.5,21.8333 26.5,23.1667 26.5,24.5C 17.535,22.0549 16.2016,17.3882 22.5,10.5 Z"/></g>
<g><path style="opacity:1" fill="#f3faf5" d="M 32.5,19.5 C 31.8386,20.7175 31.1719,22.0508 30.5,23.5C 29.513,20.2317 29.1796,16.8984 29.5,13.5C 31.5628,10.0271 34.0628,9.6938 37,12.5C 37.4988,16.4862 37.6655,20.4862 37.5,24.5C 36.5,24.5 35.5,24.5 34.5,24.5C 34.9227,22.2188 34.256,20.5521 32.5,19.5 Z"/></g>
<g><path style="opacity:1" fill="#e6f5ea" d="M 41.5,10.5 C 43.5,10.5 45.5,10.5 47.5,10.5C 47.5,11.5 47.5,12.5 47.5,13.5C 42.4848,13.8632 42.3181,15.1966 47,17.5C 48.1667,22.8353 46.0001,25.1686 40.5,24.5C 40.5,23.1667 40.5,21.8333 40.5,20.5C 41.8734,20.6567 43.2068,20.49 44.5,20C 39.3698,17.9595 38.3698,14.7929 41.5,10.5 Z"/></g>
<g><path style="opacity:1" fill="#eff8f2" d="M 62.5,19.5 C 62.666,23.3734 61.666,24.0401 59.5,21.5C 59.6495,20.448 59.4828,19.448 59,18.5C 58.7266,20.1012 58.2266,21.6012 57.5,23C 56.2506,23.7401 55.2506,23.5735 54.5,22.5C 54.762,21.0222 54.4287,19.6888 53.5,18.5C 52.5481,20.0453 52.2148,21.712 52.5,23.5C 51.791,24.404 50.791,24.7373 49.5,24.5C 49.4719,19.8624 50.1385,15.3624 51.5,11C 54.0638,10.5498 55.5638,11.7164 56,14.5C 57.2108,10.5375 59.2108,9.87087 62,12.5C 62.4966,14.8098 62.6633,17.1432 62.5,19.5 Z"/></g>
<g><path style="opacity:1" fill="#bce3c8" d="M 29.5,13.5 C 29.1796,16.8984 29.513,20.2317 30.5,23.5C 31.1719,22.0508 31.8386,20.7175 32.5,19.5C 32.5,21.1667 32.5,22.8333 32.5,24.5C 31.1667,24.5 29.8333,24.5 28.5,24.5C 28.185,20.6286 28.5184,16.9619 29.5,13.5 Z"/></g>
<g><path style="opacity:1" fill="#3bad5d" d="M 32.5,14.5 C 34.337,14.6395 34.6704,15.3061 33.5,16.5C 32.7025,16.0431 32.3691,15.3764 32.5,14.5 Z"/></g>
<g><path style="opacity:1" fill="#67c081" d="M 54.5,22.5 C 53.8333,22.8333 53.1667,23.1667 52.5,23.5C 52.2148,21.712 52.5481,20.0453 53.5,18.5C 54.4287,19.6888 54.762,21.0222 54.5,22.5 Z"/></g>
<g><path style="opacity:1" fill="#a3d9b3" d="M 62.5,19.5 C 63.4511,20.9187 63.7845,22.5853 63.5,24.5C 62.1667,24.5 60.8333,24.5 59.5,24.5C 59.5,23.5 59.5,22.5 59.5,21.5C 61.666,24.0401 62.666,23.3734 62.5,19.5 Z"/></g>
<g><path style="opacity:1" fill="#fefefe" d="M 34.5,69.5 C 31.3037,68.0713 28.3037,66.4046 25.5,64.5C 25.5,52.1667 25.5,39.8333 25.5,27.5C 28.5,27.5 31.5,27.5 34.5,27.5C 34.5,41.5 34.5,55.5 34.5,69.5 Z"/></g>
<g><path style="opacity:1" fill="#bde3c8" d="M 34.5,69.5 C 34.5,55.5 34.5,41.5 34.5,27.5C 31.5,27.5 28.5,27.5 25.5,27.5C 25.5,39.8333 25.5,52.1667 25.5,64.5C 24.5046,52.011 24.1713,39.3443 24.5,26.5C 28.1667,26.5 31.8333,26.5 35.5,26.5C 35.8293,41.0097 35.4959,55.3431 34.5,69.5 Z"/></g>
<g><path style="opacity:1" fill="#a4dab6" d="M 56.5,27.5 C 53.1667,27.5 49.8333,27.5 46.5,27.5C 46.5,41.5 46.5,55.5 46.5,69.5C 45.5041,55.3431 45.1707,41.0097 45.5,26.5C 49.3714,26.185 53.0381,26.5184 56.5,27.5 Z"/></g>
<g><path style="opacity:1" fill="#fcfdfc" d="M 56.5,27.5 C 56.6665,39.8378 56.4999,52.1712 56,64.5C 52.8855,66.3068 49.7188,67.9735 46.5,69.5C 46.5,55.5 46.5,41.5 46.5,27.5C 49.8333,27.5 53.1667,27.5 56.5,27.5 Z"/></g>
</svg>
