<?xml version="1.0" encoding="UTF-8"?>
<!DOCTYPE svg PUBLIC "-//W3C//DTD SVG 1.1//EN" "http://www.w3.org/Graphics/SVG/1.1/DTD/svg11.dtd">
<svg xmlns="http://www.w3.org/2000/svg" version="1.1" width="80px" height="80px" style="shape-rendering:geometricPrecision; text-rendering:geometricPrecision; image-rendering:optimizeQuality; fill-rule:evenodd; clip-rule:evenodd" xmlns:xlink="http://www.w3.org/1999/xlink">
<g><path style="opacity:1" fill="#fdfafa" d="M 37.5,10.5 C 37.5,13.8333 37.5,17.1667 37.5,20.5C 35.5853,20.2155 33.9187,20.5489 32.5,21.5C 29.9876,15.9375 31.6543,12.2708 37.5,10.5 Z"/></g>
<g><path style="opacity:1" fill="#ce2929" d="M 45.5,8.5 C 44.2185,11.9359 44.2185,15.2693 45.5,18.5C 46.1667,18.5 46.8333,18.5 47.5,18.5C 47.5,18.8333 47.5,19.1667 47.5,19.5C 44.7938,19.5751 42.1272,19.9084 39.5,20.5C 38.8333,17.1667 38.1667,13.8333 37.5,10.5C 31.6543,12.2708 29.9876,15.9375 32.5,21.5C 33.1667,21.5 33.5,21.8333 33.5,22.5C 31.139,22.6741 28.8056,23.0074 26.5,23.5C 25.8333,23.5 25.1667,23.5 24.5,23.5C 24.5,21.1667 24.5,18.8333 24.5,16.5C 22.1944,16.9926 19.861,17.3259 17.5,17.5C 17.5,19.8333 17.5,22.1667 17.5,24.5C 17.5,24.8333 17.5,25.1667 17.5,25.5C 13.4399,24.8482 11.4399,26.5149 11.5,30.5C 11.7373,31.791 11.404,32.791 10.5,33.5C 9.5476,27.9252 9.21427,22.2586 9.5,16.5C 21.3779,16.2216 32.0446,12.5549 41.5,5.5C 43.4172,5.75384 44.7505,6.75384 45.5,8.5 Z"/></g>
<g><path style="opacity:1" fill="#d44443" d="M 45.5,8.5 C 53.7391,13.5782 62.7391,16.2449 72.5,16.5C 72.6716,17.4916 72.3382,18.1583 71.5,18.5C 67.2094,18.6251 63.0427,17.9584 59,16.5C 55.0826,17.3148 51.2493,18.3148 47.5,19.5C 47.5,19.1667 47.5,18.8333 47.5,18.5C 48.5676,17.5655 49.901,17.2322 51.5,17.5C 51.6567,16.1266 51.49,14.7932 51,13.5C 49.3333,12.5 47.6667,11.5 46,10.5C 45.5026,13.146 45.3359,15.8127 45.5,18.5C 44.2185,15.2693 44.2185,11.9359 45.5,8.5 Z"/></g>
<g><path style="opacity:1" fill="#fcf8f8" d="M 47.5,18.5 C 46.8333,18.5 46.1667,18.5 45.5,18.5C 45.3359,15.8127 45.5026,13.146 46,10.5C 47.6667,11.5 49.3333,12.5 51,13.5C 51.49,14.7932 51.6567,16.1266 51.5,17.5C 49.901,17.2322 48.5676,17.5655 47.5,18.5 Z"/></g>
<g><path style="opacity:1" fill="#fbf2f2" d="M 24.5,23.5 C 22.0971,23.448 19.7638,23.7814 17.5,24.5C 17.5,22.1667 17.5,19.8333 17.5,17.5C 19.861,17.3259 22.1944,16.9926 24.5,16.5C 24.5,18.8333 24.5,21.1667 24.5,23.5 Z"/></g>
<g><path style="opacity:1" fill="#fcf5f5" d="M 71.5,18.5 C 71.5,21.8333 71.5,25.1667 71.5,28.5C 69.9724,29.3092 68.3057,29.9759 66.5,30.5C 66.1667,30.5 65.8333,30.5 65.5,30.5C 63.1055,31.0147 60.7722,31.6814 58.5,32.5C 55.7938,32.5751 53.1272,32.9084 50.5,33.5C 48.3024,33.8751 46.3024,34.5418 44.5,35.5C 42.4352,35.5172 40.4352,35.8505 38.5,36.5C 35.5718,36.5651 32.9052,37.2318 30.5,38.5C 27.7294,38.4207 25.0627,38.9207 22.5,40C 24.4343,46.2113 25.101,52.7113 24.5,59.5C 18.8816,54.9086 16.5483,48.9086 17.5,41.5C 18.552,41.6495 19.552,41.4828 20.5,41C 18.141,40.7922 15.9743,40.6256 14,40.5C 13.262,37.0087 12.4287,33.6754 11.5,30.5C 11.4399,26.5149 13.4399,24.8482 17.5,25.5C 20.6888,25.1417 23.6888,24.475 26.5,23.5C 28.8056,23.0074 31.139,22.6741 33.5,22.5C 35.6976,22.1249 37.6976,21.4582 39.5,20.5C 42.1272,19.9084 44.7938,19.5751 47.5,19.5C 51.2493,18.3148 55.0826,17.3148 59,16.5C 63.0427,17.9584 67.2094,18.6251 71.5,18.5 Z"/></g>
<g><path style="opacity:0.619" fill="#e27b7f" d="M 72.5,16.5 C 73.8333,21.5 73.8333,26.5 72.5,31.5C 72.7373,30.209 72.404,29.209 71.5,28.5C 71.5,25.1667 71.5,21.8333 71.5,18.5C 72.3382,18.1583 72.6716,17.4916 72.5,16.5 Z"/></g>
<g><path style="opacity:1" fill="#e58a8c" d="M 37.5,10.5 C 38.1667,13.8333 38.8333,17.1667 39.5,20.5C 37.6976,21.4582 35.6976,22.1249 33.5,22.5C 33.5,21.8333 33.1667,21.5 32.5,21.5C 33.9187,20.5489 35.5853,20.2155 37.5,20.5C 37.5,17.1667 37.5,13.8333 37.5,10.5 Z"/></g>
<g><path style="opacity:1" fill="#d13331" d="M 53.5,19.5 C 55.5273,19.3379 57.5273,19.5045 59.5,20C 58.4844,20.5194 57.8178,21.3527 57.5,22.5C 58.6207,25.1965 58.6207,27.8631 57.5,30.5C 56.5109,27.5623 55.8442,24.5623 55.5,21.5C 53.0065,21.8693 52.3398,21.2027 53.5,19.5 Z"/></g>
<g><path style="opacity:1" fill="#e48384" d="M 24.5,23.5 C 25.1667,23.5 25.8333,23.5 26.5,23.5C 23.6888,24.475 20.6888,25.1417 17.5,25.5C 17.5,25.1667 17.5,24.8333 17.5,24.5C 19.7638,23.7814 22.0971,23.448 24.5,23.5 Z"/></g>
<g><path style="opacity:1" fill="#d23636" d="M 24.5,25.5 C 25.9778,25.238 27.3112,25.5713 28.5,26.5C 24.1354,27.0157 22.302,29.3491 23,33.5C 24.8647,35.6732 27.0314,36.0066 29.5,34.5C 30.6039,35.6313 30.2705,36.4646 28.5,37C 22.6667,37.8333 20.1667,35.3333 21,29.5C 22.1022,28.051 23.2689,26.7177 24.5,25.5 Z"/></g>
<g><path style="opacity:1" fill="#d03131" d="M 40.5,23.5 C 43.5883,25.7601 46.255,28.5935 48.5,32C 46.4062,30.9057 44.0729,30.5723 41.5,31C 40.9288,32.2051 40.2621,33.3717 39.5,34.5C 39.1667,33.8333 38.8333,33.1667 38.5,32.5C 39.3284,29.5212 39.9951,26.5212 40.5,23.5 Z"/></g>
<g><path style="opacity:1" fill="#f2cacc" d="M 41.5,26.5 C 43.332,27.1405 43.6653,28.1405 42.5,29.5C 41.6143,28.675 41.281,27.675 41.5,26.5 Z"/></g>
<g><path style="opacity:1" fill="#cf2b29" d="M 71.5,28.5 C 72.404,29.209 72.7373,30.209 72.5,31.5C 72.4151,37.173 71.0818,42.5063 68.5,47.5C 67.8826,47.6107 67.3826,47.944 67,48.5C 66.5005,42.5092 66.3338,36.5092 66.5,30.5C 68.3057,29.9759 69.9724,29.3092 71.5,28.5 Z"/></g>
<g><path style="opacity:1" fill="#fdfbfb" d="M 65.5,32.5 C 65.6662,38.5092 65.4995,44.5092 65,50.5C 63.7413,53.3559 62.2413,56.0226 60.5,58.5C 59.3434,50.3437 59.1768,42.0104 60,33.5C 61.6995,32.5939 63.5328,32.2606 65.5,32.5 Z"/></g>
<g><path style="opacity:1" fill="#eba3a6" d="M 65.5,30.5 C 65.5,31.1667 65.5,31.8333 65.5,32.5C 63.5328,32.2606 61.6995,32.5939 60,33.5C 59.1768,42.0104 59.3434,50.3437 60.5,58.5C 60.1667,59.1667 59.8333,59.8333 59.5,60.5C 58.5064,51.3483 58.1731,42.015 58.5,32.5C 60.7722,31.6814 63.1055,31.0147 65.5,30.5 Z"/></g>
<g><path style="opacity:1" fill="#e17a7f" d="M 50.5,33.5 C 51.7874,39.0912 52.4541,44.9246 52.5,51C 52.4994,56.6771 52.1661,62.1771 51.5,67.5C 51.5,56.8333 51.5,46.1667 51.5,35.5C 49.3792,35.3253 47.3792,35.6586 45.5,36.5C 45.5,35.8333 45.1667,35.5 44.5,35.5C 46.3024,34.5418 48.3024,33.8751 50.5,33.5 Z"/></g>
<g><path style="opacity:1" fill="#cb181b" d="M 58.5,32.5 C 58.1731,42.015 58.5064,51.3483 59.5,60.5C 59.5,61.1667 59.5,61.8333 59.5,62.5C 54.6135,68.6086 48.6135,73.2752 41.5,76.5C 39.9623,76.5466 38.9623,75.8799 38.5,74.5C 38.1667,73.8333 37.8333,73.1667 37.5,72.5C 38.4949,61.012 38.8283,49.3453 38.5,37.5C 38.5,37.1667 38.5,36.8333 38.5,36.5C 40.4352,35.8505 42.4352,35.5172 44.5,35.5C 45.1667,35.5 45.5,35.8333 45.5,36.5C 44.1755,48.3398 44.1755,60.3398 45.5,72.5C 46.1067,72.3764 46.44,72.0431 46.5,71.5C 48.3885,70.396 50.0552,69.0627 51.5,67.5C 52.1661,62.1771 52.4994,56.6771 52.5,51C 52.4541,44.9246 51.7874,39.0912 50.5,33.5C 53.1272,32.9084 55.7938,32.5751 58.5,32.5 Z"/></g>
<g><path style="opacity:1" fill="#fdfcfc" d="M 51.5,67.5 C 50.0552,69.0627 48.3885,70.396 46.5,71.5C 45.5051,60.012 45.1717,48.3453 45.5,36.5C 47.3792,35.6586 49.3792,35.3253 51.5,35.5C 51.5,46.1667 51.5,56.8333 51.5,67.5 Z"/></g>
<g><path style="opacity:1" fill="#e68f93" d="M 45.5,36.5 C 45.1717,48.3453 45.5051,60.012 46.5,71.5C 46.44,72.0431 46.1067,72.3764 45.5,72.5C 44.1755,60.3398 44.1755,48.3398 45.5,36.5 Z"/></g>
<g><path style="opacity:1" fill="#cb191b" d="M 30.5,38.5 C 31.14,48.5578 30.4733,58.2245 28.5,67.5C 26.8333,66.5 25.5,65.1667 24.5,63.5C 23.5946,62.0357 23.5946,60.7024 24.5,59.5C 25.101,52.7113 24.4343,46.2113 22.5,40C 25.0627,38.9207 27.7294,38.4207 30.5,38.5 Z"/></g>
<g><path style="opacity:1" fill="#fdfcfc" d="M 37.5,37.5 C 37.8281,49.0123 37.4948,60.3456 36.5,71.5C 35.1851,70.5244 33.8518,69.5244 32.5,68.5C 31.5015,58.5222 31.1681,48.5222 31.5,38.5C 33.6208,38.6747 35.6208,38.3414 37.5,37.5 Z"/></g>
<g><path style="opacity:1" fill="#e6999c" d="M 37.5,37.5 C 37.8333,37.5 38.1667,37.5 38.5,37.5C 38.8283,49.3453 38.4949,61.012 37.5,72.5C 36.8333,72.5 36.5,72.1667 36.5,71.5C 37.4948,60.3456 37.8281,49.0123 37.5,37.5 Z"/></g>
<g><path style="opacity:1" fill="#d74e52" d="M 38.5,36.5 C 38.5,36.8333 38.5,37.1667 38.5,37.5C 38.1667,37.5 37.8333,37.5 37.5,37.5C 35.6208,38.3414 33.6208,38.6747 31.5,38.5C 31.1681,48.5222 31.5015,58.5222 32.5,68.5C 33.8518,69.5244 35.1851,70.5244 36.5,71.5C 36.5,72.1667 36.8333,72.5 37.5,72.5C 37.8333,73.1667 38.1667,73.8333 38.5,74.5C 34.6082,72.9379 31.2749,70.6046 28.5,67.5C 30.4733,58.2245 31.14,48.5578 30.5,38.5C 32.9052,37.2318 35.5718,36.5651 38.5,36.5 Z"/></g>
<g><path style="opacity:1" fill="#d94d4a" d="M 11.5,30.5 C 12.4287,33.6754 13.262,37.0087 14,40.5C 15.9743,40.6256 18.141,40.7922 20.5,41C 19.552,41.4828 18.552,41.6495 17.5,41.5C 16.5483,48.9086 18.8816,54.9086 24.5,59.5C 23.5946,60.7024 23.5946,62.0357 24.5,63.5C 17.1665,54.8286 12.4998,44.8286 10.5,33.5C 11.404,32.791 11.7373,31.791 11.5,30.5 Z"/></g>
<g><path style="opacity:0.69" fill="#dc5656" d="M 65.5,30.5 C 65.8333,30.5 66.1667,30.5 66.5,30.5C 66.3338,36.5092 66.5005,42.5092 67,48.5C 67.3826,47.944 67.8826,47.6107 68.5,47.5C 66.2513,53.0054 63.2513,58.0054 59.5,62.5C 59.5,61.8333 59.5,61.1667 59.5,60.5C 59.8333,59.8333 60.1667,59.1667 60.5,58.5C 62.2413,56.0226 63.7413,53.3559 65,50.5C 65.4995,44.5092 65.6662,38.5092 65.5,32.5C 65.5,31.8333 65.5,31.1667 65.5,30.5 Z"/></g>
</svg>
