<?xml version="1.0" encoding="UTF-8"?>
<!DOCTYPE svg PUBLIC "-//W3C//DTD SVG 1.1//EN" "http://www.w3.org/Graphics/SVG/1.1/DTD/svg11.dtd">
<svg xmlns="http://www.w3.org/2000/svg" version="1.1" width="80px" height="80px" style="shape-rendering:geometricPrecision; text-rendering:geometricPrecision; image-rendering:optimizeQuality; fill-rule:evenodd; clip-rule:evenodd" xmlns:xlink="http://www.w3.org/1999/xlink">
<g><path style="opacity:0.584" fill="#3382a0" d="M 67.5,8.5 C 66.5,8.5 65.5,8.5 64.5,8.5C 61.8261,3.38637 57.8261,2.05304 52.5,4.5C 51.5,4.5 50.5,4.5 49.5,4.5C 52.7073,3.51327 56.0407,2.51327 59.5,1.5C 62.7769,3.10862 65.4436,5.44196 67.5,8.5 Z"/></g>
<g><path style="opacity:1" fill="#37bded" d="M 64.5,8.5 C 65.8333,10.1667 67.1667,11.8333 68.5,13.5C 68.8342,16.188 68.1675,18.5214 66.5,20.5C 59.8333,27.5 53.1667,34.5 46.5,41.5C 46.5,41.1667 46.5,40.8333 46.5,40.5C 45.2042,36.2613 43.5375,32.2613 41.5,28.5C 40.791,27.596 39.791,27.2627 38.5,27.5C 43.9262,20.5697 49.9262,14.0697 56.5,8C 53.1996,8.04552 49.8663,8.21218 46.5,8.5C 45.5084,8.67158 44.8417,8.33825 44.5,7.5C 49.0314,7.10603 53.5314,6.43937 58,5.5C 60.2818,6.28976 62.4484,7.28976 64.5,8.5 Z"/></g>
<g><path style="opacity:1" fill="#fbfdfe" d="M 46.5,8.5 C 49.8663,8.21218 53.1996,8.04552 56.5,8C 49.9262,14.0697 43.9262,20.5697 38.5,27.5C 32.4729,32.8604 26.8063,38.5271 21.5,44.5C 20.6482,40.1121 19.3148,35.7788 17.5,31.5C 17.6716,30.5084 17.3382,29.8417 16.5,29.5C 10.8304,19.729 12.8304,12.0623 22.5,6.5C 30.485,9.26728 38.485,9.93395 46.5,8.5 Z"/></g>
<g><path style="opacity:1" fill="#dcf3fb" d="M 64.5,8.5 C 62.4484,7.28976 60.2818,6.28976 58,5.5C 53.5314,6.43937 49.0314,7.10603 44.5,7.5C 40.4862,7.66551 36.4862,7.49885 32.5,7C 39.4248,6.99343 46.0915,6.16009 52.5,4.5C 57.8261,2.05304 61.8261,3.38637 64.5,8.5 Z"/></g>
<g><path style="opacity:1" fill="#79c8e6" d="M 31.5,4.5 C 37.5,4.5 43.5,4.5 49.5,4.5C 50.5,4.5 51.5,4.5 52.5,4.5C 46.0915,6.16009 39.4248,6.99343 32.5,7C 36.4862,7.49885 40.4862,7.66551 44.5,7.5C 44.8417,8.33825 45.5084,8.67158 46.5,8.5C 38.485,9.93395 30.485,9.26728 22.5,6.5C 12.8304,12.0623 10.8304,19.729 16.5,29.5C 16.0623,30.5063 15.3957,30.5063 14.5,29.5C 14.3146,27.8042 13.4813,26.4709 12,25.5C 10.1722,18.7595 11.6722,13.0928 16.5,8.5C 17.8394,6.49389 19.5061,4.82722 21.5,3.5C 24.7831,4.32704 28.1165,4.66037 31.5,4.5 Z"/></g>
<g><path style="opacity:1" fill="#daf2fb" d="M 16.5,8.5 C 11.6722,13.0928 10.1722,18.7595 12,25.5C 13.4813,26.4709 14.3146,27.8042 14.5,29.5C 13.2058,28.7101 12.0391,27.7101 11,26.5C 10.3333,21.8333 10.3333,17.1667 11,12.5C 12.4119,10.548 14.2453,9.2147 16.5,8.5 Z"/></g>
<g><path style="opacity:1" fill="#dcf3fb" d="M 64.5,8.5 C 65.5,8.5 66.5,8.5 67.5,8.5C 67.6854,10.1958 68.5187,11.5291 70,12.5C 70.499,16.8206 70.6657,21.1539 70.5,25.5C 69.8333,21.5 69.1667,17.5 68.5,13.5C 67.1667,11.8333 65.8333,10.1667 64.5,8.5 Z"/></g>
<g><path style="opacity:1" fill="#65b6d7" d="M 67.5,8.5 C 69.2292,9.11746 70.7292,10.1175 72,11.5C 72.6667,16.8333 72.6667,22.1667 72,27.5C 71.6174,28.056 71.1174,28.3893 70.5,28.5C 70.5,27.5 70.5,26.5 70.5,25.5C 70.6657,21.1539 70.499,16.8206 70,12.5C 68.5187,11.5291 67.6854,10.1958 67.5,8.5 Z"/></g>
<g><path style="opacity:1" fill="#59c6ef" d="M 26.5,13.5 C 29.4629,13.1507 31.7962,14.1507 33.5,16.5C 31.2825,17.0574 28.9491,17.0574 26.5,16.5C 26.3367,18.8568 26.5034,21.1902 27,23.5C 29.1987,23.6795 31.3654,23.6795 33.5,23.5C 31.2906,26.5657 28.4572,27.2323 25,25.5C 22.6603,21.0521 23.1603,17.0521 26.5,13.5 Z"/></g>
<g><path style="opacity:1" fill="#fafdfe" d="M 66.5,20.5 C 68.0319,23.9591 67.1985,26.9591 64,29.5C 60.8679,37.8603 59.7013,46.5269 60.5,55.5C 59.3529,60.1335 57.3529,64.4668 54.5,68.5C 52.1475,69.3403 50.1475,70.6736 48.5,72.5C 45.7965,72.9555 43.1298,73.6221 40.5,74.5C 37.8702,73.6221 35.2035,72.9555 32.5,72.5C 29.7291,70.233 27.0625,67.733 24.5,65C 31.6717,56.9956 39.0051,49.1623 46.5,41.5C 53.1667,34.5 59.8333,27.5 66.5,20.5 Z"/></g>
<g><path style="opacity:1" fill="#e4f5fc" d="M 41.5,28.5 C 43.5375,32.2613 45.2042,36.2613 46.5,40.5C 45.5,40.5 44.5,40.5 43.5,40.5C 43.5,39.5 43.5,38.5 43.5,37.5C 41.5,37.5 39.5,37.5 37.5,37.5C 37.5,38.5 37.5,39.5 37.5,40.5C 36.325,40.719 35.325,40.3857 34.5,39.5C 36.2378,35.951 37.5711,32.2843 38.5,28.5C 39.5,28.5 40.5,28.5 41.5,28.5 Z"/></g>
<g><path style="opacity:1" fill="#3abeed" d="M 38.5,27.5 C 39.791,27.2627 40.791,27.596 41.5,28.5C 40.5,28.5 39.5,28.5 38.5,28.5C 37.5711,32.2843 36.2378,35.951 34.5,39.5C 35.325,40.3857 36.325,40.719 37.5,40.5C 37.5,39.5 37.5,38.5 37.5,37.5C 39.5,37.5 41.5,37.5 43.5,37.5C 43.5,38.5 43.5,39.5 43.5,40.5C 44.5,40.5 45.5,40.5 46.5,40.5C 46.5,40.8333 46.5,41.1667 46.5,41.5C 39.0051,49.1623 31.6717,56.9956 24.5,65C 27.0625,67.733 29.7291,70.233 32.5,72.5C 29.5881,71.5711 26.9214,70.2378 24.5,68.5C 21.0732,63.0565 19.4066,57.0565 19.5,50.5C 19.2525,48.1417 19.9192,46.1417 21.5,44.5C 26.8063,38.5271 32.4729,32.8604 38.5,27.5 Z"/></g>
<g><path style="opacity:0.996" fill="#4496b5" d="M 31.5,4.5 C 28.1165,4.66037 24.7831,4.32704 21.5,3.5C 19.5061,4.82722 17.8394,6.49389 16.5,8.5C 14.2453,9.2147 12.4119,10.548 11,12.5C 10.3333,17.1667 10.3333,21.8333 11,26.5C 12.0391,27.7101 13.2058,28.7101 14.5,29.5C 16.7436,39.3626 18.2436,49.3626 19,59.5C 19.8428,63.2004 21.6761,66.2004 24.5,68.5C 25.6005,69.6049 26.2671,70.9382 26.5,72.5C 21.4249,69.7297 18.2582,65.3963 17,59.5C 16.1296,52.1855 15.463,44.8522 15,37.5C 14.0043,33.4994 12.0043,30.1661 9,27.5C 8.33333,22.1667 8.33333,16.8333 9,11.5C 12.7988,8.70307 16.2988,5.53641 19.5,2C 23.7082,2.13224 27.7082,2.96557 31.5,4.5 Z"/></g>
<g><path style="opacity:1" fill="#28728d" d="M 69.5,28.5 C 66.3274,35.5905 64.6608,42.9239 64.5,50.5C 64.5,46.8333 64.5,43.1667 64.5,39.5C 64.5751,36.7938 64.9084,34.1272 65.5,31.5C 66.2362,29.7706 67.5695,28.7706 69.5,28.5 Z"/></g>
<g><path style="opacity:1" fill="#d9f2fb" d="M 65.5,31.5 C 64.9084,34.1272 64.5751,36.7938 64.5,39.5C 63.6753,43.6472 63.1753,47.9805 63,52.5C 62.3333,47.1667 62.3333,41.8333 63,36.5C 63.3736,34.5087 64.207,32.842 65.5,31.5 Z"/></g>
<g><path style="opacity:1" fill="#3cbfed" d="M 49.5,45.5 C 52.5719,45.1826 55.5719,45.5159 58.5,46.5C 57.675,47.3857 56.675,47.719 55.5,47.5C 54.8333,60.8333 54.1667,60.8333 53.5,47.5C 51.5168,47.8432 50.1834,47.1765 49.5,45.5 Z"/></g>
<g><path style="opacity:1" fill="#7dd3f3" d="M 17.5,31.5 C 19.3148,35.7788 20.6482,40.1121 21.5,44.5C 19.9192,46.1417 19.2525,48.1417 19.5,50.5C 18.9682,44.5392 17.9682,38.5392 16.5,32.5C 16.6236,31.8933 16.9569,31.56 17.5,31.5 Z"/></g>
<g><path style="opacity:1" fill="#78d0f2" d="M 68.5,13.5 C 69.1667,17.5 69.8333,21.5 70.5,25.5C 70.5,26.5 70.5,27.5 70.5,28.5C 70.1667,28.5 69.8333,28.5 69.5,28.5C 67.5695,28.7706 66.2362,29.7706 65.5,31.5C 64.207,32.842 63.3736,34.5087 63,36.5C 62.3333,41.8333 62.3333,47.1667 63,52.5C 63.1753,47.9805 63.6753,43.6472 64.5,39.5C 64.5,43.1667 64.5,46.8333 64.5,50.5C 64.5,51.8333 64.5,53.1667 64.5,54.5C 63.8333,55.1667 63.1667,55.8333 62.5,56.5C 62.6495,55.448 62.4828,54.448 62,53.5C 61.8413,55.3427 61.3413,56.0093 60.5,55.5C 59.7013,46.5269 60.8679,37.8603 64,29.5C 67.1985,26.9591 68.0319,23.9591 66.5,20.5C 68.1675,18.5214 68.8342,16.188 68.5,13.5 Z"/></g>
<g><path style="opacity:1" fill="#c8ecfa" d="M 14.5,29.5 C 15.3957,30.5063 16.0623,30.5063 16.5,29.5C 17.3382,29.8417 17.6716,30.5084 17.5,31.5C 16.9569,31.56 16.6236,31.8933 16.5,32.5C 17.9682,38.5392 18.9682,44.5392 19.5,50.5C 19.4066,57.0565 21.0732,63.0565 24.5,68.5C 21.6761,66.2004 19.8428,63.2004 19,59.5C 18.2436,49.3626 16.7436,39.3626 14.5,29.5 Z"/></g>
<g><path style="opacity:0.643" fill="#3487a6" d="M 64.5,54.5 C 63.6187,66.7113 57.2853,74.378 45.5,77.5C 50.3182,74.47 54.8182,70.8034 59,66.5C 60.8681,63.3949 62.0348,60.0615 62.5,56.5C 63.1667,55.8333 63.8333,55.1667 64.5,54.5 Z"/></g>
<g><path style="opacity:0.988" fill="#3591b2" d="M 26.5,72.5 C 30.578,73.7019 34.578,75.2019 38.5,77C 39.7383,77.69 39.7383,78.19 38.5,78.5C 33.7478,77.8168 29.7478,75.8168 26.5,72.5 Z"/></g>
<g><path style="opacity:1" fill="#9ed8ef" d="M 62.5,56.5 C 62.0348,60.0615 60.8681,63.3949 59,66.5C 54.8182,70.8034 50.3182,74.47 45.5,77.5C 44.5,78.1667 43.5,78.8333 42.5,79.5C 41.1667,79.5 39.8333,79.5 38.5,79.5C 38.5,79.1667 38.5,78.8333 38.5,78.5C 39.7383,78.19 39.7383,77.69 38.5,77C 34.578,75.2019 30.578,73.7019 26.5,72.5C 26.2671,70.9382 25.6005,69.6049 24.5,68.5C 26.9214,70.2378 29.5881,71.5711 32.5,72.5C 35.2035,72.9555 37.8702,73.6221 40.5,74.5C 43.1298,73.6221 45.7965,72.9555 48.5,72.5C 51.1979,72.1551 53.1979,70.8218 54.5,68.5C 57.3529,64.4668 59.3529,60.1335 60.5,55.5C 61.3413,56.0093 61.8413,55.3427 62,53.5C 62.4828,54.448 62.6495,55.448 62.5,56.5 Z"/></g>
<g><path style="opacity:1" fill="#5dc9f0" d="M 54.5,68.5 C 53.1979,70.8218 51.1979,72.1551 48.5,72.5C 50.1475,70.6736 52.1475,69.3403 54.5,68.5 Z"/></g>
</svg>
