<?xml version="1.0" encoding="UTF-8"?>
<!DOCTYPE svg PUBLIC "-//W3C//DTD SVG 1.1//EN" "http://www.w3.org/Graphics/SVG/1.1/DTD/svg11.dtd">
<svg xmlns="http://www.w3.org/2000/svg" version="1.1" width="80px" height="80px" style="shape-rendering:geometricPrecision; text-rendering:geometricPrecision; image-rendering:optimizeQuality; fill-rule:evenodd; clip-rule:evenodd" xmlns:xlink="http://www.w3.org/1999/xlink">
<g><path style="opacity:0.965" fill="#614f91" d="M 69.5,5.5 C 69.2178,6.77765 68.5511,7.77765 67.5,8.5C 57.9589,12.8626 48.9589,11.8626 40.5,5.5C 38.739,6.03514 37.4057,7.03514 36.5,8.5C 32.5963,9.74901 28.5963,10.749 24.5,11.5C 20.6983,10.8752 17.0316,9.8752 13.5,8.5C 12.4489,7.77765 11.7822,6.77765 11.5,5.5C 21.5818,11.3068 31.2485,10.6401 40.5,3.5C 49.73,10.5898 59.3966,11.2565 69.5,5.5 Z"/></g>
<g><path style="opacity:1" fill="#beb7d2" d="M 13.5,8.5 C 17.0316,9.8752 20.6983,10.8752 24.5,11.5C 28.5963,10.749 32.5963,9.74901 36.5,8.5C 34.388,10.2055 32.0547,11.5389 29.5,12.5C 23.9764,13.1017 18.8098,12.1017 14,9.5C 13.5001,21.4954 13.3335,33.4954 13.5,45.5C 12.1912,34.3759 12.1912,22.0426 13.5,8.5 Z"/></g>
<g><path style="opacity:1" fill="#2e176e" d="M 29.5,12.5 C 30.4916,12.3284 31.1583,12.6618 31.5,13.5C 31.5,13.8333 31.5,14.1667 31.5,14.5C 30.1472,16.1284 30.4805,17.4617 32.5,18.5C 33.2625,19.2679 34.2625,19.7679 35.5,20C 34.3511,22.4592 34.3511,24.9592 35.5,27.5C 35.5,42.5 35.5,57.5 35.5,72.5C 34.5,72.5 33.5,72.5 32.5,72.5C 31.1667,71.0665 29.6667,69.7332 28,68.5C 27.8311,54.6605 27.3311,40.9939 26.5,27.5C 23.8333,27.5 21.1667,27.5 18.5,27.5C 17.6701,36.6577 17.1701,45.991 17,55.5C 16.1529,53.1457 15.3195,50.8123 14.5,48.5C 14.7373,47.209 14.404,46.209 13.5,45.5C 13.3335,33.4954 13.5001,21.4954 14,9.5C 18.8098,12.1017 23.9764,13.1017 29.5,12.5 Z"/></g>
<g><path style="opacity:1" fill="#30196f" d="M 67.5,45.5 C 66.596,46.209 66.2627,47.209 66.5,48.5C 65.6805,50.8123 64.8471,53.1457 64,55.5C 63.8299,45.991 63.3299,36.6577 62.5,27.5C 59.8333,27.5 57.1667,27.5 54.5,27.5C 53.6689,40.9939 53.1689,54.6605 53,68.5C 51.3333,69.7332 49.8333,71.0665 48.5,72.5C 47.5,72.5 46.5,72.5 45.5,72.5C 45.8294,57.324 45.4961,42.324 44.5,27.5C 41.8333,27.5 39.1667,27.5 36.5,27.5C 36.1667,27.5 35.8333,27.5 35.5,27.5C 34.3511,24.9592 34.3511,22.4592 35.5,20C 34.2625,19.7679 33.2625,19.2679 32.5,18.5C 33.3764,18.6309 34.0431,18.2975 34.5,17.5C 33.0065,16.8589 32.0065,15.8589 31.5,14.5C 32.7666,15.087 33.7666,15.087 34.5,14.5C 33.675,13.6143 32.675,13.281 31.5,13.5C 31.1583,12.6618 30.4916,12.3284 29.5,12.5C 32.0547,11.5389 34.388,10.2055 36.5,8.5C 37.6948,8.32246 38.8615,7.98913 40,7.5C 48.6971,13.2047 57.6971,13.8713 67,9.5C 67.4999,21.4954 67.6665,33.4954 67.5,45.5 Z"/></g>
<g><path style="opacity:1" fill="#b4abcb" d="M 46.5,13.5 C 47.8333,13.5 49.1667,13.5 50.5,13.5C 50.5,15.1667 50.5,16.8333 50.5,18.5C 49.1667,18.5 47.8333,18.5 46.5,18.5C 46.5,16.8333 46.5,15.1667 46.5,13.5 Z"/></g>
<g><path style="opacity:1" fill="#a499c0" d="M 31.5,14.5 C 31.5,14.1667 31.5,13.8333 31.5,13.5C 32.675,13.281 33.675,13.6143 34.5,14.5C 33.7666,15.087 32.7666,15.087 31.5,14.5 Z"/></g>
<g><path style="opacity:1" fill="#bfb8d2" d="M 67.5,8.5 C 68.8088,22.0426 68.8088,34.3759 67.5,45.5C 67.6665,33.4954 67.4999,21.4954 67,9.5C 57.6971,13.8713 48.6971,13.2047 40,7.5C 38.8615,7.98913 37.6948,8.32246 36.5,8.5C 37.4057,7.03514 38.739,6.03514 40.5,5.5C 48.9589,11.8626 57.9589,12.8626 67.5,8.5 Z"/></g>
<g><path style="opacity:1" fill="#a195be" d="M 31.5,14.5 C 32.0065,15.8589 33.0065,16.8589 34.5,17.5C 34.0431,18.2975 33.3764,18.6309 32.5,18.5C 30.4805,17.4617 30.1472,16.1284 31.5,14.5 Z"/></g>
<g><path style="opacity:1" fill="#b8b0cd" d="M 36.5,13.5 C 37.1031,15.1897 38.1031,16.6897 39.5,18C 38.552,18.4828 37.552,18.6495 36.5,18.5C 36.5,16.8333 36.5,15.1667 36.5,13.5 Z"/></g>
<g><path style="opacity:1" fill="#988db8" d="M 40.5,13.5 C 42.045,14.2297 42.8784,15.563 43,17.5C 44.3141,12.1655 44.9808,12.1655 45,17.5C 41.3307,19.0093 39.8307,17.6759 40.5,13.5 Z"/></g>
<g><path style="opacity:1" fill="#9386b4" d="M 19.5,21.5 C 20.6009,20.4017 21.9343,20.235 23.5,21C 22.9103,22.5095 22.2436,24.0095 21.5,25.5C 20.8281,24.0508 20.1614,22.7175 19.5,21.5 Z"/></g>
<g><path style="opacity:1" fill="#9d93bb" d="M 45.5,21.5 C 46.6009,20.4017 47.9343,20.235 49.5,21C 48.9103,22.5095 48.2436,24.0095 47.5,25.5C 46.8281,24.0508 46.1614,22.7175 45.5,21.5 Z"/></g>
<g><path style="opacity:1" fill="#bcb4d0" d="M 52.5,20.5 C 55.1526,21.1415 56.3193,22.8082 56,25.5C 54.6667,24.1667 53.3333,24.1667 52,25.5C 52.0187,23.8925 52.1854,22.2259 52.5,20.5 Z"/></g>
<g><path style="opacity:1" fill="#a99fc3" d="M 38.5,20.5 C 39.8734,20.3433 41.2068,20.51 42.5,21C 41.8333,21.3333 41.1667,21.6667 40.5,22C 41.9733,22.7096 42.6399,23.8762 42.5,25.5C 41.0222,25.762 39.6888,25.4287 38.5,24.5C 39.3629,23.2736 39.3629,21.9403 38.5,20.5 Z"/></g>
<g><path style="opacity:1" fill="#cfcadd" d="M 59.5,20.5 C 60.4584,20.9528 61.2917,21.6195 62,22.5C 62.3333,21.8333 62.6667,21.1667 63,20.5C 63.6667,22.1667 63.6667,23.8333 63,25.5C 61.6914,23.1088 60.6914,23.1088 60,25.5C 59.5065,23.8659 59.3398,22.1992 59.5,20.5 Z"/></g>
<g><path style="opacity:1" fill="#b2a9ca" d="M 26.5,20.5 C 27.8333,20.5 29.1667,20.5 30.5,20.5C 30.8072,22.4458 30.8072,24.1125 30.5,25.5C 29.5,24.1667 28.5,24.1667 27.5,25.5C 26.5481,23.9547 26.2148,22.288 26.5,20.5 Z"/></g>
<g><path style="opacity:1" fill="#fefefe" d="M 18.5,27.5 C 21.1667,27.5 23.8333,27.5 26.5,27.5C 26.5,41.1667 26.5,54.8333 26.5,68.5C 26.1667,68.5 25.8333,68.5 25.5,68.5C 22.4534,65.4552 19.7867,62.1219 17.5,58.5C 18.475,48.2487 18.8083,37.9154 18.5,27.5 Z"/></g>
<g><path style="opacity:1" fill="#9488b5" d="M 35.5,27.5 C 35.8333,27.5 36.1667,27.5 36.5,27.5C 36.8171,43.2444 36.4838,58.911 35.5,74.5C 34.2905,74.0679 33.2905,73.4013 32.5,72.5C 33.5,72.5 34.5,72.5 35.5,72.5C 35.5,57.5 35.5,42.5 35.5,27.5 Z"/></g>
<g><path style="opacity:1" fill="#f2f0f6" d="M 36.5,27.5 C 39.1667,27.5 41.8333,27.5 44.5,27.5C 44.1829,43.2444 44.5162,58.911 45.5,74.5C 42.1328,75.7475 38.7995,75.7475 35.5,74.5C 36.4838,58.911 36.8171,43.2444 36.5,27.5 Z"/></g>
<g><path style="opacity:1" fill="#978cb7" d="M 44.5,27.5 C 45.4961,42.324 45.8294,57.324 45.5,72.5C 46.5,72.5 47.5,72.5 48.5,72.5C 47.7095,73.4013 46.7095,74.0679 45.5,74.5C 44.5162,58.911 44.1829,43.2444 44.5,27.5 Z"/></g>
<g><path style="opacity:1" fill="#fdfdfe" d="M 54.5,27.5 C 57.1667,27.5 59.8333,27.5 62.5,27.5C 62.1917,37.9154 62.525,48.2487 63.5,58.5C 62.2213,61.1117 60.5547,63.4451 58.5,65.5C 57.7377,67.2624 56.4044,68.2624 54.5,68.5C 54.5,54.8333 54.5,41.1667 54.5,27.5 Z"/></g>
<g><path style="opacity:1" fill="#c8c2d9" d="M 62.5,27.5 C 63.3299,36.6577 63.8299,45.991 64,55.5C 64.8471,53.1457 65.6805,50.8123 66.5,48.5C 67.1786,52.1492 66.1786,55.4825 63.5,58.5C 62.525,48.2487 62.1917,37.9154 62.5,27.5 Z"/></g>
<g><path style="opacity:1" fill="#72609c" d="M 39.5,38.5 C 41.9076,39.3148 42.7409,40.9814 42,43.5C 41,42.1667 40,42.1667 39,43.5C 38.6155,41.8034 38.7822,40.1368 39.5,38.5 Z"/></g>
<g><path style="opacity:1" fill="#c6c0d7" d="M 18.5,27.5 C 18.8083,37.9154 18.475,48.2487 17.5,58.5C 14.8214,55.4825 13.8214,52.1492 14.5,48.5C 15.3195,50.8123 16.1529,53.1457 17,55.5C 17.1701,45.991 17.6701,36.6577 18.5,27.5 Z"/></g>
<g><path style="opacity:1" fill="#6a5797" d="M 38.5,47.5 C 39.8333,47.5 41.1667,47.5 42.5,47.5C 42.6495,48.552 42.4828,49.552 42,50.5C 41.3333,51.8333 40.6667,51.8333 40,50.5C 39.6667,51.1667 39.3333,51.8333 39,52.5C 38.5065,50.8659 38.3398,49.1992 38.5,47.5 Z"/></g>
<g><path style="opacity:0.604" fill="#8c7eaf" d="M 11.5,5.5 C 11.7822,6.77765 12.4489,7.77765 13.5,8.5C 12.1912,22.0426 12.1912,34.3759 13.5,45.5C 14.404,46.209 14.7373,47.209 14.5,48.5C 13.8214,52.1492 14.8214,55.4825 17.5,58.5C 19.7867,62.1219 22.4534,65.4552 25.5,68.5C 24.8333,68.5 24.5,68.8333 24.5,69.5C 18.3575,64.5701 14.1908,58.2368 12,50.5C 10.9174,42.2167 10.4174,33.8833 10.5,25.5C 10.5004,18.6581 10.8337,11.9914 11.5,5.5 Z"/></g>
<g><path style="opacity:1" fill="#9689b6" d="M 38.5,56.5 C 39.8333,56.5 41.1667,56.5 42.5,56.5C 42.5,58.5 42.5,60.5 42.5,62.5C 41.1667,62.5 39.8333,62.5 38.5,62.5C 38.5,60.5 38.5,58.5 38.5,56.5 Z"/></g>
<g><path style="opacity:0.514" fill="#8c7eaf" d="M 69.5,5.5 C 70.6604,18.6603 70.827,31.9936 70,45.5C 68.5903,53.6529 65.0903,60.6529 59.5,66.5C 59.5,65.8333 59.1667,65.5 58.5,65.5C 60.5547,63.4451 62.2213,61.1117 63.5,58.5C 66.1786,55.4825 67.1786,52.1492 66.5,48.5C 66.2627,47.209 66.596,46.209 67.5,45.5C 68.8088,34.3759 68.8088,22.0426 67.5,8.5C 68.5511,7.77765 69.2178,6.77765 69.5,5.5 Z"/></g>
<g><path style="opacity:1" fill="#705f9b" d="M 39.5,69.5 C 39.5858,68.5041 39.2524,67.6708 38.5,67C 41.9669,66.6911 42.3002,67.5244 39.5,69.5 Z"/></g>
<g><path style="opacity:1" fill="#a49ac0" d="M 26.5,27.5 C 27.3311,40.9939 27.8311,54.6605 28,68.5C 29.6667,69.7332 31.1667,71.0665 32.5,72.5C 29.8021,72.1551 27.8021,70.8218 26.5,68.5C 26.5,54.8333 26.5,41.1667 26.5,27.5 Z"/></g>
<g><path style="opacity:1" fill="#a69bc1" d="M 54.5,27.5 C 54.5,41.1667 54.5,54.8333 54.5,68.5C 53.1979,70.8218 51.1979,72.1551 48.5,72.5C 49.8333,71.0665 51.3333,69.7332 53,68.5C 53.1689,54.6605 53.6689,40.9939 54.5,27.5 Z"/></g>
<g><path style="opacity:0.271" fill="#675696" d="M 58.5,65.5 C 59.1667,65.5 59.5,65.8333 59.5,66.5C 48.6886,79.4714 37.0219,80.4714 24.5,69.5C 24.5,68.8333 24.8333,68.5 25.5,68.5C 25.8333,68.5 26.1667,68.5 26.5,68.5C 27.8021,70.8218 29.8021,72.1551 32.5,72.5C 33.2905,73.4013 34.2905,74.0679 35.5,74.5C 38.7995,75.7475 42.1328,75.7475 45.5,74.5C 46.7095,74.0679 47.7095,73.4013 48.5,72.5C 51.1979,72.1551 53.1979,70.8218 54.5,68.5C 56.4044,68.2624 57.7377,67.2624 58.5,65.5 Z"/></g>
<g><path style="opacity:1" fill="#6c5b99" d="M 39.5,69.5 C 40.2625,70.2679 41.2625,70.7679 42.5,71C 41.0563,71.7805 39.723,71.6139 38.5,70.5C 38.6236,69.8933 38.9569,69.56 39.5,69.5 Z"/></g>
</svg>
